<svg id="Group_320" data-name="Group 320" xmlns="http://www.w3.org/2000/svg" xmlns:xlink="http://www.w3.org/1999/xlink" width="191.512" height="240.73" viewBox="0 0 191.512 240.73">
  <defs>
    <clipPath id="clip-path">
      <rect id="Rectangle_115" data-name="Rectangle 115" width="191.512" height="240.73" fill="none"/>
    </clipPath>
  </defs>
  <g id="Group_319" data-name="Group 319" clip-path="url(#clip-path)">
    <path id="Path_1075" data-name="Path 1075" d="M181.295.269V20.812h-8.454V0H18.591V20.812H10.218V.269H0V240.73H10.218v-79.8h8.373v18.684h154.25V160.934h8.454v79.8h10.218V.269ZM18.591,151.752H10.218V95.464h8.373Zm0-65.47H10.218V29.994h8.373ZM162.25,169.976H115.974c3.749-1.56,4.34-4.6,4.34-9.05v-5.879l-7.775,1.349v.5c0,2.366-.167,3.894-3.278,4.584l-27.888,4.847-10.129,1.758-10.87,1.89H29.182V9.642H52.624a23.588,23.588,0,0,0-.2,3.331v8.3c0,5.414.866,8.605,7.259,9.852l17.635,3.065,25.636-5.566L63.486,21.55c-3.038-.679-3.274-2.153-3.282-4.425s.244-3.75,3.282-4.425L80.537,9.642h23.244l-11.117,2L128.03,17.79c3.111.693,3.282,2.22,3.282,4.583v.477c0,2.366-.224,3.972-3.334,4.663L78.4,38.2c-6.392,1.246-7.258,4.44-7.258,9.854v5.2l7.778-1.371c.033-2.093.386-3.461,3.279-4.1l49.573-10.965c4.6-.8,6.319-2.772,6.93-5.827a16.054,16.054,0,0,0,.378-3.872V18.346c0-4.14-.516-7.061-3.608-8.7H162.25Zm19.045-18.224h-8.454V95.464h8.454Zm0-65.47h-8.454V29.994h8.454Z" fill="#002732"/>
    <path id="Path_1076" data-name="Path 1076" d="M84.326,114.587l17.635,3.065,25.636-5.566L88.124,105.01c-3.038-.679-3.274-2.153-3.282-4.425s.244-3.75,3.282-4.425l17.344-3.109,17-3.048,11.577-2.077,3.653-.655c6.389-1.109,7.255-4.446,7.255-9.86V71.531l-7.775,1.349v.5c0,2.366-.167,3.894-3.278,4.584l-27.888,4.847L95.882,84.571,84.326,86.58c-3.231.63-5.044,1.761-6.053,3.422-.988,1.624-1.205,3.755-1.205,6.432v8.3c0,5.415.866,8.606,7.259,9.852" transform="translate(-24.638 -27.802)" fill="#002732"/>
    <path id="Path_1077" data-name="Path 1077" d="M165.265,103.689l-10.843-1.945-28.325,5.1,35.365,6.146c3.111.693,3.282,2.22,3.282,4.583v.477c0,2.366-.224,3.972-3.335,4.663l-49.573,10.69c-6.393,1.246-7.259,4.44-7.259,9.854v5.2l7.779-1.371c.033-2.093.386-3.461,3.279-4.1l49.573-10.965c4.6-.8,6.319-2.772,6.93-5.827a16.055,16.055,0,0,0,.378-3.872v-8.772c0-5.414-.866-8.752-7.251-9.86" transform="translate(-33.433 -39.544)" fill="#002732"/>
    <path id="Path_1078" data-name="Path 1078" d="M127.6,203.131l-39.473-7.076c-3.038-.679-3.274-2.153-3.282-4.425s.244-3.75,3.282-4.425l17.344-3.109,17-3.048,11.577-2.077,3.653-.655c6.389-1.109,7.255-4.446,7.255-9.86v-5.879l-7.775,1.349v.5c0,2.366-.167,3.894-3.278,4.584l-27.888,4.847-10.129,1.758-11.556,2.009c-3.231.63-5.044,1.761-6.054,3.422-.987,1.624-1.2,3.755-1.2,6.432v8.3c0,5.415.866,8.606,7.259,9.852l17.635,3.065Z" transform="translate(-24.638 -63.188)" fill="#002732"/>
    <path id="Path_1079" data-name="Path 1079" d="M165.265,194.734l-10.843-1.945-28.325,5.1,35.365,6.146c3.111.693,3.282,2.22,3.282,4.583v.477c0,2.366-.224,3.972-3.335,4.663l-49.573,10.69c-6.393,1.246-7.259,4.44-7.259,9.854v5.2l7.779-1.371c.033-2.093.386-3.461,3.279-4.1l49.573-10.965c4.6-.8,6.319-2.772,6.93-5.827a16.055,16.055,0,0,0,.378-3.872v-8.772c0-5.414-.866-8.752-7.251-9.86" transform="translate(-33.433 -74.931)" fill="#002732"/>
  </g>
</svg>
