<svg id="Group_316" data-name="Group 316" xmlns="http://www.w3.org/2000/svg" xmlns:xlink="http://www.w3.org/1999/xlink" width="191.512" height="220.848" viewBox="0 0 191.512 220.848">
  <defs>
    <clipPath id="clip-path">
      <rect id="Rectangle_113" data-name="Rectangle 113" width="191.512" height="220.848" fill="none"/>
    </clipPath>
  </defs>
  <g id="Group_315" data-name="Group 315" clip-path="url(#clip-path)">
    <path id="Path_942" data-name="Path 942" d="M155.246,0,118.98,47.9V62.315H59.49L0,99.627V220.848H72.533V186.241a23.224,23.224,0,0,1,46.447,0v34.608h72.533V47.9ZM97.678,110.622c1.041,0,1.683.137,1.9,1.151l.126.58.4,1.838.586,2.7.6,2.753c.13.482.414.52.851.521s.721-.039.852-.521l1.361-6.266,1.07,4.07-.59,2.8c-.24,1.015-.853,1.152-1.894,1.152h-1.6a2.819,2.819,0,0,1-1.237-.191,1.3,1.3,0,0,1-.658-.961l-.386-1.834-.339-1.609-.932-4.427c-.133-.494-.426-.521-.881-.521h-.1l-.259-1.234Zm-7.909-1.829c.213-1.013.855-1.151,1.9-1.151h1.687a3.734,3.734,0,0,1,.745.06,1.226,1.226,0,0,1,1.12,1.1l2.109,7.87c.124.46.386.516.789.521l.264,1.235h-1c-1.041,0-1.655-.137-1.9-1.152l-2.056-7.87c-.133-.494-.441-.53-.9-.53H92.44c-.455,0-.748.027-.882.521l-1.181,5.615-.982-4.5Zm-2.8,1.829c1.041,0,1.683.137,1.9,1.151l.126.58.4,1.838.586,2.7.6,2.753c.13.482.413.52.851.521s.721-.039.852-.521l1.36-6.266,1.071,4.07-.59,2.8c-.24,1.015-.853,1.152-1.894,1.152h-1.6a2.816,2.816,0,0,1-1.237-.191,1.3,1.3,0,0,1-.658-.961l-.386-1.834-.339-1.609-.932-4.427c-.133-.494-.426-.521-.881-.521h-.1l-.259-1.234Zm-7.909-1.829c.213-1.013.855-1.151,1.9-1.151h1.687a3.74,3.74,0,0,1,.745.06,1.226,1.226,0,0,1,1.12,1.1l2.108,7.87c.124.46.387.516.79.521l.264,1.235h-1c-1.041,0-1.655-.137-1.9-1.152l-2.056-7.87c-.133-.494-.441-.53-.9-.53h-.092c-.455,0-.748.027-.882.521l-1.181,5.615-.982-4.5Zm-2.8,1.829c1.042,0,1.684.137,1.9,1.151l.126.58.4,1.838.586,2.7.6,2.753c.13.482.413.52.851.521s.721-.039.852-.521l1.36-6.266,1.071,4.07-.59,2.8c-.24,1.015-.853,1.152-1.894,1.152h-1.6a2.816,2.816,0,0,1-1.237-.191,1.3,1.3,0,0,1-.658-.961l-.386-1.834-.339-1.609-.932-4.427c-.133-.494-.426-.521-.882-.521h-.1l-.259-1.234Zm-7.908-1.829c.213-1.013.854-1.151,1.9-1.151h1.686a3.743,3.743,0,0,1,.745.06,1.226,1.226,0,0,1,1.12,1.1l2.108,7.87c.124.46.387.516.79.521l.264,1.235h-1c-1.041,0-1.655-.137-1.9-1.152l-2.056-7.87c-.133-.494-.441-.53-.9-.53h-.091c-.455,0-.748.027-.882.521l-1.181,5.615-.982-4.5Zm-2.8,1.829c1.042,0,1.683.137,1.9,1.151l.126.58.4,1.838.587,2.7.6,2.753c.13.482.413.52.851.521s.721-.039.851-.521l1.361-6.266,1.071,4.07-.59,2.8c-.24,1.015-.853,1.152-1.894,1.152h-1.6a2.821,2.821,0,0,1-1.237-.191,1.3,1.3,0,0,1-.658-.961l-.386-1.834L66.6,116.8l-.932-4.427c-.133-.494-.426-.521-.882-.521h-.1l-.259-1.234Zm-7.909-1.829c.213-1.013.855-1.151,1.9-1.151H61.24a3.728,3.728,0,0,1,.745.06,1.226,1.226,0,0,1,1.121,1.1l2.108,7.87c.124.46.386.516.79.521l.264,1.235h-1c-1.042,0-1.655-.137-1.9-1.152l-2.056-7.87c-.133-.494-.441-.53-.9-.53h-.091c-.455,0-.748.027-.882.521l-1.182,5.615-.982-4.5Zm-2.8,1.829c1.042,0,1.683.137,1.9,1.151l.126.58.4,1.838.586,2.7.6,2.753c.129.482.413.52.851.521s.721-.039.851-.521l1.361-6.266,1.07,4.07-.589,2.8c-.24,1.015-.853,1.152-1.894,1.152h-1.6a2.821,2.821,0,0,1-1.237-.191,1.3,1.3,0,0,1-.658-.961l-.386-1.834L55.9,116.8l-.932-4.427c-.133-.494-.426-.521-.882-.521h-.1l-.259-1.234Zm-7.909-1.829c.213-1.013.855-1.151,1.9-1.151h1.686a3.728,3.728,0,0,1,.745.06,1.225,1.225,0,0,1,1.12,1.1l2.109,7.87c.124.46.386.516.789.521l.264,1.235h-1c-1.042,0-1.655-.137-1.9-1.152l-2.056-7.87c-.133-.494-.441-.53-.9-.53h-.092c-.455,0-.748.027-.881.521l-1.182,5.615-.982-4.5Zm-2.8,1.829c1.041,0,1.683.137,1.9,1.151l.126.58.4,1.838.586,2.7.6,2.753c.13.482.414.52.852.521s.721-.039.851-.521l1.361-6.266,1.07,4.07-.589,2.8c-.24,1.015-.853,1.152-1.9,1.152h-1.6a2.819,2.819,0,0,1-1.237-.191,1.3,1.3,0,0,1-.658-.961l-.386-1.834L45.2,116.8l-.932-4.427c-.133-.494-.426-.521-.882-.521h-.1l-.26-1.234Zm-7.909-1.829c.213-1.013.855-1.151,1.9-1.151h1.687a3.728,3.728,0,0,1,.745.06,1.225,1.225,0,0,1,1.12,1.1l2.109,7.87c.124.46.386.516.789.521l.264,1.235h-1c-1.042,0-1.655-.137-1.9-1.152l-2.056-7.87c-.133-.494-.441-.53-.9-.53h-.092c-.455,0-.748.027-.882.521l-1.181,5.615-.982-4.5Zm-2.8,1.829c1.041,0,1.683.137,1.9,1.151l.126.58.4,1.838.586,2.7.6,2.753c.13.482.414.52.852.521s.72-.039.851-.521l1.361-6.266,1.07,4.07-.589,2.8c-.24,1.015-.853,1.152-1.9,1.152h-1.6a2.819,2.819,0,0,1-1.237-.191,1.3,1.3,0,0,1-.658-.961l-.386-1.834-.338-1.609-.932-4.427c-.133-.494-.426-.521-.882-.521h-.1l-.26-1.234Zm-7.909-1.829c.213-1.013.855-1.151,1.9-1.151h1.687a3.734,3.734,0,0,1,.745.06,1.225,1.225,0,0,1,1.12,1.1l2.109,7.87c.124.46.386.516.789.521l.264,1.235h-1c-1.041,0-1.655-.137-1.894-1.152l-2.056-7.87c-.133-.494-.442-.53-.9-.53h-.092c-.455,0-.748.027-.882.521l-1.181,5.615-.982-4.5Zm-2.8,1.829c1.041,0,1.683.137,1.9,1.151l.126.58.4,1.838.586,2.7.6,2.753c.13.482.414.52.851.521s.721-.039.852-.521l1.361-6.266,1.07,4.07-.59,2.8c-.24,1.015-.852,1.152-1.894,1.152h-1.6a2.819,2.819,0,0,1-1.237-.191,1.3,1.3,0,0,1-.658-.961l-.386-1.834-.338-1.609-.933-4.427c-.133-.494-.426-.521-.881-.521h-.1l-.259-1.234Zm-7.909-1.829c.213-1.013.855-1.151,1.9-1.151h1.687a3.734,3.734,0,0,1,.745.06,1.226,1.226,0,0,1,1.12,1.1l2.109,7.87c.124.46.386.516.789.521l.264,1.235h-1c-1.041,0-1.655-.137-1.9-1.152l-2.055-7.87c-.133-.494-.442-.53-.9-.53h-.092c-.455,0-.748.027-.882.521l-1.181,5.615-.982-4.5Zm-.374,5.4.586,2.7.6,2.753c.13.482.414.52.851.521s.721-.039.852-.521l1.36-6.266,1.071,4.07-.59,2.8c-.24,1.015-.853,1.152-1.894,1.152H15.7a2.816,2.816,0,0,1-1.237-.191Zm0,22.078H85.959v2.818H14.466Zm0,27.893h34.2v2.818h-34.2Zm16.419,31.811h-17.3v-17.3h17.3Zm26.433,0H40.02v-17.3h17.3Zm10.669-35.965H14.465v-2.818H67.986Zm4.971-6.973H14.466v-2.818H72.957Zm28.53-6.973H14.466v-2.818h87.021Zm4.549-13.947H14.466V129.3h91.57Zm2.047-13.688c-1.041,0-1.655-.137-1.894-1.152l-2.056-7.87c-.133-.494-.442-.53-.9-.53h-.092c-.455,0-.748.027-.882.521l-1.181,5.615-.982-4.5.374-1.721c.213-1.013.855-1.151,1.9-1.151h1.687a3.734,3.734,0,0,1,.745.06,1.226,1.226,0,0,1,1.12,1.1l2.109,7.87c.124.46.386.516.789.521l.264,1.235Zm7.449,1.819c-.24,1.015-.853,1.152-1.9,1.152h-1.6a2.819,2.819,0,0,1-1.237-.191,1.3,1.3,0,0,1-.658-.961l-.386-1.834-.338-1.609-.932-4.427c-.133-.494-.426-.521-.882-.521h-.1l-.26-1.234h1.131c1.041,0,1.683.137,1.9,1.151l.126.58.4,1.838.586,2.7.6,2.753c.13.482.414.52.852.521s.72-.039.851-.521l1.361-6.266,1.07,4.07Zm3.256-1.819c-1.042,0-1.655-.137-1.9-1.152l-2.056-7.87c-.133-.494-.442-.53-.9-.53h-.092c-.455,0-.748.027-.882.521l-1.181,5.615-.982-4.5.374-1.721c.213-1.013.855-1.151,1.9-1.151h1.687a3.734,3.734,0,0,1,.745.06,1.225,1.225,0,0,1,1.12,1.1l2.109,7.87c.124.46.386.516.789.521l.264,1.235Zm2.719,2.78a1.3,1.3,0,0,1-.658-.961l-.386-1.834-.338-1.609-.932-4.427c-.133-.494-.426-.521-.882-.521h-.1l-.26-1.234h1.131c1.041,0,1.683.137,1.9,1.151l.126.58.4,1.838Zm29.533,74.765h-17.3v-17.3h17.3Zm0-24.268h-17.3v-17.3h17.3Zm0-24.268h-17.3v-17.3h17.3Zm0-24.268h-17.3v-17.3h17.3Zm0-25.5h-17.3v-17.3h17.3Zm0-24.268h-17.3V56.1h17.3Zm26.432,122.572h-17.3v-17.3h17.3Zm0-24.268h-17.3v-17.3h17.3Zm0-24.268h-17.3v-17.3h17.3Zm0-24.268h-17.3v-17.3h17.3Zm0-25.5h-17.3v-17.3h17.3Zm0-24.268h-17.3V56.1h17.3Z" fill="#002732"/>
    <rect id="Rectangle_107" data-name="Rectangle 107" width="17.297" height="17.298" transform="translate(160.176 105.871)" fill="#e5481d"/>
    <rect id="Rectangle_108" data-name="Rectangle 108" width="17.297" height="17.298" transform="translate(13.588 178.675)" fill="#e5481d"/>
    <rect id="Rectangle_109" data-name="Rectangle 109" width="17.297" height="17.298" transform="translate(133.744 130.439)" fill="#e5481d"/>
    <rect id="Rectangle_110" data-name="Rectangle 110" width="17.297" height="17.298" transform="translate(160.176 178.675)" fill="#e5481d"/>
    <rect id="Rectangle_111" data-name="Rectangle 111" width="17.297" height="17.298" transform="translate(133.744 154.407)" fill="#e5481d"/>
    <rect id="Rectangle_112" data-name="Rectangle 112" width="17.297" height="17.298" transform="translate(133.744 56.103)" fill="#e5481d"/>
  </g>
</svg>
