<svg xmlns="http://www.w3.org/2000/svg" xmlns:xlink="http://www.w3.org/1999/xlink" width="192.512" height="164.15" viewBox="0 0 192.512 164.15">
  <defs>
    <clipPath id="clip-path">
      <rect id="Rectangle_114" data-name="Rectangle 114" width="94.426" height="94.456" fill="#002732" stroke="rgba(0,0,0,0)" stroke-width="1"/>
    </clipPath>
  </defs>
  <g id="Group_318" data-name="Group 318" transform="translate(0.5 0.5)">
    <g id="Group_317" data-name="Group 317" transform="translate(49.084 18.568)" clip-path="url(#clip-path)">
      <path id="Path_943" data-name="Path 943" d="M60.632,117.367q-.307,1.06-.64,2.118.248,1.592.56,3.19.75-2.366,1.375-4.743c.114-.36.319-.385.635-.379s.518.042.6.417q.194,1.067.412,2.136.214,1.046.451,2.093v-5.412a1.841,1.841,0,0,0-.869-.171c-.374-.012-.749-.013-1.122-.032-.729-.058-1.163.017-1.406.784" transform="translate(-16.854 -32.749)" fill="#002732" stroke="rgba(0,0,0,0)" stroke-width="1"/>
      <path id="Path_944" data-name="Path 944" d="M61.1,126.548c-.132.374-.395.4-.8.366l-.081-.006c-.4-.029-.674-.078-.761-.467-.446-2.064-.814-4.112-1.1-6.2-.092-.8-.529-.964-1.3-1.061l-.733-.132.036.974c.3.058.492.138.533.5q.352,3.1.946,6.239a1,1,0,0,0,.914.942,3.9,3.9,0,0,0,.667.1c.507.031,1.013.093,1.521.1.94.026,1.524-.067,1.718-.844l.331-1.32q-.423-1.745-.781-3.489-.51,2.153-1.117,4.3" transform="translate(-15.827 -33.445)" fill="#002732" stroke="rgba(0,0,0,0)" stroke-width="1"/>
      <path id="Path_945" data-name="Path 945" d="M53.663,121.11l.04,1.452.017.457c.026.8.553,1,1.436,1.158.318.064.642.091.963.136l-.088-.971-.081-.011c-.381-.043-.622-.111-.67-.507q-.112-1.754-.164-3.5l-.029-1.266-.014-1.44a1.011,1.011,0,0,0-.314-.812Z" transform="translate(-15.076 -32.536)" fill="#002732" stroke="rgba(0,0,0,0)" stroke-width="1"/>
      <path id="Path_946" data-name="Path 946" d="M49.953,115.412c-.345.651-.7,1.3-1.056,1.935-.061,1.091-.091,2.155-.106,3.243q1.218-2.166,2.313-4.368c.187-.333.388-.3.7-.237s.5.145.506.529q-.027,1.084-.03,2.173,0,1.068.017,2.14l1.1-5.3a1.825,1.825,0,0,0-.814-.341c-.362-.09-.731-.153-1.087-.262-.7-.2-1.141-.214-1.535.488" transform="translate(-13.708 -32.253)" fill="#002732" stroke="rgba(0,0,0,0)" stroke-width="1"/>
      <path id="Path_947" data-name="Path 947" d="M48.755,124.374c-.208.346-.467.3-.854.191l-.078-.022c-.388-.109-.645-.211-.651-.609q-.013-1.581.032-3.147.051-1.583.16-3.15c.076-.808-.326-1.035-1.052-1.308l-.692-.273-.164.959c.285.116.455.231.42.6-.2,2.092-.312,4.174-.352,6.3a1.018,1.018,0,0,0,.7,1.115,3.846,3.846,0,0,0,.635.229c.491.136.978.286,1.472.407.918.214,1.511.24,1.859-.482l.593-1.226q-.061-1.793-.059-3.573-.936,2.007-1.969,3.99" transform="translate(-12.77 -32.605)" fill="#002732" stroke="rgba(0,0,0,0)" stroke-width="1"/>
      <path id="Path_948" data-name="Path 948" d="M42.081,117.6l-.262,1.437-.078.455c-.138.787.338,1.089,1.173,1.418.3.12.6.239.912.338l.112-.967-.078-.027c-.36-.131-.581-.248-.549-.642q.248-1.738.554-3.453l.229-1.243.28-1.41a1.055,1.055,0,0,0-.137-.87Z" transform="translate(-11.72 -31.646)" fill="#002732" stroke="rgba(0,0,0,0)" stroke-width="1"/>
      <path id="Path_949" data-name="Path 949" d="M39.715,111.346q-.7.841-1.426,1.67c-.276,1.044-.542,2.113-.772,3.164q1.637-1.877,3.164-3.811c.252-.289.445-.222.725-.079s.459.24.389.617q-.247,1.053-.473,2.117-.221,1.043-.42,2.095l2.159-4.963a1.81,1.81,0,0,0-.731-.493l-.51-.229-.5-.257c-.647-.336-1.083-.426-1.606.17" transform="translate(-10.54 -31.159)" fill="#002732" stroke="rgba(0,0,0,0)" stroke-width="1"/>
      <path id="Path_950" data-name="Path 950" d="M36.546,119.731c-.27.29-.513.19-.872.006L35.6,119.7c-.359-.183-.59-.334-.516-.723.406-2.051.917-4.127,1.478-6.128.237-.772-.114-1.071-.76-1.5l-.628-.4-.354.9c.257.169.4.314.293.664-.629,2.014-1.168,4.038-1.635,6.1a1.04,1.04,0,0,0,.455,1.24,3.135,3.135,0,0,0,.574.354l1.359.7c.848.408,1.432.539,1.918-.094l.833-1.081q.306-1.765.672-3.5c-.885,1.181-1.8,2.359-2.745,3.5" transform="translate(-9.39 -31.169)" fill="#002732" stroke="rgba(0,0,0,0)" stroke-width="1"/>
      <path id="Path_951" data-name="Path 951" d="M31.45,111.922l-.547,1.351-.168.429a.972.972,0,0,0,.027.921,2.672,2.672,0,0,0,.827.71l.82.524.311-.93-.068-.044c-.323-.206-.521-.358-.408-.738q.6-1.646,1.243-3.259l.478-1.169.568-1.333a1.038,1.038,0,0,0,.043-.88Z" transform="translate(-8.606 -30.202)" fill="#002732" stroke="rgba(0,0,0,0)" stroke-width="1"/>
      <path id="Path_952" data-name="Path 952" d="M30.563,105.34q-.861.683-1.739,1.35-.724,1.45-1.4,2.942c1.309-.986,2.615-2.034,3.873-3.088.306-.233.483-.131.731.063s.388.346.246.7q-.455.979-.891,1.972-.426.973-.835,1.961l3.125-4.419a1.806,1.806,0,0,0-.623-.623c-.3-.222-.588-.46-.884-.689-.581-.443-.966-.648-1.6-.166" transform="translate(-7.705 -29.516)" fill="#002732" stroke="rgba(0,0,0,0)" stroke-width="1"/>
      <path id="Path_953" data-name="Path 953" d="M25.529,112.816c-.325.229-.543.085-.859-.164l-.064-.05c-.316-.251-.518-.437-.36-.81q1.255-2.926,2.691-5.7c.378-.7.127-1.094-.436-1.628l-.539-.516-.53.813c.22.214.334.383.157.7-1.007,1.826-1.976,3.733-2.84,5.645a1.025,1.025,0,0,0,.2,1.3,3.9,3.9,0,0,0,.48.475l1.2.945c.733.591,1.287.824,1.893.3l1.037-.892q.657-1.662,1.366-3.285c-1.115.987-2.239,1.931-3.393,2.862" transform="translate(-6.349 -29.203)" fill="#002732" stroke="rgba(0,0,0,0)" stroke-width="1"/>
      <path id="Path_954" data-name="Path 954" d="M22.229,104.316l-.806,1.209-.252.385c-.435.662-.152,1.163.5,1.775l.7.672.493-.846-.059-.056c-.278-.265-.443-.451-.257-.8.608-.991,1.232-1.969,1.882-2.945l.71-1.053.823-1.188a1.013,1.013,0,0,0,.215-.848Z" transform="translate(-5.889 -28.268)" fill="#002732" stroke="rgba(0,0,0,0)" stroke-width="1"/>
      <path id="Path_955" data-name="Path 955" d="M22.867,97.67q-.984.5-1.981.974-1,1.271-1.957,2.591c1.5-.713,2.949-1.443,4.408-2.233.348-.168.5-.033.71.2s.316.411.1.731c-.431.58-.865,1.173-1.28,1.759s-.812,1.159-1.21,1.747l3.955-3.7a2.13,2.13,0,0,0-.479-.741l-.733-.847c-.473-.557-.8-.841-1.533-.491" transform="translate(-5.318 -27.396)" fill="#002732" stroke="rgba(0,0,0,0)" stroke-width="1"/>
      <path id="Path_956" data-name="Path 956" d="M16.167,103.943c-.365.16-.552-.024-.815-.329l-.053-.062c-.255-.311-.4-.548-.175-.877,1.213-1.74,2.456-3.4,3.782-5.032.524-.614.348-1.047-.1-1.679-.15-.2-.273-.415-.41-.622l-.688.692c.159.263.239.451,0,.728q-2.033,2.377-3.925,4.954a1.009,1.009,0,0,0-.059,1.306,3.877,3.877,0,0,0,.38.558c.308.4.639.79.974,1.173.616.712,1.075,1.083,1.787.683l1.2-.666c.654-1,1.309-1.966,2-2.94q-1.918,1.094-3.9,2.113" transform="translate(-3.796 -26.786)" fill="#002732" stroke="rgba(0,0,0,0)" stroke-width="1"/>
      <path id="Path_957" data-name="Path 957" d="M14.793,95.108l-1.031,1.019-.323.325c-.567.564-.358,1.089.127,1.843l.562.794.651-.728-.047-.066c-.22-.314-.352-.523-.092-.832q1.207-1.28,2.448-2.509l.906-.885,1.043-.994a1,1,0,0,0,.378-.783Z" transform="translate(-3.68 -25.928)" fill="#002732" stroke="rgba(0,0,0,0)" stroke-width="1"/>
      <path id="Path_958" data-name="Path 958" d="M16.95,88.665c-.71.191-1.428.378-2.136.551-.834.7-1.636,1.405-2.44,2.136q2.414-.589,4.77-1.29c.368-.09.49.075.651.345s.232.464-.042.732q-.811.72-1.61,1.463c-.521.484-1.042.977-1.551,1.472l4.622-2.817a1.891,1.891,0,0,0-.308-.828c-.182-.325-.38-.642-.552-.974-.331-.651-.621-.982-1.4-.79" transform="translate(-3.476 -24.894)" fill="#002732" stroke="rgba(0,0,0,0)" stroke-width="1"/>
      <path id="Path_959" data-name="Path 959" d="M8.842,93.481c-.391.083-.544-.131-.724-.492l-.037-.073c-.184-.359-.285-.616,0-.892Q9.23,90.935,10.4,89.9c.791-.695,1.6-1.374,2.409-2.034.641-.5.534-.946.237-1.662l-.273-.693-.813.536c.109.287.142.49-.15.715-1.663,1.281-3.262,2.622-4.844,4.047a1.013,1.013,0,0,0-.335,1.273A3.9,3.9,0,0,0,6.9,92.7c.237.45.454.912.709,1.352.468.817.852,1.269,1.617,1.03l1.3-.406c.842-.843,1.7-1.673,2.571-2.481q-2.1.685-4.258,1.284" transform="translate(-1.838 -24.023)" fill="#002732" stroke="rgba(0,0,0,0)" stroke-width="1"/>
      <path id="Path_960" data-name="Path 960" d="M9.478,84.659l-1.229.791-.385.253c-.669.436-.566.991-.237,1.825.116.3.239.6.378.9l.783-.578-.033-.075c-.152-.352-.216-.594.093-.839q1.44-1.005,2.9-1.953l1.065-.681,1.221-.759a1.054,1.054,0,0,0,.542-.694Z" transform="translate(-2.071 -23.275)" fill="#002732" stroke="rgba(0,0,0,0)" stroke-width="1"/>
      <path id="Path_961" data-name="Path 961" d="M13.074,78.681q-1.094.061-2.192.1c-.956.512-1.911,1.046-2.837,1.594q2.488-.083,4.943-.29c.383-.014.465.174.553.475s.138.5-.185.705q-.938.538-1.87,1.1-.912.55-1.818,1.123l5.1-1.812a1.811,1.811,0,0,0-.138-.871l-.18-.529-.152-.538c-.2-.7-.423-1.083-1.222-1.057" transform="translate(-2.26 -22.104)" fill="#002732" stroke="rgba(0,0,0,0)" stroke-width="1"/>
      <path id="Path_962" data-name="Path 962" d="M3.877,81.848c-.4,0-.488-.245-.6-.633l-.022-.078c-.111-.388-.159-.66.177-.871,1.778-1.1,3.636-2.146,5.486-3.1.733-.354.7-.812.577-1.578l-.131-.733-.9.358c.05.3.042.508-.288.668-1.906.915-3.739,1.9-5.573,2.969a1.044,1.044,0,0,0-.6,1.18,3.578,3.578,0,0,0,.136.661l.418,1.469c.284.9.584,1.414,1.38,1.337l1.358-.13q1.5-.982,3.019-1.9c-1.468.16-2.953.291-4.436.387" transform="translate(-0.56 -21.028)" fill="#002732" stroke="rgba(0,0,0,0)" stroke-width="1"/>
      <path id="Path_963" data-name="Path 963" d="M6.5,73.417l-1.363.523-.429.169c-.761.292-.764.855-.607,1.738l.175.957.891-.407-.014-.08c-.068-.378-.091-.626.264-.8q1.611-.689,3.234-1.316l1.179-.448,1.356-.493a1.045,1.045,0,0,0,.676-.57Z" transform="translate(-1.13 -20.421)" fill="#002732" stroke="rgba(0,0,0,0)" stroke-width="1"/>
      <path id="Path_964" data-name="Path 964" d="M11.415,67.984q-1.084-.163-2.169-.35c-1.035.307-2.086.636-3.107.984q2.456.424,4.9.724c.378.065.422.265.446.579s.032.518-.331.654q-1.027.335-2.052.695Q8.1,71.622,7.1,72l5.363-.731a1.81,1.81,0,0,0,.037-.881c-.058-.369-.074-.743-.1-1.115-.052-.729-.2-1.148-.98-1.286" transform="translate(-1.725 -19.001)" fill="#002732" stroke="rgba(0,0,0,0)" stroke-width="1"/>
      <path id="Path_965" data-name="Path 965" d="M1.487,69.531c-.388-.081-.429-.339-.46-.741l-.006-.081c-.031-.4-.024-.677.348-.815,1.97-.718,4-1.36,6.006-1.922.785-.2.851-.654.884-1.431l.019-.746-.957.168c-.012.308-.06.507-.417.6-2.049.512-4.052,1.1-6.06,1.777a1.039,1.039,0,0,0-.822,1.032,2.9,2.9,0,0,0-.007.674l.116,1.52c.076.938.284,1.5,1.074,1.59l1.358.15q1.665-.655,3.339-1.243c-1.471-.143-2.959-.318-4.416-.528" transform="translate(0 -17.922)" fill="#002732" stroke="rgba(0,0,0,0)" stroke-width="1"/>
      <path id="Path_966" data-name="Path 966" d="M5.951,61.708l-1.44.237-.454.08c-.8.133-.922.683-.945,1.578l-.023.971.957-.218,0-.081c.009-.383.036-.631.42-.732q1.717-.348,3.432-.637l1.245-.2,1.429-.211a1.046,1.046,0,0,0,.777-.421Z" transform="translate(-0.868 -17.336)" fill="#002732" stroke="rgba(0,0,0,0)" stroke-width="1"/>
      <path id="Path_967" data-name="Path 967" d="M12,57.146q-1.029-.378-2.054-.779c-1.076.091-2.169.2-3.242.337q2.32.91,4.657,1.7c.357.139.36.344.321.657s-.073.513-.456.574q-1.073.122-2.15.267-1.055.143-2.111.309l5.4.365a1.82,1.82,0,0,0,.213-.856c.018-.374.077-.743.122-1.113.095-.724.032-1.165-.7-1.456" transform="translate(-1.884 -15.836)" fill="#002732" stroke="rgba(0,0,0,0)" stroke-width="1"/>
      <path id="Path_968" data-name="Path 968" d="M1.624,57.059c-.364-.157-.352-.419-.3-.818l.011-.081c.05-.4.113-.668.5-.729,2.076-.306,4.195-.526,6.269-.672.805-.037.971-.467,1.158-1.22l.167-.726-.971-.03c-.073.3-.16.484-.527.5-2.108.086-4.2.26-6.295.515a1.039,1.039,0,0,0-1.012.846,2.8,2.8,0,0,0-.143.659L.29,56.817c-.114.935-.024,1.528.733,1.772l1.3.421q1.762-.305,3.521-.546c-1.413-.436-2.835-.906-4.219-1.405" transform="translate(-0.07 -14.829)" fill="#002732" stroke="rgba(0,0,0,0)" stroke-width="1"/>
      <path id="Path_969" data-name="Path 969" d="M7.775,49.849l-1.457-.061-.46-.014A.968.968,0,0,0,5,50.109a2.654,2.654,0,0,0-.391,1.018l-.218.948.982-.02.018-.079c.086-.374.162-.611.558-.633q1.751.006,3.488.073l1.261.057,1.447.087a1.037,1.037,0,0,0,.843-.255Z" transform="translate(-1.234 -13.983)" fill="#002732" stroke="rgba(0,0,0,0)" stroke-width="1"/>
      <path id="Path_970" data-name="Path 970" d="M14.654,46.553q-.931-.581-1.854-1.185-1.61-.2-3.243-.334c1.378.907,2.794,1.783,4.211,2.613.321.21.284.411.184.71s-.192.482-.57.465q-1.075-.1-2.157-.177-1.061-.074-2.128-.127l5.212,1.458a1.8,1.8,0,0,0,.378-.795c.1-.359.236-.707.351-1.061a1.825,1.825,0,0,0,.138-.881,1,1,0,0,0-.522-.685" transform="translate(-2.556 -12.652)" fill="#002732" stroke="rgba(0,0,0,0)" stroke-width="1"/>
      <path id="Path_971" data-name="Path 971" d="M4.33,44.707c-.325-.229-.261-.483-.132-.865l.026-.077c.129-.382.244-.633.639-.613q3.178.2,6.277.627c.784.124,1.062-.251,1.386-.956l.306-.679-.943-.228c-.13.279-.252.443-.613.383-2.067-.342-4.175-.612-6.269-.787a1.029,1.029,0,0,0-1.158.624,3.334,3.334,0,0,0-.285.613L3.074,44.2c-.315.889-.339,1.493.351,1.887l1.188.677q1.786.06,3.554.183c-1.3-.718-2.577-1.463-3.837-2.236" transform="translate(-0.804 -11.658)" fill="#002732" stroke="rgba(0,0,0,0)" stroke-width="1"/>
      <path id="Path_972" data-name="Path 972" d="M12.031,38.515l-1.41-.357-.447-.109c-.774-.191-1.146.245-1.5,1.067l-.4.887.963.18.034-.074c.157-.349.279-.567.67-.508,1.143.244,2.265.5,3.4.787l1.231.319,1.4.38a1.02,1.02,0,0,0,.873-.079Z" transform="translate(-2.323 -10.677)" fill="#002732" stroke="rgba(0,0,0,0)" stroke-width="1"/>
      <path id="Path_973" data-name="Path 973" d="M19.346,36.635q-.795-.76-1.578-1.542-1.532-.519-3.1-.984,1.742,1.752,3.579,3.413c.273.272.2.462.041.736s-.285.434-.659.337c-.7-.217-1.383-.419-2.078-.617s-1.365-.379-2.053-.558l4.8,2.494a1.984,1.984,0,0,0,.533-.7l.559-.97c.353-.639.526-1.035-.05-1.609" transform="translate(-3.793 -9.583)" fill="#002732" stroke="rgba(0,0,0,0)" stroke-width="1"/>
      <path id="Path_974" data-name="Path 974" d="M9.592,32.823c-.273-.291-.16-.527.041-.876l.041-.07c.2-.354.379-.564.762-.462q3.065.843,6,1.887c.755.29,1.106-.019,1.555-.651.142-.2.287-.406.444-.6l-.882-.419c-.193.239-.335.384-.679.25-1.946-.749-3.951-1.44-5.98-2.049a1.015,1.015,0,0,0-1.253.379,3.935,3.935,0,0,0-.4.541c-.283.424-.519.876-.778,1.313a2.931,2.931,0,0,0-.434,1.06.981.981,0,0,0,.388.854l1.027.907q1.733.423,3.435.9-1.669-1.441-3.289-2.969" transform="translate(-2.256 -8.358)" fill="#002732" stroke="rgba(0,0,0,0)" stroke-width="1"/>
      <path id="Path_975" data-name="Path 975" d="M18.531,28.3l-1.306-.633-.414-.2c-.719-.345-1.157.018-1.694.735L14.552,29l.9.372.047-.066c.222-.312.383-.5.753-.365,1.065.469,2.133.965,3.18,1.471l1.138.56,1.286.653a1.006,1.006,0,0,0,.866.1Z" transform="translate(-4.088 -7.681)" fill="#002732" stroke="rgba(0,0,0,0)" stroke-width="1"/>
      <path id="Path_976" data-name="Path 976" d="M25.971,27.924q-.627-.908-1.236-1.834-1.391-.814-2.827-1.583,1.36,2.076,2.805,4.061c.211.321.1.5-.1.733s-.362.372-.707.2q-.951-.525-1.917-1.031c-.634-.333-1.265-.653-1.9-.966l4.2,3.418a2.091,2.091,0,0,0,.675-.569l.733-.848c.5-.529.723-.911.282-1.583" transform="translate(-5.643 -6.885)" fill="#002732" stroke="rgba(0,0,0,0)" stroke-width="1"/>
      <path id="Path_977" data-name="Path 977" d="M17.176,22.308c-.206-.339-.058-.557.217-.851l.056-.059c.278-.292.487-.472.843-.293,1.882.959,3.7,1.97,5.5,3.068.68.436,1.078.2,1.645-.334L26,23.35l-.777-.587c-.235.2-.416.3-.726.1q-2.633-1.693-5.433-3.211a1.006,1.006,0,0,0-1.308.113,3.883,3.883,0,0,0-.5.454c-.349.37-.707.731-1.033,1.121-.618.71-.917,1.221-.437,1.862l.823,1.1c1.067.506,2.139,1.043,3.191,1.593q-1.345-1.755-2.627-3.582" transform="translate(-4.369 -5.467)" fill="#002732" stroke="rgba(0,0,0,0)" stroke-width="1"/>
      <path id="Path_978" data-name="Path 978" d="M26.995,19.64l-1.156-.892-.366-.275c-.635-.485-1.125-.2-1.8.384-.249.209-.48.435-.715.659l.808.545.06-.056c.273-.269.483-.406.818-.2q1.43,1.021,2.814,2.082l1,.775,1.125.9a1.048,1.048,0,0,0,.833.274Z" transform="translate(-6.449 -5.12)" fill="#002732" stroke="rgba(0,0,0,0)" stroke-width="1"/>
      <path id="Path_979" data-name="Path 979" d="M34.248,20.78q-.426-1.01-.831-2.032c-.8-.729-1.627-1.446-2.454-2.134q.914,2.314,1.932,4.557c.143.357-.01.493-.26.683s-.426.3-.728.062q-.823-.7-1.665-1.393-.825-.675-1.668-1.336l3.418,4.2a1.817,1.817,0,0,0,.776-.421c.292-.233.585-.465.894-.674.6-.422.882-.76.587-1.507" transform="translate(-8.027 -4.668)" fill="#002732" stroke="rgba(0,0,0,0)" stroke-width="1"/>
      <path id="Path_980" data-name="Path 980" d="M26.756,13.582c-.133-.374.067-.542.395-.776l.066-.047c.329-.234.568-.37.881-.125,1.637,1.3,3.242,2.7,4.767,4.122.58.569,1,.386,1.681.012l.646-.371-.641-.731c-.268.15-.464.212-.726-.045-1.5-1.484-3.049-2.883-4.671-4.249a1.043,1.043,0,0,0-1.312-.166,3.837,3.837,0,0,0-.576.35l-1.243.885c-.746.574-1.135,1.023-.8,1.747l.578,1.235q1.428,1.083,2.805,2.207-.966-1.994-1.855-4.049" transform="translate(-7.053 -3.105)" fill="#002732" stroke="rgba(0,0,0,0)" stroke-width="1"/>
      <path id="Path_981" data-name="Path 981" d="M37.07,12.885l-.95-1.107-.3-.347c-.531-.617-1.066-.437-1.841.012l-.842.488.683.7.071-.041c.331-.191.557-.3.843-.022q1.191,1.285,2.328,2.6l.819.959.923,1.115a1.039,1.039,0,0,0,.762.443Z" transform="translate(-9.308 -3.1)" fill="#002732" stroke="rgba(0,0,0,0)" stroke-width="1"/>
      <path id="Path_982" data-name="Path 982" d="M43.838,15.528q-.211-1.076-.4-2.164-.956-1.31-1.971-2.6c.28,1.628.606,3.259.967,4.861.066.379-.106.488-.393.618s-.482.193-.729-.1q-.661-.854-1.345-1.7-.669-.826-1.36-1.642l2.494,4.8a1.808,1.808,0,0,0,.84-.265c.33-.175.678-.311,1.015-.47a1.8,1.8,0,0,0,.737-.5,1,1,0,0,0,.145-.849" transform="translate(-10.847 -3.025)" fill="#002732" stroke="rgba(0,0,0,0)" stroke-width="1"/>
      <path id="Path_983" data-name="Path 983" d="M37.957,7.026c-.055-.393.175-.521.542-.687l.074-.033c.367-.166.629-.254.884.05,1.348,1.636,2.627,3.312,3.828,5.012.445.658.908.6,1.645.36l.7-.239-.477-.844c-.293.095-.5.118-.7-.187-1.162-1.744-2.4-3.467-3.706-5.117a1.031,1.031,0,0,0-1.248-.421,3.332,3.332,0,0,0-.641.211l-1.392.628c-.864.377-1.32.773-1.138,1.545l.316,1.33q1.176,1.346,2.294,2.722Q38.4,9.2,37.957,7.026" transform="translate(-10.197 -1.367)" fill="#002732" stroke="rgba(0,0,0,0)" stroke-width="1"/>
      <path id="Path_984" data-name="Path 984" d="M48.343,8.326l-.7-1.274-.227-.4c-.388-.7-.961-.669-1.806-.37l-.922.312.526.828.077-.027c.363-.123.6-.183.829.144.6,1,1.181,2,1.745,3.019l.608,1.117.675,1.279a1.026,1.026,0,0,0,.654.585Z" transform="translate(-12.554 -1.708)" fill="#002732" stroke="rgba(0,0,0,0)" stroke-width="1"/>
      <path id="Path_985" data-name="Path 985" d="M54.335,12.389q.013-1.1.051-2.2-.667-1.476-1.4-2.94c-.062,1.641-.077,3.3-.051,4.949-.012.385-.2.459-.509.53s-.512.087-.7-.252c-.316-.654-.637-1.293-.968-1.936s-.654-1.257-.993-1.882l1.457,5.212a1.916,1.916,0,0,0,.875-.091l1.09-.251c.708-.178,1.113-.329,1.14-1.136" transform="translate(-13.983 -2.036)" fill="#002732" stroke="rgba(0,0,0,0)" stroke-width="1"/>
      <path id="Path_986" data-name="Path 986" d="M50.3,2.909c.027-.4.277-.477.669-.567l.08-.018c.392-.1.668-.118.857.237q1.477,2.818,2.718,5.681c.3.735.769.8,1.537.694l.74-.093-.3-.925c-.3.035-.508.017-.646-.322-.779-1.932-1.644-3.891-2.581-5.77a1.022,1.022,0,0,0-1.133-.66,3.872,3.872,0,0,0-.672.073c-.5.091-.994.221-1.491.33a2.851,2.851,0,0,0-1.071.406.99.99,0,0,0-.36.868l.038,1.369q.875,1.555,1.685,3.128c-.059-1.476-.083-2.947-.076-4.432" transform="translate(-13.669 -0.327)" fill="#002732" stroke="rgba(0,0,0,0)" stroke-width="1"/>
      <path id="Path_987" data-name="Path 987" d="M60.341,6.158l-.428-1.389-.139-.439c-.237-.755-.8-.856-1.692-.734l-.966.123.345.915.081-.01c.38-.048.628-.059.781.306.383,1.1.747,2.2,1.092,3.319l.367,1.217.4,1.389a1.016,1.016,0,0,0,.522.7Z" transform="translate(-16.046 -0.998)" fill="#002732" stroke="rgba(0,0,0,0)" stroke-width="1"/>
      <path id="Path_988" data-name="Path 988" d="M65.315,11.478q.236-1.074.5-2.148-.355-1.579-.774-3.16-.294,1.2-.557,2.4T63.984,11c-.091.374-.293.408-.608.417s-.52-.017-.631-.386q-.265-1.06-.554-2.1-.283-1.021-.589-2.042l.365,5.4a2.1,2.1,0,0,0,.877.093l1.122-.028c.732-.034,1.161-.091,1.351-.881" transform="translate(-17.306 -1.733)" fill="#002732" stroke="rgba(0,0,0,0)" stroke-width="1"/>
      <path id="Path_989" data-name="Path 989" d="M63.174,1.382c.106-.384.367-.411.769-.421l.081,0c.4-.016.677.027.79.409q.875,3.057,1.514,6.11c.147.783.593.934,1.368.989l.743.058-.1-.965c-.306-.027-.5-.086-.568-.446C67.394,5.066,66.94,2.975,66.4.943a1.018,1.018,0,0,0-.974-.874,3.911,3.911,0,0,0-.671-.063c-.508-.021-1.015.014-1.523.02-.94.018-1.516.15-1.657.953l-.242,1.35c.359,1.134.7,2.262,1.012,3.405q.365-2.174.825-4.353" transform="translate(-17.232 0)" fill="#002732" stroke="rgba(0,0,0,0)" stroke-width="1"/>
      <path id="Path_990" data-name="Path 990" d="M72.554,6.393l-.139-1.447-.048-.457c-.081-.787-.616-1-1.51-1.06l-.97-.073.153.966.081.006c.383.029.628.069.7.457.155,1.152.29,2.3.4,3.471l.115,1.266.112,1.441a1.017,1.017,0,0,0,.369.794Z" transform="translate(-19.634 -0.943)" fill="#002732" stroke="rgba(0,0,0,0)" stroke-width="1"/>
      <path id="Path_991" data-name="Path 991" d="M76.018,12.815q.449-1.005.92-2-.026-1.617-.116-3.249c-.709,1.488-1.377,2.987-2.009,4.519-.164.349-.369.342-.679.288s-.5-.122-.539-.505c-.031-.726-.07-1.452-.119-2.168s-.1-1.412-.166-2.12l-.731,5.363a2.114,2.114,0,0,0,.839.268l1.1.2c.721.119,1.15.146,1.5-.589" transform="translate(-20.391 -2.124)" fill="#002732" stroke="rgba(0,0,0,0)" stroke-width="1"/>
      <path id="Path_992" data-name="Path 992" d="M76.122,2.347c.183-.354.444-.329.84-.257l.08.014c.4.065.657.17.692.563q.239,3.17.244,6.287c-.019.808.39,1.036,1.135,1.247.239.068.48.13.713.215l.1-.971c-.292-.094-.473-.186-.465-.552.052-2.085.031-4.209-.079-6.322A1.017,1.017,0,0,0,78.6,1.52a3.932,3.932,0,0,0-.647-.2c-.494-.124-1-.2-1.5-.291-.928-.17-1.52-.159-1.819.6l-.508,1.273c.123,1.184.227,2.355.306,3.541q.795-2.057,1.688-4.1" transform="translate(-20.826 -0.265)" fill="#002732" stroke="rgba(0,0,0,0)" stroke-width="1"/>
      <path id="Path_993" data-name="Path 993" d="M84.463,9.035l.159-1.443.046-.457c.083-.791-.4-1.09-1.262-1.349L82.47,5.52l-.047.976.078.022c.369.1.6.193.6.587-.081,1.153-.192,2.331-.317,3.487l-.146,1.261-.184,1.432a1.008,1.008,0,0,0,.2.849Z" transform="translate(-23.156 -1.551)" fill="#002732" stroke="rgba(0,0,0,0)" stroke-width="1"/>
      <path id="Path_994" data-name="Path 994" d="M86.128,16.093q.646-.893,1.314-1.777.3-1.584.549-3.2c-1,1.319-1.961,2.644-2.889,4-.232.308-.432.261-.725.147s-.471-.217-.426-.6q.177-1.072.33-2.154c.1-.706.189-1.4.273-2.109l-1.813,5.1a2.186,2.186,0,0,0,.762.441l1.041.41c.67.288,1.1.377,1.585-.266" transform="translate(-23.245 -2.924)" fill="#002732" stroke="rgba(0,0,0,0)" stroke-width="1"/>
      <path id="Path_995" data-name="Path 995" d="M88.479,5.919c.252-.311.5-.234.877-.085l.074.033c.368.165.608.3.559.7-.279,2.1-.615,4.143-1.052,6.208-.183.786.173,1.088.864,1.44.219.116.431.246.648.368l.294-.93c-.265-.157-.416-.3-.335-.649q.716-3.042,1.213-6.2a1,1,0,0,0-.546-1.191,3.935,3.935,0,0,0-.595-.32c-.462-.214-.928-.417-1.405-.6-.877-.344-1.457-.464-1.9.211l-.759,1.144q-.177,1.765-.429,3.537,1.2-1.854,2.494-3.672" transform="translate(-24.157 -1.242)" fill="#002732" stroke="rgba(0,0,0,0)" stroke-width="1"/>
      <path id="Path_996" data-name="Path 996" d="M94.958,14.06l.45-1.379.138-.437c.245-.761-.183-1.131-.96-1.576-.283-.16-.575-.3-.863-.451l-.244.945.073.037c.342.172.552.308.462.7q-.485,1.689-1.025,3.35l-.4,1.2-.471,1.361a1.008,1.008,0,0,0,.023.87Z" transform="translate(-25.856 -2.87)" fill="#002732" stroke="rgba(0,0,0,0)" stroke-width="1"/>
      <path id="Path_997" data-name="Path 997" d="M95.386,21.45c.546-.5,1.091-.984,1.643-1.465.423-1.007.813-2,1.19-3.021q-1.875,1.632-3.649,3.337c-.288.252-.466.152-.735-.012s-.42-.3-.3-.669q.39-1.011.76-2.036.362-1,.7-2.021l-2.817,4.622a1.826,1.826,0,0,0,.653.6c.311.206.637.39.935.614.595.425,1.006.585,1.613.056" transform="translate(-25.898 -4.372)" fill="#002732" stroke="rgba(0,0,0,0)" stroke-width="1"/>
      <path id="Path_998" data-name="Path 998" d="M99.754,11.981c.312-.257.54-.127.866.108l.067.047c.329.234.536.416.408.792-.347,1-.707,1.977-1.089,2.955s-.789,1.954-1.207,2.912c-.343.736-.035,1.079.552,1.587l.563.488.475-.849c-.229-.2-.353-.368-.2-.7.9-1.911,1.694-3.828,2.447-5.82a1.024,1.024,0,0,0-.284-1.286,3.889,3.889,0,0,0-.521-.429c-.416-.292-.825-.595-1.248-.877-.792-.51-1.34-.734-1.911-.171l-.971.956q-.547,1.708-1.148,3.384,1.556-1.575,3.2-3.095" transform="translate(-27.127 -2.923)" fill="#002732" stroke="rgba(0,0,0,0)" stroke-width="1"/>
      <path id="Path_999" data-name="Path 999" d="M104.195,21.259l.727-1.266.226-.4c.4-.705.048-1.141-.627-1.73-.247-.209-.485-.431-.744-.626l-.43.874.063.051c.29.251.465.429.3.791q-.815,1.552-1.678,3.065l-.632,1.093-.736,1.237a1.045,1.045,0,0,0-.165.869Z" transform="translate(-28.224 -4.842)" fill="#002732" stroke="rgba(0,0,0,0)" stroke-width="1"/>
      <path id="Path_1000" data-name="Path 1000" d="M103.4,28.67q.944-.559,1.9-1.1c.61-.894,1.209-1.8,1.788-2.728q-2.172,1.223-4.259,2.538c-.334.189-.495.062-.712-.166s-.352-.382-.157-.716q.586-.909,1.153-1.836.555-.907,1.1-1.831l-3.7,3.955a1.82,1.82,0,0,0,.529.707c.277.251.527.529.786.8.505.528.879.764,1.57.38" transform="translate(-28.238 -6.414)" fill="#002732" stroke="rgba(0,0,0,0)" stroke-width="1"/>
      <path id="Path_1001" data-name="Path 1001" d="M109.594,20.273c.352-.183.548-.009.825.283l.056.059c.278.291.447.509.247.851-1.081,1.809-2.242,3.583-3.44,5.284a1,1,0,0,0-.245.843,2.089,2.089,0,0,0,.46.827l.461.586.635-.733c-.187-.244-.277-.429-.058-.723q.939-1.261,1.842-2.568c.6-.867,1.17-1.744,1.735-2.638a1.034,1.034,0,0,0-.018-1.317,2.878,2.878,0,0,0-.417-.529l-1.052-1.1c-.653-.679-1.168-.986-1.836-.554l-1.147.741q-.878,1.559-1.8,3.074c1.23-.819,2.492-1.623,3.755-2.382" transform="translate(-29.734 -5.236)" fill="#002732" stroke="rgba(0,0,0,0)" stroke-width="1"/>
      <path id="Path_1002" data-name="Path 1002" d="M111.813,30.3l.964-1.09.3-.348c.53-.6.3-1.127-.259-1.824l-.6-.764-.6.773.05.064c.237.3.375.509.142.829q-1.11,1.353-2.256,2.657l-.848.948-.979,1.066a1.029,1.029,0,0,0-.331.814Z" transform="translate(-30.17 -7.382)" fill="#002732" stroke="rgba(0,0,0,0)" stroke-width="1"/>
      <path id="Path_1003" data-name="Path 1003" d="M109.834,37.43q1.04-.358,2.092-.695,1.165-1.124,2.3-2.3c-1.567.5-3.13,1.037-4.677,1.618-.366.118-.5-.037-.671-.3s-.254-.453,0-.741c.507-.516,1-1.035,1.5-1.563s.964-1.04,1.439-1.569L107.4,35a1.887,1.887,0,0,0,.38.794l.6.943c.406.608.684.939,1.455.692" transform="translate(-30.172 -8.955)" fill="#002732" stroke="rgba(0,0,0,0)" stroke-width="1"/>
      <path id="Path_1004" data-name="Path 1004" d="M117.6,30.443c.383-.109.542.1.759.439l.044.068c.221.337.334.591.064.887q-2.155,2.339-4.432,4.472c-.6.535-.49.992-.135,1.681.111.222.234.438.331.667l.777-.592c-.134-.277-.188-.472.086-.716,1.557-1.385,3.1-2.855,4.564-4.374a1.019,1.019,0,0,0,.239-1.288,3.874,3.874,0,0,0-.3-.607c-.252-.442-.541-.861-.811-1.292-.5-.8-.928-1.214-1.681-.918l-1.276.5q-1.171,1.346-2.379,2.639c1.372-.553,2.748-1.069,4.148-1.563" transform="translate(-31.874 -8.084)" fill="#002732" stroke="rgba(0,0,0,0)" stroke-width="1"/>
      <path id="Path_1005" data-name="Path 1005" d="M117.5,40.823l1.163-.869.365-.278c.634-.48.523-1.04.123-1.843l-.443-.866-.746.633.037.073c.175.341.27.572-.022.837-.9.729-1.831,1.45-2.763,2.149l-1.02.754-1.172.843a1.007,1.007,0,0,0-.485.726Z" transform="translate(-31.616 -10.386)" fill="#002732" stroke="rgba(0,0,0,0)" stroke-width="1"/>
      <path id="Path_1006" data-name="Path 1006" d="M114.421,47.362q1.094-.138,2.195-.253,1.365-.86,2.711-1.783c-1.647.169-3.268.372-4.9.625-.384.041-.486-.138-.6-.429s-.162-.493.148-.721q.9-.6,1.8-1.23c.582-.408,1.153-.82,1.726-1.243l-4.964,2.16a2.221,2.221,0,0,0,.2.858l.411,1.04c.249.685.473,1.059,1.276.975" transform="translate(-31.615 -11.892)" fill="#002732" stroke="rgba(0,0,0,0)" stroke-width="1"/>
      <path id="Path_1007" data-name="Path 1007" d="M123.087,42.076c.4-.028.513.208.661.583l.027.076c.13.382.193.651-.13.887-1.727,1.233-3.449,2.381-5.253,3.47-.7.4-.678.869-.465,1.614.073.237.116.482.175.724l.881-.42c-.061-.3-.071-.506.242-.687q2.713-1.554,5.36-3.347a1,1,0,0,0,.5-1.212,3.946,3.946,0,0,0-.173-.654l-.246-.723-.278-.711c-.347-.877-.654-1.382-1.453-1.245l-1.354.227q-1.413,1.076-2.876,2.1,2.173-.389,4.385-.686" transform="translate(-33.094 -11.353)" fill="#002732" stroke="rgba(0,0,0,0)" stroke-width="1"/>
      <path id="Path_1008" data-name="Path 1008" d="M121,52.392l1.314-.612.413-.2c.725-.34.7-.906.5-1.779l-.262-.938-.857.467.022.078c.1.369.155.612-.193.815q-1.568.8-3.15,1.539l-1.151.529-1.317.585a1,1,0,0,0-.619.61Z" transform="translate(-32.506 -13.728)" fill="#002732" stroke="rgba(0,0,0,0)" stroke-width="1"/>
      <path id="Path_1009" data-name="Path 1009" d="M116.939,58.069q1.1.088,2.2.2,1.509-.563,3.013-1.19-2.47-.259-4.922-.392c-.375-.04-.444-.234-.5-.544s-.062-.515.287-.674q1.007-.406,2.009-.835c.653-.28,1.312-.569,1.956-.864l-5.3,1.1a1.918,1.918,0,0,0,.01.883l.194,1.1c.09.725.25,1.135,1.05,1.218" transform="translate(-32.487 -15.106)" fill="#002732" stroke="rgba(0,0,0,0)" stroke-width="1"/>
      <path id="Path_1010" data-name="Path 1010" d="M126.074,54.667c.391.055.475.306.519.707l.011.081c.051.4.059.676-.3.839-1.933.853-3.864,1.625-5.852,2.324-.767.251-.838.712-.778,1.486l.019.746.947-.232c-.005-.308.038-.51.383-.623q2.969-.97,5.922-2.182a1,1,0,0,0,.739-1.084,3.91,3.91,0,0,0-.039-.674c-.071-.5-.114-1.011-.214-1.511-.164-.928-.372-1.483-1.173-1.515l-1.363-.058c-1.074.51-2.167,1-3.256,1.47q2.211.065,4.439.226" transform="translate(-33.615 -14.882)" fill="#002732" stroke="rgba(0,0,0,0)" stroke-width="1"/>
      <path id="Path_1011" data-name="Path 1011" d="M122.178,64.52l1.41-.333.444-.11c.778-.186.871-.743.847-1.638,0-.324-.042-.646-.062-.97l-.933.282.006.081c.034.381.019.631-.36.758q-1.7.463-3.395.866l-1.234.285-1.407.306a.993.993,0,0,0-.728.473Z" transform="translate(-32.804 -17.269)" fill="#002732" stroke="rgba(0,0,0,0)" stroke-width="1"/>
      <path id="Path_1012" data-name="Path 1012" d="M128.012,64.833l-2.16-.076-3.139.138,4.834.176c.372.017.4.053.4.11s-.03.093-.4.109l-2.124.078-2.082.075h5.412c.121-.04.147-.093.147-.16v-.206c0-.134-.106-.214-.889-.244" transform="translate(-34.475 -18.193)" fill="#002732" stroke="rgba(0,0,0,0)" stroke-width="1"/>
      <path id="Path_1013" data-name="Path 1013" d="M117.914,64.98c-.381-.017-.4-.055-.4-.114v-.012c0-.058.027-.1.408-.116l6.071-.265c.783-.031.889-.11.889-.244V64.1l-.952.035c0,.052-.047.086-.4.1l-6.071.273c-.564.02-.774.069-.849.145a.116.116,0,0,0-.047.1v.218c0,.134.106.217.888.244l1.328.048,3.469-.127Z" transform="translate(-32.746 -18.008)" fill="#002732" stroke="rgba(0,0,0,0)" stroke-width="1"/>
      <path id="Path_1014" data-name="Path 1014" d="M122.511,63.79l-1.418.052-.447.016c-.782.028-.889.111-.889.245v.146l.953-.034V64.2c0-.059.02-.1.4-.114l3.416-.121,1.24-.043,1.415-.05a3.092,3.092,0,0,0,.741-.085Z" transform="translate(-33.645 -17.921)" fill="#002732" stroke="rgba(0,0,0,0)" stroke-width="1"/>
      <path id="Path_1015" data-name="Path 1015" d="M117.26,67.136q1.052.312,2.1.651,1.609-.228,3.207-.528c-1.578-.511-3.146-.974-4.744-1.395-.367-.116-.386-.317-.371-.628s.047-.51.421-.595q1.065-.19,2.131-.4,1.044-.211,2.089-.447H116.68a1.779,1.779,0,0,0-.162.856c0,.368-.032.734-.045,1.1-.044.717.017,1.142.787,1.388" transform="translate(-32.719 -17.921)" fill="#002732" stroke="rgba(0,0,0,0)" stroke-width="1"/>
      <path id="Path_1016" data-name="Path 1016" d="M126.427,65.694c.375.134.383.4.363.8l0,.081c-.029.4-.081.677-.47.762-2.058.436-4.145.783-6.209,1.041-.8.082-.968.51-1.085,1.265l-.132.72.971-.016c.058-.3.137-.485.5-.518,2.075-.2,4.178-.482,6.255-.864a1.036,1.036,0,0,0,.957-.913,3.91,3.91,0,0,0,.1-.672c.047-.511.077-1.021.1-1.532.054-.946-.069-1.534-.841-1.728l-1.322-.333q-1.741.423-3.482.777,2.162.511,4.3,1.127" transform="translate(-33.401 -17.921)" fill="#002732" stroke="rgba(0,0,0,0)" stroke-width="1"/>
      <path id="Path_1017" data-name="Path 1017" d="M120.9,74.739l1.452-.005.459-.007c.8-.007,1.034-.533,1.188-1.422.062-.321.11-.644.157-.966l-.974.076-.012.081c-.052.38-.129.621-.521.664q-1.751.084-3.49.1l-1.269,0-1.443-.024a1.018,1.018,0,0,0-.819.282Z" transform="translate(-32.483 -20.323)" fill="#002732" stroke="rgba(0,0,0,0)" stroke-width="1"/>
      <path id="Path_1018" data-name="Path 1018" d="M115.122,77.274q.946.553,1.882,1.139c1.069.12,2.156.215,3.239.278q-2.112-1.32-4.274-2.482c-.331-.2-.3-.393-.22-.685s.164-.473.545-.469q1.08.065,2.166.1c.709.024,1.424.038,2.134.042l-5.271-1.228a1.725,1.725,0,0,0-.347.777c-.086.349-.2.687-.292,1.032-.213.662-.237,1.08.438,1.5" transform="translate(-32.182 -20.781)" fill="#002732" stroke="rgba(0,0,0,0)" stroke-width="1"/>
      <path id="Path_1019" data-name="Path 1019" d="M123.979,78.625c.332.22.28.483.161.877l-.026.079c-.129.393-.243.653-.641.644a60.917,60.917,0,0,1-6.279-.513c-.8-.128-1.046.244-1.363.915-.1.219-.2.431-.308.641l.941.252c.14-.262.25-.425.613-.36a56.7,56.7,0,0,0,6.279.753,1.043,1.043,0,0,0,1.156-.676,3.174,3.174,0,0,0,.271-.643c.166-.5.33-1,.47-1.5.279-.928.3-1.537-.41-1.906l-1.213-.63c-1.191.015-2.384,0-3.567-.034q1.988.994,3.916,2.1" transform="translate(-32.455 -21.499)" fill="#002732" stroke="rgba(0,0,0,0)" stroke-width="1"/>
      <path id="Path_1020" data-name="Path 1020" d="M116.844,85.775c.462.14.93.273,1.4.4l.444.121c.78.216,1.145-.247,1.547-1.08l.416-.911-.966-.177-.034.076c-.163.356-.287.578-.677.516-1.142-.252-2.277-.537-3.395-.848l-1.212-.351c-.456-.137-.918-.283-1.374-.432a1.05,1.05,0,0,0-.856.013Z" transform="translate(-31.504 -23.321)" fill="#002732" stroke="rgba(0,0,0,0)" stroke-width="1"/>
      <path id="Path_1021" data-name="Path 1021" d="M110.539,86.009c.48.55.95,1.116,1.406,1.692q1.432.732,2.947,1.355c-1.032-1.293-2.131-2.533-3.269-3.7-.256-.286-.18-.454-.022-.687s.277-.377.639-.254q1.006.389,2.036.743c.674.232,1.347.447,2.027.651L111.6,83.141a1.663,1.663,0,0,0-.523.591c-.166.291-.362.544-.537.819a1.348,1.348,0,0,0-.324.694,1.061,1.061,0,0,0,.328.764" transform="translate(-30.962 -23.358)" fill="#002732" stroke="rgba(0,0,0,0)" stroke-width="1"/>
      <path id="Path_1022" data-name="Path 1022" d="M118.242,90.538c.244.315.112.564-.143.919l-.052.071c-.26.353-.462.577-.838.445a38.8,38.8,0,0,1-5.747-2.6c-.689-.4-1.04-.18-1.539.281-.164.14-.318.3-.489.425l.749.622a.469.469,0,0,1,.68-.072,34.459,34.459,0,0,0,5.586,2.974,1.091,1.091,0,0,0,1.374-.3,3.955,3.955,0,0,0,.507-.559c.336-.452.677-.9.979-1.367.582-.853.787-1.459.227-2.021l-.984-.963c-1.145-.311-2.289-.663-3.41-1.046,1.072,1.019,2.112,2.082,3.1,3.19" transform="translate(-30.744 -24.54)" fill="#002732" stroke="rgba(0,0,0,0)" stroke-width="1"/>
      <path id="Path_1023" data-name="Path 1023" d="M109.581,94.07q.53.494,1.086.969l.353.3c.616.526,1.2.239,1.938-.415.268-.238.536-.476.78-.73l-.833-.514-.062.061c-.3.28-.516.439-.853.232-.95-.669-1.878-1.394-2.757-2.148q-.478-.412-.939-.836c-.35-.321-.7-.656-1.033-1a1.145,1.145,0,0,0-.71-.406Z" transform="translate(-29.935 -25.168)" fill="#002732" stroke="rgba(0,0,0,0)" stroke-width="1"/>
      <path id="Path_1024" data-name="Path 1024" d="M104.115,91.234q.165,1.073.242,2.176a21.677,21.677,0,0,0,1.632,2.795,26.7,26.7,0,0,0-.844-4.852c-.086-.375.033-.437.232-.552s.346-.142.593.139q.672.831,1.412,1.624c.482.517.989,1.026,1.506,1.506l-3.029-4.485a.993.993,0,0,0-.587.2c-.219.107-.432.239-.648.321-.42.184-.614.351-.509,1.131" transform="translate(-29.242 -25.168)" fill="#002732" stroke="rgba(0,0,0,0)" stroke-width="1"/>
      <path id="Path_1025" data-name="Path 1025" d="M108.245,99.559c.05.411-.243.559-.7.76l-.092.04c-.457.2-.8.273-1.059-.035a21.818,21.818,0,0,1-3.258-5.4,1.18,1.18,0,0,0-.5-.667,1.554,1.554,0,0,0-.727-.091l-.283.012-.263-.014q.046.479.116.959c.243.026.42.037.514.4.138.5.3,1,.476,1.5s.378.974.6,1.458a20.93,20.93,0,0,0,1.547,2.822c.283.523.774.639,1.463.512a3.806,3.806,0,0,0,.851-.225,18.058,18.058,0,0,0,1.813-.753c1.069-.534,1.615-1.029,1.385-1.8-.125-.441-.264-.881-.413-1.318a31.841,31.841,0,0,1-2.586-2.468,30.463,30.463,0,0,1,1.121,4.32" transform="translate(-28.477 -26.453)" fill="#002732" stroke="rgba(0,0,0,0)" stroke-width="1"/>
      <path id="Path_1026" data-name="Path 1026" d="M99.191,96.382c.006.486.031.984.076,1.463l.048.459a.97.97,0,0,0,.564.822,3.232,3.232,0,0,0,1.327.2c.388-.02.778-.012,1.163-.067q-.18-.459-.341-.92l-.093.005c-.435.019-.721.008-.846-.368a21.9,21.9,0,0,1-.614-3.439c-.041-.412-.065-.834-.075-1.255q-.018-.718.017-1.427a2.153,2.153,0,0,0-.069-.764Z" transform="translate(-27.867 -25.592)" fill="#002732" stroke="rgba(0,0,0,0)" stroke-width="1"/>
      <path id="Path_1027" data-name="Path 1027" d="M97.414,90.929a19.787,19.787,0,0,1-1.673,1.4,17.02,17.02,0,0,0-1.468,2.881,17.592,17.592,0,0,0,3.434-3.5c.229-.295.318-.268.45-.219.124.071.2.117.122.483a16.57,16.57,0,0,0-.372,2.116,17.909,17.909,0,0,0-.1,2.116l1.158-5.287a.378.378,0,0,0-.245-.224.529.529,0,0,1-.163-.068.627.627,0,0,1-.16-.082c-.21-.116-.4-.145-.984.382" transform="translate(-26.485 -25.419)" fill="#002732" stroke="rgba(0,0,0,0)" stroke-width="1"/>
      <path id="Path_1028" data-name="Path 1028" d="M93.067,98.814a.575.575,0,0,1-.516.134,2.442,2.442,0,0,1-.641-.3l-.1-.06c-.5-.291-.771-.564-.677-.956a17.418,17.418,0,0,1,2.733-5.69,1.164,1.164,0,0,0,.306-.782,1.567,1.567,0,0,0-.323-.681c-.119-.157-.219-.348-.331-.519q-.366.314-.723.64a.474.474,0,0,1-.043.673,20.531,20.531,0,0,0-3.505,5.293c-.28.516-.124,1.012.415,1.565a4.121,4.121,0,0,0,.736.646,12.453,12.453,0,0,0,1.948,1.2,8.25,8.25,0,0,0,.9.378,3.424,3.424,0,0,0,.754.14,1.034,1.034,0,0,0,1.011-.467q.4-.586.744-1.187a17.768,17.768,0,0,1,.024-3.585,17.741,17.741,0,0,1-2.709,3.567" transform="translate(-25.035 -25.273)" fill="#002732" stroke="rgba(0,0,0,0)" stroke-width="1"/>
      <path id="Path_1029" data-name="Path 1029" d="M89.7,89.654q-.569.454-1.127.932l-.346.3c-.6.525-.428,1.129.129,1.993.207.311.431.619.654.925.2-.262.4-.523.61-.777l-.053-.074c-.249-.347-.393-.587-.131-.9a33.065,33.065,0,0,1,2.531-2.407q.482-.413.974-.807.562-.45,1.136-.874a1.1,1.1,0,0,0,.5-.668Z" transform="translate(-24.681 -24.527)" fill="#002732" stroke="rgba(0,0,0,0)" stroke-width="1"/>
      <path id="Path_1030" data-name="Path 1030" d="M92.862,83.795q-1.093.106-2.195.179-1.406.791-2.789,1.67c1.658-.111,3.293-.28,4.913-.523.382-.042.472.119.569.385s.145.429-.168.654c-.6.392-1.2.8-1.788,1.223s-1.138.839-1.695,1.284l4.875-2.351a1.4,1.4,0,0,0-.156-.709c-.125-.281-.234-.594-.347-.9-.21-.618-.426-.966-1.22-.91" transform="translate(-24.688 -23.54)" fill="#002732" stroke="rgba(0,0,0,0)" stroke-width="1"/>
      <path id="Path_1031" data-name="Path 1031" d="M83.868,87.33c-.4.017-.518-.24-.664-.646l-.027-.081c-.131-.4-.193-.688.134-.917A59.4,59.4,0,0,1,88.7,82.419c.712-.364.71-.818.551-1.57l-.141-.729-.9.372c.053.3.046.507-.278.67-1.869.939-3.715,1.959-5.514,3.081a1.031,1.031,0,0,0-.546,1.225,3.411,3.411,0,0,0,.158.69c.162.514.331,1.03.531,1.552.363.965.737,1.533,1.54,1.4q.683-.109,1.356-.238c.912-.782,1.836-1.511,2.805-2.207-1.44.286-2.927.506-4.4.669" transform="translate(-22.995 -22.509)" fill="#002732" stroke="rgba(0,0,0,0)" stroke-width="1"/>
      <path id="Path_1032" data-name="Path 1032" d="M86.2,78.732l-1.347.545-.424.176c-.745.3-.761.861-.588,1.738.061.317.137.636.2.953l.882-.423-.017-.08c-.084-.375-.114-.622.242-.8q1.6-.713,3.216-1.368L89.542,79l1.349-.52a1.014,1.014,0,0,0,.654-.586Z" transform="translate(-23.528 -21.884)" fill="#002732" stroke="rgba(0,0,0,0)" stroke-width="1"/>
      <path id="Path_1033" data-name="Path 1033" d="M90.938,73.125l-2.19-.259c-1.018.364-2.041.74-3.052,1.128q2.464.315,4.918.55c.381.055.436.259.476.58s.038.532-.317.678l-2.039.747-1.99.769,5.348-.836a1.97,1.97,0,0,0,.018-.9c-.057-.378-.1-.767-.146-1.15-.081-.759-.234-1.194-1.027-1.3" transform="translate(-24.076 -20.471)" fill="#002732" stroke="rgba(0,0,0,0)" stroke-width="1"/>
      <path id="Path_1034" data-name="Path 1034" d="M81.116,74.927c-.392-.066-.444-.315-.49-.7l-.008-.078c-.04-.386-.04-.652.328-.8,1.952-.779,3.928-1.506,5.9-2.19.77-.247.836-.721.791-1.524l-.042-.771-.94.251c.013.314-.019.521-.367.639q-2.987,1-5.941,2.126a1,1,0,0,0-.764,1.025,3.17,3.17,0,0,0,.017.644c.048.483.1.968.162,1.455.1.9.307,1.451,1.1,1.515l1.36.116c1.1-.453,2.208-.888,3.315-1.307q-2.214-.162-4.421-.4" transform="translate(-22.355 -19.346)" fill="#002732" stroke="rgba(0,0,0,0)" stroke-width="1"/>
      <path id="Path_1035" data-name="Path 1035" d="M85.068,67.091l-1.405.372-.444.119c-.772.2-.865.737-.814,1.6l.055.935.936-.274-.005-.079c-.02-.372-.014-.614.362-.742,1.123-.314,2.243-.618,3.373-.913l1.229-.317,1.4-.354a1,1,0,0,0,.721-.526Z" transform="translate(-23.148 -18.798)" fill="#002732" stroke="rgba(0,0,0,0)" stroke-width="1"/>
      <path id="Path_1036" data-name="Path 1036" d="M90.453,61.679q-1.09-.287-2.182-.522c-1.031.352-2.065.626-3.114.915q2.42.541,4.841,1.038c.374.1.406.314.413.65s-.02.554-.388.663l-2.11.521-2.068.53,5.409-.181a2.112,2.112,0,0,0,.122-.943l-.022-1.215c-.009-.8-.112-1.257-.9-1.456" transform="translate(-23.924 -17.181)" fill="#002732" stroke="rgba(0,0,0,0)" stroke-width="1"/>
      <path id="Path_1037" data-name="Path 1037" d="M80.376,62.482c-.383-.1-.408-.348-.413-.726v-.076c0-.377.024-.633.4-.744,1.01-.293,2.025-.564,3.019-.825q1.5-.415,2.995-.956c.77-.255.873-.838.721-1.79l-.129-.915-.905.4c.045.353.035.591-.3.744-.964.436-1.924.826-2.906,1.176q-1.5.526-3,.923c-.558.122-.759.352-.813.7a3.378,3.378,0,0,0-.042.619l.015,1.411c.011.871.14,1.412.924,1.565l1.336.267q1.723-.463,3.445-.9-2.18-.414-4.35-.867" transform="translate(-22.196 -15.859)" fill="#002732" stroke="rgba(0,0,0,0)" stroke-width="1"/>
      <path id="Path_1038" data-name="Path 1038" d="M84.267,54.884q-.651.327-1.309.631l-.416.189c-.738.326-.7.753-.63,1.455l.106.756.921-.278-.009-.068c-.045-.323-.053-.531.311-.685,1.089-.395,2.195-.837,3.252-1.315q.576-.261,1.149-.539.654-.317,1.3-.656a1.029,1.029,0,0,0,.572-.812Z" transform="translate(-23.002 -15.048)" fill="#002732" stroke="rgba(0,0,0,0)" stroke-width="1"/>
      <path id="Path_1039" data-name="Path 1039" d="M87.5,47.705c-.721.131-1.467.293-2.188.464-.769.754-1.6,1.483-2.444,2.167a45.112,45.112,0,0,1,4.923-.79c.4-.02.51.239.649.646s.194.685-.123.912c-.619.391-1.237.762-1.872,1.12s-1.263.689-1.9,1.008l5.248-1.322a2.756,2.756,0,0,0-.2-1.253c-.17-.518-.337-1.037-.521-1.55-.416-.986-.774-1.526-1.575-1.4" transform="translate(-23.282 -13.397)" fill="#002732" stroke="rgba(0,0,0,0)" stroke-width="1"/>
      <path id="Path_1040" data-name="Path 1040" d="M78.96,51.741c-.393.05-.442-.124-.561-.377l-.023-.051c-.114-.255-.162-.438.153-.669.834-.606,1.673-1.265,2.453-1.944s1.541-1.4,2.279-2.159c.58-.565.416-1.142-.145-1.939l-.523-.774-.635.76c.2.3.294.521.06.807-.673.819-1.361,1.591-2.1,2.335s-1.51,1.46-2.3,2.128c-.456.353-.521.631-.446.967a1.533,1.533,0,0,0,.124.412,7.285,7.285,0,0,1,.361.9.961.961,0,0,0,1.188.81q.666-.059,1.337-.1c1.071-.5,2.143-1.042,3.159-1.621q-2.227.157-4.388.52" transform="translate(-21.675 -12.313)" fill="#002732" stroke="rgba(0,0,0,0)" stroke-width="1"/>
      <path id="Path_1041" data-name="Path 1041" d="M79.294,43.675q-.436.587-.889,1.153l-.288.356a1,1,0,0,0-.3.8,1.118,1.118,0,0,0,.135.36,2.944,2.944,0,0,0,.237.408l.421.623.707-.653-.038-.056c-.18-.267-.278-.449-.019-.748.8-.836,1.6-1.724,2.325-2.62q.4-.491.787-1,.442-.578.868-1.176a1.045,1.045,0,0,0,.141-1Z" transform="translate(-21.86 -11.274)" fill="#002732" stroke="rgba(0,0,0,0)" stroke-width="1"/>
      <path id="Path_1042" data-name="Path 1042" d="M78.788,36.213q-.883.7-1.715,1.444a30.741,30.741,0,0,1-1.105,3.055,39.433,39.433,0,0,1,3.974-2.978c.339-.191.6-.044.9.274s.493.538.316.888q-.555.95-1.154,1.857c-.385.588-.8,1.179-1.23,1.753l4.089-3.547a2.962,2.962,0,0,0-.772-1.046,15.452,15.452,0,0,0-1.214-1.162c-.846-.71-1.417-1.048-2.09-.539" transform="translate(-21.342 -10.105)" fill="#002732" stroke="rgba(0,0,0,0)" stroke-width="1"/>
      <path id="Path_1043" data-name="Path 1043" d="M73.877,43.726a.455.455,0,0,1-.667-.046l-.042-.035a.447.447,0,0,1-.151-.66,30.043,30.043,0,0,0,1.242-2.848q.55-1.46.969-3.009c.248-.8-.234-1.163-1.112-1.637a7.254,7.254,0,0,0-.874-.4l-.155.966c.342.134.529.3.468.667a30.858,30.858,0,0,1-.68,3.08c-.139.5-.288.991-.451,1.478s-.348.989-.539,1.471c-.232.525-.183.815.035,1.048.076.081.17.17.289.28.228.2.47.383.7.586a.908.908,0,0,0,1.392.146q.564-.357,1.143-.7c.746-.933,1.427-1.875,2.077-2.863a40.807,40.807,0,0,0-3.644,2.469" transform="translate(-20.153 -9.859)" fill="#002732" stroke="rgba(0,0,0,0)" stroke-width="1"/>
      <path id="Path_1044" data-name="Path 1044" d="M70.177,36.586c-.045.479-.1.952-.166,1.427l-.068.455c-.126.8.206,1.046.819,1.3l.639.347.3-.919-.059-.032c-.278-.148-.442-.267-.367-.651q.418-1.67.681-3.409.095-.632.169-1.271.084-.73.14-1.469a.983.983,0,0,0-.419-.925Z" transform="translate(-19.643 -8.832)" fill="#002732" stroke="rgba(0,0,0,0)" stroke-width="1"/>
      <path id="Path_1045" data-name="Path 1045" d="M65.295,30.885q-.363,1.061-.657,2.128a29.767,29.767,0,0,1,.743,3.185c.233-.792.5-1.591.79-2.369s.613-1.531.965-2.289c.188-.346.488-.325.935-.247s.728.193.764.587q.032,1.111,0,2.206-.036,1.073-.135,2.127l1.67-5.148a3.969,3.969,0,0,0-1.253-.513l-.421-.114-.43-.078-.861-.15a7.294,7.294,0,0,0-.761-.094,1.957,1.957,0,0,0-.6.073,1.056,1.056,0,0,0-.739.7" transform="translate(-18.159 -8.461)" fill="#002732" stroke="rgba(0,0,0,0)" stroke-width="1"/>
      <path id="Path_1046" data-name="Path 1046" d="M65.026,40.279c-.15.362-.312.357-.562.312l-.05-.009c-.249-.058-.416-.084-.459-.466a28.735,28.735,0,0,0-.5-3.066c-.221-1.029-.511-2.058-.823-3.052a.993.993,0,0,0-.6-.721,2.381,2.381,0,0,0-1.145-.08c-.306.029-.612.053-.918.09.122.3.239.613.353.92.354-.029.591-.008.728.336a41.677,41.677,0,0,1,1.85,5.985c.118.549.29.794.59.882a1.162,1.162,0,0,0,.374.063,1.81,1.81,0,0,1,.421.055l.419.073a2.246,2.246,0,0,0,.359.028.633.633,0,0,0,.3-.035,1.1,1.1,0,0,0,.529-.615q.291-.607.61-1.207a34.151,34.151,0,0,0,.3-3.522q-.511.979-.954,1.976c-.3.674-.574,1.365-.825,2.054" transform="translate(-16.85 -9.318)" fill="#002732" stroke="rgba(0,0,0,0)" stroke-width="1"/>
      <path id="Path_1047" data-name="Path 1047" d="M58.265,36.086c.2.44.386.877.57,1.33l.17.426a1.031,1.031,0,0,0,.557.659,2.145,2.145,0,0,0,.862.045c.256-.019.506-.056.767-.064l-.239-.942-.069.006c-.325.031-.534.029-.67-.341-.345-1.114-.73-2.221-1.16-3.3q-.235-.591-.488-1.179-.289-.671-.6-1.337a1,1,0,0,0-.8-.6Z" transform="translate(-16.059 -8.649)" fill="#002732" stroke="rgba(0,0,0,0)" stroke-width="1"/>
      <path id="Path_1048" data-name="Path 1048" d="M50.943,33.078c.132.739.28,1.456.461,2.184a27.752,27.752,0,0,1,2.2,2.417,33.567,33.567,0,0,1-.724-4.925c-.005-.4.264-.533.693-.659s.719-.188.941.134c.376.636.732,1.281,1.069,1.93s.64,1.277.931,1.922l-1.1-5.3a3.666,3.666,0,0,0-1.3.155c-.549.171-1.1.316-1.642.525-1.067.391-1.642.8-1.523,1.616" transform="translate(-14.308 -8.644)" fill="#002732" stroke="rgba(0,0,0,0)" stroke-width="1"/>
      <path id="Path_1049" data-name="Path 1049" d="M54.9,41.848c.041.384-.113.447-.345.547l-.048.019a.437.437,0,0,1-.628-.189,27.761,27.761,0,0,0-1.921-2.445,26.99,26.99,0,0,0-2.22-2.233c-.592-.569-1.175-.336-1.995.273-.255.2-.515.4-.764.613.269.182.543.375.808.568.293-.229.513-.347.813-.132a25.567,25.567,0,0,1,4.6,4.225c.356.452.6.526.907.479a1.1,1.1,0,0,0,.35-.119c.268-.1.521-.217.8-.3a1.177,1.177,0,0,0,.6-.335,1.048,1.048,0,0,0,.179-.8q-.04-.672-.057-1.35-.663-1.625-1.488-3.216a36.487,36.487,0,0,0,.407,4.393" transform="translate(-13.198 -10.457)" fill="#002732" stroke="rgba(0,0,0,0)" stroke-width="1"/>
      <path id="Path_1050" data-name="Path 1050" d="M47.054,42.142q.621.375,1.22.774l.375.253a1.075,1.075,0,0,0,.815.252,1.909,1.909,0,0,0,.7-.4l.274-.219.29-.2q-.335-.348-.683-.687l-.055.036c-.254.175-.41.293-.724.05a31.667,31.667,0,0,0-2.776-2.124q-.526-.359-1.07-.7-.621-.39-1.265-.758a1.017,1.017,0,0,0-1.019-.015Z" transform="translate(-12.118 -10.754)" fill="#002732" stroke="rgba(0,0,0,0)" stroke-width="1"/>
      <path id="Path_1051" data-name="Path 1051" d="M39.754,42.865q.793.792,1.615,1.533,1.62.319,3.169.774a39.038,39.038,0,0,1-3.415-3.618c-.229-.318-.082-.572.183-.933s.493-.563.859-.428c.674.3,1.33.613,1.977.948s1.263.684,1.872,1.051l-3.919-3.733a3.3,3.3,0,0,0-1.006.91c-.381.441-.71.9-1.045,1.367-.626.915-.857,1.534-.289,2.129" transform="translate(-11.078 -10.805)" fill="#002732" stroke="rgba(0,0,0,0)" stroke-width="1"/>
      <path id="Path_1052" data-name="Path 1052" d="M47.839,47.23a.419.419,0,0,1,.022.651l-.029.046a.441.441,0,0,1-.633.231A35.124,35.124,0,0,0,41.14,46.6c-.8-.159-1.148.315-1.51,1.194l-.328.848.978.109c.131-.327.255-.526.622-.493a37.974,37.974,0,0,1,6.171,1.089.906.906,0,0,0,1.059-.175,2.232,2.232,0,0,0,.25-.334c.164-.259.328-.516.508-.748a1.221,1.221,0,0,0,.289-.608,1.14,1.14,0,0,0-.329-.744q-.42-.521-.82-1.064a32.064,32.064,0,0,0-3.052-1.795,35.993,35.993,0,0,0,2.861,3.354" transform="translate(-11.042 -12.327)" fill="#002732" stroke="rgba(0,0,0,0)" stroke-width="1"/>
      <path id="Path_1053" data-name="Path 1053" d="M40.962,53.09q.724.052,1.443.122l.453.045c.8.093,1.023-.309,1.291-.974.091-.246.193-.483.3-.717l-.946-.214-.028.063c-.134.3-.219.495-.613.447-1.145-.2-2.307-.358-3.464-.48l-1.269-.122q-.726-.061-1.458-.106a1,1,0,0,0-.891.378Z" transform="translate(-10.051 -14.372)" fill="#002732" stroke="rgba(0,0,0,0)" stroke-width="1"/>
      <path id="Path_1054" data-name="Path 1054" d="M35.159,56.132q1.023.438,2.051.847,1.625-.218,3.239-.357c-1.52-.626-3.036-1.306-4.527-2.041-.338-.192-.31-.454-.222-.845s.193-.64.58-.66c.731,0,1.457.017,2.185.044s1.428.066,2.137.117l-5.184-1.556a2.908,2.908,0,0,0-.461,1.1c-.134.492-.24.981-.349,1.47-.2.956-.189,1.54.552,1.88" transform="translate(-9.692 -14.52)" fill="#002732" stroke="rgba(0,0,0,0)" stroke-width="1"/>
      <path id="Path_1055" data-name="Path 1055" d="M44.4,56.567c.351.177.328.375.26.678l-.012.063c-.059.308-.126.511-.518.535-2.074.113-4.163.331-6.243.64-.8.1-.979.616-1.064,1.508l-.071.856.966-.152c.033-.337.1-.554.457-.623,2.072-.395,4.142-.7,6.217-.915a.924.924,0,0,0,.956-.636,2.755,2.755,0,0,0,.13-.485c.068-.37.141-.736.227-1.094.155-.663.16-1.082-.549-1.434l-1.2-.619c-1.172-.111-2.361-.19-3.541-.231,1.317.685,2.635,1.314,3.986,1.909" transform="translate(-10.324 -15.356)" fill="#002732" stroke="rgba(0,0,0,0)" stroke-width="1"/>
      <path id="Path_1056" data-name="Path 1056" d="M39.061,64.51l1.43-.249.452-.075c.789-.124.918-.593.984-1.36.022-.278.049-.556.082-.831l-.969.091-.008.073c-.037.343-.071.563-.461.633q-1.735.211-3.462.488l-1.257.206-1.432.256a1,1,0,0,0-.767.547Z" transform="translate(-9.454 -17.417)" fill="#002732" stroke="rgba(0,0,0,0)" stroke-width="1"/>
      <path id="Path_1057" data-name="Path 1057" d="M34.352,69.428q1.088.206,2.176.38,1.548-.57,3.1-1.056-2.434-.421-4.873-1c-.373-.109-.423-.378-.415-.754s.035-.63.411-.735q1.069-.238,2.137-.454,1.045-.211,2.1-.4l-5.408-.221a2.707,2.707,0,0,0-.181,1.1c0,.479-.022.933,0,1.437.032.966.162,1.536.952,1.708" transform="translate(-9.38 -18.313)" fill="#002732" stroke="rgba(0,0,0,0)" stroke-width="1"/>
      <path id="Path_1058" data-name="Path 1058" d="M43.663,67.273c.376.1.406.306.419.62l0,.064c.013.316-.007.529-.384.638a61.412,61.412,0,0,0-5.962,1.995c-.756.275-.8.831-.692,1.744a7.428,7.428,0,0,0,.143.877l.894-.388c-.074-.342-.033-.575.3-.728a57.328,57.328,0,0,1,5.844-2.285.94.94,0,0,0,.8-.818,2.14,2.14,0,0,0,.029-.5l-.042-1.135c0-.741-.085-1.194-.864-1.376l-1.315-.324c-1.168.2-2.328.413-3.492.649,1.433.352,2.878.674,4.318.969" transform="translate(-10.396 -18.445)" fill="#002732" stroke="rgba(0,0,0,0)" stroke-width="1"/>
      <path id="Path_1059" data-name="Path 1059" d="M40.055,76.018q.659-.315,1.322-.613l.419-.186c.738-.321.741-.776.61-1.5l-.091-.8-.923.307.009.071c.038.336.042.554-.323.713-1.083.4-2.152.841-3.22,1.312l-1.16.524q-.66.307-1.317.631a1.035,1.035,0,0,0-.6.772Z" transform="translate(-9.772 -20.484)" fill="#002732" stroke="rgba(0,0,0,0)" stroke-width="1"/>
      <path id="Path_1060" data-name="Path 1060" d="M36.887,82.6q1.1-.154,2.187-.354,1.253-1.084,2.559-2.046a49.757,49.757,0,0,1-4.952.585c-.388,0-.495-.248-.615-.647s-.167-.669.157-.884q.946-.55,1.9-1.058c.625-.331,1.278-.654,1.92-.963l-5.272,1.225a1.767,1.767,0,0,0-.005.539,6.174,6.174,0,0,0,.164.665l.451,1.509c.34.979.7,1.518,1.5,1.429" transform="translate(-9.763 -21.697)" fill="#002732" stroke="rgba(0,0,0,0)" stroke-width="1"/>
      <path id="Path_1061" data-name="Path 1061" d="M45.73,77.5c.388-.029.462.145.542.428a.28.28,0,0,0,.019.055c.11.265.157.453-.166.671q-1.289.86-2.535,1.832-.622.486-1.232,1-.591.506-1.168,1.042c-.6.53-.439,1.1.022,1.946l.514.785.667-.72c-.194-.3-.287-.524-.041-.795a37.381,37.381,0,0,1,4.635-4.227.928.928,0,0,0,.51-.973,1.654,1.654,0,0,0-.122-.427l-.192-.462-.143-.5c-.175-.615-.406-.951-1.192-.907l-1.34.058q-.811.366-1.616.757-.788.386-1.57.8,2.229-.1,4.408-.369" transform="translate(-11.462 -21.422)" fill="#002732" stroke="rgba(0,0,0,0)" stroke-width="1"/>
      <path id="Path_1062" data-name="Path 1062" d="M45.283,86.4q.459-.557.935-1.092l.3-.336c.546-.593.409-1,.025-1.576a5.141,5.141,0,0,1-.37-.658l-.751.62.032.061c.139.295.25.465-.023.748q-1.266,1.179-2.453,2.481-.431.472-.851.961-.478.558-.942,1.135a.971.971,0,0,0-.177.98Z" transform="translate(-11.504 -23.243)" fill="#002732" stroke="rgba(0,0,0,0)" stroke-width="1"/>
      <path id="Path_1063" data-name="Path 1063" d="M45.006,94.12q.91-.657,1.77-1.356a31.792,31.792,0,0,1,1.245-3.014,35.807,35.807,0,0,1-4.112,2.791c-.352.177-.581-.006-.9-.32s-.468-.564-.276-.9q.608-.928,1.26-1.808.636-.863,1.312-1.681L41.035,91.15a3.786,3.786,0,0,0,.716,1.1,14.54,14.54,0,0,0,1.178,1.225c.779.8,1.4,1.1,2.077.644" transform="translate(-11.528 -24.674)" fill="#002732" stroke="rgba(0,0,0,0)" stroke-width="1"/>
      <path id="Path_1064" data-name="Path 1064" d="M50.756,85.529a.428.428,0,0,1,.655.077l.038.037a.465.465,0,0,1,.111.664,30.912,30.912,0,0,0-2.466,5.75c-.26.759.184,1.176,1.038,1.69l.859.421.2-.962c-.326-.164-.522-.308-.448-.667a30.159,30.159,0,0,1,1.923-5.952c.256-.517.227-.815.029-1.063a1.247,1.247,0,0,0-.281-.273c-.224-.195-.424-.421-.643-.623a1.689,1.689,0,0,0-.568-.4,1.062,1.062,0,0,0-.8.193q-.586.332-1.188.647-1.165,1.31-2.227,2.75a36.6,36.6,0,0,0,3.764-2.289" transform="translate(-13.202 -23.657)" fill="#002732" stroke="rgba(0,0,0,0)" stroke-width="1"/>
      <path id="Path_1065" data-name="Path 1065" d="M55.363,93.316q.1-.716.233-1.422l.085-.444c.147-.759-.159-1.063-.767-1.343a4.708,4.708,0,0,1-.627-.366l-.342.91.057.036c.26.179.44.268.348.65q-.492,1.658-.834,3.39-.125.629-.229,1.266c-.078.482-.152.979-.209,1.458a1,1,0,0,0,.371.928Z" transform="translate(-14.91 -25.212)" fill="#002732" stroke="rgba(0,0,0,0)" stroke-width="1"/>
      <path id="Path_1066" data-name="Path 1066" d="M58.524,100.24q.431-1.029.8-2.067-.329-1.63-.5-3.243a37.552,37.552,0,0,1-2.048,4.542c-.206.332-.5.292-.927.184s-.706-.2-.717-.608q.032-1.114.127-2.209.092-1.073.244-2.126l-1.915,5.062a3.85,3.85,0,0,0,1.2.584c.546.153,1.1.286,1.647.422a2.915,2.915,0,0,0,1.322.093,1.029,1.029,0,0,0,.764-.635" transform="translate(-15.057 -26.609)" fill="#002732" stroke="rgba(0,0,0,0)" stroke-width="1"/>
      <path id="Path_1067" data-name="Path 1067" d="M59.009,89.913c.173-.349.342-.33.6-.262l.052.014c.259.06.437.093.455.486a32.521,32.521,0,0,0,.874,6.2,1,1,0,0,0,.558.765,1.831,1.831,0,0,0,.509.145,3.844,3.844,0,0,0,.712.006c.342-.025.689-.022,1.027-.078-.128-.3-.249-.6-.365-.913-.385.019-.643-.011-.772-.359q-.275-.746-.488-1.494-.212-.769-.388-1.538-.349-1.536-.55-3.064a1.267,1.267,0,0,0-.18-.613.77.77,0,0,0-.368-.3,1.37,1.37,0,0,0-.395-.1,5.277,5.277,0,0,1-.887-.187c-.55-.11-.88-.154-1.262.544q-.324.589-.672,1.17-.317,1.728-.471,3.518a37.508,37.508,0,0,0,2.011-3.935" transform="translate(-16.013 -24.878)" fill="#002732" stroke="rgba(0,0,0,0)" stroke-width="1"/>
      <path id="Path_1068" data-name="Path 1068" d="M66.671,94.736q-.327-.647-.613-1.3l-.176-.415a1.142,1.142,0,0,0-.522-.664,1.752,1.752,0,0,0-.736-.065l-.321.018a1.756,1.756,0,0,1-.344,0l.17.961.063,0c.292-.019.477-.006.6.369a24.294,24.294,0,0,0,1.122,3.308q.247.589.525,1.173.317.664.675,1.321a1.031,1.031,0,0,0,.9.543Z" transform="translate(-17.969 -25.926)" fill="#002732" stroke="rgba(0,0,0,0)" stroke-width="1"/>
      <path id="Path_1069" data-name="Path 1069" d="M73.619,97.43c-.2-.713-.444-1.422-.707-2.124a26.453,26.453,0,0,1-2.455-2.156c.269.778.51,1.575.72,2.386s.371,1.613.508,2.443c.036.391-.221.567-.665.751s-.759.256-1.013-.047c-.435-.594-.841-1.194-1.229-1.829q-.566-.925-1.046-1.875l1.342,5.243a3.564,3.564,0,0,0,1.438-.283l.876-.331c.292-.111.557-.256.836-.385a7.716,7.716,0,0,0,.709-.383,2.266,2.266,0,0,0,.468-.415,1.041,1.041,0,0,0,.219-1" transform="translate(-19.029 -26.17)" fill="#002732" stroke="rgba(0,0,0,0)" stroke-width="1"/>
      <path id="Path_1070" data-name="Path 1070" d="M67.526,89.521c-.086-.38.036-.47.247-.569l.042-.02a.425.425,0,0,1,.617.128,25.845,25.845,0,0,0,2.179,2.227,29.431,29.431,0,0,0,2.451,1.972c.658.506,1.181.2,1.93-.447l.67-.66-.846-.5c-.26.25-.458.385-.777.2a28.778,28.778,0,0,1-5.034-3.722c-.4-.413-.676-.444-.96-.367a1.063,1.063,0,0,0-.329.145,1.9,1.9,0,0,1-.343.185l-.34.17c-.421.157-.625.357-.513,1.119q.1.659.157,1.332a24.962,24.962,0,0,0,1.642,3.137,27.6,27.6,0,0,0-.795-4.324" transform="translate(-18.68 -24.646)" fill="#002732" stroke="rgba(0,0,0,0)" stroke-width="1"/>
      <path id="Path_1071" data-name="Path 1071" d="M75.821,88.855q-.645-.341-1.273-.7l-.395-.228a.982.982,0,0,0-.836-.165,1.7,1.7,0,0,0-.7.482,7.271,7.271,0,0,1-.549.488l.753.61.051-.043c.246-.2.4-.336.731-.127q1.42,1,2.947,1.888.557.326,1.112.628.637.347,1.29.677a1.03,1.03,0,0,0,.994-.009Z" transform="translate(-20.247 -24.646)" fill="#002732" stroke="rgba(0,0,0,0)" stroke-width="1"/>
      <path id="Path_1072" data-name="Path 1072" d="M83.464,87.411q-.79-.785-1.6-1.535-1.608-.365-3.162-.826c1.2,1.141,2.353,2.331,3.444,3.584.24.309.111.552-.124.9-.251.339-.449.539-.818.411q-1.015-.422-2-.884c-.64-.3-1.284-.619-1.915-.953l4.125,3.5a3.007,3.007,0,0,0,.9-.881c.162-.213.331-.424.485-.639l.445-.653c.595-.849.773-1.436.224-2.022" transform="translate(-21.713 -23.894)" fill="#002732" stroke="rgba(0,0,0,0)" stroke-width="1"/>
      <path id="Path_1073" data-name="Path 1073" d="M74.012,83.511c-.262-.294-.175-.462-.009-.7l.032-.049c.17-.237.292-.4.662-.275a48.411,48.411,0,0,0,6.049,1.639c.782.182,1.158-.253,1.531-1.1.121-.269.25-.536.365-.808l-.967-.165c-.147.313-.281.5-.647.448a50.464,50.464,0,0,1-6.14-1.281.92.92,0,0,0-1.094.213,1.816,1.816,0,0,0-.278.376c-.175.306-.384.571-.569.861-.366.51-.519.856.006,1.466.293.34.578.682.86,1.031,1.032.59,2.074,1.12,3.148,1.624-.944-1.148-1.916-2.228-2.947-3.281" transform="translate(-20.4 -22.795)" fill="#002732" stroke="rgba(0,0,0,0)" stroke-width="1"/>
      <path id="Path_1074" data-name="Path 1074" d="M81.681,78.979l-1.442-.214-.452-.073c-.8-.139-1.037.261-1.352.933l-.337.733.936.243.03-.065c.14-.306.25-.494.639-.43q1.712.379,3.433.662l1.256.2,1.445.2a1.028,1.028,0,0,0,.918-.3Z" transform="translate(-21.941 -22.1)" fill="#002732" stroke="rgba(0,0,0,0)" stroke-width="1"/>
    </g>
    <path id="Path_809" data-name="Path 809" d="M211.825,620.053H42.271a11.011,11.011,0,0,0-10.979,10.979V751.576a11.011,11.011,0,0,0,10.979,10.979h62.3a3.648,3.648,0,0,1,3.648,3.648v6.057a3.648,3.648,0,0,1-3.648,3.648H97.536a3.648,3.648,0,0,0,0,7.3h59.026a3.648,3.648,0,0,0,0-7.3h-7.038a3.648,3.648,0,0,1-3.648-3.648V766.2a3.648,3.648,0,0,1,3.648-3.648h62.3A11.011,11.011,0,0,0,222.8,751.576V631.032a11.011,11.011,0,0,0-10.979-10.979m.368,114.72a5.337,5.337,0,0,1-5.321,5.322H45.744a5.338,5.338,0,0,1-5.322-5.322V634.66a5.337,5.337,0,0,1,5.322-5.321H206.872a5.337,5.337,0,0,1,5.321,5.321Z" transform="translate(-31.292 -620.053)" fill="#002732" stroke="rgba(0,0,0,0)" stroke-width="1"/>
  </g>
</svg>
