<svg id="Group_334" data-name="Group 334" xmlns="http://www.w3.org/2000/svg" xmlns:xlink="http://www.w3.org/1999/xlink" width="686.231" height="114.259" viewBox="0 0 686.231 114.259">
  <defs>
    <clipPath id="clip-path">
      <rect id="Rectangle_125" data-name="Rectangle 125" width="686.231" height="114.259" fill="none"/>
    </clipPath>
  </defs>
  <rect id="Rectangle_123" data-name="Rectangle 123" width="168.212" height="114.259" transform="translate(0 0)" fill="#fff"/>
  <rect id="Rectangle_124" data-name="Rectangle 124" width="161.743" height="107.83" transform="translate(3.237 3.136)" fill="#003383"/>
  <path id="Path_1222" data-name="Path 1222" d="M21.638,14.571l3.414-2.491,3.414,2.491-1.3-4.027,3.467-2.487H26.358L25.052,3.978l-1.31,4.083-4.269,0,3.467,2.487Z" transform="translate(59.022 12.056)" fill="#ffe800"/>
  <path id="Path_1223" data-name="Path 1223" d="M17.26,15.752l3.41-2.491,3.41,2.491-1.294-4.031,3.463-2.487H21.976L20.67,5.155,19.36,9.238l-4.269,0,3.463,2.487Z" transform="translate(45.74 15.623)" fill="#ffe800"/>
  <path id="Path_1224" data-name="Path 1224" d="M17.464,8.367l-1.306,4.087-4.273,0,3.467,2.487-1.3,4.031,3.414-2.491,3.414,2.491-1.3-4.031,3.467-2.487H18.774Z" transform="translate(36.024 25.359)" fill="#ffe800"/>
  <path id="Path_1225" data-name="Path 1225" d="M16.291,20.853l3.41,2.491-1.3-4.031,3.467-2.491H17.6l-1.306-4.079-1.306,4.091-4.277-.012,3.471,2.491-1.3,4.031Z" transform="translate(32.456 38.623)" fill="#ffe800"/>
  <path id="Path_1226" data-name="Path 1226" d="M18.771,21.215l-1.306-4.083L16.159,21.22l-4.273,0,3.463,2.491-1.3,4.027,3.414-2.5,3.41,2.5-1.3-4.027,3.467-2.491Z" transform="translate(36.025 51.925)" fill="#ffe800"/>
  <path id="Path_1227" data-name="Path 1227" d="M21.983,24.422l-1.306-4.075-1.306,4.079-4.273,0,3.463,2.487L17.267,30.94l3.41-2.491,3.41,2.491-1.3-4.031,3.467-2.487Z" transform="translate(45.762 61.668)" fill="#ffe800"/>
  <path id="Path_1228" data-name="Path 1228" d="M26.359,25.589l-1.31-4.079-1.3,4.083-4.273,0,3.463,2.491-1.3,4.027,3.414-2.491,3.41,2.491-1.3-4.027,3.467-2.491Z" transform="translate(59.025 65.192)" fill="#ffe800"/>
  <path id="Path_1229" data-name="Path 1229" d="M30.736,24.422,29.43,20.347l-1.31,4.079-4.269,0,3.463,2.487-1.3,4.031,3.414-2.491,3.41,2.491-1.3-4.031,3.467-2.487Z" transform="translate(72.289 61.668)" fill="#ffe800"/>
  <path id="Path_1230" data-name="Path 1230" d="M33.952,21.215l-1.31-4.083-1.31,4.087-4.269,0,3.467,2.491-1.3,4.027,3.414-2.5,3.414,2.5-1.3-4.027,3.467-2.491Z" transform="translate(82.024 51.925)" fill="#ffe800"/>
  <path id="Path_1231" data-name="Path 1231" d="M39.387,16.811H35.115L33.8,12.732l-1.3,4.083-4.277,0L31.692,19.3l-1.3,4.027,3.41-2.5,3.414,2.5-1.3-4.027Z" transform="translate(85.549 38.588)" fill="#ffe800"/>
  <path id="Path_1232" data-name="Path 1232" d="M29.228,18.948l3.414-2.491,3.41,2.491-1.3-4.027,3.463-2.483H33.948L32.642,8.355l-1.314,4.083H27.064l3.467,2.483Z" transform="translate(82.027 25.323)" fill="#ffe800"/>
  <path id="Path_1233" data-name="Path 1233" d="M29.442,5.155,28.136,9.238,23.863,9.23l3.463,2.5-1.3,4.031,3.418-2.5,3.41,2.5-1.3-4.031,3.467-2.5H30.748Z" transform="translate(72.325 15.624)" fill="#ffe800"/>
  <path id="Path_1234" data-name="Path 1234" d="M47.236,6.366v5.1h6.058v2.128H47.236V20.2h8.312v2.253H44.733V4.113H55.685V6.366Z" transform="translate(135.58 12.464)" fill="#161615"/>
  <path id="Path_1235" data-name="Path 1235" d="M54.084,19.02h-.625L47.711,5.327h2.6l3.543,9.388,3.616-9.388h2.491Z" transform="translate(144.606 16.146)" fill="#161615"/>
  <g id="Group_335" data-name="Group 335" transform="translate(0 0)">
    <g id="Group_334-2" data-name="Group 334" clip-path="url(#clip-path)">
      <path id="Path_1236" data-name="Path 1236" d="M58.352,7.813a2.732,2.732,0,0,0-1.564-.536,2.8,2.8,0,0,0-2.213,1.161,4.322,4.322,0,0,0-.943,2.805v7.687H51.254V5.524h2.378v2.14a4.162,4.162,0,0,1,3.87-2.39A10.5,10.5,0,0,1,59.34,5.5Z" transform="translate(155.344 15.985)" fill="#161615"/>
      <path id="Path_1237" data-name="Path 1237" d="M55.965,12.2q0,5.043,3.567,5.043a3.006,3.006,0,0,0,2.612-1.35,6.354,6.354,0,0,0,.943-3.692q0-4.982-3.555-4.982a3.058,3.058,0,0,0-2.6,1.326,6.076,6.076,0,0,0-.971,3.656m-2.5,0a7.325,7.325,0,0,1,1.673-5.014A6.191,6.191,0,0,1,64,7.108,7.51,7.51,0,0,1,65.591,12.2a7.54,7.54,0,0,1-1.624,5.115,6.211,6.211,0,0,1-8.9-.02,7.624,7.624,0,0,1-1.6-5.1" transform="translate(162.036 15.985)" fill="#161615"/>
      <path id="Path_1238" data-name="Path 1238" d="M59.471,8.418v7.808a2.1,2.1,0,0,0,.951.645,3.6,3.6,0,0,0,1.415.306q4.426,0,4.43-5.006a5.479,5.479,0,0,0-1.052-3.716,4.312,4.312,0,0,0-3.366-1.177,2.939,2.939,0,0,0-1.225.351,3.931,3.931,0,0,0-1.153.79m0,9.775v6H57.093V5.524h2.378v1.1a4.437,4.437,0,0,1,3.265-1.354,5.659,5.659,0,0,1,4.446,1.778,7.58,7.58,0,0,1,1.588,5.208,7.566,7.566,0,0,1-1.6,4.99,5.685,5.685,0,0,1-4.631,1.931,6.246,6.246,0,0,1-1.822-.3,2.406,2.406,0,0,1-1.246-.689" transform="translate(173.041 15.985)" fill="#161615"/>
      <path id="Path_1239" data-name="Path 1239" d="M60.418,18.128l.838-2.253a6.474,6.474,0,0,0,3.2,1.3c1.467,0,2.2-.617,2.2-1.854,0-.883-.709-1.645-2.128-2.277a17.262,17.262,0,0,1-2.209-1.137,5.121,5.121,0,0,1-.992-.883,3.542,3.542,0,0,1-.625-1.052,3.426,3.426,0,0,1-.206-1.2,3.064,3.064,0,0,1,1.2-2.576,4.981,4.981,0,0,1,3.14-.927A10.01,10.01,0,0,1,68.54,6.2l-.673,2.2a4.56,4.56,0,0,0-2.842-1.125,2.485,2.485,0,0,0-1.435.4,1.193,1.193,0,0,0-.58,1.016,2.109,2.109,0,0,0,1.463,1.951l1.7.774a6.026,6.026,0,0,1,2.281,1.628,3.611,3.611,0,0,1,.713,2.29A3.437,3.437,0,0,1,67.9,18.161a5.427,5.427,0,0,1-3.5,1.02,7.976,7.976,0,0,1-3.982-1.052" transform="translate(183.119 15.985)" fill="#161615"/>
      <path id="Path_1240" data-name="Path 1240" d="M71.873,22.874l-4.208-6.707-2.076,2.14v4.567H63.21V3.973h2.378V15.7L70.72,9.467H73.5l-4.293,5.1,5.244,8.312Z" transform="translate(191.582 12.042)" fill="#161615"/>
      <path id="Path_1241" data-name="Path 1241" d="M74.821,3.637,71.995,7.8H70.242l2.116-4.168ZM74.285,17.31a8.491,8.491,0,0,0-1.576-.254,4.519,4.519,0,0,0-2.943.927,2.764,2.764,0,0,0-1.141,2.193q0,2.086,2.467,2.088a4.055,4.055,0,0,0,3.192-1.713Zm.226,5.043a5.248,5.248,0,0,1-4.369,1.79A3.757,3.757,0,0,1,67.408,23a3.845,3.845,0,0,1-1.161-2.85A4.252,4.252,0,0,1,68.033,16.7a7.115,7.115,0,0,1,4.551-1.407,5.291,5.291,0,0,1,1.7.322q0-3.253-2.9-3.253a4.636,4.636,0,0,0-3.43,1.2l-1-1.991a5.9,5.9,0,0,1,1.87-.943,7.331,7.331,0,0,1,2.286-.4,5.8,5.8,0,0,1,4.24,1.326,5.794,5.794,0,0,1,1.318,4.22v4.8a2.455,2.455,0,0,0,1.052,2.354V24.13a4.5,4.5,0,0,1-2.173-.411,2.351,2.351,0,0,1-1.032-1.366" transform="translate(200.786 11.023)" fill="#161615"/>
      <path id="Path_1242" data-name="Path 1242" d="M74.022,5.336v8.549q0,3.1,2.693,3.1a3.72,3.72,0,0,0,2.152-.673,3.272,3.272,0,0,0,1.29-1.568V5.336h2.378V18.743H80.157V16.888a3.706,3.706,0,0,1-1.608,1.447,4.912,4.912,0,0,1-2.362.657,4.378,4.378,0,0,1-3.374-1.266,5.1,5.1,0,0,1-1.169-3.592v-8.8Z" transform="translate(217.144 16.173)" fill="#161615"/>
      <path id="Path_1243" data-name="Path 1243" d="M83.4,18.931v-7.8a5.164,5.164,0,0,0-.645-3A2.54,2.54,0,0,0,80.6,7.277a3.518,3.518,0,0,0-1.7.488,3.814,3.814,0,0,0-1.366,1.2v9.964H75.15V5.524h1.628l.75,1.729a4.132,4.132,0,0,1,3.845-1.979q4.408,0,4.406,5.357v8.3Z" transform="translate(227.77 15.985)" fill="#161615"/>
      <path id="Path_1244" data-name="Path 1244" d="M81.6,4.078a1.424,1.424,0,0,1,1.048.435,1.4,1.4,0,0,1,.427,1.032,1.469,1.469,0,1,1-2.939,0A1.452,1.452,0,0,1,81.6,4.078m-1.3,18.478v-11.4H78.455v-2h4.216V22.556Z" transform="translate(237.787 12.36)" fill="#161615"/>
      <path id="Path_1245" data-name="Path 1245" d="M86.619,7.277a3.762,3.762,0,0,0-3.833,3.458H90.21a3.391,3.391,0,0,0-.9-2.406,3.51,3.51,0,0,0-2.689-1.052m5.768,5.184H82.725a4.823,4.823,0,0,0,1.29,3.616,4.018,4.018,0,0,0,2.926,1.1,5.011,5.011,0,0,0,3.406-1.189l1,1.713a4.529,4.529,0,0,1-1.693.951,9.139,9.139,0,0,1-3.18.524,5.925,5.925,0,0,1-4.293-1.713,6.719,6.719,0,0,1-1.963-5.083,7.166,7.166,0,0,1,2.015-5.321,5.853,5.853,0,0,1,4.269-1.79A6.094,6.094,0,0,1,91,6.89a5.519,5.519,0,0,1,1.58,4.12,5.333,5.333,0,0,1-.189,1.451" transform="translate(243.142 15.985)" fill="#161615"/>
      <path id="Path_1246" data-name="Path 1246" d="M47.236,13.73v5.1h6.058v2.128H47.236v6.611h8.312v2.253H44.733V11.477H55.685V13.73Z" transform="translate(135.58 34.785)" fill="#161615"/>
      <path id="Path_1247" data-name="Path 1247" d="M54.084,26.384h-.625L47.711,12.692h2.6l3.543,9.388,3.616-9.388h2.491Z" transform="translate(144.606 38.466)" fill="#161615"/>
      <path id="Path_1248" data-name="Path 1248" d="M58.352,15.178a2.732,2.732,0,0,0-1.564-.536A2.8,2.8,0,0,0,54.575,15.8a4.322,4.322,0,0,0-.943,2.805V26.3H51.254V12.889h2.378v2.14a4.162,4.162,0,0,1,3.87-2.39,10.5,10.5,0,0,1,1.838.226Z" transform="translate(155.344 38.307)" fill="#161615"/>
      <path id="Path_1249" data-name="Path 1249" d="M55.965,19.56q0,5.043,3.567,5.043a3.006,3.006,0,0,0,2.612-1.35,6.354,6.354,0,0,0,.943-3.692q0-4.982-3.555-4.982a3.057,3.057,0,0,0-2.6,1.326,6.076,6.076,0,0,0-.971,3.656m-2.5,0a7.325,7.325,0,0,1,1.673-5.014A6.191,6.191,0,0,1,64,14.473a7.51,7.51,0,0,1,1.588,5.087,7.54,7.54,0,0,1-1.624,5.115,6.211,6.211,0,0,1-8.9-.02,7.624,7.624,0,0,1-1.6-5.1" transform="translate(162.036 38.307)" fill="#161615"/>
      <path id="Path_1250" data-name="Path 1250" d="M59.471,15.782V23.59a2.1,2.1,0,0,0,.951.645,3.6,3.6,0,0,0,1.415.306q4.426,0,4.43-5.006a5.479,5.479,0,0,0-1.052-3.716,4.312,4.312,0,0,0-3.366-1.177,2.939,2.939,0,0,0-1.225.351,3.93,3.93,0,0,0-1.153.79m0,9.775v6H57.093V12.888h2.378v1.1a4.437,4.437,0,0,1,3.265-1.354,5.659,5.659,0,0,1,4.446,1.778,7.58,7.58,0,0,1,1.588,5.208,7.566,7.566,0,0,1-1.6,4.99,5.685,5.685,0,0,1-4.631,1.931,6.247,6.247,0,0,1-1.822-.3,2.406,2.406,0,0,1-1.246-.689" transform="translate(173.041 38.304)" fill="#161615"/>
      <path id="Path_1251" data-name="Path 1251" d="M60.418,25.493l.838-2.253a6.474,6.474,0,0,0,3.2,1.3c1.467,0,2.2-.617,2.2-1.854,0-.883-.709-1.645-2.128-2.277a17.262,17.262,0,0,1-2.209-1.137,5.121,5.121,0,0,1-.992-.883,3.542,3.542,0,0,1-.625-1.052,3.426,3.426,0,0,1-.206-1.2,3.064,3.064,0,0,1,1.2-2.576,4.981,4.981,0,0,1,3.14-.927,10.01,10.01,0,0,1,3.692.927l-.673,2.2a4.56,4.56,0,0,0-2.842-1.125,2.485,2.485,0,0,0-1.435.4,1.193,1.193,0,0,0-.58,1.016,2.109,2.109,0,0,0,1.463,1.951l1.7.774a6.026,6.026,0,0,1,2.281,1.628,3.611,3.611,0,0,1,.713,2.29A3.437,3.437,0,0,1,67.9,25.526a5.427,5.427,0,0,1-3.5,1.02,7.976,7.976,0,0,1-3.982-1.052" transform="translate(183.119 38.307)" fill="#161615"/>
      <path id="Path_1252" data-name="Path 1252" d="M71.873,30.238l-4.208-6.707-2.076,2.14v4.567H63.21v-18.9h2.378V23.063l5.131-6.232H73.5l-4.293,5.1,5.244,8.312Z" transform="translate(191.582 34.362)" fill="#161615"/>
      <path id="Path_1253" data-name="Path 1253" d="M75.335,11l-2.83,4.168H70.756L72.868,11Zm-2.64,22.533a4.132,4.132,0,0,1-1.947,2.128,6.517,6.517,0,0,1-3.309.851V34.385a4.56,4.56,0,0,0,2.552-.693,2.007,2.007,0,0,0,1.064-1.7,6.352,6.352,0,0,0-.387-2.173q-.387-1.07-1-2.648L66.036,17.85h2.427l3.946,10.363L75.952,17.85h2.427Z" transform="translate(200.147 33.346)" fill="#161615"/>
      <path id="Path_1254" data-name="Path 1254" d="M71.253,25.493l.838-2.253a6.474,6.474,0,0,0,3.2,1.3c1.467,0,2.2-.617,2.2-1.854,0-.883-.709-1.645-2.128-2.277a17.259,17.259,0,0,1-2.209-1.137,5.122,5.122,0,0,1-.992-.883,3.543,3.543,0,0,1-.625-1.052,3.427,3.427,0,0,1-.206-1.2,3.064,3.064,0,0,1,1.2-2.576,4.989,4.989,0,0,1,3.14-.927,10.01,10.01,0,0,1,3.692.927l-.673,2.2a4.56,4.56,0,0,0-2.842-1.125,2.485,2.485,0,0,0-1.435.4,1.193,1.193,0,0,0-.58,1.016,2.109,2.109,0,0,0,1.463,1.951l1.705.774a6.008,6.008,0,0,1,2.277,1.628A3.611,3.611,0,0,1,80,22.7a3.437,3.437,0,0,1-1.266,2.826,5.427,5.427,0,0,1-3.5,1.02,7.976,7.976,0,0,1-3.982-1.052" transform="translate(215.959 38.307)" fill="#161615"/>
      <path id="Path_1255" data-name="Path 1255" d="M76.33,19.56q0,5.043,3.567,5.043a3.015,3.015,0,0,0,2.612-1.35,6.354,6.354,0,0,0,.943-3.692q0-4.982-3.555-4.982A3.057,3.057,0,0,0,77.3,15.9a6.076,6.076,0,0,0-.971,3.656m-2.5,0A7.325,7.325,0,0,1,75.5,14.546a6.191,6.191,0,0,1,8.868-.073,7.51,7.51,0,0,1,1.588,5.087,7.54,7.54,0,0,1-1.624,5.115,6.211,6.211,0,0,1-8.9-.02,7.624,7.624,0,0,1-1.6-5.1" transform="translate(223.76 38.307)" fill="#161615"/>
      <path id="Path_1256" data-name="Path 1256" d="M88.232,13.977l-1.177,1.677a3.53,3.53,0,0,0-1.282-.689,5.484,5.484,0,0,0-1.81-.322A3.812,3.812,0,0,0,80.884,16a5.633,5.633,0,0,0-1.137,3.725,5.041,5.041,0,0,0,1.161,3.587,4.234,4.234,0,0,0,3.233,1.233A5.316,5.316,0,0,0,87.37,23.3l.939,2.007a8.6,8.6,0,0,1-4.744,1.237A6.055,6.055,0,0,1,79.03,24.7a6.836,6.836,0,0,1-1.79-4.982A7.122,7.122,0,0,1,79.1,14.578a7.11,7.11,0,0,1,7.34-1.5,6.389,6.389,0,0,1,1.79.9" transform="translate(234.104 38.307)" fill="#161615"/>
      <path id="Path_1257" data-name="Path 1257" d="M83.579,11.443a1.415,1.415,0,0,1,1.044.435,1.391,1.391,0,0,1,.431,1.032,1.412,1.412,0,0,1-.431,1.044,1.465,1.465,0,0,1-2.076,0,1.465,1.465,0,0,1,1.032-2.511m-1.3,18.478v-11.4H80.435v-2h4.22V29.921Z" transform="translate(243.788 34.682)" fill="#161615"/>
      <path id="Path_1258" data-name="Path 1258" d="M90.823,11l-2.83,4.168H86.244L88.36,11Zm-.536,13.673a8.47,8.47,0,0,0-1.58-.254,4.508,4.508,0,0,0-2.939.927,2.764,2.764,0,0,0-1.141,2.193q0,2.086,2.467,2.088a4.055,4.055,0,0,0,3.192-1.713Zm.226,5.043a5.248,5.248,0,0,1-4.37,1.79,3.757,3.757,0,0,1-2.733-1.145,3.845,3.845,0,0,1-1.161-2.85,4.252,4.252,0,0,1,1.786-3.446,7.115,7.115,0,0,1,4.551-1.407,5.291,5.291,0,0,1,1.7.322q0-3.253-2.9-3.253a4.63,4.63,0,0,0-3.43,1.2l-1-1.991A5.9,5.9,0,0,1,84.821,18a7.331,7.331,0,0,1,2.286-.4,5.794,5.794,0,0,1,4.236,1.326,5.777,5.777,0,0,1,1.322,4.22v4.8a2.455,2.455,0,0,0,1.052,2.354v1.189a4.5,4.5,0,0,1-2.173-.411,2.351,2.351,0,0,1-1.032-1.366" transform="translate(249.286 33.346)" fill="#161615"/>
      <path id="Path_1259" data-name="Path 1259" d="M85.808,26.446V11.338h2.378V26.047A2.288,2.288,0,0,0,88.8,27.74a2.194,2.194,0,0,0,1.624.621v2.128q-4.619,0-4.619-4.043" transform="translate(260.073 34.364)" fill="#161615"/>
      <path id="Path_1260" data-name="Path 1260" d="M95.887,26.3V18.5a5.164,5.164,0,0,0-.645-3,2.54,2.54,0,0,0-2.161-.855,3.518,3.518,0,0,0-1.7.488,3.814,3.814,0,0,0-1.366,1.2V26.3H87.636V12.889h1.628l.75,1.729a4.132,4.132,0,0,1,3.845-1.979q4.408,0,4.406,5.357v8.3Z" transform="translate(265.613 38.307)" fill="#161615"/>
      <path id="Path_1261" data-name="Path 1261" d="M96.7,11l-2.83,4.168H92.114L94.23,11ZM92.779,31.257v-11.4H90.941v-2h4.253V31.257Z" transform="translate(275.63 33.346)" fill="#161615"/>
      <path id="Path_1262" data-name="Path 1262" d="M102.747,13.465a4.1,4.1,0,0,0-1.35-.25,2.261,2.261,0,0,0-1.8.826,3.1,3.1,0,0,0-.709,2.088l.064.7h2.729v2H98.954v11.4H96.576v-11.4H94.625v-2h1.951A5.978,5.978,0,0,1,97.842,12.8a4.2,4.2,0,0,1,3.342-1.463,7.44,7.44,0,0,1,2.229.375Z" transform="translate(286.796 34.361)" fill="#161615"/>
      <path id="Path_1263" data-name="Path 1263" d="M99.478,19.56q0,5.043,3.567,5.043a3.015,3.015,0,0,0,2.612-1.35,6.354,6.354,0,0,0,.943-3.692q0-4.982-3.555-4.982a3.057,3.057,0,0,0-2.6,1.326,6.076,6.076,0,0,0-.971,3.656m-2.5,0a7.325,7.325,0,0,1,1.673-5.014,6.191,6.191,0,0,1,8.868-.073A7.51,7.51,0,0,1,109.1,19.56a7.54,7.54,0,0,1-1.624,5.115,6.211,6.211,0,0,1-8.9-.02,7.624,7.624,0,0,1-1.6-5.1" transform="translate(293.919 38.307)" fill="#161615"/>
      <path id="Path_1264" data-name="Path 1264" d="M108.856,26.3V18.5a5.163,5.163,0,0,0-.645-3,2.539,2.539,0,0,0-2.161-.855,3.519,3.519,0,0,0-1.7.488,3.814,3.814,0,0,0-1.366,1.2V26.3h-2.378V12.889h1.628l.75,1.729a4.132,4.132,0,0,1,3.845-1.979q4.408,0,4.406,5.357v8.3Z" transform="translate(304.921 38.307)" fill="#161615"/>
      <path id="Path_1265" data-name="Path 1265" d="M113.145,19.935a2.82,2.82,0,0,0-2.467-1.35,3.826,3.826,0,0,0-3.1,1.427,5.491,5.491,0,0,0-1.185,3.632q0,4.843,4.406,4.841a3.394,3.394,0,0,0,1.354-.355,1.974,1.974,0,0,0,.988-.758Zm0,10.291v-.988a4.88,4.88,0,0,1-3.6,1.237,5.149,5.149,0,0,1-4.083-1.8,7.071,7.071,0,0,1-1.564-4.8,7.713,7.713,0,0,1,1.8-5.151,5.461,5.461,0,0,1,4.293-2.136,4.56,4.56,0,0,1,3.156.975v-6.22h2.378V30.226Z" transform="translate(314.889 34.361)" fill="#161615"/>
      <path id="Path_1266" data-name="Path 1266" d="M47.144,28.1a10.224,10.224,0,0,0,1.246,5.268A3.885,3.885,0,0,0,51.9,35.485a4.457,4.457,0,0,0,3.91-1.939A9.448,9.448,0,0,0,57.157,28.1q0-7.086-5.256-7.086a3.952,3.952,0,0,0-3.543,1.9A9.569,9.569,0,0,0,47.144,28.1m-2.628,0a10.839,10.839,0,0,1,2-6.659A6.375,6.375,0,0,1,51.9,18.761a7.159,7.159,0,0,1,5.853,2.467A10.514,10.514,0,0,1,59.789,28.1a11.058,11.058,0,0,1-2.044,7.078,7.041,7.041,0,0,1-5.845,2.56,6.322,6.322,0,0,1-5.426-2.7A11.52,11.52,0,0,1,44.516,28.1" transform="translate(134.922 56.862)" fill="#161615"/>
      <path id="Path_1267" data-name="Path 1267" d="M51.35,23.147v7.808a2.1,2.1,0,0,0,.951.645,3.608,3.608,0,0,0,1.415.31q4.432,0,4.43-5.01a5.479,5.479,0,0,0-1.052-3.716,4.312,4.312,0,0,0-3.366-1.177,2.939,2.939,0,0,0-1.225.351,3.986,3.986,0,0,0-1.153.79m0,9.775v6H48.972V20.253H51.35v1.1A4.446,4.446,0,0,1,54.619,20a5.656,5.656,0,0,1,4.442,1.778,7.58,7.58,0,0,1,1.588,5.208,7.566,7.566,0,0,1-1.6,4.99,5.668,5.668,0,0,1-4.631,1.931,6.247,6.247,0,0,1-1.822-.3,2.443,2.443,0,0,1-1.246-.689" transform="translate(148.428 60.626)" fill="#161615"/>
      <path id="Path_1268" data-name="Path 1268" d="M58.688,22.006a3.755,3.755,0,0,0-3.825,3.454h7.425a3.391,3.391,0,0,0-.907-2.4,3.507,3.507,0,0,0-2.693-1.052m5.776,5.184H54.8a4.839,4.839,0,0,0,1.29,3.616,4.035,4.035,0,0,0,2.926,1.1,5.022,5.022,0,0,0,3.41-1.189l1,1.713a4.475,4.475,0,0,1-1.689.951,9.139,9.139,0,0,1-3.18.524A5.925,5.925,0,0,1,54.258,32.2,6.723,6.723,0,0,1,52.3,27.113a7.166,7.166,0,0,1,2.015-5.321A5.851,5.851,0,0,1,58.579,20a6.1,6.1,0,0,1,4.494,1.616,5.532,5.532,0,0,1,1.576,4.12,5.5,5.5,0,0,1-.185,1.451" transform="translate(158.511 60.626)" fill="#161615"/>
      <path id="Path_1269" data-name="Path 1269" d="M63.129,22.543a2.722,2.722,0,0,0-1.564-.536,2.8,2.8,0,0,0-2.213,1.161,4.322,4.322,0,0,0-.943,2.805v7.687H56.031V20.254h2.378v2.14A4.162,4.162,0,0,1,62.279,20a10.5,10.5,0,0,1,1.838.226Z" transform="translate(169.823 60.629)" fill="#161615"/>
      <path id="Path_1270" data-name="Path 1270" d="M66.323,27.078a8.491,8.491,0,0,0-1.576-.254,4.519,4.519,0,0,0-2.943.927,2.764,2.764,0,0,0-1.141,2.193c0,1.395.822,2.088,2.467,2.088a4.044,4.044,0,0,0,3.192-1.713Zm.226,5.043a5.248,5.248,0,0,1-4.369,1.79,3.757,3.757,0,0,1-2.733-1.145,3.838,3.838,0,0,1-1.161-2.85,4.252,4.252,0,0,1,1.786-3.446,7.115,7.115,0,0,1,4.551-1.407,5.291,5.291,0,0,1,1.7.322q0-3.253-2.9-3.253a4.636,4.636,0,0,0-3.43,1.2l-1-1.991a5.9,5.9,0,0,1,1.87-.943,7.331,7.331,0,0,1,2.286-.4,5.788,5.788,0,0,1,4.236,1.326A5.783,5.783,0,0,1,68.7,25.55v4.8a2.455,2.455,0,0,0,1.052,2.354V33.9a4.5,4.5,0,0,1-2.173-.411,2.351,2.351,0,0,1-1.032-1.366" transform="translate(176.654 60.629)" fill="#161615"/>
      <path id="Path_1271" data-name="Path 1271" d="M72.266,18.4l-3.813,4.18H67.114l-3.733-4.228h2.157l2.229,2.4,2.04-2.354Zm.306,7.949-1.181,1.677a3.47,3.47,0,0,0-1.278-.689,5.484,5.484,0,0,0-1.81-.322,3.812,3.812,0,0,0-3.08,1.354,5.634,5.634,0,0,0-1.141,3.725,5.042,5.042,0,0,0,1.165,3.587,4.234,4.234,0,0,0,3.233,1.233,5.3,5.3,0,0,0,3.225-1.242l.943,2.007A8.6,8.6,0,0,1,67.9,38.917a6.033,6.033,0,0,1-4.531-1.842,6.838,6.838,0,0,1-1.794-4.982,7.122,7.122,0,0,1,1.862-5.143,7.11,7.11,0,0,1,7.34-1.5,6.56,6.56,0,0,1,1.79.9" transform="translate(186.641 55.622)" fill="#161615"/>
      <path id="Path_1272" data-name="Path 1272" d="M73.2,33.661v-7.8a5.14,5.14,0,0,0-.645-2.995,2.53,2.53,0,0,0-2.161-.859,3.518,3.518,0,0,0-1.7.488,3.813,3.813,0,0,0-1.366,1.2v9.964H64.946V20.254h1.628l.75,1.729A4.132,4.132,0,0,1,71.17,20q4.4,0,4.406,5.357v8.3Z" transform="translate(196.843 60.629)" fill="#161615"/>
      <path id="Path_1273" data-name="Path 1273" d="M74.007,18.367l-2.83,4.172H69.424l2.116-4.172ZM70.089,38.622v-11.4H68.251v-2H72.5V38.622Z" transform="translate(206.86 55.668)" fill="#161615"/>
      <path id="Path_1274" data-name="Path 1274" d="M74.529,23.147v7.808a2.1,2.1,0,0,0,.951.645,3.608,3.608,0,0,0,1.415.31q4.432,0,4.43-5.01a5.479,5.479,0,0,0-1.052-3.716,4.312,4.312,0,0,0-3.366-1.177,2.939,2.939,0,0,0-1.225.351,3.985,3.985,0,0,0-1.153.79m0,9.775v6H72.151V20.253h2.378v1.1A4.446,4.446,0,0,1,77.8,20a5.656,5.656,0,0,1,4.442,1.778,7.58,7.58,0,0,1,1.588,5.208,7.566,7.566,0,0,1-1.6,4.99A5.668,5.668,0,0,1,77.6,33.909a6.247,6.247,0,0,1-1.822-.3,2.406,2.406,0,0,1-1.246-.689" transform="translate(218.68 60.626)" fill="#161615"/>
      <path id="Path_1275" data-name="Path 1275" d="M82.839,22.543a2.751,2.751,0,0,0-1.564-.536,2.807,2.807,0,0,0-2.217,1.161,4.345,4.345,0,0,0-.943,2.805v7.687H75.741V20.254h2.374v2.14A4.17,4.17,0,0,1,81.985,20a10.417,10.417,0,0,1,1.838.226Z" transform="translate(229.561 60.629)" fill="#161615"/>
      <path id="Path_1276" data-name="Path 1276" d="M80.452,26.925q0,5.043,3.567,5.043a3.015,3.015,0,0,0,2.612-1.35,6.354,6.354,0,0,0,.943-3.692q0-4.982-3.555-4.982a3.057,3.057,0,0,0-2.6,1.326,6.077,6.077,0,0,0-.971,3.656m-2.5,0a7.325,7.325,0,0,1,1.673-5.014,6.191,6.191,0,0,1,8.868-.073,7.51,7.51,0,0,1,1.588,5.087,7.542,7.542,0,0,1-1.628,5.115,6.206,6.206,0,0,1-8.9-.02,7.624,7.624,0,0,1-1.6-5.1" transform="translate(236.253 60.629)" fill="#161615"/>
      <path id="Path_1277" data-name="Path 1277" d="M86.652,22.379a2.579,2.579,0,0,0-2.019.879,3.074,3.074,0,0,0-.782,2.124A3.533,3.533,0,0,0,84.6,27.7a2.512,2.512,0,0,0,2.048.923,2.392,2.392,0,0,0,1.979-.895,3.655,3.655,0,0,0,.713-2.35,3.1,3.1,0,0,0-.77-2.124,2.452,2.452,0,0,0-1.923-.879M81.61,37.789l1.29-1.9a7.018,7.018,0,0,0,3.829,1.391,4.964,4.964,0,0,0,2.548-.56,1.609,1.609,0,0,0,.931-1.383c0-1.084-.786-1.624-2.35-1.624a9.251,9.251,0,0,0-1.455.2,9.442,9.442,0,0,1-1.637.2q-2.86,0-2.858-2.152a1.543,1.543,0,0,1,.669-1.2,4.174,4.174,0,0,1,1.661-.778,4.682,4.682,0,0,1-2.83-4.607,4.648,4.648,0,0,1,1.463-3.5,5.039,5.039,0,0,1,3.62-1.4,5.142,5.142,0,0,1,3.092.814l1.189-1.427,1.552,1.463L90.9,22.391a4.966,4.966,0,0,1,.915,3.1A4.85,4.85,0,0,1,90.546,28.9a4.973,4.973,0,0,1-3.317,1.576l-1.963.2a3.71,3.71,0,0,0-.939.27c-.391.153-.589.355-.589.6,0,.343.407.516,1.225.516a10.769,10.769,0,0,0,1.677-.2,11.277,11.277,0,0,1,1.689-.193,4.613,4.613,0,0,1,3.088.947,3.264,3.264,0,0,1,1.108,2.624,3.479,3.479,0,0,1-1.661,2.991,7.259,7.259,0,0,1-4.2,1.137,8.906,8.906,0,0,1-2.741-.464,7.783,7.783,0,0,1-2.314-1.125" transform="translate(246.737 60.169)" fill="#161615"/>
      <path id="Path_1278" data-name="Path 1278" d="M91.915,22.543a2.722,2.722,0,0,0-1.564-.536,2.8,2.8,0,0,0-2.213,1.161,4.322,4.322,0,0,0-.943,2.805v7.687H84.817V20.254H87.2v2.14A4.162,4.162,0,0,1,91.065,20a10.5,10.5,0,0,1,1.838.226Z" transform="translate(257.069 60.629)" fill="#161615"/>
      <path id="Path_1279" data-name="Path 1279" d="M95.11,27.078a8.492,8.492,0,0,0-1.576-.254,4.519,4.519,0,0,0-2.943.927,2.764,2.764,0,0,0-1.141,2.193c0,1.395.822,2.088,2.467,2.088a4.044,4.044,0,0,0,3.192-1.713Zm.226,5.043a5.248,5.248,0,0,1-4.369,1.79,3.757,3.757,0,0,1-2.733-1.145,3.838,3.838,0,0,1-1.161-2.85,4.252,4.252,0,0,1,1.786-3.446,7.115,7.115,0,0,1,4.551-1.407,5.291,5.291,0,0,1,1.7.322q0-3.253-2.9-3.253a4.636,4.636,0,0,0-3.43,1.2l-1-1.991a5.9,5.9,0,0,1,1.87-.943,7.331,7.331,0,0,1,2.286-.4,5.788,5.788,0,0,1,4.236,1.326,5.783,5.783,0,0,1,1.322,4.22v4.8a2.455,2.455,0,0,0,1.052,2.354V33.9a4.5,4.5,0,0,1-2.173-.411,2.352,2.352,0,0,1-1.032-1.366" transform="translate(263.904 60.629)" fill="#161615"/>
      <path id="Path_1280" data-name="Path 1280" d="M106.107,33.661V25.176q0-3.168-2.741-3.168a2.742,2.742,0,0,0-1.616.532,2.786,2.786,0,0,0-1.024,1.209v9.912H98.347V24.136a1.857,1.857,0,0,0-.746-1.56,3.162,3.162,0,0,0-1.971-.568,2.7,2.7,0,0,0-1.52.552,3.3,3.3,0,0,0-1.145,1.213v9.888H90.584V20.254h1.552l.79,1.552A4.176,4.176,0,0,1,96.368,20q2.878,0,4.031,1.79a3.073,3.073,0,0,1,1.487-1.278A5.213,5.213,0,0,1,104.128,20a4.156,4.156,0,0,1,3.217,1.233,4.9,4.9,0,0,1,1.141,3.463v8.961Z" transform="translate(274.548 60.629)" fill="#161615"/>
      <path id="Path_1281" data-name="Path 1281" d="M97.671,37.182v-.625L105.559,21.1H97.8V18.842H109v.629l-7.913,15.458h8.187v2.253Z" transform="translate(296.027 57.106)" fill="#161615"/>
      <path id="Path_1282" data-name="Path 1282" d="M109.146,27.078a8.491,8.491,0,0,0-1.576-.254,4.519,4.519,0,0,0-2.943.927,2.764,2.764,0,0,0-1.141,2.193c0,1.395.822,2.088,2.467,2.088a4.044,4.044,0,0,0,3.192-1.713Zm.226,5.043A5.248,5.248,0,0,1,105,33.91a3.757,3.757,0,0,1-2.733-1.145,3.838,3.838,0,0,1-1.161-2.85,4.252,4.252,0,0,1,1.786-3.446,7.115,7.115,0,0,1,4.551-1.407,5.291,5.291,0,0,1,1.7.322q0-3.253-2.9-3.253a4.636,4.636,0,0,0-3.43,1.2l-1-1.991a5.9,5.9,0,0,1,1.87-.943,7.331,7.331,0,0,1,2.285-.4,5.8,5.8,0,0,1,4.24,1.326,5.8,5.8,0,0,1,1.318,4.22v4.8a2.455,2.455,0,0,0,1.052,2.354V33.9a4.5,4.5,0,0,1-2.173-.411,2.351,2.351,0,0,1-1.032-1.366" transform="translate(306.445 60.629)" fill="#161615"/>
      <path id="Path_1283" data-name="Path 1283" d="M120.143,33.661V25.176q0-3.168-2.741-3.168a2.742,2.742,0,0,0-1.616.532,2.786,2.786,0,0,0-1.024,1.209v9.912h-2.378V24.136a1.858,1.858,0,0,0-.746-1.56,3.162,3.162,0,0,0-1.971-.568,2.7,2.7,0,0,0-1.52.552A3.3,3.3,0,0,0,107,23.773v9.888H104.62V20.254h1.552l.79,1.552A4.176,4.176,0,0,1,110.4,20q2.878,0,4.031,1.79a3.073,3.073,0,0,1,1.487-1.278A5.213,5.213,0,0,1,118.164,20a4.156,4.156,0,0,1,3.217,1.233,4.9,4.9,0,0,1,1.141,3.463v8.961Z" transform="translate(317.09 60.629)" fill="#161615"/>
      <path id="Path_1284" data-name="Path 1284" d="M116.08,27.013a3.763,3.763,0,0,0-3.833,3.454h7.425a3.388,3.388,0,0,0-.9-2.4,3.509,3.509,0,0,0-2.689-1.052m4.168-8.61-3.821,4.18h-1.338l-3.729-4.232h2.152l2.229,2.4,2.04-2.35Zm1.6,13.794h-9.662a4.824,4.824,0,0,0,1.29,3.616,4.035,4.035,0,0,0,2.926,1.1,5.011,5.011,0,0,0,3.406-1.189l1,1.713a4.529,4.529,0,0,1-1.693.951,9.139,9.139,0,0,1-3.18.524,5.925,5.925,0,0,1-4.293-1.713,6.725,6.725,0,0,1-1.963-5.083A7.166,7.166,0,0,1,111.7,26.8a5.853,5.853,0,0,1,4.269-1.79,6.094,6.094,0,0,1,4.49,1.616,5.519,5.519,0,0,1,1.58,4.12,5.333,5.333,0,0,1-.189,1.451" transform="translate(332.435 55.619)" fill="#161615"/>
      <path id="Path_1285" data-name="Path 1285" d="M113.151,32.858l.838-2.253a6.474,6.474,0,0,0,3.2,1.3c1.467,0,2.2-.617,2.2-1.854,0-.883-.709-1.645-2.128-2.277a17.262,17.262,0,0,1-2.209-1.137,5.12,5.12,0,0,1-.992-.883,3.542,3.542,0,0,1-.625-1.052,3.426,3.426,0,0,1-.206-1.2,3.076,3.076,0,0,1,1.2-2.58,5.012,5.012,0,0,1,3.14-.923,10.073,10.073,0,0,1,3.692.923l-.673,2.2A4.566,4.566,0,0,0,117.758,22a2.487,2.487,0,0,0-1.435.4,1.192,1.192,0,0,0-.58,1.012,2.11,2.11,0,0,0,1.463,1.955l1.7.774a6.026,6.026,0,0,1,2.281,1.628,3.611,3.611,0,0,1,.713,2.29,3.437,3.437,0,0,1-1.266,2.826,5.427,5.427,0,0,1-3.5,1.02,7.976,7.976,0,0,1-3.982-1.052" transform="translate(342.946 60.629)" fill="#161615"/>
      <path id="Path_1286" data-name="Path 1286" d="M117.321,24.739h-1.552V22.86h1.552v-2.8l2.378-.915V22.86h3.68v1.878H119.7V31.4a3.908,3.908,0,0,0,.568,2.4,2.213,2.213,0,0,0,1.834.713,4.425,4.425,0,0,0,1.891-.46l.351,2.088a13.149,13.149,0,0,1-3.241.375,3.523,3.523,0,0,1-2.685-1.181,4.234,4.234,0,0,1-1.1-2.987Z" transform="translate(350.881 58.023)" fill="#161615"/>
      <path id="Path_1287" data-name="Path 1287" d="M126.716,33.661v-7.8a5.14,5.14,0,0,0-.645-2.995,2.53,2.53,0,0,0-2.161-.859,3.518,3.518,0,0,0-1.7.488,3.766,3.766,0,0,0-1.362,1.2v9.964h-2.382V20.254h1.629l.754,1.729A4.122,4.122,0,0,1,124.689,20q4.408,0,4.406,5.357v8.3Z" transform="translate(359.052 60.629)" fill="#161615"/>
      <path id="Path_1288" data-name="Path 1288" d="M129.807,27.078a8.491,8.491,0,0,0-1.576-.254,4.519,4.519,0,0,0-2.943.927,2.764,2.764,0,0,0-1.141,2.193c0,1.395.822,2.088,2.467,2.088a4.044,4.044,0,0,0,3.192-1.713Zm.226,5.043a5.248,5.248,0,0,1-4.369,1.79,3.757,3.757,0,0,1-2.733-1.145,3.838,3.838,0,0,1-1.161-2.85,4.252,4.252,0,0,1,1.786-3.446,7.115,7.115,0,0,1,4.551-1.407,5.291,5.291,0,0,1,1.7.322q0-3.253-2.9-3.253a4.636,4.636,0,0,0-3.43,1.2l-1-1.991a5.9,5.9,0,0,1,1.87-.943,7.331,7.331,0,0,1,2.285-.4,5.8,5.8,0,0,1,4.24,1.326,5.8,5.8,0,0,1,1.318,4.22v4.8a2.455,2.455,0,0,0,1.052,2.354V33.9a4.5,4.5,0,0,1-2.173-.411,2.351,2.351,0,0,1-1.032-1.366" transform="translate(369.066 60.629)" fill="#161615"/>
      <path id="Path_1289" data-name="Path 1289" d="M133.532,33.661v-7.8a5.14,5.14,0,0,0-.645-2.995,2.53,2.53,0,0,0-2.161-.859,3.531,3.531,0,0,0-1.7.488,3.766,3.766,0,0,0-1.362,1.2v9.964h-2.382V20.254h1.628l.754,1.729A4.122,4.122,0,0,1,131.5,20q4.408,0,4.406,5.357v8.3Z" transform="translate(379.71 60.629)" fill="#161615"/>
      <path id="Path_1290" data-name="Path 1290" d="M131.042,26.925q0,5.043,3.567,5.043a3.006,3.006,0,0,0,2.612-1.35,6.354,6.354,0,0,0,.943-3.692q0-4.982-3.555-4.982a3.057,3.057,0,0,0-2.6,1.326,6.076,6.076,0,0,0-.971,3.656m-2.5,0a7.325,7.325,0,0,1,1.673-5.014,6.191,6.191,0,0,1,8.868-.073,7.51,7.51,0,0,1,1.588,5.087,7.54,7.54,0,0,1-1.624,5.115,6.211,6.211,0,0,1-8.9-.02,7.624,7.624,0,0,1-1.6-5.1" transform="translate(389.585 60.629)" fill="#161615"/>
      <path id="Path_1291" data-name="Path 1291" d="M131.952,32.858l.838-2.253a6.474,6.474,0,0,0,3.2,1.3c1.467,0,2.2-.617,2.2-1.854,0-.883-.709-1.645-2.128-2.277a17.262,17.262,0,0,1-2.209-1.137,5.121,5.121,0,0,1-.992-.883,3.543,3.543,0,0,1-.625-1.052,3.426,3.426,0,0,1-.206-1.2,3.076,3.076,0,0,1,1.2-2.58,5,5,0,0,1,3.14-.923,10.073,10.073,0,0,1,3.692.923l-.673,2.2A4.567,4.567,0,0,0,136.559,22a2.487,2.487,0,0,0-1.435.4,1.192,1.192,0,0,0-.58,1.012,2.11,2.11,0,0,0,1.463,1.955l1.7.774a6.026,6.026,0,0,1,2.281,1.628,3.611,3.611,0,0,1,.714,2.29,3.437,3.437,0,0,1-1.266,2.826,5.427,5.427,0,0,1-3.5,1.02,7.976,7.976,0,0,1-3.982-1.052" transform="translate(399.929 60.629)" fill="#161615"/>
      <path id="Path_1292" data-name="Path 1292" d="M136.122,24.739H134.57V22.86h1.552v-2.8l2.378-.915V22.86h3.68v1.878H138.5V31.4a3.908,3.908,0,0,0,.568,2.4,2.213,2.213,0,0,0,1.834.713,4.425,4.425,0,0,0,1.891-.46l.351,2.088a13.149,13.149,0,0,1-3.241.375,3.523,3.523,0,0,1-2.685-1.181,4.234,4.234,0,0,1-1.1-2.987Z" transform="translate(407.864 58.023)" fill="#161615"/>
      <path id="Path_1293" data-name="Path 1293" d="M232.546.866H160.7a16.667,16.667,0,0,0-16.426,16.9V91.436a16.667,16.667,0,0,0,16.426,16.9h71.85a16.666,16.666,0,0,0,16.422-16.9V17.767A16.666,16.666,0,0,0,232.546.866M238.7,87.522a10.419,10.419,0,0,1-10.263,10.565H164.8a10.419,10.419,0,0,1-10.263-10.565V55.1h24.04a10.5,10.5,0,0,0-6.421,2.826,9.147,9.147,0,0,0-3.055,6.889,8.783,8.783,0,0,0,1.028,4.216,11.654,11.654,0,0,0,3.023,3.507,52.223,52.223,0,0,0,6.748,4.216,58.052,58.052,0,0,1,5.788,3.458,8.09,8.09,0,0,1,2.3,2.624,6.019,6.019,0,0,1,.73,2.793,5.7,5.7,0,0,1-1.959,4.309,7.591,7.591,0,0,1-5.365,1.822,11.316,11.316,0,0,1-5.409-1.318,9.107,9.107,0,0,1-3.664-3.313,18.325,18.325,0,0,1-1.907-6h-.988V93.842h.988A3.158,3.158,0,0,1,171,92.165a1.444,1.444,0,0,1,1.084-.407,15.791,15.791,0,0,1,3.342.855,32.459,32.459,0,0,0,3.483.984,17.931,17.931,0,0,0,3.011.246,11.749,11.749,0,0,0,8.376-3.047,9.615,9.615,0,0,0,3.245-7.256,9.348,9.348,0,0,0-1.008-4.236,10.332,10.332,0,0,0-2.894-3.511,54.622,54.622,0,0,0-7.07-4.289q-6.342-3.422-8.017-5.482a4.668,4.668,0,0,1-1.181-3.1,5.3,5.3,0,0,1,1.858-3.958,6.571,6.571,0,0,1,4.688-1.741,10.034,10.034,0,0,1,4.849,1.274,9.064,9.064,0,0,1,3.616,3.434,15.833,15.833,0,0,1,1.761,5.817h.988V55.1h.984v1.012a7.609,7.609,0,0,1,2.68.633,4.928,4.928,0,0,1,1.669,1.366,18.647,18.647,0,0,1,1.5,3.1l13.774,31.961h1.274l12.8-31.533a11.938,11.938,0,0,1,2.543-4.228,5.932,5.932,0,0,1,2.951-1.294V55.1H238.7ZM182.845,53.477l14.112-31.211V46.959q0,3.217-.6,4.124a3.684,3.684,0,0,1-3.334,1.467H191.7v.927Zm7.284,1.62a3.17,3.17,0,0,1-.709,1.6,1.631,1.631,0,0,1-1.137.415,6.6,6.6,0,0,1-2.165-.669,16.89,16.89,0,0,0-4.982-1.35Zm-17.071-1.62V52.55h-1.3a3.972,3.972,0,0,1-3.213-1.185q-.75-.877-.75-4.406V22.266l14.116,31.211Zm47.334,2.717a5.163,5.163,0,0,1,2.656,1.024,2.083,2.083,0,0,1,.794,1.52,14.55,14.55,0,0,1-1.286,4.4l-8.719,21.472-9.372-21.747a12.376,12.376,0,0,1-1.262-4.265,2,2,0,0,1,.77-1.616,6.823,6.823,0,0,1,3.309-.875V55.1h12.645v1.012Zm-9.561-9.235c0,2.128-.185,3.479-.548,4.047a3.673,3.673,0,0,1-3.325,1.544h-.794a3.988,3.988,0,0,1-3.172-1.185q-.768-.877-.77-4.406V22.951c0-2.144.2-3.523.6-4.124a3.76,3.76,0,0,1,3.362-1.467h.794a3.938,3.938,0,0,1,3.112,1.209c.488.568.738,2.028.738,4.378ZM238.7,53.477H221.356V52.55h-1.395a3.809,3.809,0,0,1-3.108-1.213q-.762-.853-.762-4.378V36.116c1.157.254,2.253.439,3.285.568a23.776,23.776,0,0,0,2.85.189q5.375,0,8.336-2.85a9.786,9.786,0,0,0,2.959-7.389,8.974,8.974,0,0,0-1.947-5.776,10.732,10.732,0,0,0-4.789-3.463,23.667,23.667,0,0,0-7.771-1.024H196.974l-13.116,29-13.233-29h-10.5v.988a7.384,7.384,0,0,1,3.309.548,3.119,3.119,0,0,1,1.4,1.37,8.951,8.951,0,0,1,.552,3.672V46.959c0,2.144-.206,3.519-.6,4.124a3.733,3.733,0,0,1-3.337,1.467h-1.322v.927h-5.587V21.71A10.415,10.415,0,0,1,164.8,11.149h63.639A10.415,10.415,0,0,1,238.7,21.71ZM216.092,34.568V19.086a15.386,15.386,0,0,1,3.5-.52,7.807,7.807,0,0,1,4,1.028,6.769,6.769,0,0,1,2.721,3.1,10.6,10.6,0,0,1,.955,4.49,8.182,8.182,0,0,1-2.007,5.724,6.238,6.238,0,0,1-4.781,2.209,15.1,15.1,0,0,1-1.874-.137c-.726-.093-1.568-.23-2.519-.411" transform="translate(437.264 2.625)" fill="#003579"/>
    </g>
  </g>
</svg>
