<svg xmlns="http://www.w3.org/2000/svg" width="125.932" height="156.55" viewBox="0 0 125.932 156.55">
  <path id="Path_819" data-name="Path 819" d="M70.6,1137.165h99.209V998.205H70.6Zm9.018-121.051h40.586v8.593H79.622Zm0,14.5h63.14v8.593H79.622Zm0,60.135h27.39v2.148H79.622Zm27.39,34.59H79.622v-2.148h27.39Zm12-4.3H79.622V1118.9h39.39Zm0-4.3H79.622V1114.6h39.39Zm0-4.3H79.622V1110.3h39.39Zm0-4.3H79.622v-2.148h39.39Zm0-19.553H79.622v-2.148h39.39Zm0-4.3H79.622v-2.148h39.39Zm0-4.3H79.622v-2.149h39.39Zm0-4.3H79.622v-2.148h39.39Zm0-4.3H79.622v-2.148h39.39Zm0-4.3H79.622v-2.148h39.39Zm0-4.3H79.622v-2.148h39.39Zm0-4.3H79.622v-2.148h39.39Zm32.669,66.813H124.29v-2.148h27.39Zm12-4.3H124.29V1118.9h39.39Zm0-4.3H124.29V1114.6h39.39Zm0-4.3H124.29V1110.3h39.39Zm0-4.3H124.29v-2.148h39.39Zm0-9.578H124.29v-42.2h39.39Zm-30.7-10.232,1.085-4.972-1.97-7.228-2.5,11.128c-.24.857-.762.924-1.567.925s-1.327-.068-1.567-.925l-1.1-4.89-1.079-4.792v12.46a5.363,5.363,0,0,0,2.277.339h2.938c1.917,0,3.046-.244,3.487-2.046m-4.721-19.268c.245-.877.786-.926,1.622-.926h.169c.837,0,1.406.063,1.65.939l3.784,13.977c.441,1.8,1.572,2.046,3.489,2.046h1.841l-.486-2.193c-.741-.01-1.224-.109-1.453-.924l-3.881-13.977a2.221,2.221,0,0,0-2.062-1.954,7.159,7.159,0,0,0-1.371-.106h-3.105c-1.917,0-3.1.245-3.49,2.045l-.688,3.057,1.807,7.985Zm15.72,8.514-.735-3.264-.232-1.03c-.392-1.8-1.574-2.045-3.49-2.045H137.44l.477,2.192h.178c.837,0,1.378.048,1.622.925l1.715,7.863.622,2.855.711,3.258a2.317,2.317,0,0,0,1.211,1.707Zm8.7,10.753,1.085-4.972-1.97-7.228-2.5,11.128c-.24.857-.762.924-1.567.925s-1.327-.068-1.567-.925l-1.1-4.89-1.079-4.792v12.46a5.363,5.363,0,0,0,2.277.339h2.938c1.917,0,3.046-.244,3.487-2.046m-4.721-19.268c.245-.877.786-.926,1.622-.926h.169c.837,0,1.406.063,1.65.939l3.784,13.977c.441,1.8,1.572,2.046,3.489,2.046h1.841l-.486-2.193c-.741-.01-1.224-.109-1.452-.924L154.7,1068.02a2.222,2.222,0,0,0-2.062-1.954,7.158,7.158,0,0,0-1.371-.106h-3.105c-1.917,0-3.1.245-3.49,2.045l-.688,3.057,1.807,7.985Zm15.72,8.514-.735-3.264-.232-1.03c-.392-1.8-1.574-2.045-3.49-2.045h-2.081l.477,2.192h.178c.837,0,1.378.048,1.622.925l1.715,7.863.622,2.855.711,3.258a2.317,2.317,0,0,0,1.211,1.707Z" transform="matrix(0.978, 0.208, -0.208, 0.978, 167.369, -991.071)" fill="#e95e43"/>
</svg>
