<svg id="Group_326" data-name="Group 326" xmlns="http://www.w3.org/2000/svg" xmlns:xlink="http://www.w3.org/1999/xlink" width="141.81" height="120.812" viewBox="0 0 141.81 120.812">
  <defs>
    <clipPath id="clip-path">
      <rect id="Rectangle_119" data-name="Rectangle 119" width="141.81" height="120.812" fill="#002732"/>
    </clipPath>
  </defs>
  <g id="Group_325" data-name="Group 325" transform="translate(0 0)" clip-path="url(#clip-path)">
    <path id="Path_1083" data-name="Path 1083" d="M89.841,39.57l1.586,7.046V73.511a5,5,0,0,1-2.615-3.679v0l-1.535-7.034-1.344-6.164L82.23,39.66c-.527-1.893-1.695-1.995-3.5-1.995h-.384l-1.028-4.732h4.49c4.136,0,6.688.527,7.535,4.415ZM80.412,56.127l-8.38-30.166a4.793,4.793,0,0,0-4.451-4.216,15.262,15.262,0,0,0-2.959-.23h-6.7c-4.138,0-6.686.527-7.535,4.413l-1.485,6.6,3.9,17.234L57.492,28.24c.528-1.893,1.693-2,3.5-2h.365c1.808,0,3.036.138,3.563,2.029l8.172,30.168c.952,3.891,3.393,4.416,7.529,4.416l3.974,0-1.047-4.732c-1.6-.018-2.645-.233-3.136-1.995M60.369,67.518c-.518,1.845-1.639,2-3.381,2s-2.866-.148-3.382-2L51.23,56.964,48.9,46.63v-.014L47.316,39.57l-.5-2.223c-.849-3.888-3.4-4.415-7.535-4.415H34.79l1.029,4.732H36.2c1.808,0,2.975.1,3.5,1.995l3.7,16.971,1.342,6.164,1.535,7.034v0A5,5,0,0,0,48.9,73.51v0a11.556,11.556,0,0,0,4.914.732l6.343,0c4.138,0,6.576-.528,7.528-4.418L70.027,59.1,65.775,43.5Zm42.526,0c-.519,1.845-1.644,2-3.382,2s-2.865-.148-3.381-2L93.756,56.964,91.427,46.62V73.514a11.58,11.58,0,0,0,4.914.732l6.346,0c4.136,0,6.574-.528,7.526-4.418L112.555,59.1,108.3,43.5ZM141.81,8.13V97.391a8.155,8.155,0,0,1-8.13,8.13H87.546a2.7,2.7,0,0,0-2.7,2.7v4.486a2.7,2.7,0,0,0,2.7,2.7h5.212a2.7,2.7,0,0,1,0,5.4H49.052a2.7,2.7,0,0,1,0-5.4h5.212a2.7,2.7,0,0,0,2.7-2.7v-4.486a2.7,2.7,0,0,0-2.7-2.7H8.128A8.154,8.154,0,0,1,0,97.391V8.13A8.154,8.154,0,0,1,8.128,0H133.68a8.155,8.155,0,0,1,8.13,8.13m-7.868,2.682a3.952,3.952,0,0,0-3.935-3.935H10.7a3.953,3.953,0,0,0-3.935,3.935v20l1.1-4.884c.846-3.886,3.4-4.413,7.532-4.413h6.7a15.262,15.262,0,0,1,2.959.23,4.792,4.792,0,0,1,4.451,4.216l8.38,30.166c.492,1.762,1.535,1.976,3.136,1.995l1.047,4.732H38.1c-4.136,0-6.577-.525-7.529-4.416L22.4,28.267c-.528-1.892-1.754-2.029-3.563-2.029h-.365c-1.8,0-2.972.1-3.5,2L10.276,49.757,6.763,34.231v14.1L8.7,56.959l2.376,10.554c.516,1.848,1.642,1.992,3.382,2s2.862-.151,3.381-2l5.406-24.02,4.253,15.6L25.162,69.826c-.952,3.889-3.39,4.418-7.528,4.418H11.293a12.958,12.958,0,0,1-4.528-.566l0,11.267A3.954,3.954,0,0,0,10.7,88.88H130.006a3.952,3.952,0,0,0,3.935-3.935V73.513a4.993,4.993,0,0,1-2.615-3.684l-1.535-7.034-1.342-6.164-3.7-16.971c-.527-1.893-1.693-1.995-3.5-1.995h-.384l-1.029-4.732h4.492c4.135,0,6.686.527,7.534,4.415l.5,2.223,1.588,7.046ZM110.109,21.744a15.262,15.262,0,0,0-2.959-.23h-6.7c-4.136,0-6.686.527-7.534,4.413l-1.486,6.6,3.9,17.234,4.691-21.522c.528-1.893,1.695-2,3.5-2h.365c1.809,0,3.036.138,3.561,2.029l8.172,30.168c.95,3.891,3.391,4.416,7.528,4.416l3.976,0-1.047-4.732c-1.6-.018-2.644-.233-3.136-1.995l-8.378-30.166a4.8,4.8,0,0,0-4.452-4.216" transform="translate(0 0)" fill="#002732"/>
  </g>
</svg>
