<svg id="Group_326" data-name="Group 326" xmlns="http://www.w3.org/2000/svg" xmlns:xlink="http://www.w3.org/1999/xlink" width="121.991" height="103.928" viewBox="0 0 121.991 103.928">
  <defs>
    <clipPath id="clip-path">
      <rect id="Rectangle_119" data-name="Rectangle 119" width="121.992" height="103.928" fill="#fcf9f5"/>
    </clipPath>
  </defs>
  <g id="Group_325" data-name="Group 325" transform="translate(0 0)" clip-path="url(#clip-path)">
    <path id="Path_1083" data-name="Path 1083" d="M77.285,34.04,78.649,40.1V63.238a4.3,4.3,0,0,1-2.25-3.165v0l-1.32-6.051-1.156-5.3-3.186-14.6c-.453-1.629-1.458-1.716-3.013-1.716h-.331l-.884-4.071h3.863c3.558,0,5.753.453,6.482,3.8ZM69.174,48.283l-7.209-25.95a4.123,4.123,0,0,0-3.829-3.627,13.129,13.129,0,0,0-2.545-.2H49.826c-3.559,0-5.752.453-6.482,3.8l-1.277,5.678,3.355,14.826,4.036-18.514c.454-1.629,1.457-1.718,3.011-1.718h.314c1.556,0,2.612.118,3.065,1.746l7.03,25.952c.819,3.347,2.919,3.8,6.477,3.8h3.419L71.872,50c-1.377-.016-2.276-.2-2.7-1.716m-17.242,9.8c-.445,1.587-1.41,1.721-2.908,1.717s-2.466-.128-2.91-1.717L44.07,49l-2-8.889V40.1L40.7,34.04l-.431-1.912c-.73-3.345-2.924-3.8-6.482-3.8H29.928l.885,4.071h.331c1.556,0,2.559.087,3.013,1.716l3.186,14.6,1.155,5.3,1.32,6.051v0a4.3,4.3,0,0,0,2.25,3.164v0a9.941,9.941,0,0,0,4.227.63l5.456,0c3.559,0,5.657-.454,6.476-3.8l2.015-9.233L56.582,37.419Zm36.583,0c-.447,1.587-1.414,1.721-2.91,1.717s-2.464-.128-2.908-1.717L80.653,49l-2-8.9V63.24a9.961,9.961,0,0,0,4.227.63h5.459c3.558,0,5.655-.454,6.474-3.8l2.015-9.232-3.66-13.421ZM121.992,6.994V83.78A7.015,7.015,0,0,1,115,90.774H75.311A2.324,2.324,0,0,0,72.987,93.1v3.859a2.324,2.324,0,0,0,2.324,2.324h4.484a2.324,2.324,0,1,1,0,4.648H42.2a2.324,2.324,0,0,1,0-4.648H46.68A2.324,2.324,0,0,0,49,96.956V93.1a2.324,2.324,0,0,0-2.324-2.324H6.992A7.014,7.014,0,0,1,0,83.78V6.994A7.014,7.014,0,0,1,6.992,0H115a7.015,7.015,0,0,1,6.994,6.994M115.223,9.3a3.4,3.4,0,0,0-3.385-3.385H9.2A3.4,3.4,0,0,0,5.817,9.3V26.5l.946-4.2c.728-3.343,2.923-3.8,6.479-3.8h5.766a13.129,13.129,0,0,1,2.545.2,4.122,4.122,0,0,1,3.829,3.627l7.209,25.95c.423,1.515,1.32,1.7,2.7,1.716l.9,4.071H32.772c-3.558,0-5.658-.452-6.477-3.8l-7.03-25.952c-.454-1.627-1.509-1.746-3.065-1.746h-.314c-1.552,0-2.557.09-3.011,1.718L8.84,42.8,5.818,29.447V41.578L7.488,49l2.044,9.079c.444,1.59,1.413,1.713,2.91,1.717s2.462-.13,2.908-1.717L20,37.415l3.658,13.421-2.014,9.232c-.819,3.346-2.916,3.8-6.476,3.8H9.715a11.148,11.148,0,0,1-3.9-.487l0,9.693A3.4,3.4,0,0,0,9.2,76.458H111.837a3.4,3.4,0,0,0,3.385-3.385V63.239a4.3,4.3,0,0,1-2.25-3.169l-1.32-6.051-1.155-5.3-3.186-14.6c-.453-1.629-1.457-1.716-3.013-1.716h-.331l-.885-4.071h3.864c3.557,0,5.752.453,6.481,3.8l.43,1.912,1.366,6.062Zm-20.5,9.4a13.129,13.129,0,0,0-2.545-.2H86.41c-3.558,0-5.752.453-6.481,3.8l-1.278,5.678,3.356,14.826,4.036-18.514c.454-1.629,1.458-1.718,3.011-1.718h.314c1.556,0,2.612.118,3.063,1.746l7.03,25.952c.818,3.347,2.918,3.8,6.476,3.8h3.42l-.9-4.071c-1.376-.016-2.274-.2-2.7-1.716l-7.207-25.95a4.125,4.125,0,0,0-3.83-3.627" transform="translate(0 0)" fill="#fcf9f5"/>
  </g>
</svg>
