<svg xmlns="http://www.w3.org/2000/svg" width="113.923" height="141.621" viewBox="0 0 113.923 141.621">
  <path id="Path_819" data-name="Path 819" d="M0,125.708H89.748V0H0ZM8.158,16.2H44.874v7.773H8.158Zm0,13.118H65.277v7.773H8.158Zm0,54.4H32.936v1.943H8.158ZM32.936,115.01H8.158v-1.943H32.936Zm10.856-3.886H8.158v-1.943H43.791Zm0-3.886H8.158v-1.943H43.791Zm0-3.886H8.158v-1.944H43.791Zm0-3.887H8.158V97.52H43.791Zm0-17.688H8.158V79.832H43.791Zm0-3.886H8.158V75.946H43.791Zm0-3.886H8.158V72.059H43.791Zm0-3.887H8.158V68.173H43.791Zm0-3.887H8.158V64.285H43.791Zm0-3.886H8.158V60.4H43.791Zm0-3.886H8.158V56.512H43.791Zm0-3.887H8.158V52.625H43.791ZM73.345,115.01H48.567v-1.943H73.345ZM84.2,111.124H48.567v-1.943H84.2Zm0-3.886H48.567v-1.943H84.2Zm0-3.886H48.567v-1.944H84.2Zm0-3.887H48.567V97.52H84.2Zm0-8.665H48.567V52.625H84.2ZM56.426,81.543l.981-4.5-1.782-6.538L53.36,80.574c-.217.775-.689.836-1.417.837s-1.2-.062-1.417-.837l-1-4.423-.976-4.335V83.087a4.85,4.85,0,0,0,2.06.307h2.658c1.734,0,2.756-.221,3.155-1.851m-4.27-17.43c.222-.794.711-.837,1.467-.837h.153c.757,0,1.272.057,1.493.85L58.692,76.77c.4,1.63,1.422,1.851,3.156,1.851h1.665l-.439-1.984c-.67-.009-1.108-.1-1.314-.836L58.249,63.157a2.009,2.009,0,0,0-1.866-1.768,6.472,6.472,0,0,0-1.24-.1H52.334c-1.734,0-2.8.221-3.157,1.85l-.623,2.765,1.634,7.224Zm14.221,7.7-.665-2.953-.21-.932c-.355-1.629-1.423-1.85-3.157-1.85H60.462l.432,1.983h.161c.757,0,1.246.043,1.467.836l1.552,7.113.563,2.583.643,2.948a2.1,2.1,0,0,0,1.1,1.544Zm7.873,9.728.981-4.5-1.782-6.538L71.183,80.574c-.217.775-.689.836-1.417.837s-1.2-.062-1.417-.837l-1-4.423-.976-4.335V83.087a4.85,4.85,0,0,0,2.06.307H71.1c1.734,0,2.756-.221,3.155-1.851m-4.27-17.43c.222-.794.711-.837,1.467-.837H71.6c.757,0,1.272.057,1.493.85L76.516,76.77c.4,1.63,1.422,1.851,3.156,1.851h1.665L80.9,76.637c-.67-.009-1.108-.1-1.314-.836L76.072,63.157a2.01,2.01,0,0,0-1.866-1.768,6.472,6.472,0,0,0-1.24-.1H70.157c-1.734,0-2.8.221-3.157,1.85l-.623,2.765,1.634,7.224Zm14.221,7.7-.665-2.953-.21-.932c-.355-1.629-1.423-1.85-3.157-1.85H78.285l.432,1.983h.161c.757,0,1.246.043,1.467.836L81.9,76.013l.563,2.583.643,2.948a2.1,2.1,0,0,0,1.1,1.544Z" transform="matrix(0.978, 0.208, -0.208, 0.978, 26.136, 0)" fill="#fcf9f5"/>
</svg>
