<svg id="Group_93" data-name="Group 93" xmlns="http://www.w3.org/2000/svg" xmlns:xlink="http://www.w3.org/1999/xlink" width="214.977" height="224.965" viewBox="0 0 214.977 224.965">
  <defs>
    <clipPath id="clip-path">
      <rect id="Rectangle_22" data-name="Rectangle 22" width="214.977" height="224.965" fill="none"/>
    </clipPath>
  </defs>
  <g id="Group_92" data-name="Group 92" clip-path="url(#clip-path)">
    <path id="Path_408" data-name="Path 408" d="M105.991,144.318l-1.783,2.1a4.834,4.834,0,0,1-1.633,1.412l-9.259-7.862,4.216,2.253,4.3,2.3c.781.37,1.148.039,1.638-.535s.753-.991.262-1.7l-6.75-8.811,6.566,3.153,3.036,3.912c1.072,1.453.568,2.414-.594,3.783M89.4,131.75c-.5-.729-.211-1.146.3-1.743l.1-.121c.508-.6.9-.964,1.7-.586l12.682,6.116c1.606.823,2.474.169,3.636-1.2l1.117-1.315-1.924-1.037c-.457.523-.824.806-1.568.454L92.7,126.272a2.118,2.118,0,0,0-2.7.24,6.406,6.406,0,0,0-.91.913l-1.884,2.218c-1.162,1.369-1.7,2.367-.6,3.783l1.854,2.42,7.03,3.749Zm15.862-5.857-2.871-1.535-.906-.484c-1.577-.856-2.475-.166-3.637,1.2l-1.262,1.486,1.918,1.043.108-.128c.508-.6.871-.954,1.671-.575l6.883,3.735,2.5,1.358,2.852,1.547a2.25,2.25,0,0,0,2,.212Zm13.27.569-3.037-3.913-6.566-3.153,6.751,8.811c.491.713.224,1.127-.263,1.7s-.856.9-1.638.535l-4.3-2.3-4.216-2.253,9.259,7.862a4.836,4.836,0,0,0,1.634-1.412l1.782-2.1c1.163-1.369,1.666-2.33.6-3.782m-17.182-8.786c-.5-.729-.211-1.145.3-1.743l.1-.121c.508-.6.9-.964,1.7-.585l12.681,6.116c1.607.822,2.474.168,3.637-1.2l1.116-1.315-1.924-1.037c-.456.524-.824.807-1.568.455l-12.74-6.047a2.118,2.118,0,0,0-2.7.241,6.394,6.394,0,0,0-.911.912l-1.883,2.218c-1.163,1.369-1.7,2.367-.6,3.783l1.854,2.421,7.03,3.748Zm15.863-5.857-2.872-1.534-.906-.485c-1.576-.856-2.474-.166-3.637,1.2l-1.262,1.487,1.919,1.042.108-.127c.508-.6.871-.955,1.67-.576l6.884,3.736,2.5,1.357,2.853,1.548a2.249,2.249,0,0,0,2,.211Zm13.269.569-3.036-3.912-6.566-3.154,6.75,8.812c.491.712.224,1.127-.262,1.7s-.857.9-1.638.535l-4.3-2.3-4.215-2.253,9.259,7.862a4.843,4.843,0,0,0,1.633-1.412l1.783-2.1c1.162-1.369,1.666-2.33.594-3.782M113.305,103.6c-.5-.729-.211-1.145.3-1.743l.1-.12c.508-.6.9-.965,1.7-.586l12.682,6.116c1.606.822,2.474.168,3.636-1.2l1.117-1.314-1.924-1.038c-.457.524-.824.807-1.569.455l-12.74-6.046a2.117,2.117,0,0,0-2.7.24,6.342,6.342,0,0,0-.91.912l-1.884,2.218c-1.162,1.369-1.7,2.367-.6,3.783l1.854,2.421,7.031,3.748Zm15.862-5.856L126.3,96.211l-.906-.484c-1.577-.857-2.475-.167-3.637,1.2l-1.262,1.487,1.918,1.042.108-.127c.508-.6.871-.955,1.671-.576l6.883,3.736,2.5,1.357,2.852,1.548a2.253,2.253,0,0,0,2,.212Zm13.27.568L139.4,94.4l-6.566-3.153,6.751,8.811c.49.712.223,1.127-.263,1.7s-.856.9-1.638.535l-4.3-2.3-4.216-2.253,9.259,7.862a4.829,4.829,0,0,0,1.634-1.413l1.782-2.1c1.163-1.369,1.666-2.329.6-3.782m-17.182-8.786c-.5-.728-.211-1.145.3-1.743l.1-.12c.508-.6.9-.965,1.7-.586l12.681,6.116c1.607.822,2.474.169,3.636-1.2l1.117-1.315-1.924-1.037c-.456.523-.824.806-1.568.454l-12.74-6.046a2.117,2.117,0,0,0-2.7.24,6.448,6.448,0,0,0-.911.912l-1.883,2.218c-1.163,1.369-1.7,2.367-.6,3.784l1.854,2.42,7.03,3.749Zm15.863-5.856-2.872-1.535-.906-.484c-1.576-.856-2.474-.167-3.637,1.2l-1.262,1.487,1.919,1.042.107-.127c.509-.6.871-.955,1.671-.576l6.884,3.736,2.5,1.358,2.853,1.547a2.249,2.249,0,0,0,2,.212Zm13.269.568-3.036-3.912-6.567-3.153,6.751,8.811c.491.712.224,1.127-.263,1.7s-.856.9-1.637.535l-4.3-2.3-4.215-2.253,9.259,7.862a4.843,4.843,0,0,0,1.633-1.412l1.783-2.1c1.162-1.369,1.666-2.33.594-3.783m-17.181-8.785c-.5-.729-.211-1.146.3-1.743l.1-.121c.508-.6.9-.964,1.7-.586l12.681,6.116c1.607.823,2.475.169,3.637-1.2l1.116-1.315-1.923-1.037c-.457.523-.824.806-1.569.454l-12.74-6.046a2.118,2.118,0,0,0-2.7.24,6.355,6.355,0,0,0-.91.913l-1.884,2.218c-1.162,1.369-1.7,2.366-.6,3.783l1.854,2.42,7.03,3.749ZM153.068,69.6,150.2,68.063l-.906-.484c-1.577-.856-2.475-.166-3.637,1.2l-1.263,1.486,1.919,1.043.108-.128c.508-.6.871-.954,1.671-.575l6.883,3.735,2.5,1.358,2.852,1.547a2.249,2.249,0,0,0,2,.212Zm13.27.569L163.3,66.254,156.735,63.1l6.751,8.811c.49.713.223,1.127-.263,1.7s-.856.9-1.638.535l-4.3-2.3L153.068,69.6l9.259,7.862a4.836,4.836,0,0,0,1.634-1.412l1.782-2.1c1.163-1.369,1.666-2.33.6-3.782m-17.182-8.786c-.5-.729-.211-1.145.3-1.743l.1-.121c.508-.6.9-.964,1.7-.585l12.681,6.116c1.607.822,2.474.168,3.636-1.2l1.117-1.315-1.924-1.037c-.457.524-.824.807-1.568.455L152.457,55.9a2.117,2.117,0,0,0-2.7.241,6.394,6.394,0,0,0-.911.912l-1.883,2.218c-1.163,1.369-1.7,2.367-.6,3.783l1.854,2.421,7.03,3.748Zm15.863-5.857-2.872-1.534-.906-.485c-1.576-.856-2.474-.166-3.637,1.2l-1.262,1.487,1.918,1.042.108-.127c.509-.6.871-.955,1.671-.576l6.884,3.736,2.5,1.357,2.853,1.548a2.249,2.249,0,0,0,2,.211Zm13.269.569-3.037-3.912-6.566-3.154,6.751,8.812c.491.712.224,1.127-.263,1.7s-.856.9-1.637.535l-4.3-2.3-4.215-2.253,9.259,7.862a4.843,4.843,0,0,0,1.633-1.412l1.783-2.1c1.162-1.369,1.666-2.33.594-3.782m-17.181-8.786c-.5-.729-.211-1.145.3-1.743l.1-.12c.508-.6.9-.965,1.7-.586l12.681,6.116c1.607.822,2.474.168,3.637-1.2l1.116-1.314-1.924-1.038c-.456.524-.824.807-1.568.455l-12.74-6.046a2.117,2.117,0,0,0-2.7.24,6.342,6.342,0,0,0-.91.912L158.91,45.2c-1.162,1.369-1.7,2.367-.6,3.783l1.854,2.421,7.03,3.748Zm15.862-5.857L174.1,39.916l-.906-.484c-1.577-.857-2.475-.167-3.637,1.2l-1.263,1.487,1.919,1.042.108-.127c.508-.6.871-.955,1.671-.576l6.883,3.736,2.5,1.357,2.852,1.548a2.253,2.253,0,0,0,2,.212Zm13.269.569L187.2,38.107l-6.566-3.153,6.75,8.811c.491.712.224,1.127-.262,1.7s-.856.905-1.638.535l-4.3-2.3-4.216-2.254,9.259,7.863a4.836,4.836,0,0,0,1.634-1.412l1.782-2.1c1.162-1.37,1.666-2.33.594-3.783m-17.181-8.786c-.5-.728-.211-1.145.3-1.743l.1-.12c.508-.6.9-.965,1.7-.586L187.837,36.9c1.607.822,2.474.169,3.636-1.2l1.117-1.315-1.924-1.037c-.457.523-.824.806-1.568.454l-12.74-6.046a2.118,2.118,0,0,0-2.7.24,6.5,6.5,0,0,0-.91.912l-1.883,2.218c-1.163,1.369-1.7,2.367-.6,3.784l1.854,2.42,7.03,3.749Zm15.863-5.856-2.872-1.535-.906-.484c-1.576-.856-2.474-.167-3.637,1.2l-1.262,1.487,1.918,1.042.108-.127c.508-.6.871-.955,1.671-.576l6.884,3.736,2.5,1.358,2.853,1.547a2.249,2.249,0,0,0,2,.212Zm13.269.568-3.037-3.912-6.566-3.153,6.751,8.811c.491.712.224,1.127-.263,1.7s-.856.905-1.637.535l-4.3-2.3-4.215-2.253,9.259,7.862a4.843,4.843,0,0,0,1.633-1.412l1.782-2.1c1.163-1.369,1.667-2.33.6-3.783M185.008,19.16c-.5-.729-.211-1.146.3-1.743l.1-.121c.509-.6.9-.964,1.7-.586l12.681,6.116c1.607.823,2.474.169,3.637-1.2l1.116-1.315-1.924-1.037c-.456.523-.824.806-1.568.454l-12.74-6.046a2.118,2.118,0,0,0-2.7.24,6.354,6.354,0,0,0-.91.913l-1.884,2.218c-1.162,1.369-1.7,2.367-.6,3.783l1.854,2.42L191.1,27ZM200.87,13.3,198,11.768l-.906-.484c-1.577-.856-2.475-.166-3.637,1.2l-1.263,1.486,1.919,1.043.108-.128c.508-.6.871-.954,1.671-.575l6.883,3.735,2.5,1.358,2.852,1.547a2.249,2.249,0,0,0,2,.212Z" fill="#fff"/>
    <path id="Path_409" data-name="Path 409" d="M25.637,83,23.77,80.943a4.914,4.914,0,0,1-1.2-1.818l8.995-8.163-2.774,3.9-2.831,3.974c-.466.729-.182,1.138.328,1.7s.893.884,1.664.491l9.625-5.537L33.61,81.605l-4.279,2.5c-1.581.872-2.476.241-3.694-1.1m14.6-14.827c.789-.4,1.167-.056,1.7.53l.107.118c.532.587.848,1.026.37,1.772L34.733,82.4c-1.021,1.49-.479,2.442.739,3.784l1.17,1.289L37.917,85.7c-.464-.526-.7-.93-.256-1.623L45.284,72.2a2.129,2.129,0,0,0,.1-2.725,6.534,6.534,0,0,0-.794-1.029l-1.974-2.175c-1.218-1.342-2.145-2.01-3.694-1.1l-2.644,1.52-4.617,6.5ZM44.085,84.76l1.889-2.653.6-.837c1.051-1.455.477-2.442-.742-3.784l-1.322-1.458L43.227,77.8l.113.124c.532.587.842,1,.364,1.742l-4.586,6.353-1.666,2.307-1.9,2.632a2.25,2.25,0,0,0-.462,1.966ZM41.853,97.9l4.279-2.5L50.1,89.288l-9.626,5.536c-.77.393-1.15.072-1.663-.491s-.794-.974-.328-1.7l2.831-3.974,2.774-3.9L35.09,92.923a4.914,4.914,0,0,0,1.2,1.818L38.159,96.8c1.218,1.342,2.112,1.973,3.694,1.1M52.762,81.971c.79-.4,1.168-.056,1.7.53l.107.118c.532.587.848,1.026.37,1.772L47.254,96.2c-1.02,1.489-.478,2.441.74,3.783l1.17,1.289,1.275-1.776c-.465-.525-.7-.93-.256-1.623L57.805,86a2.129,2.129,0,0,0,.1-2.725,6.58,6.58,0,0,0-.794-1.029l-1.974-2.175c-1.218-1.342-2.145-2.009-3.694-1.105L48.8,80.483l-4.617,6.5Zm3.845,16.588L58.5,95.9l.6-.837c1.051-1.455.476-2.442-.742-3.784l-1.322-1.458L55.749,91.6l.113.125c.532.586.841,1,.364,1.741L51.64,99.816l-1.666,2.307-1.9,2.632a2.249,2.249,0,0,0-.462,1.967ZM54.375,111.7l4.279-2.5,3.965-6.115-9.626,5.537c-.771.392-1.15.071-1.663-.491s-.794-.975-.328-1.7l2.831-3.974,2.774-3.9-8.995,8.163a4.92,4.92,0,0,0,1.2,1.817l1.868,2.058c1.218,1.342,2.112,1.973,3.694,1.1M65.284,95.769c.789-.4,1.168-.056,1.7.53l.108.118c.532.587.848,1.026.37,1.772L59.776,110c-1.021,1.489-.478,2.441.74,3.783l1.17,1.289,1.274-1.776c-.464-.525-.7-.929-.256-1.623l7.623-11.875a2.127,2.127,0,0,0,.1-2.724,6.49,6.49,0,0,0-.795-1.03l-1.973-2.175c-1.218-1.342-2.145-2.009-3.694-1.1L61.32,94.281l-4.616,6.5Zm3.844,16.588,1.89-2.653.6-.838c1.051-1.454.476-2.442-.742-3.784l-1.322-1.457-1.28,1.77.113.125c.533.586.842,1,.364,1.741l-4.585,6.353L62.5,115.921l-1.9,2.632a2.253,2.253,0,0,0-.463,1.967ZM66.9,125.5l4.279-2.5,3.966-6.115-9.626,5.537c-.771.393-1.151.071-1.663-.491s-.794-.975-.328-1.7l2.83-3.974,2.774-3.895-8.995,8.163a4.937,4.937,0,0,0,1.2,1.817l1.868,2.058c1.218,1.342,2.112,1.973,3.693,1.1m10.91-15.929c.789-.4,1.168-.056,1.7.53l.107.119c.533.586.849,1.026.371,1.771L72.3,123.794c-1.021,1.489-.478,2.441.74,3.783l1.17,1.29,1.274-1.777c-.464-.525-.7-.929-.256-1.623l7.623-11.875a2.127,2.127,0,0,0,.1-2.724,6.49,6.49,0,0,0-.795-1.03l-1.973-2.175c-1.218-1.342-2.145-2.009-3.694-1.105l-2.645,1.521-4.616,6.5Zm3.844,16.588,1.889-2.653.6-.837c1.051-1.455.476-2.443-.742-3.785l-1.323-1.457-1.279,1.77.113.125c.533.586.842,1,.364,1.742l-4.585,6.352-1.667,2.307-1.9,2.632a2.253,2.253,0,0,0-.463,1.967Zm-2.232,13.139,4.279-2.5,3.966-6.115-9.626,5.537c-.771.393-1.151.071-1.664-.491s-.794-.975-.327-1.7l2.83-3.975,2.774-3.9-9,8.163a4.937,4.937,0,0,0,1.2,1.817l1.868,2.058c1.218,1.342,2.112,1.973,3.693,1.1m10.91-15.929c.789-.4,1.167-.055,1.7.53l.107.119c.533.586.848,1.026.371,1.771L84.82,137.592c-1.021,1.49-.479,2.441.739,3.784l1.17,1.289L88,140.888c-.464-.525-.7-.929-.256-1.623l7.623-11.875a2.127,2.127,0,0,0,.1-2.724,6.49,6.49,0,0,0-.795-1.03L92.7,121.462c-1.218-1.343-2.145-2.01-3.694-1.1l-2.645,1.52-4.617,6.5Zm3.844,16.588,1.889-2.653.6-.837c1.051-1.455.477-2.442-.741-3.785l-1.323-1.457-1.279,1.77.113.125c.533.587.842,1,.364,1.742l-4.586,6.352-1.666,2.307-1.9,2.633a2.25,2.25,0,0,0-.462,1.966Z" fill="#fff"/>
    <path id="Path_410" data-name="Path 410" d="M22.649,175.94l-2.986.97a6.235,6.235,0,0,1-2.416.436L13.5,165.793l2.539,4.087,2.59,4.171c.5.716,1.051.605,1.87.341s1.327-.5,1.314-1.374L21,161.873l4.178,6.051.394,4.968c.095,1.817-.98,2.416-2.927,3.048M14.98,156.584c-.015-.894.519-1.117,1.37-1.393l.171-.056c.851-.276,1.448-.4,1.96.328l8.053,11.71c.99,1.526,2.213,1.379,4.16.747l1.87-.607-1.153-1.873c-.756.235-1.277.3-1.754-.378L21.5,153.383a2.3,2.3,0,0,0-2.684-1.131,8.308,8.308,0,0,0-1.425.353l-3.155,1.025c-1.947.632-3.074,1.248-2.931,3.047l.221,3.061,4.24,6.809Zm18.536,2.709-1.729-2.784-.546-.878c-.941-1.541-2.215-1.378-4.162-.746l-2.115.687,1.145,1.875.181-.059c.851-.276,1.414-.41,1.927.322l4.11,6.725,1.492,2.442,1.7,2.786a2.282,2.282,0,0,0,1.744,1.183Zm12.08,7.1-.394-4.968-4.178-6.052.805,11.145c.014.874-.5,1.108-1.313,1.375s-1.369.374-1.87-.341l-2.591-4.171-2.539-4.088,3.751,11.553a6.2,6.2,0,0,0,2.416-.436l2.986-.969c1.947-.633,3.021-1.232,2.927-3.048M35,150.084c-.015-.894.52-1.117,1.37-1.393l.172-.055c.851-.277,1.447-.406,1.96.327l8.052,11.711c.991,1.525,2.213,1.379,4.161.746l1.87-.607-1.153-1.873c-.756.236-1.278.3-1.755-.378l-8.151-11.679a2.3,2.3,0,0,0-2.684-1.131,8.228,8.228,0,0,0-1.425.354l-3.155,1.024c-1.947.632-3.074,1.248-2.931,3.047l.22,3.062,4.24,6.808Zm18.537,2.709-1.73-2.784-.545-.878c-.941-1.541-2.215-1.377-4.163-.745l-2.114.686,1.145,1.875.181-.058c.851-.277,1.414-.411,1.926.321l4.111,6.725,1.492,2.442,1.7,2.787a2.285,2.285,0,0,0,1.745,1.183Zm12.08,7.1-.395-4.968-4.177-6.052.805,11.145c.014.874-.5,1.108-1.313,1.375s-1.37.374-1.871-.341l-2.59-4.171-2.539-4.088,3.751,11.554a6.223,6.223,0,0,0,2.416-.437l2.985-.969c1.948-.632,3.022-1.231,2.928-3.048m-10.6-16.308c-.015-.894.52-1.117,1.37-1.393l.171-.056c.851-.276,1.448-.4,1.96.327l8.053,11.711c.991,1.526,2.213,1.379,4.16.747l1.871-.608L71.45,152.44c-.755.236-1.277.3-1.754-.378l-8.151-11.678a2.3,2.3,0,0,0-2.685-1.132,8.383,8.383,0,0,0-1.424.354l-3.155,1.024c-1.948.633-3.075,1.249-2.932,3.047l.221,3.062,4.24,6.808Zm18.536,2.709-1.729-2.784-.546-.879c-.941-1.541-2.215-1.377-4.162-.745L65,142.573l1.145,1.875.181-.059c.851-.276,1.415-.411,1.927.322l4.11,6.724,1.492,2.443,1.7,2.786a2.283,2.283,0,0,0,1.744,1.183Zm12.08,7.1-.394-4.968-4.178-6.051.8,11.145c.014.873-.5,1.107-1.313,1.374s-1.369.375-1.87-.341l-2.591-4.171-2.539-4.087,3.751,11.553a6.235,6.235,0,0,0,2.416-.436l2.986-.97c1.947-.632,3.022-1.231,2.927-3.048m-10.6-16.308c-.014-.894.52-1.117,1.37-1.393l.172-.056c.851-.276,1.448-.4,1.96.327l8.052,11.711c.991,1.526,2.214,1.379,4.161.747l1.87-.607L91.47,145.94c-.756.236-1.278.3-1.754-.377l-8.152-11.679a2.3,2.3,0,0,0-2.684-1.131,8.3,8.3,0,0,0-1.425.353L74.3,134.131c-1.947.632-3.074,1.248-2.931,3.047l.221,3.061,4.24,6.809Zm18.537,2.709-1.729-2.784-.546-.879c-.941-1.54-2.215-1.377-4.162-.745l-2.115.687,1.145,1.875.181-.059c.851-.276,1.414-.411,1.927.322l4.11,6.724,1.492,2.443,1.7,2.786a2.285,2.285,0,0,0,1.745,1.183Z" fill="#fff"/>
    <path id="Path_411" data-name="Path 411" d="M178.312,199.243l1.994,1.764a4.535,4.535,0,0,1,1.325,1.614l-8.048,9.1,2.364-4.147,2.411-4.231c.391-.769.08-1.131-.465-1.616s-.944-.746-1.661-.264l-8.887,6.622,3.331-6.46,3.948-2.979c1.464-1.051,2.388-.551,3.688.6m-12.931,16.3c-.733.493-1.13.2-1.7-.3l-.115-.1c-.568-.5-.913-.889-.512-1.677l6.46-12.476c.865-1.581.255-2.438-1.045-3.588l-1.249-1.1-1.087,1.893c.5.451.761.814.388,1.547l-6.394,12.534a2.08,2.08,0,0,0,.138,2.665,5.988,5.988,0,0,0,.861.9l2.107,1.863c1.3,1.151,2.26,1.682,3.689.6l2.441-1.819,3.933-6.915Zm-5.166-15.653-1.61,2.824-.508.892c-.9,1.551-.253,2.439,1.047,3.588l1.412,1.249,1.092-1.887-.12-.107c-.569-.5-.9-.861-.5-1.648l3.914-6.771,1.423-2.459,1.621-2.806a2.245,2.245,0,0,0,.281-1.973Zm1.041-13.075-3.948,2.979-3.332,6.46,8.888-6.623c.716-.481,1.113-.216,1.661.265s.856.847.465,1.616l-2.412,4.231-2.363,4.147,8.048-9.1a4.538,4.538,0,0,0-1.325-1.615l-1.994-1.763c-1.3-1.151-2.225-1.651-3.688-.6m-9.243,16.9c-.733.493-1.131.2-1.7-.3l-.114-.1c-.568-.5-.913-.89-.513-1.677l6.46-12.476c.865-1.581.256-2.438-1.044-3.588l-1.249-1.1-1.088,1.892c.5.452.761.815.389,1.547l-6.394,12.535a2.081,2.081,0,0,0,.137,2.665,6,6,0,0,0,.862.9l2.107,1.864c1.3,1.151,2.259,1.681,3.688.6L156,204.661l3.932-6.916Zm-5.167-15.653-1.609,2.824-.508.892c-.9,1.55-.253,2.438,1.047,3.588l1.412,1.249,1.092-1.887-.121-.107c-.568-.5-.9-.861-.5-1.649l3.915-6.77,1.422-2.459,1.622-2.806a2.249,2.249,0,0,0,.281-1.973Zm1.041-13.076-3.947,2.98-3.332,6.46,8.888-6.623c.716-.481,1.113-.217,1.66.265s.857.847.466,1.616l-2.412,4.231-2.364,4.147,8.049-9.1a4.553,4.553,0,0,0-1.326-1.615l-1.994-1.764c-1.3-1.15-2.224-1.65-3.688-.6m-9.242,16.9c-.733.493-1.131.2-1.7-.3l-.114-.1c-.569-.5-.914-.89-.513-1.677l6.46-12.476c.865-1.581.255-2.438-1.045-3.588l-1.249-1.105L139.4,174.54c.5.452.761.815.389,1.547l-6.394,12.535a2.079,2.079,0,0,0,.137,2.665,5.987,5.987,0,0,0,.861.9l2.107,1.864c1.3,1.15,2.26,1.681,3.689.6l2.442-1.818,3.932-6.916Zm-5.167-15.653-1.61,2.824-.508.891c-.9,1.551-.253,2.438,1.048,3.589l1.412,1.249,1.092-1.887-.121-.107c-.569-.5-.9-.862-.5-1.649l3.915-6.77,1.422-2.459,1.622-2.806a2.248,2.248,0,0,0,.28-1.973Zm1.041-13.076-3.948,2.979-3.331,6.46,8.887-6.622c.717-.481,1.114-.217,1.661.265s.856.847.465,1.616l-2.411,4.231-2.364,4.147,8.048-9.1a4.529,4.529,0,0,0-1.325-1.615l-1.994-1.764c-1.3-1.15-2.225-1.65-3.688-.6m-9.243,16.9c-.733.494-1.131.2-1.7-.3l-.115-.1c-.568-.5-.913-.89-.512-1.677l6.46-12.477c.865-1.58.255-2.437-1.045-3.588l-1.249-1.1-1.087,1.891c.5.452.76.815.388,1.547L120.024,176.8a2.08,2.08,0,0,0,.138,2.665,5.986,5.986,0,0,0,.861.9l2.107,1.864c1.3,1.15,2.259,1.681,3.689.6l2.441-1.819,3.933-6.915Zm-5.166-15.653-1.61,2.825-.508.891c-.9,1.551-.253,2.438,1.047,3.589l1.412,1.249,1.092-1.887-.121-.107c-.568-.5-.9-.862-.5-1.649l3.914-6.771,1.423-2.458,1.621-2.806a2.245,2.245,0,0,0,.281-1.973Zm1.041-13.074-3.948,2.978-3.332,6.461,8.888-6.622c.716-.482,1.113-.218,1.661.265s.856.846.465,1.614l-2.412,4.232-2.363,4.146,8.048-9.1a4.531,4.531,0,0,0-1.326-1.615l-1.993-1.764c-1.3-1.15-2.225-1.65-3.688-.6m-9.243,16.9c-.733.493-1.131.2-1.7-.3l-.114-.1c-.568-.5-.913-.89-.513-1.677l6.46-12.477c.865-1.581.256-2.436-1.045-3.587l-1.249-1.106-1.087,1.894c.5.451.761.814.389,1.547l-6.394,12.534a2.078,2.078,0,0,0,.137,2.664,5.954,5.954,0,0,0,.862.9l2.106,1.864c1.3,1.15,2.26,1.681,3.689.6l2.442-1.819,3.932-6.915Zm-5.167-15.652-1.609,2.824-.508.891c-.9,1.551-.254,2.439,1.047,3.589l1.412,1.249,1.092-1.887-.121-.107c-.568-.5-.9-.862-.5-1.649l3.915-6.77,1.422-2.459,1.622-2.805a2.251,2.251,0,0,0,.281-1.974Zm1.041-13.075-3.948,2.979-3.331,6.459,8.888-6.622c.716-.481,1.113-.216,1.66.264s.856.847.465,1.617l-2.411,4.23-2.364,4.148,8.049-9.1a4.542,4.542,0,0,0-1.326-1.614l-1.994-1.764c-1.3-1.151-2.224-1.65-3.688-.6m-9.242,16.9c-.733.494-1.131.2-1.7-.3l-.115-.1c-.568-.5-.913-.89-.512-1.677l6.46-12.476c.865-1.581.255-2.439-1.045-3.589l-1.249-1.1-1.087,1.893c.5.451.761.814.388,1.546l-6.394,12.535a2.08,2.08,0,0,0,.138,2.665,6.037,6.037,0,0,0,.861.9l2.107,1.863c1.3,1.151,2.26,1.682,3.689.6l2.442-1.819,3.932-6.915Zm-5.167-15.653-1.61,2.825-.508.892c-.9,1.55-.253,2.438,1.047,3.587l1.412,1.249,1.093-1.887-.121-.106c-.569-.5-.9-.861-.5-1.648L98.1,138.9l1.422-2.459,1.622-2.807a2.247,2.247,0,0,0,.28-1.973Z" fill="#fff"/>
    <path id="Path_412" data-name="Path 412" d="M180.531,112.445l2.8-.509a5.146,5.146,0,0,1,2.229-.069l2.174,11.95-1.864-4.409-1.9-4.5c-.378-.78-.887-.754-1.655-.616s-1.252.3-1.331,1.159l-.445,11.108-3.139-6.591.166-4.956c.106-1.806,1.14-2.236,2.967-2.568m4.894,20.229c-.081.884-.588,1.024-1.385,1.169l-.161.029c-.8.146-1.351.184-1.737-.615L176.1,120.508c-.734-1.652-1.854-1.69-3.681-1.358l-1.754.319.845,2.019c.708-.119,1.186-.108,1.546.635l6.137,12.732a2.156,2.156,0,0,0,2.307,1.516,6.779,6.779,0,0,0,1.325-.135l2.959-.538c1.827-.333,2.91-.772,2.97-2.566l.122-3.052-3.115-7.346Zm-16.467-5.441,1.27,3,.4.948c.689,1.66,1.857,1.689,3.684,1.357l1.983-.361-.837-2.02-.17.031c-.8.145-1.322.194-1.708-.6l-3.007-7.244-1.091-2.631-1.246-3a2.254,2.254,0,0,0-1.452-1.427Zm-10.17-8.805-.167,4.957,3.139,6.591.445-11.108c.08-.863.565-1.018,1.332-1.159s1.277-.165,1.654.616l1.9,4.5,1.865,4.409-2.174-11.95a5.148,5.148,0,0,0-2.23.068l-2.8.51c-1.826.332-2.86.762-2.966,2.567m7.86,17.662c-.08.884-.587,1.024-1.384,1.169l-.161.029c-.8.145-1.351.183-1.737-.615l-6.045-12.749c-.735-1.653-1.855-1.691-3.681-1.358l-1.755.319.846,2.019c.707-.12,1.186-.108,1.545.635l6.138,12.732a2.158,2.158,0,0,0,2.307,1.516,6.854,6.854,0,0,0,1.324-.135l2.96-.539c1.826-.332,2.909-.771,2.969-2.566l.123-3.051-3.115-7.346Zm-16.467-5.441,1.27,3,.4.948c.688,1.659,1.857,1.689,3.683,1.356l1.983-.36-.837-2.02-.17.031c-.8.145-1.321.193-1.707-.6l-3.007-7.244-1.091-2.631-1.247-3a2.252,2.252,0,0,0-1.452-1.427Zm-10.17-8.805-.166,4.957,3.139,6.59.445-11.108c.079-.863.565-1.017,1.331-1.159s1.277-.164,1.655.616l1.9,4.5,1.864,4.41L148.007,118.7a5.162,5.162,0,0,0-2.229.069l-2.8.51c-1.827.332-2.861.762-2.967,2.567m7.861,17.662c-.081.884-.588,1.024-1.385,1.169l-.161.029c-.8.145-1.351.183-1.737-.616l-6.044-12.749c-.735-1.652-1.855-1.69-3.682-1.358l-1.754.319.845,2.02c.708-.12,1.187-.108,1.546.634l6.138,12.732a2.156,2.156,0,0,0,2.306,1.517,6.788,6.788,0,0,0,1.325-.136l2.959-.538c1.827-.332,2.91-.771,2.97-2.566l.123-3.051-3.116-7.346ZM131.4,134.065l1.27,3,.4.947c.688,1.66,1.856,1.689,3.683,1.357l1.983-.361-.837-2.019-.17.03c-.8.146-1.322.194-1.708-.6l-3.006-7.243-1.092-2.632-1.246-3a2.252,2.252,0,0,0-1.452-1.427Zm-10.17-8.805-.167,4.957,3.139,6.59.445-11.108c.08-.863.566-1.017,1.332-1.159s1.277-.164,1.654.616l1.9,4.5,1.865,4.41-2.174-11.951a5.162,5.162,0,0,0-2.229.069l-2.8.509c-1.826.333-2.86.763-2.966,2.568m7.861,17.662c-.081.883-.588,1.023-1.385,1.168l-.161.03c-.8.145-1.351.183-1.737-.616l-6.045-12.749c-.735-1.652-1.855-1.69-3.681-1.358l-1.754.319.845,2.019c.708-.119,1.186-.108,1.545.635l6.138,12.732a2.158,2.158,0,0,0,2.307,1.517,6.882,6.882,0,0,0,1.325-.136l2.959-.538c1.826-.333,2.909-.772,2.969-2.566l.123-3.052-3.115-7.346Zm-16.468-5.442,1.27,3,.4.947c.688,1.66,1.857,1.689,3.683,1.357l1.984-.361-.838-2.02-.169.031c-.8.145-1.322.194-1.708-.605l-3.007-7.244-1.091-2.631-1.246-3a2.256,2.256,0,0,0-1.453-1.427Zm-10.169-8.8-.167,4.957,3.139,6.591.445-11.108c.079-.863.565-1.018,1.331-1.159s1.277-.164,1.655.616l1.9,4.5,1.864,4.409-2.174-11.95a5.131,5.131,0,0,0-2.229.069l-2.8.509c-1.827.332-2.861.762-2.966,2.567m7.86,17.662c-.081.884-.587,1.024-1.385,1.169l-.161.029c-.8.146-1.351.184-1.736-.615l-6.045-12.749c-.735-1.652-1.855-1.691-3.682-1.358l-1.754.319.845,2.019c.708-.119,1.187-.108,1.546.635l6.138,12.732a2.156,2.156,0,0,0,2.306,1.516,6.778,6.778,0,0,0,1.325-.135l2.959-.539c1.827-.332,2.91-.771,2.97-2.566l.123-3.051-3.115-7.346ZM93.852,140.9l1.27,3,.4.948c.688,1.66,1.856,1.689,3.683,1.357l1.983-.361-.837-2.02-.17.031c-.8.145-1.322.194-1.707-.605l-3.007-7.244-1.092-2.631-1.246-3a2.252,2.252,0,0,0-1.452-1.427Z" fill="#fff"/>
    <path id="Path_413" data-name="Path 413" d="M122.118,140.336A28.368,28.368,0,1,1,93.75,111.968a28.368,28.368,0,0,1,28.368,28.368" fill="#fff"/>
    <path id="Path_414" data-name="Path 414" d="M187.633,211.293a13.672,13.672,0,1,1-13.672-13.672,13.672,13.672,0,0,1,13.672,13.672" fill="#e5481d"/>
    <path id="Path_415" data-name="Path 415" d="M44.813,71.345A13.672,13.672,0,1,1,31.141,57.673,13.672,13.672,0,0,1,44.813,71.345" fill="#e5481d"/>
    <path id="Path_416" data-name="Path 416" d="M214.977,13.672A13.673,13.673,0,1,1,201.3,0a13.673,13.673,0,0,1,13.673,13.672" fill="#e5481d"/>
    <path id="Path_417" data-name="Path 417" d="M201.3,123.257a13.672,13.672,0,1,1-13.672-13.672A13.672,13.672,0,0,1,201.3,123.257" fill="#e5481d"/>
    <path id="Path_418" data-name="Path 418" d="M27.344,166.335a13.672,13.672,0,1,1-13.672-13.672,13.672,13.672,0,0,1,13.672,13.672" fill="#e5481d"/>
  </g>
</svg>
