<svg id="Group_96" data-name="Group 96" xmlns="http://www.w3.org/2000/svg" xmlns:xlink="http://www.w3.org/1999/xlink" width="169.141" height="203.175" viewBox="0 0 169.141 203.175">
  <defs>
    <clipPath id="clip-path">
      <rect id="Rectangle_23" data-name="Rectangle 23" width="169.141" height="203.175" fill="none"/>
    </clipPath>
  </defs>
  <g id="Group_95" data-name="Group 95" clip-path="url(#clip-path)">
    <path id="Path_419" data-name="Path 419" d="M109.961,146.505l-1.085,5.028,1.97,7.309,2.5-11.254c.24-.866.762-.934,1.566-.936s1.327.07,1.567.936l1.1,4.945,1.079,4.846v-12.6a5.3,5.3,0,0,0-2.277-.343h-2.938c-1.916,0-3.046.246-3.487,2.069" fill="#fff"/>
    <path id="Path_420" data-name="Path 420" d="M114.681,165.989c-.245.887-.786.936-1.622.936h-.169c-.838,0-1.406-.064-1.65-.951l-3.784-14.134c-.441-1.822-1.572-2.069-3.488-2.069h-1.841l.485,2.218c.741.009,1.225.11,1.453.934l3.881,14.134a2.232,2.232,0,0,0,2.063,1.976,7.061,7.061,0,0,0,1.37.107h3.105c1.917,0,3.1-.246,3.49-2.067l.689-3.091-1.807-8.076Z" fill="#fff"/>
    <path id="Path_421" data-name="Path 421" d="M98.962,157.379l.735,3.3.232,1.041c.392,1.822,1.573,2.069,3.49,2.069H105.5l-.477-2.217h-.179c-.837,0-1.378-.048-1.622-.935l-1.715-7.951-.623-2.888-.711-3.294a2.337,2.337,0,0,0-1.211-1.726Z" fill="#fff"/>
    <path id="Path_422" data-name="Path 422" d="M90.26,146.505l-1.085,5.028,1.97,7.309,2.505-11.254c.24-.866.762-.934,1.566-.936s1.327.07,1.567.936l1.1,4.945,1.079,4.846v-12.6a5.3,5.3,0,0,0-2.277-.343H93.747c-1.916,0-3.046.246-3.487,2.069" fill="#fff"/>
    <path id="Path_423" data-name="Path 423" d="M94.98,165.989c-.245.887-.786.936-1.622.936h-.169c-.838,0-1.406-.064-1.65-.951L87.755,151.84c-.441-1.822-1.572-2.069-3.488-2.069H82.426l.485,2.218c.741.009,1.225.11,1.453.934l3.881,14.134a2.232,2.232,0,0,0,2.063,1.976,7.061,7.061,0,0,0,1.37.107h3.1c1.917,0,3.1-.246,3.49-2.067l.689-3.091-1.807-8.076Z" fill="#fff"/>
    <path id="Path_424" data-name="Path 424" d="M79.261,157.379l.735,3.3.232,1.041c.392,1.822,1.573,2.069,3.49,2.069H85.8l-.477-2.217h-.178c-.838,0-1.378-.048-1.623-.935l-1.715-7.951-.623-2.888-.711-3.294a2.337,2.337,0,0,0-1.211-1.726Z" fill="#fff"/>
    <path id="Path_425" data-name="Path 425" d="M70.559,146.505l-1.085,5.028,1.97,7.309,2.5-11.254c.24-.866.762-.934,1.566-.936s1.327.07,1.567.936l1.1,4.945,1.079,4.846v-12.6a5.3,5.3,0,0,0-2.277-.343H74.046c-1.916,0-3.046.246-3.487,2.069" fill="#fff"/>
    <path id="Path_426" data-name="Path 426" d="M75.279,165.989c-.245.887-.786.936-1.622.936h-.169c-.838,0-1.406-.064-1.65-.951L68.054,151.84c-.441-1.822-1.572-2.069-3.488-2.069H62.725l.485,2.218c.741.009,1.225.11,1.453.934l3.881,14.134a2.232,2.232,0,0,0,2.063,1.976,7.061,7.061,0,0,0,1.37.107h3.105c1.917,0,3.1-.246,3.49-2.067l.689-3.091-1.807-8.076Z" fill="#fff"/>
    <path id="Path_427" data-name="Path 427" d="M59.56,157.379l.735,3.3.232,1.041c.392,1.822,1.573,2.069,3.49,2.069H66.1l-.477-2.217h-.178c-.838,0-1.378-.048-1.623-.935L62.1,152.687l-.623-2.888-.711-3.294a2.337,2.337,0,0,0-1.211-1.726Z" fill="#fff"/>
    <path id="Path_428" data-name="Path 428" d="M50.858,146.505c-.4,1.684-.634,3.333-.988,4.993.505,2.482,1.234,4.906,1.873,7.344l2.505-11.254c.24-.866.762-.934,1.566-.936s1.327.07,1.567.936l1.1,4.945,1.079,4.846v-12.6a5.3,5.3,0,0,0-2.277-.343H54.345c-1.916,0-3.046.246-3.487,2.069" fill="#fff"/>
    <path id="Path_429" data-name="Path 429" d="M55.578,165.989c-.245.887-.786.936-1.622.936h-.169c-.838,0-1.406-.064-1.65-.951L50.232,158.9q-.975-3.581-1.6-7.154c-.285-1.859-1.18-2.054-2.717-2.35l-1.485-.22-.009,2.237c.639.1,1.037.268,1.121,1.115.239,2.4.591,4.891,1.073,7.273s1.081,4.776,1.8,7.169a2.368,2.368,0,0,0,.893,1.458,2.906,2.906,0,0,0,.767.4c.14.051.311.1.448.133s.253.059.388.081a7.061,7.061,0,0,0,1.37.107h3.1c1.917,0,3.1-.246,3.49-2.067l.689-3.091-1.807-8.076Z" fill="#fff"/>
    <path id="Path_430" data-name="Path 430" d="M39.836,155.863q-.091,1.68-.122,3.377l-.012,1.072c-.025,1.839,1.269,2.565,3.525,2.85l2.436.365-.3-2.283-.2-.03c-.932-.139-1.532-.28-1.652-1.2-.182-2.724-.259-5.367-.195-8.1q.035-1.484.114-2.954.091-1.679.242-3.342a2.551,2.551,0,0,0-.381-1.876Z" fill="#fff"/>
    <path id="Path_431" data-name="Path 431" d="M36.975,143q-1.558,1.986-3.242,3.9A73.07,73.07,0,0,0,31.8,154.22a90.95,90.95,0,0,0,6.952-9.136c.514-.707.873-.591,1.438-.416.556.2.885.394.769,1.275q-.423,2.479-.713,5.008c-.189,1.654-.315,3.259-.407,4.912L43.3,143.747a1.877,1.877,0,0,0-.577-.433,4.207,4.207,0,0,0-.784-.37c-.608-.255-1.263-.4-1.846-.711-1.148-.593-1.966-.622-3.114.767" fill="#fff"/>
    <path id="Path_432" data-name="Path 432" d="M32.791,162.543a1.21,1.21,0,0,1-1,.48,3.734,3.734,0,0,1-1.237-.43l-.193-.092c-.958-.457-1.582-.833-1.45-1.755.187-1.221.4-2.422.639-3.624q.38-1.831.837-3.62.914-3.576,2.128-6.973c.634-1.7.061-2.455-1.192-3.393l-.6-.445-.555-.508-1.138,1.965c.469.449.777.736.424,1.521a75.086,75.086,0,0,0-4.66,13.968c-.394,1.3.138,2.2,1.283,3.081a7.422,7.422,0,0,0,1.56.927c1.24.584,2.455,1.231,3.733,1.729,2.383.886,3.953,1.2,4.96-.414q.875-1.365,1.695-2.748c.023-1.386.076-2.76.162-4.131q.141-2.094.373-4.159a95.1,95.1,0,0,1-5.767,8.621" fill="#fff"/>
    <path id="Path_433" data-name="Path 433" d="M22.839,145.751q-.935,1.438-1.787,2.883l-.536.92c-.935,1.588-.1,2.776,1.644,4.224l1.97,1.478L25,153.137l-.161-.12c-.754-.564-1.214-.972-.868-1.821,1.181-2.443,2.5-4.866,3.883-7.18q.756-1.263,1.547-2.5.9-1.406,1.847-2.768a2.649,2.649,0,0,0,.593-1.821Z" fill="#fff"/>
    <path id="Path_434" data-name="Path 434" d="M26.727,133.116q-2.352.971-4.779,1.821-2.729,2.537-5.267,5.4a87.75,87.75,0,0,0,10.555-4.527c.806-.369,1.087-.108,1.437.37s.592.769.048,1.486q-1.578,1.935-3.064,3.979-1.455,2-2.818,4.1l9-8.82a2.548,2.548,0,0,0-.788-1.386,12.949,12.949,0,0,1-1.239-1.554c-.826-1.007-1.345-1.555-3.084-.875" fill="#fff"/>
    <path id="Path_435" data-name="Path 435" d="M13.431,148.072c-.878.309-1.333-.211-1.964-1.059l-.128-.172c-.639-.845-1-1.475-.4-2.23a77.4,77.4,0,0,1,10.145-10.6c1.463-1.2,1.255-2.1.627-3.531l-.511-1.41-1.943,1.141a1.125,1.125,0,0,1-.432,1.55,77.18,77.18,0,0,0-10.948,9.864c-.989.939-.937,1.965-.345,3.281a11.4,11.4,0,0,0,.858,1.6c.75,1.145,1.6,2.218,2.42,3.318a6.815,6.815,0,0,0,2.232,2.109,2.279,2.279,0,0,0,2.285-.04q1.419-.739,2.8-1.521,2.157-3.616,4.58-6.959a91.687,91.687,0,0,1-9.272,4.658" fill="#fff"/>
    <path id="Path_436" data-name="Path 436" d="M13.083,128.548q-1.5.781-2.989,1.626l-.935.539c-1.679.945-1.434,2.357-.643,4.487.147.383.276.775.441,1.151l.529,1.113,1.783-1.41-.087-.181c-.419-.845-.523-1.468.191-2.033q3.38-2.325,6.885-4.314,1.272-.722,2.559-1.4c.969-.512,1.981-1.016,2.993-1.5a2.689,2.689,0,0,0,1.457-1.3Z" fill="#fff"/>
    <path id="Path_437" data-name="Path 437" d="M22.689,119.5q-2.536-.322-5.078-.786-3.6.855-7.207,2.084a87.422,87.422,0,0,0,11.377,1.305c.89.078,1.019.441,1.108,1.025s.069.972-.755,1.324c-1.554.6-3.078,1.24-4.6,1.93q-2.24,1.014-4.447,2.163l12.184-3.213a2.617,2.617,0,0,0-.052-1.572c-.085-.657-.182-1.31-.292-1.963-.147-.633-.14-1.154-.473-1.53a2.635,2.635,0,0,0-1.761-.767" fill="#fff"/>
    <path id="Path_438" data-name="Path 438" d="M3.752,125.9c-.922-.166-1.076-.842-1.226-1.89l-.031-.211c-.1-1.052-.049-1.782.812-2.139q3.465-1.392,6.953-2.438c2.308-.687,4.692-1.278,7.04-1.921,1.822-.441,2.069-1.572,2.069-3.488v-1.84l-2.217.485c-.01.741-.11,1.225-.935,1.452L2.083,117.8a2.516,2.516,0,0,0-1.414.731,3.229,3.229,0,0,0-.5,1.709,11.429,11.429,0,0,0-.017,1.811c.047.682.056,1.366.143,2.045l.3,2.034a7.778,7.778,0,0,0,.851,2.953,2.359,2.359,0,0,0,2.043,1.092q1.609.057,3.206.06,3.636-2.07,7.369-3.768A91.865,91.865,0,0,1,3.752,125.9" fill="#fff"/>
    <path id="Path_439" data-name="Path 439" d="M11.762,108.812l-3.3.735-1.041.232c-1.822.392-2.069,1.573-2.069,3.49v2.081l2.217-.477v-.179c0-.837.048-1.378.935-1.622l7.951-1.715,2.888-.623,3.294-.711a2.337,2.337,0,0,0,1.726-1.211Z" fill="#fff"/>
    <path id="Path_440" data-name="Path 440" d="M22.636,100.11l-5.028-1.085L10.3,101l11.254,2.5c.866.24.934.762.936,1.566s-.07,1.327-.936,1.567l-4.945,1.1-4.846,1.079h12.6a5.3,5.3,0,0,0,.343-2.277V103.6c0-1.916-.246-3.046-2.069-3.487" fill="#fff"/>
    <path id="Path_441" data-name="Path 441" d="M3.151,104.83c-.887-.245-.936-.786-.936-1.622v-.169c0-.838.064-1.406.951-1.65L17.3,97.605c1.822-.441,2.069-1.572,2.069-3.488V92.276l-2.218.485c-.009.741-.11,1.225-.934,1.453L2.083,98.1a2.232,2.232,0,0,0-1.976,2.063A7.06,7.06,0,0,0,0,101.528v3.105c0,1.917.246,3.1,2.067,3.49l3.091.689L13.234,107Z" fill="#fff"/>
    <path id="Path_442" data-name="Path 442" d="M11.762,89.111l-3.3.735-1.041.232c-1.822.392-2.069,1.573-2.069,3.49v2.081l2.217-.477v-.179c0-.837.048-1.378.935-1.622l7.951-1.715,2.888-.623,3.294-.711a2.337,2.337,0,0,0,1.726-1.211Z" fill="#fff"/>
    <path id="Path_443" data-name="Path 443" d="M22.636,80.409l-5.028-1.085L10.3,81.294,21.553,83.8c.866.24.934.762.936,1.566s-.07,1.327-.936,1.567l-4.945,1.1-4.846,1.079h12.6a5.3,5.3,0,0,0,.343-2.277V83.9c0-1.916-.246-3.046-2.069-3.487" fill="#fff"/>
    <path id="Path_444" data-name="Path 444" d="M3.151,85.129c-.887-.245-.936-.786-.936-1.622v-.169c0-.838.064-1.406.951-1.65L17.3,77.9c1.822-.441,2.069-1.572,2.069-3.488V72.575l-2.218.485c-.009.741-.11,1.225-.934,1.453L2.083,78.394A2.232,2.232,0,0,0,.107,80.457,7.06,7.06,0,0,0,0,81.827v3.1c0,1.917.246,3.1,2.067,3.49l3.091.689L13.234,87.3Z" fill="#fff"/>
    <path id="Path_445" data-name="Path 445" d="M11.762,69.41l-3.3.735-1.041.232c-1.822.392-2.069,1.573-2.069,3.49v2.081l2.217-.477v-.179c0-.837.048-1.378.935-1.622l7.951-1.715,2.888-.623,3.294-.711a2.337,2.337,0,0,0,1.726-1.211Z" fill="#fff"/>
    <path id="Path_446" data-name="Path 446" d="M22.636,60.708l-5.028-1.085L10.3,61.593,21.553,64.1c.866.24.934.762.936,1.566s-.07,1.327-.936,1.567l-4.945,1.1L11.762,69.41h12.6a5.3,5.3,0,0,0,.343-2.277V64.195c0-1.916-.246-3.046-2.069-3.487" fill="#fff"/>
    <path id="Path_447" data-name="Path 447" d="M3.151,65.428c-.887-.245-.936-.786-.936-1.622v-.169c0-.838.064-1.406.951-1.65L17.3,58.2c1.822-.441,2.069-1.572,2.069-3.488V52.874l-2.218.485c-.009.741-.11,1.225-.934,1.453L2.083,58.693A2.232,2.232,0,0,0,.107,60.756,7.06,7.06,0,0,0,0,62.126v3.105c0,1.917.246,3.1,2.067,3.49l3.091.689L13.234,67.6Z" fill="#fff"/>
    <path id="Path_448" data-name="Path 448" d="M11.8,49.7q-1.668.34-3.338.742l-1.043.236c-1.822.392-2.069,1.573-2.069,3.49v2.081l2.217-.478v-.178c0-.837.048-1.378.935-1.622l7.951-1.716,2.888-.622,3.294-.711a3.375,3.375,0,0,0,1.1-.461,1.846,1.846,0,0,0,.661-.51Z" fill="#fff"/>
    <path id="Path_449" data-name="Path 449" d="M23.529,43.633q-2.339-1-4.643-2.138-3.724-.176-7.549.016a87.41,87.41,0,0,0,10.626,4.368c.828.317.839.7.745,1.282-.127.58-.143.962-1.034,1.076q-2.483.229-4.978.6-2.445.363-4.9.862l12.6.251a2.545,2.545,0,0,0,.422-1.539,13.409,13.409,0,0,1,.246-1.97c.136-1.292.163-2.043-1.537-2.808" fill="#fff"/>
    <path id="Path_450" data-name="Path 450" d="M3.546,44.609c-.836-.41-.784-1.1-.621-2.147l.033-.211c.156-1.049.348-1.75,1.307-1.852a77.143,77.143,0,0,1,14.669-.172c1.877.2,2.4-.567,2.96-2.023l.657-1.349-2.177-.592a1.129,1.129,0,0,1-1.414.774,77.482,77.482,0,0,0-14.706-.922c-1.345-.045-2.056.708-2.581,2.054a11.631,11.631,0,0,0-.547,1.737c-.289,1.34-.456,2.7-.67,4.057a6.641,6.641,0,0,0,.055,3.069,2.3,2.3,0,0,0,1.637,1.6q1.524.5,3.051.933,4.086-.99,8.163-1.6a90.572,90.572,0,0,1-9.816-3.356" fill="#fff"/>
    <path id="Path_451" data-name="Path 451" d="M17.244,30.69q-1.611-.526-3.254-1L12.95,29.4c-1.851-.541-2.671.632-3.655,2.678a19.678,19.678,0,0,0-.933,2.28l2.256.288.07-.188c.3-.9.67-1.4,1.577-1.289q4.029.791,7.9,1.906,1.407.405,2.791.852c1.048.337,2.1.7,3.156,1.086a2.7,2.7,0,0,0,1.948.133Z" fill="#fff"/>
    <path id="Path_452" data-name="Path 452" d="M30.42,31.21c-1.027-1.354-2.047-2.767-2.978-4.159a73.875,73.875,0,0,0-6.545-3.7,88.254,88.254,0,0,0,7.036,9.035,1,1,0,0,1,.045,1.512,1.017,1.017,0,0,1-1.474.391c-1.511-.688-3.041-1.33-4.6-1.936q-2.293-.89-4.659-1.664l10.82,6.456a2.6,2.6,0,0,0,1.092-1.141q.612-.785,1.195-1.589c.815-1.009,1.184-1.684.069-3.206" fill="#fff"/>
    <path id="Path_453" data-name="Path 453" d="M12.6,22.177c-.528-.775-.153-1.357.487-2.2l.13-.17c.7-.794,1.237-1.287,2.1-.919q3.416,1.494,6.6,3.248c2.143,1.19,4.24,2.5,6.23,3.863,1.536,1.109,2.29.6,3.582-.293l1.2-.9L31.332,23.23a1.08,1.08,0,0,1-1.583.019,74.715,74.715,0,0,0-12.325-8.065,2.539,2.539,0,0,0-3.291.462,11.477,11.477,0,0,0-1.3,1.265c-.456.509-.921,1.012-1.363,1.533l-1.24,1.637a7.7,7.7,0,0,0-1.506,2.675,2.355,2.355,0,0,0,.648,2.22q1.086,1.188,2.2,2.331,4.024,1.149,7.851,2.629A92.312,92.312,0,0,1,12.6,22.177" fill="#fff"/>
    <path id="Path_454" data-name="Path 454" d="M31.358,16.839Q30.222,15.6,29.031,14.39l-.756-.759c-1.3-1.3-2.717-.885-4.5.52l-1.967,1.48,1.838,1.388.16-.121c.752-.566,1.273-.9,2.011-.339,2.073,1.78,4.014,3.574,5.923,5.535q1.034,1.061,2.029,2.147,1.135,1.239,2.218,2.51a2.539,2.539,0,0,0,1.608,1.037Z" fill="#fff"/>
    <path id="Path_455" data-name="Path 455" d="M42.554,23.8q-.33-2.5-.523-5.05a73.984,73.984,0,0,0-3.875-6.508,90.374,90.374,0,0,0,1.671,11.367c.151.875-.194,1.024-.713,1.311-.53.26-.9.361-1.448-.337q-1.475-2.036-3.078-4.008c-1.056-1.3-2.115-2.515-3.23-3.736l6.236,10.949a3.5,3.5,0,0,0,1.532-.409l.891-.434.443-.222.468-.162c1.222-.412,1.813-.982,1.626-2.761" fill="#fff"/>
    <path id="Path_456" data-name="Path 456" d="M31.51,7.131c-.088-.959.532-1.266,1.531-1.624l.2-.074c.995-.368,1.7-.553,2.267.185a72.4,72.4,0,0,1,4.147,6.129q1.916,3.153,3.49,6.4c.768,1.638,1.71,1.767,3.255,1.53a8.783,8.783,0,0,1,1.492-.167l-.607-2.191c-.647.043-1.068.043-1.381-.754A74.584,74.584,0,0,0,39.192,3.452c-.651-1.188-1.668-1.437-3.1-1.235a6.964,6.964,0,0,0-1.758.46c-1.287.475-2.592.915-3.851,1.457-2.3,1.083-3.609,2.005-3.171,3.833q.366,1.58.78,3.134c1.935,1.951,3.8,4.036,5.552,6.188A95.424,95.424,0,0,1,31.51,7.131" fill="#fff"/>
    <path id="Path_457" data-name="Path 457" d="M50.478,11.762Q50.106,10.13,49.67,8.5L49.389,7.47c-.48-1.774-1.914-2.039-4.165-1.792l-2.436.369.907,2.1.2-.03c.931-.143,1.545-.185,1.909.657.914,2.527,1.721,5.192,2.405,7.8q.374,1.428.7,2.857.374,1.63.685,3.262a2.431,2.431,0,0,0,.887,1.67Z" fill="#fff"/>
    <path id="Path_458" data-name="Path 458" d="M59.18,22.636l1.085-5.028L58.295,10.3l-2.5,11.254c-.24.866-.762.934-1.566.936s-1.327-.07-1.567-.936l-1.1-4.945-1.079-4.846v12.6a5.3,5.3,0,0,0,2.277.343h2.938c1.916,0,3.046-.246,3.487-2.069" fill="#fff"/>
    <path id="Path_459" data-name="Path 459" d="M54.46,3.151c.245-.887.786-.936,1.622-.936h.169c.838,0,1.406.064,1.65.951L61.685,17.3c.441,1.822,1.572,2.069,3.488,2.069h1.841l-.485-2.218c-.741-.009-1.225-.11-1.453-.934L61.195,2.083A2.232,2.232,0,0,0,59.132.107,7.06,7.06,0,0,0,57.762,0h-3.1c-1.917,0-3.1.246-3.49,2.067l-.689,3.091,1.807,8.076Z" fill="#fff"/>
    <path id="Path_460" data-name="Path 460" d="M70.179,11.762l-.735-3.3L69.212,7.42c-.392-1.822-1.573-2.069-3.49-2.069H63.641l.477,2.217H64.3c.838,0,1.378.048,1.623.935l1.715,7.951.623,2.888.711,3.294a2.337,2.337,0,0,0,1.211,1.726Z" fill="#fff"/>
    <path id="Path_461" data-name="Path 461" d="M78.881,22.636l1.085-5.028L78,10.3,75.491,21.553c-.24.866-.762.934-1.566.936s-1.327-.07-1.567-.936l-1.1-4.945-1.079-4.846v12.6a5.3,5.3,0,0,0,2.277.343h2.938c1.916,0,3.046-.246,3.487-2.069" fill="#fff"/>
    <path id="Path_462" data-name="Path 462" d="M74.161,3.151c.245-.887.786-.936,1.622-.936h.169c.838,0,1.406.064,1.65.951L81.386,17.3c.441,1.822,1.572,2.069,3.488,2.069h1.841l-.485-2.218c-.741-.009-1.225-.11-1.453-.934L80.9,2.083A2.232,2.232,0,0,0,78.833.107,7.06,7.06,0,0,0,77.463,0h-3.1c-1.917,0-3.1.246-3.49,2.067l-.689,3.091,1.807,8.076Z" fill="#fff"/>
    <path id="Path_463" data-name="Path 463" d="M89.88,11.762l-.735-3.3L88.913,7.42c-.392-1.822-1.573-2.069-3.49-2.069H83.342l.477,2.217H84c.838,0,1.378.048,1.623.935l1.715,7.951.623,2.888.711,3.294a2.337,2.337,0,0,0,1.211,1.726Z" fill="#fff"/>
    <path id="Path_464" data-name="Path 464" d="M98.582,22.636l1.085-5.028L97.7,10.3l-2.5,11.254c-.24.866-.762.934-1.566.936s-1.327-.07-1.567-.936l-1.1-4.945L89.88,11.762v12.6a5.3,5.3,0,0,0,2.277.343H95.1c1.916,0,3.046-.246,3.487-2.069" fill="#fff"/>
    <path id="Path_465" data-name="Path 465" d="M93.862,3.151c.245-.887.786-.936,1.622-.936h.169c.838,0,1.406.064,1.65.951L101.087,17.3c.441,1.822,1.572,2.069,3.488,2.069h1.841l-.485-2.218c-.741-.009-1.225-.11-1.453-.934L100.6,2.083A2.232,2.232,0,0,0,98.534.107,7.06,7.06,0,0,0,97.164,0H94.059c-1.917,0-3.1.246-3.49,2.067L89.88,5.158l1.807,8.076Z" fill="#fff"/>
    <path id="Path_466" data-name="Path 466" d="M109.581,11.762l-.735-3.3-.232-1.041c-.392-1.822-1.573-2.069-3.49-2.069h-2.081l.477,2.217h.179c.837,0,1.378.048,1.622.935l1.715,7.951.623,2.888.711,3.294a2.337,2.337,0,0,0,1.211,1.726Z" fill="#fff"/>
    <path id="Path_467" data-name="Path 467" d="M118.283,22.636c.4-1.684.634-3.333.988-4.993-.505-2.482-1.234-4.906-1.873-7.344l-2.505,11.254c-.24.866-.762.934-1.566.936s-1.327-.07-1.567-.936l-1.1-4.945-1.079-4.846v12.6a5.3,5.3,0,0,0,2.277.343H114.8c1.916,0,3.046-.246,3.487-2.069" fill="#fff"/>
    <path id="Path_468" data-name="Path 468" d="M113.563,3.151c.245-.887.786-.936,1.622-.936h.169c.838,0,1.406.064,1.65.951l1.9,7.079q.975,3.581,1.6,7.154c.285,1.859,1.18,2.054,2.717,2.35l1.485.22.009-2.237c-.639-.1-1.037-.268-1.121-1.115-.239-2.405-.591-4.891-1.073-7.273s-1.081-4.776-1.8-7.169a2.368,2.368,0,0,0-.893-1.458,2.907,2.907,0,0,0-.767-.4c-.14-.051-.311-.1-.448-.133s-.253-.059-.388-.081A7.06,7.06,0,0,0,116.865,0h-3.1c-1.917,0-3.1.246-3.49,2.067l-.689,3.091,1.807,8.076Z" fill="#fff"/>
    <path id="Path_469" data-name="Path 469" d="M129.3,13.278q.09-1.68.121-3.377l.012-1.072c.026-1.839-1.269-2.565-3.525-2.85l-2.435-.365.3,2.283.2.03c.932.139,1.532.28,1.652,1.2.182,2.724.258,5.367.195,8.1q-.035,1.484-.115,2.954-.09,1.678-.241,3.342a2.552,2.552,0,0,0,.38,1.876Z" fill="#fff"/>
    <path id="Path_470" data-name="Path 470" d="M132.166,26.141q1.559-1.986,3.242-3.905a73.074,73.074,0,0,0,1.935-7.315,90.95,90.95,0,0,0-6.952,9.136c-.514.707-.873.591-1.438.416-.556-.2-.885-.394-.769-1.275q.423-2.479.713-5.008c.189-1.654.315-3.259.407-4.912l-3.46,12.116a1.894,1.894,0,0,0,.578.433,4.207,4.207,0,0,0,.784.37c.608.255,1.263.395,1.846.711,1.148.593,1.966.622,3.114-.767" fill="#fff"/>
    <path id="Path_471" data-name="Path 471" d="M136.35,6.6a1.21,1.21,0,0,1,1-.48,3.734,3.734,0,0,1,1.237.43l.193.092c.958.457,1.582.833,1.45,1.755-.187,1.221-.4,2.422-.639,3.624q-.379,1.831-.837,3.62-.914,3.576-2.128,6.973c-.634,1.7-.061,2.455,1.192,3.393l.6.445.555.508,1.138-1.965c-.469-.449-.777-.736-.424-1.521A75.086,75.086,0,0,0,144.349,9.5c.394-1.3-.138-2.2-1.283-3.081a7.421,7.421,0,0,0-1.56-.927c-1.24-.584-2.455-1.231-3.733-1.729-2.383-.886-3.953-1.2-4.96.414q-.875,1.365-1.7,2.748c-.023,1.386-.076,2.76-.162,4.131q-.141,2.094-.373,4.159A95.1,95.1,0,0,1,136.35,6.6" fill="#fff"/>
    <path id="Path_472" data-name="Path 472" d="M146.3,23.39q.935-1.438,1.787-2.883l.536-.92c.935-1.588.1-2.776-1.644-4.224l-1.97-1.478L144.145,16l.161.12c.754.564,1.214.972.868,1.821-1.181,2.443-2.5,4.866-3.883,7.18q-.756,1.263-1.547,2.5-.9,1.406-1.847,2.768a2.649,2.649,0,0,0-.593,1.821Z" fill="#fff"/>
    <path id="Path_473" data-name="Path 473" d="M142.414,36.025q2.352-.971,4.779-1.821,2.729-2.536,5.267-5.4A87.75,87.75,0,0,0,141.9,33.329c-.806.369-1.087.108-1.437-.37s-.592-.769-.048-1.486q1.578-1.935,3.064-3.979,1.455-2,2.818-4.1l-9,8.82a2.548,2.548,0,0,0,.788,1.386,12.951,12.951,0,0,1,1.239,1.554c.826,1.007,1.345,1.555,3.084.875" fill="#fff"/>
    <path id="Path_474" data-name="Path 474" d="M155.71,21.069c.878-.309,1.333.211,1.965,1.059l.127.172c.639.845,1,1.475.4,2.23a77.4,77.4,0,0,1-10.145,10.6c-1.463,1.2-1.255,2.1-.627,3.531l.511,1.41,1.943-1.141a1.125,1.125,0,0,1,.432-1.55,77.233,77.233,0,0,0,10.948-9.864c.989-.939.937-1.965.345-3.281a11.4,11.4,0,0,0-.858-1.6c-.75-1.145-1.6-2.218-2.42-3.318a6.815,6.815,0,0,0-2.232-2.109,2.279,2.279,0,0,0-2.285.04q-1.419.74-2.8,1.521-2.157,3.617-4.58,6.959a91.684,91.684,0,0,1,9.272-4.658" fill="#fff"/>
    <path id="Path_475" data-name="Path 475" d="M156.057,40.593q1.5-.781,2.989-1.626l.935-.539c1.679-.945,1.434-2.357.643-4.487-.147-.383-.276-.775-.441-1.151l-.529-1.113-1.783,1.41.087.181c.419.845.523,1.468-.191,2.033q-3.379,2.325-6.885,4.314-1.272.721-2.559,1.4c-.969.512-1.981,1.016-2.993,1.5a2.689,2.689,0,0,0-1.457,1.3Z" fill="#fff"/>
    <path id="Path_476" data-name="Path 476" d="M146.452,49.637q2.537.323,5.077.786,3.6-.855,7.207-2.084a87.38,87.38,0,0,0-11.377-1.305c-.89-.078-1.019-.441-1.108-1.025s-.069-.972.756-1.324c1.554-.6,3.078-1.24,4.6-1.93q2.24-1.014,4.446-2.163l-12.183,3.213a2.6,2.6,0,0,0,.052,1.572c.084.657.181,1.31.291,1.963.148.633.14,1.154.474,1.53a2.632,2.632,0,0,0,1.761.767" fill="#fff"/>
    <path id="Path_477" data-name="Path 477" d="M165.389,43.236c.922.166,1.075.842,1.226,1.89l.031.211c.1,1.052.049,1.782-.812,2.139q-3.465,1.392-6.953,2.438c-2.308.687-4.692,1.278-7.04,1.921-1.822.441-2.069,1.572-2.069,3.488v1.84l2.217-.485c.01-.741.11-1.225.935-1.452l14.134-3.882a2.516,2.516,0,0,0,1.414-.731,3.229,3.229,0,0,0,.495-1.709,11.429,11.429,0,0,0,.017-1.811c-.047-.682-.056-1.366-.143-2.045l-.3-2.034a7.778,7.778,0,0,0-.851-2.953,2.359,2.359,0,0,0-2.043-1.092q-1.609-.057-3.206-.06-3.636,2.07-7.369,3.768a91.866,91.866,0,0,1,10.315.559" fill="#fff"/>
    <path id="Path_478" data-name="Path 478" d="M157.379,60.329l3.3-.735,1.041-.232c1.822-.392,2.069-1.573,2.069-3.49V53.791l-2.217.477v.178c0,.838-.048,1.378-.935,1.623l-7.951,1.715-2.888.623-3.294.711a2.337,2.337,0,0,0-1.726,1.211Z" fill="#fff"/>
    <path id="Path_479" data-name="Path 479" d="M146.505,69.031l5.028,1.085,7.309-1.97-11.254-2.505c-.866-.24-.934-.762-.936-1.566s.07-1.327.936-1.567l4.945-1.1,4.846-1.079h-12.6a5.3,5.3,0,0,0-.343,2.277v2.938c0,1.916.246,3.046,2.069,3.487" fill="#fff"/>
    <path id="Path_480" data-name="Path 480" d="M165.99,64.311c.886.245.935.786.935,1.622V66.1c0,.838-.064,1.406-.951,1.65L151.84,71.536c-1.822.441-2.069,1.572-2.069,3.488v1.841l2.219-.485c.008-.741.109-1.225.933-1.453l14.134-3.881a2.232,2.232,0,0,0,1.976-2.063,7.061,7.061,0,0,0,.107-1.37v-3.1c0-1.917-.245-3.1-2.066-3.49l-3.092-.689-8.076,1.807Z" fill="#fff"/>
    <path id="Path_481" data-name="Path 481" d="M157.379,80.03l3.3-.735,1.041-.232c1.822-.392,2.069-1.573,2.069-3.49V73.492l-2.217.477v.178c0,.838-.048,1.378-.935,1.623l-7.951,1.715-2.888.623-3.294.711a2.337,2.337,0,0,0-1.726,1.211Z" fill="#fff"/>
    <path id="Path_482" data-name="Path 482" d="M146.505,88.732l5.028,1.085,7.309-1.97-11.254-2.5c-.866-.24-.934-.762-.936-1.566s.07-1.327.936-1.567l4.945-1.1,4.846-1.079h-12.6a5.3,5.3,0,0,0-.343,2.277v2.938c0,1.916.246,3.046,2.069,3.487" fill="#fff"/>
    <path id="Path_483" data-name="Path 483" d="M165.99,84.011c.886.245.935.786.935,1.622V85.8c0,.838-.064,1.406-.951,1.65L151.84,91.236c-1.822.441-2.069,1.572-2.069,3.488v1.841l2.219-.485c.008-.741.109-1.225.933-1.453l14.134-3.881a2.232,2.232,0,0,0,1.976-2.063,7.061,7.061,0,0,0,.107-1.37V84.208c0-1.917-.245-3.1-2.066-3.49l-3.092-.689-8.076,1.807Z" fill="#fff"/>
    <path id="Path_484" data-name="Path 484" d="M157.379,99.73l3.3-.734,1.041-.232c1.822-.392,2.069-1.573,2.069-3.49V93.193l-2.217.477v.178c0,.838-.048,1.378-.935,1.623l-7.951,1.715-2.888.623-3.294.711a2.339,2.339,0,0,0-1.726,1.21Z" fill="#fff"/>
    <path id="Path_485" data-name="Path 485" d="M146.505,108.433l5.028,1.085,7.309-1.97-11.254-2.5c-.866-.24-.934-.762-.936-1.566s.07-1.327.936-1.567l4.945-1.1,4.846-1.079h-12.6a5.3,5.3,0,0,0-.343,2.277v2.938c0,1.916.246,3.046,2.069,3.487" fill="#fff"/>
    <path id="Path_486" data-name="Path 486" d="M165.99,103.712c.886.245.935.786.935,1.622v.169c0,.838-.064,1.406-.951,1.65l-14.134,3.784c-1.822.441-2.069,1.572-2.069,3.488v1.841l2.219-.485c.008-.741.109-1.225.933-1.453l14.134-3.881a2.232,2.232,0,0,0,1.976-2.063,7.061,7.061,0,0,0,.107-1.37v-3.105c0-1.917-.245-3.1-2.066-3.49l-3.092-.689-8.076,1.807Z" fill="#fff"/>
    <path id="Path_487" data-name="Path 487" d="M157.34,119.442q1.668-.341,3.338-.742l1.043-.236c1.822-.392,2.069-1.573,2.069-3.49v-2.081l-2.217.478v.178c0,.837-.048,1.378-.935,1.622l-7.951,1.716-2.888.622-3.294.711a3.375,3.375,0,0,0-1.1.461,1.846,1.846,0,0,0-.661.51Z" fill="#fff"/>
    <path id="Path_488" data-name="Path 488" d="M145.611,125.508q2.339,1,4.643,2.138,3.725.175,7.549-.016a87.408,87.408,0,0,0-10.626-4.368c-.828-.317-.839-.7-.745-1.282.127-.58.143-.962,1.034-1.076q2.482-.229,4.978-.6,2.445-.363,4.9-.862l-12.6-.251a2.544,2.544,0,0,0-.422,1.539,13.276,13.276,0,0,1-.246,1.97c-.136,1.292-.163,2.043,1.537,2.808" fill="#fff"/>
    <path id="Path_489" data-name="Path 489" d="M165.6,124.532c.836.41.784,1.1.621,2.147l-.033.211c-.155,1.049-.348,1.75-1.307,1.852a77.144,77.144,0,0,1-14.669.172c-1.877-.2-2.4.567-2.96,2.023l-.657,1.349,2.177.592a1.129,1.129,0,0,1,1.414-.774,77.482,77.482,0,0,0,14.706.922c1.345.045,2.056-.708,2.581-2.054a11.63,11.63,0,0,0,.547-1.737c.289-1.34.456-2.7.67-4.057a6.642,6.642,0,0,0-.055-3.069,2.3,2.3,0,0,0-1.637-1.6q-1.524-.5-3.051-.933-4.086.99-8.163,1.6a90.573,90.573,0,0,1,9.816,3.356" fill="#fff"/>
    <path id="Path_490" data-name="Path 490" d="M151.9,138.451q1.611.526,3.254,1l1.04.292c1.851.541,2.671-.632,3.655-2.678a19.678,19.678,0,0,0,.933-2.28l-2.256-.288-.07.188c-.3.9-.67,1.4-1.577,1.289q-4.029-.79-7.905-1.906-1.407-.4-2.791-.852c-1.048-.337-2.1-.7-3.156-1.086a2.7,2.7,0,0,0-1.948-.133Z" fill="#fff"/>
    <path id="Path_491" data-name="Path 491" d="M138.721,137.931c1.026,1.354,2.047,2.767,2.978,4.159a73.716,73.716,0,0,0,6.544,3.7,88.386,88.386,0,0,0-7.035-9.035,1,1,0,0,1-.046-1.512,1.017,1.017,0,0,1,1.474-.391c1.511.688,3.041,1.33,4.6,1.936q2.292.89,4.658,1.664l-10.82-6.456a2.6,2.6,0,0,0-1.092,1.141q-.612.784-1.195,1.589c-.814,1.009-1.184,1.684-.068,3.206" fill="#fff"/>
    <path id="Path_492" data-name="Path 492" d="M156.544,146.963c.528.775.153,1.357-.488,2.2l-.13.17c-.7.794-1.237,1.287-2.1.919q-3.415-1.494-6.6-3.248c-2.142-1.19-4.239-2.5-6.23-3.863-1.535-1.109-2.29-.6-3.582.293l-1.2.9,1.594,1.574a1.079,1.079,0,0,1,1.582-.019,74.714,74.714,0,0,0,12.325,8.065,2.539,2.539,0,0,0,3.291-.462,11.4,11.4,0,0,0,1.3-1.265c.456-.509.922-1.012,1.364-1.533l1.239-1.637a7.7,7.7,0,0,0,1.506-2.675,2.355,2.355,0,0,0-.648-2.22q-1.086-1.188-2.2-2.331-4.024-1.149-7.851-2.629a92.325,92.325,0,0,1,6.828,7.759" fill="#fff"/>
    <path id="Path_493" data-name="Path 493" d="M137.783,152.3q1.135,1.24,2.327,2.449l.756.759c1.3,1.3,2.717.885,4.5-.52l1.967-1.48-1.838-1.388-.16.121c-.752.566-1.273.9-2.011.339-2.073-1.78-4.014-3.574-5.923-5.535q-1.033-1.061-2.029-2.147-1.136-1.239-2.218-2.51a2.539,2.539,0,0,0-1.608-1.037Z" fill="#fff"/>
    <path id="Path_494" data-name="Path 494" d="M126.587,145.341q.33,2.5.523,5.05a73.986,73.986,0,0,0,3.875,6.508,90.374,90.374,0,0,0-1.671-11.367c-.151-.875.194-1.024.712-1.311.531-.26.9-.361,1.449.337q1.474,2.035,3.078,4.008c1.056,1.3,2.114,2.515,3.23,3.736l-6.236-10.949a3.5,3.5,0,0,0-1.532.409l-.891.434-.443.222-.468.162c-1.222.412-1.813.982-1.626,2.761" fill="#fff"/>
    <path id="Path_495" data-name="Path 495" d="M137.631,162.01c.088.959-.532,1.266-1.531,1.624l-.2.074c-.995.368-1.7.553-2.267-.185a72.4,72.4,0,0,1-4.147-6.129q-1.916-3.153-3.49-6.4c-.768-1.638-1.71-1.767-3.255-1.53a8.783,8.783,0,0,1-1.492.167l.607,2.191c.647-.043,1.068-.043,1.381.754a74.584,74.584,0,0,0,6.713,13.109c.651,1.188,1.668,1.437,3.1,1.235a6.964,6.964,0,0,0,1.758-.46c1.287-.475,2.592-.915,3.851-1.457,2.3-1.083,3.609-2.005,3.171-3.833q-.366-1.579-.78-3.134c-1.935-1.951-3.8-4.036-5.552-6.188a95.421,95.421,0,0,1,2.132,10.158" fill="#fff"/>
    <path id="Path_496" data-name="Path 496" d="M118.663,157.379q.372,1.632.808,3.263l.281,1.029c.48,1.774,1.914,2.039,4.165,1.792l2.436-.369-.907-2.1-.2.03c-.931.143-1.545.185-1.909-.657-.914-2.527-1.721-5.192-2.4-7.8q-.374-1.428-.7-2.857-.374-1.631-.685-3.262a2.429,2.429,0,0,0-.887-1.67Z" fill="#fff"/>
    <path id="Path_497" data-name="Path 497" d="M96.925,41.56q2.389.162,6.519.489V67.255q-2.608-.327-8.746-.489t-8.475,2.716a9.854,9.854,0,0,0-2.336,6.355v10H104.2v21.839H83.887v95.5H53.14v-95.5H35.755V85.834H52.7V78.228q0-19.009,6.411-26.185Q65.851,41.4,91.6,41.4q2.933,0,5.324.164" fill="#e5481d"/>
  </g>
</svg>
