<svg id="Group_102" data-name="Group 102" xmlns="http://www.w3.org/2000/svg" xmlns:xlink="http://www.w3.org/1999/xlink" width="187.016" height="197.309" viewBox="0 0 187.016 197.309">
  <defs>
    <clipPath id="clip-path">
      <rect id="Rectangle_25" data-name="Rectangle 25" width="187.016" height="197.309" fill="none"/>
    </clipPath>
  </defs>
  <g id="Group_101" data-name="Group 101" clip-path="url(#clip-path)">
    <path id="Path_541" data-name="Path 541" d="M183.012,197.309a4,4,0,0,1-3.841-2.892c-.116-.4-8.711-30.194-16.479-58.392-1.228,28.408-5.556,41.212-19.741,41.212-15.522,0-27.45-20.447-36.238-62.315.962,71.031-5.108,77.534-7.525,80.126a6.587,6.587,0,0,1-4.9,2.26c-6.625,0-8.058-8.99-10.857-44.419-.653-8.272-1.474-18.649-2.407-25.193a192.387,192.387,0,0,0-6.918,18.341c-5.962,17.438-11.6,33.907-21.661,35.136a6.93,6.93,0,0,1-6.712-3.349,17.294,17.294,0,0,1-2.167-4.861c-7.58,13.336-17.034,24.345-27.6,24.345A13.031,13.031,0,0,1,4.617,190.8c-14.73-23.18,8.935-113.5,26.855-151.687C38.127,24.926,43.036,19.691,48.4,21.048c4.705,1.189,6.976,6.952,7.6,19.269.374,7.437-.021,14.551-.038,14.851a4,4,0,0,1-7.987-.452c.6-10.6-.135-21.43-1.586-25.167-1.242,1.261-3.717,4.54-7.669,12.961-8.93,19.033-18.957,50.834-24.947,79.136-6.825,32.237-7.722,56.486-2.4,64.863,1.576,2.48,3.29,2.8,4.6,2.8,5.749,0,12.953-7,20.283-19.709,1.869-3.239,3.639-6.632,5.312-10.123a193.637,193.637,0,0,1,.425-24c1.195-15.862,4.455-36.592,10.024-47.208,2.729-5.2,6.016-7.841,9.768-7.841,1.284,0,4.434.45,5.986,4.609a20.277,20.277,0,0,1,.966,6.96c0,13.555-6.635,39.4-15.775,61.448-1.013,2.445-2.1,4.946-3.253,7.456.423,6.092,1.263,10.5,2.416,12.169,4.942-1.92,10.609-18.493,14.414-29.617,4.086-11.951,7.616-22.272,12.306-26.962a4.692,4.692,0,0,1,5.03-1.2c3.912,1.442,4.992,4.786,7.535,36.974.8,10.2,2.038,25.806,3.6,33.584,2.122-7.484,5.026-29.232,3.241-92.294-.684-24.136-1.874-47.981-2.834-64.948-1.1-14.579-1.5-24.241-1.5-24.442a4,4,0,0,1,7.988-.436c.014.2.672,9.741,1.5,24.395,1.211,16.045,3.278,38.08,6.626,59.952,3.735,24.4,14.419,81.167,32.918,81.167,3.457,0,7.026-.868,9.373-11.246,2.339-10.349,2.819-27.691,2.819-50.546a4,4,0,0,1,7.871-1c8.146,31.346,23.687,85.217,23.843,85.758a4,4,0,0,1-3.845,5.111M60.687,89.464c-1.393,1.717-3.921,6.154-6.5,17.353a200.931,200.931,0,0,0-4.46,32.906c7.846-22,11.787-43.346,10.957-50.259" fill="#e5481d"/>
    <path id="Path_542" data-name="Path 542" d="M157.856,63.805a8.794,8.794,0,1,1-8.794-8.794,8.794,8.794,0,0,1,8.794,8.794" fill="#e95e43"/>
    <path id="Path_543" data-name="Path 543" d="M165.578,69.068q2.016.99,3.981,2.145a48.262,48.262,0,0,0,6.744.337,58.416,58.416,0,0,0-9.277-4.313c-.737-.3-.756-.622-.677-1.113.1-.489.161-.8.935-.9q2.213-.19,4.441-.55,2.182-.352,4.371-.868H164.858a1.91,1.91,0,0,0-.379,1.257c.006.546-.165,1.062-.208,1.6a2.239,2.239,0,0,0,.013,1.3,2.657,2.657,0,0,0,1.294,1.106" fill="#fff"/>
    <path id="Path_544" data-name="Path 544" d="M183.4,68.674c.738.408.68,1.1.509,2.136-.013.069-.02.14-.039.209-.251,1.025-.489,1.713-1.328,1.8a51.066,51.066,0,0,1-13.105-.467,2.376,2.376,0,0,0-1.79.186,1.959,1.959,0,0,0-.541.544c-.147.233-.3.5-.5.784L165.931,75q.912.4,1.844.767a.994.994,0,0,1,1.318-.564,47.739,47.739,0,0,0,6.4,1.331,49.646,49.646,0,0,0,6.675.5c1.211.1,1.948-.612,2.573-1.922a10,10,0,0,0,.574-1.732l.5-2.006.326-2.039a16.546,16.546,0,0,0,.187-1.716,5.769,5.769,0,0,0-.172-1.36,2.111,2.111,0,0,0-1.456-1.577q-1.359-.466-2.721-.867A63.319,63.319,0,0,1,174.7,65.45q2.218.636,4.424,1.445,2.152.8,4.281,1.779" fill="#fff"/>
    <path id="Path_545" data-name="Path 545" d="M169.764,81.176c.917.464,1.816.88,2.742,1.285l.879.376A2,2,0,0,0,175.4,82.7a5.737,5.737,0,0,0,1.727-2.063,18.388,18.388,0,0,0,1.169-2.111q-1-.2-1.993-.422l-.085.174c-.436.8-.806,1.277-1.609,1.09a59.912,59.912,0,0,1-6.8-2.525q-1.209-.536-2.383-1.117-1.341-.661-2.635-1.382a2.426,2.426,0,0,0-1.631-.4Z" fill="#fff"/>
    <path id="Path_546" data-name="Path 546" d="M158.314,78.439q.915,2.064,1.685,4.222a51.9,51.9,0,0,0,4.963,4.6,60.581,60.581,0,0,0-4.337-9.279c-.359-.686-.181-.967.191-1.3s.667-.487,1.308-.077q1.811,1.275,3.744,2.43,1.893,1.129,3.9,2.139l-8.605-7.228a1.868,1.868,0,0,0-1.078.731l-1.191,1.1c-.857.614-1.187,1.181-.576,2.663" fill="#fff"/>
    <path id="Path_547" data-name="Path 547" d="M172.234,89.613c.294.777-.15,1.315-.989,1.95l-.169.128c-.839.637-1.455,1.019-2.15.548a51.465,51.465,0,0,1-5.214-4.138,48.457,48.457,0,0,1-4.545-4.665,2.279,2.279,0,0,0-1.484-.988,2.059,2.059,0,0,0-.757.086,5.238,5.238,0,0,0-.893.256,11.214,11.214,0,0,1-1.245.427c.3.6.61,1.212.928,1.8a.962.962,0,0,1,1.361.385,50.428,50.428,0,0,0,8.869,9.82c.869.868,1.875.769,3.184.151a7.346,7.346,0,0,0,1.565-.93,34.364,34.364,0,0,0,3.224-2.564c1.925-1.669,2.762-3.073,1.886-4.495q-.742-1.235-1.531-2.42a62.564,62.564,0,0,1-6.623-3.415,61.227,61.227,0,0,1,4.583,8.064" fill="#fff"/>
    <path id="Path_548" data-name="Path 548" d="M153.753,90.406q.6,1.4,1.279,2.779l.432.855a1.953,1.953,0,0,0,1.626,1.168,5.8,5.8,0,0,0,2.654-.463c.755-.282,1.521-.539,2.262-.855-.426-.521-.851-1.069-1.264-1.618l-.182.067c-.856.318-1.433.481-1.929-.18a58.989,58.989,0,0,1-3.594-6.324q-.581-1.182-1.1-2.376-.6-1.362-1.124-2.739a2.633,2.633,0,0,0-.995-1.383Z" fill="#fff"/>
    <path id="Path_549" data-name="Path 549" d="M146.742,80.959q-.627,2.169-1.423,4.319a52.386,52.386,0,0,0,.845,6.72,61.23,61.23,0,0,0,2.645-9.909c.168-.743.485-.832.985-.865s.824.027,1.055.791c.38,1.448.809,2.847,1.3,4.264q.72,2.076,1.6,4.128l-1.939-11.07a2.019,2.019,0,0,0-1.288-.12c-.543,0-1.082.07-1.624.065a1.87,1.87,0,0,0-1.3.248,2.487,2.487,0,0,0-.862,1.429" fill="#fff"/>
    <path id="Path_550" data-name="Path 550" d="M150.218,98.47c-.274.789-.959.921-2.007.849L148,99.31c-1.05-.048-1.767-.148-2-.954a52.034,52.034,0,0,1-1.335-6.525,48.333,48.333,0,0,1-.484-6.492,2.29,2.29,0,0,0-.5-1.713,1.886,1.886,0,0,0-.635-.417,5.751,5.751,0,0,0-.849-.379c-.406-.164-.837-.271-1.229-.47-.159.653-.313,1.323-.444,1.968.546.2.866.417.794,1.174a50.335,50.335,0,0,0,.482,13.225c.11,1.216.944,1.792,2.344,2.158a7.4,7.4,0,0,0,1.795.3l2.055.106,1.027.042,1.027-.038a8.7,8.7,0,0,0,3.031-.5,2.176,2.176,0,0,0,1.3-1.737q.227-1.43.385-2.85a61.3,61.3,0,0,1-2.871-6.845,63.09,63.09,0,0,1-1.681,9.108" fill="#fff"/>
    <path id="Path_551" data-name="Path 551" d="M135.555,87.2q-.436,1.457-.806,2.951l-.217.929a1.96,1.96,0,0,0,.493,1.942,5.742,5.742,0,0,0,2.332,1.349c.76.268,1.507.578,2.282.8.01-.677.032-1.352.07-2.044l-.183-.066c-.859-.309-1.4-.557-1.359-1.383a58.786,58.786,0,0,1,1.31-7.151q.315-1.278.681-2.531.417-1.429.9-2.823a2.622,2.622,0,0,0,.124-1.7Z" fill="#fff"/>
    <path id="Path_552" data-name="Path 552" d="M136.267,75.457q-1.881,1.263-3.881,2.4a52.055,52.055,0,0,0-3.653,5.667,59.737,59.737,0,0,0,8.391-5.877.886.886,0,0,1,1.3-.023c.4.3.615.542.3,1.274-.647,1.363-1.212,2.7-1.748,4.108q-.781,2.052-1.423,4.192l5.628-9.728c-.14-.4-.482-.623-.908-.923-.41-.35-.887-.614-1.275-.992a1.986,1.986,0,0,0-1.158-.631,2.356,2.356,0,0,0-1.575.531" fill="#fff"/>
    <path id="Path_553" data-name="Path 553" d="M127.659,91.108c-.732.445-1.312.069-2.08-.65l-.157-.143c-.78-.707-1.272-1.238-.927-2a51.785,51.785,0,0,1,7-11.153c1.086-1.267.755-2,.077-3.195-.113-.189-.239-.37-.343-.564l-.28-.6q-.812.6-1.607,1.226c.221.543.4.876-.159,1.417a51.1,51.1,0,0,0-4.373,4.906,54.136,54.136,0,0,0-3.74,5.522,2.083,2.083,0,0,0-.4,1.535,4.032,4.032,0,0,0,.792,1.63,10.767,10.767,0,0,0,1.17,1.395c1.017.921,2,1.892,3.087,2.727a8.961,8.961,0,0,0,2.649,1.567,2.176,2.176,0,0,0,2.116-.494q1.09-.95,2.125-1.936a61.478,61.478,0,0,1,2.2-7.089,63.117,63.117,0,0,1-7.147,5.9" fill="#fff"/>
    <path id="Path_554" data-name="Path 554" d="M123.681,73.043q-1.263.834-2.5,1.74l-.776.579a1.91,1.91,0,0,0-.884,1.811,6.759,6.759,0,0,0,.914,2.536l1.253,2.064q.681-.779,1.38-1.53l-.1-.166c-.475-.779-.744-1.312-.184-1.914a62.52,62.52,0,0,1,5.616-4.654q1.055-.774,2.134-1.5c.824-.552,1.638-1.073,2.506-1.588a2.532,2.532,0,0,0,1.2-1.225Z" fill="#fff"/>
    <path id="Path_555" data-name="Path 555" d="M131.773,64.513q-2.259-.245-4.528-.659a52.237,52.237,0,0,0-6.421,1.988,58.449,58.449,0,0,0,10.2.9c.8.028.856.34.987.82s.147.8-.559,1.158c-1.35.621-2.728,1.311-4.012,2.033s-2.526,1.475-3.761,2.292l10.56-3.845a2.617,2.617,0,0,0-.091-1.286,9.482,9.482,0,0,1-.34-1.566c-.206-1.03-.384-1.623-2.037-1.833" fill="#fff"/>
    <path id="Path_556" data-name="Path 556" d="M115.1,70.964c-.85-.13-.988-.8-1.152-1.844l-.032-.211c-.165-1.042-.194-1.766.595-2.132a51.7,51.7,0,0,1,12.52-4.035,2.183,2.183,0,0,0,1.57-.8,3.7,3.7,0,0,0,.54-1.6l.1-.653.17-.636q-1-.063-2.02-.094c-.176.558-.257.926-1.029.984a51.318,51.318,0,0,0-6.508.949,54.272,54.272,0,0,0-6.4,1.823c-1.192.317-1.682,1.233-1.741,2.669a12.361,12.361,0,0,0,0,1.818c.122,1.365.371,2.727.584,4.084.592,2.484,1.233,3.963,2.972,3.894q1.453-.028,2.888-.123a57.714,57.714,0,0,1,6.243-4.022,63.774,63.774,0,0,1-9.295-.071" fill="#fff"/>
    <path id="Path_557" data-name="Path 557" d="M123.681,54.567q-1.5-.173-3.034-.273l-.967-.056a1.9,1.9,0,0,0-1.835.821,6.628,6.628,0,0,0-.931,2.531l-.366,2.388q1.023-.159,2.041-.286l.029-.192c.136-.9.272-1.484,1.088-1.585a61.986,61.986,0,0,1,7.293.044q1.308.085,2.6.226c.987.107,1.946.232,2.933.392a2.544,2.544,0,0,0,1.71-.166Z" fill="#fff"/>
    <path id="Path_558" data-name="Path 558" d="M135.356,53.232c-1.045-1.089-2.081-2.244-3.037-3.409a50.685,50.685,0,0,0-6.2-2.609,58.553,58.553,0,0,0,7.239,7.244c.6.537.436.81.232,1.265s-.4.707-1.176.526c-1.439-.394-2.928-.746-4.375-1.018q-2.146-.409-4.357-.664l10.56,3.844c.358-.209.493-.594.755-1.045a10.36,10.36,0,0,1,.748-1.422c.506-.923.75-1.485-.388-2.712" fill="#fff"/>
    <path id="Path_559" data-name="Path 559" d="M118.441,47.458c-.574-.649-.242-1.252.3-2.155l.111-.182c.539-.907.991-1.473,1.829-1.25a54.868,54.868,0,0,1,6.3,2.1,51.04,51.04,0,0,1,5.884,2.853,2.19,2.19,0,0,0,1.71.4,3.085,3.085,0,0,0,1.444-.886c.321-.3.7-.531,1.046-.806q-.726-.69-1.482-1.362a1.047,1.047,0,0,1-1.438.074,52,52,0,0,0-5.576-3.444,51.063,51.063,0,0,0-6.083-2.731c-1.1-.509-2.1-.146-3.059.924a12.476,12.476,0,0,0-1.162,1.4c-.793,1.121-1.469,2.327-2.179,3.5-1.147,2.28-1.6,3.827-.222,4.892q1.131.912,2.289,1.762a58.316,58.316,0,0,1,7.365.931,63.722,63.722,0,0,1-7.071-6.026" fill="#fff"/>
    <path id="Path_560" data-name="Path 560" d="M135.555,40.41q-1.038-1.092-2.142-2.144l-.7-.659a2.015,2.015,0,0,0-1.951-.579,7.459,7.459,0,0,0-2.328,1.35c-.626.5-1.205,1.065-1.8,1.6q.882.532,1.74,1.089l.144-.131c.672-.616,1.146-.978,1.858-.5a63.339,63.339,0,0,1,5.546,4.7c.63.6,1.24,1.208,1.843,1.836q1.041,1.089,2.018,2.217a2.433,2.433,0,0,0,1.406.947Z" fill="#fff"/>
    <path id="Path_561" data-name="Path 561" d="M145.353,46.88c-.108-1.535-.144-3.016-.13-4.533a47.8,47.8,0,0,0-3.071-6,57.626,57.626,0,0,0,.894,10.2c.108.783-.165.951-.634,1.114-.461.185-.757.3-1.235-.341q-1.273-1.833-2.7-3.6c-.942-1.164-1.9-2.237-2.918-3.312l5.628,9.728a2.58,2.58,0,0,0,1.258-.309c.244-.107.47-.26.725-.344l.755-.267a2.633,2.633,0,0,0,1.118-.668,2.548,2.548,0,0,0,.314-1.67" fill="#fff"/>
    <path id="Path_562" data-name="Path 562" d="M136.107,31.611c-.013-.839.618-1.123,1.61-1.479l.2-.072c.991-.366,1.728-.431,2.216.238a51.585,51.585,0,0,1,3.47,5.645,52.417,52.417,0,0,1,2.669,5.965c.544,1.517,1.354,1.741,2.731,1.651l1.323.068q-.112-.994-.26-1.993a1.042,1.042,0,0,1-1.15-.882,50.929,50.929,0,0,0-4.953-12.218c-.514-1.089-1.511-1.437-2.946-1.273a12.477,12.477,0,0,0-1.791.355,33.074,33.074,0,0,0-3.925,1.3,8.007,8.007,0,0,0-1.568.723,5.719,5.719,0,0,0-1.108.812,2.056,2.056,0,0,0-.653,2.033q.286,1.431.633,2.832a57.971,57.971,0,0,1,5.058,5.461,61.774,61.774,0,0,1-1.557-9.162" fill="#fff"/>
    <path id="Path_563" data-name="Path 563" d="M153.753,37.2q-.095-1.5-.264-3.018l-.114-.957a2.041,2.041,0,0,0-1.123-1.7,7.442,7.442,0,0,0-2.648-.45c-.8-.058-1.605.042-2.407.063q.331.974.631,1.948l.193-.009c.91-.065,1.505.007,1.745.818a63.475,63.475,0,0,1,1.224,7.159c.1.868.176,1.714.233,2.6q.1,1.5.122,2.995a2.426,2.426,0,0,0,.468,1.628Z" fill="#fff"/>
    <path id="Path_564" data-name="Path 564" d="M157.1,48.457c.9-1.243,1.831-2.409,2.815-3.559a48.061,48.061,0,0,0,1.5-6.569,57.62,57.62,0,0,0-5.87,8.387c-.421.669-.737.62-1.2.44-.477-.139-.771-.256-.727-1.049q.2-2.224.24-4.495c.027-1.5-.018-2.927-.108-4.408l-1.94,11.069a2.656,2.656,0,0,0,1.161.571c.256.072.523.113.776.2l.75.285a4.91,4.91,0,0,0,.686.186,1.226,1.226,0,0,0,.6.019,2.528,2.528,0,0,0,1.314-1.074" fill="#fff"/>
    <path id="Path_565" data-name="Path 565" d="M159.833,30.813c.53-.65,1.194-.461,2.183-.093l.2.075c1,.343,1.6.778,1.545,1.6A50.561,50.561,0,0,1,161,45.236c-.56,1.518-.076,2.2,1.024,3.023l.976.892q.552-.833,1.08-1.689a1.018,1.018,0,0,1-.312-1.415,50.738,50.738,0,0,0,4.057-12.542c.306-1.163-.232-2.074-1.439-2.864a12.381,12.381,0,0,0-1.6-.881,34.469,34.469,0,0,0-3.838-1.531,7.764,7.764,0,0,0-3.04-.543,2.048,2.048,0,0,0-1.808,1.14q-.7,1.281-1.335,2.577a57.4,57.4,0,0,1,.365,7.433,61.966,61.966,0,0,1,4.7-8.023" fill="#fff"/>
    <path id="Path_566" data-name="Path 566" d="M169.764,46.434q.891-1.207,1.731-2.472l.526-.8a2.038,2.038,0,0,0,.229-2.019,6.455,6.455,0,0,0-1.736-2.052,20.21,20.21,0,0,0-1.881-1.507q-.37.957-.767,1.895l.155.117c.744.529,1.128,1,.805,1.757a62.68,62.68,0,0,1-3.657,6.254c-.483.724-1,1.453-1.513,2.157q-.888,1.211-1.826,2.365a2.341,2.341,0,0,0-.671,1.537Z" fill="#fff"/>
    <path id="Path_567" data-name="Path 567" d="M165.094,57.223q2.181-.539,4.432-.918a48.571,48.571,0,0,0,5.385-4.079,58.875,58.875,0,0,0-9.88,2.658c-.757.245-.979.01-1.235-.418a.878.878,0,0,1,.137-1.289q1.576-1.567,3.054-3.278c.958-1.11,1.915-2.291,2.777-3.465l-8.605,7.228a2.112,2.112,0,0,0,.521,1.195,3.544,3.544,0,0,1,.448.67l.421.687c.282.445.454.819.848.99a2.651,2.651,0,0,0,1.7.019" fill="#fff"/>
    <path id="Path_568" data-name="Path 568" d="M178.5,45.46c.828-.162,1.225.4,1.761,1.309a1.686,1.686,0,0,1,.1.187c.469.945.73,1.624.142,2.229q-1.178,1.189-2.4,2.285c-.834.738-1.7,1.449-2.567,2.125a51.347,51.347,0,0,1-5.369,3.656,2.359,2.359,0,0,0-1.255,1.294,4.191,4.191,0,0,0,.057,1.683l.2,1.3q.954-.281,1.9-.6a1,1,0,0,1,.649-1.28,47.394,47.394,0,0,0,5.763-3.1,50.279,50.279,0,0,0,5.436-3.913c.991-.7,1.1-1.72.728-3.125a8.889,8.889,0,0,0-.667-1.7l-.908-1.857c-.341-.6-.7-1.184-1.056-1.773a14.084,14.084,0,0,0-.964-1.43,5.729,5.729,0,0,0-1-.938,2.1,2.1,0,0,0-2.125-.279c-.894.344-1.768.7-2.657,1.1a60.84,60.84,0,0,1-4.513,5.938q2.107-.937,4.314-1.733c1.453-.518,2.922-.977,4.428-1.391" fill="#fff"/>
    <path id="Path_569" data-name="Path 569" d="M176.1,63.805q1.455-.351,2.908-.779l.917-.277c1.57-.474,1.853-1.888,1.457-4.084a18.326,18.326,0,0,0-.458-2.37q-.9.5-1.8.957l.048.188c.173.9.2,1.5-.536,1.87a60.259,60.259,0,0,1-6.829,2.434q-1.271.367-2.546.677-1.455.355-2.911.637a2.29,2.29,0,0,0-1.49.747Z" fill="#fff"/>
  </g>
</svg>
