<svg id="Group_98" data-name="Group 98" xmlns="http://www.w3.org/2000/svg" xmlns:xlink="http://www.w3.org/1999/xlink" width="217.615" height="227.725" viewBox="0 0 217.615 227.725">
  <defs>
    <clipPath id="clip-path">
      <rect id="Rectangle_24" data-name="Rectangle 24" width="217.615" height="227.725" fill="none"/>
    </clipPath>
  </defs>
  <g id="Group_97" data-name="Group 97" clip-path="url(#clip-path)">
    <path id="Path_498" data-name="Path 498" d="M175.06,111.539h-2.555V56.485a8.3,8.3,0,1,0-8.525,0v55.054H12.441A12.441,12.441,0,0,0,0,123.98v91.3a12.441,12.441,0,0,0,12.441,12.441H175.06A12.441,12.441,0,0,0,187.5,215.284v-91.3a12.441,12.441,0,0,0-12.441-12.441" fill="#e5481d"/>
    <path id="Path_499" data-name="Path 499" d="M101.946,169.632A42.247,42.247,0,1,1,59.7,127.385a42.247,42.247,0,0,1,42.247,42.247" fill="#fff"/>
    <path id="Path_500" data-name="Path 500" d="M79.034,169.632A19.335,19.335,0,1,1,59.7,150.3a19.336,19.336,0,0,1,19.335,19.335" fill="#002732"/>
    <path id="Path_501" data-name="Path 501" d="M169.729,170.108a10.079,10.079,0,1,1-10.079-10.079,10.079,10.079,0,0,1,10.079,10.079" fill="#002732"/>
    <path id="Path_502" data-name="Path 502" d="M169.729,201.8a10.079,10.079,0,1,1-10.079-10.079A10.079,10.079,0,0,1,169.729,201.8" fill="#002732"/>
    <path id="Path_503" data-name="Path 503" d="M167.328,148.495H120.317a2.4,2.4,0,1,1,0-4.8h47.011a2.4,2.4,0,0,1,0,4.8" fill="#fff"/>
    <path id="Path_504" data-name="Path 504" d="M127.994,154.589h0A2.493,2.493,0,0,1,125.5,152.1V140.275a2.493,2.493,0,0,1,4.986,0V152.1a2.493,2.493,0,0,1-2.493,2.493" fill="#002732"/>
    <path id="Path_505" data-name="Path 505" d="M195.264,55.744q2.257.939,4.484,2.017,3.616.078,7.326-.205a86.486,86.486,0,0,0-10.324-4.121c-.8-.3-.793-.682-.715-1.275.022-.6.106-.978.948-1.115q2.4-.285,4.81-.71,2.361-.416,4.725-.963H194.371a2.735,2.735,0,0,0-.425,1.566l-.038,1.012c-.037.334-.109.663-.157.995a2.67,2.67,0,0,0,.107,1.623,2.4,2.4,0,0,0,1.406,1.176" fill="#fff"/>
    <path id="Path_506" data-name="Path 506" d="M214.556,54.281c.807.389.757,1.076.6,2.12l-.032.21c-.16,1.045-.337,1.748-1.223,1.879a75.284,75.284,0,0,1-14.169.55c-1.787-.14-2.359.624-2.881,2.107-.162.478-.429.911-.635,1.37l2.12.528c.3-.579.563-.924,1.355-.822q3.45.465,7.03.6a68.49,68.49,0,0,0,7.195-.086c1.305.012,2-.751,2.509-2.1a7.676,7.676,0,0,0,.5-1.74q.33-2.021.618-4.048c.227-2.51,0-4.1-1.714-4.615q-1.47-.462-2.943-.868-3.939,1.068-7.876,1.767a92.292,92.292,0,0,1,9.548,3.142" fill="#fff"/>
    <path id="Path_507" data-name="Path 507" d="M201.365,68.5q1.57.477,3.173.9l1.013.262c1.74.451,2.575-.713,3.547-2.76.325-.752.584-1.532.874-2.3l-2.193-.229-.069.188c-.322.886-.579,1.443-1.5,1.337q-3.919-.679-7.7-1.677-1.37-.363-2.719-.766-1.539-.46-3.048-.973a2.635,2.635,0,0,0-1.9-.065Z" fill="#fff"/>
    <path id="Path_508" data-name="Path 508" d="M188.459,68.389q1.5,1.959,2.9,4.022,3.066,1.849,6.389,3.438a83.2,83.2,0,0,0-6.831-8.712.982.982,0,0,1-.014-1.489,1.035,1.035,0,0,1,1.428-.451q2.205.948,4.489,1.781,2.238.816,4.545,1.517l-10.514-6.082a2.626,2.626,0,0,0-1.091,1.17c-.362.566-.809,1.074-1.194,1.624a3.755,3.755,0,0,0-.757,1.433,2.486,2.486,0,0,0,.65,1.749" fill="#fff"/>
    <path id="Path_509" data-name="Path 509" d="M205.859,76.773c.51.747.137,1.327-.5,2.167l-.129.17c-.631.846-1.211,1.3-2.04.972a72.812,72.812,0,0,1-12.541-6.624,2.364,2.364,0,0,0-1.862-.546,2.282,2.282,0,0,0-.79.356,8.038,8.038,0,0,0-.893.585l-1.211.909,1.563,1.5a1.093,1.093,0,0,1,1.575-.053,71.971,71.971,0,0,0,12.069,7.57c1.14.68,2.153.4,3.217-.549a11.782,11.782,0,0,0,1.288-1.266,34.724,34.724,0,0,0,2.553-3.19c1.557-1.991,2.065-3.544.846-4.85q-1.05-1.143-2.129-2.238-3.924-1.032-7.658-2.387a85.808,85.808,0,0,1,6.641,7.477" fill="#fff"/>
    <path id="Path_510" data-name="Path 510" d="M187.365,82.5q1.116,1.183,2.286,2.335l.743.723c1.286,1.261,2.666.787,4.449-.613.648-.5,1.328-.962,1.943-1.5-.6-.42-1.186-.843-1.783-1.292l-.16.121c-.751.566-1.271.9-1.995.371-2.026-1.68-3.952-3.417-5.8-5.24q-1.016-1.011-1.994-2.048-1.114-1.182-2.179-2.395a2.432,2.432,0,0,0-1.6-.974Z" fill="#fff"/>
    <path id="Path_511" data-name="Path 511" d="M176.254,75.979q.309,2.415.484,4.872a69.1,69.1,0,0,0,3.827,6.233,86.54,86.54,0,0,0-1.57-10.972c-.136-.829.2-1.013.726-1.3a.97.97,0,0,1,1.45.3q1.452,1.949,3.03,3.835c1.021,1.214,2.07,2.386,3.164,3.546l-6.082-10.514a1.666,1.666,0,0,0-.715.135,4.6,4.6,0,0,0-.824.312c-.614.264-1.184.634-1.821.843-1.241.416-1.845.975-1.669,2.708" fill="#fff"/>
    <path id="Path_512" data-name="Path 512" d="M187.135,91.925c.076.918-.526,1.26-1.525,1.608l-.2.074c-.992.368-1.694.555-2.252-.152-.732-.944-1.435-1.894-2.113-2.861q-1.03-1.488-1.977-3-1.895-3.027-3.456-6.143a2.419,2.419,0,0,0-1.331-1.392A3.752,3.752,0,0,0,172.349,80a9.24,9.24,0,0,1-1.5.173l.6,2.112c.65-.054,1.073-.052,1.385.714a71.158,71.158,0,0,0,6.65,12.593c.643,1.141,1.653,1.373,3.079,1.165a7.645,7.645,0,0,0,1.745-.477c1.277-.483,2.587-.9,3.824-1.472,2.282-1.092,3.6-1.974,3.163-3.78q-.348-1.525-.745-3.027c-1.906-1.868-3.714-3.817-5.446-5.886a91.3,91.3,0,0,1,2.029,9.806" fill="#fff"/>
    <path id="Path_513" data-name="Path 513" d="M168.242,87.648q.373,1.572.808,3.144l.28.992a2.127,2.127,0,0,0,1.414,1.587,4.425,4.425,0,0,0,1.212.21,6.3,6.3,0,0,0,1.529-.085l2.431-.369-.9-2.023-.2.03c-.93.143-1.543.187-1.905-.623-.9-2.422-1.709-5-2.391-7.506q-.372-1.375-.7-2.752-.372-1.572-.686-3.144a2.308,2.308,0,0,0-.9-1.608Z" fill="#fff"/>
    <path id="Path_514" data-name="Path 514" d="M161.87,76.394q-.939,2.258-2.017,4.484-.078,3.617.205,7.326a86.42,86.42,0,0,0,4.121-10.324c.3-.8.682-.793,1.275-.715.6.022.978.106,1.115.948q.285,2.4.71,4.81.415,2.361.963,4.725V75.5a2.735,2.735,0,0,0-1.566-.425l-1.012-.038c-.334-.037-.663-.109-.995-.157a2.67,2.67,0,0,0-1.623.107,2.4,2.4,0,0,0-1.176,1.406" fill="#fff"/>
    <path id="Path_515" data-name="Path 515" d="M163.333,95.686c-.389.807-1.076.757-2.12.6l-.21-.032c-1.045-.16-1.748-.337-1.879-1.223a75.284,75.284,0,0,1-.55-14.169c.14-1.787-.624-2.359-2.107-2.881-.478-.162-.911-.429-1.37-.635l-.528,2.12c.579.3.924.563.822,1.355q-.465,3.45-.6,7.03a68.494,68.494,0,0,0,.086,7.195c-.012,1.305.751,2,2.1,2.509a7.676,7.676,0,0,0,1.74.5q2.021.33,4.048.618c2.51.227,4.1,0,4.615-1.714q.462-1.47.868-2.943-1.068-3.939-1.767-7.876a92.291,92.291,0,0,1-3.142,9.548" fill="#fff"/>
    <path id="Path_516" data-name="Path 516" d="M149.12,82.5q-.479,1.57-.9,3.173l-.261,1.013c-.451,1.74.713,2.575,2.759,3.547.752.325,1.532.584,2.3.874l.229-2.193-.188-.069c-.886-.322-1.442-.579-1.336-1.5q.678-3.919,1.677-7.7.362-1.37.765-2.719.462-1.539.974-3.048a2.639,2.639,0,0,0,.064-1.9Z" fill="#fff"/>
    <path id="Path_517" data-name="Path 517" d="M149.225,69.589q-1.959,1.5-4.022,2.9-1.85,3.066-3.438,6.389a83.2,83.2,0,0,0,8.712-6.831.982.982,0,0,1,1.489-.014,1.035,1.035,0,0,1,.451,1.428q-.948,2.205-1.781,4.489-.816,2.238-1.517,4.545L155.2,71.981a2.626,2.626,0,0,0-1.17-1.091c-.566-.362-1.074-.809-1.624-1.194a3.755,3.755,0,0,0-1.433-.757,2.488,2.488,0,0,0-1.749.65" fill="#fff"/>
    <path id="Path_518" data-name="Path 518" d="M140.842,86.989c-.748.51-1.328.137-2.168-.5l-.169-.129c-.847-.631-1.3-1.211-.972-2.04a72.876,72.876,0,0,1,6.623-12.541,2.363,2.363,0,0,0,.546-1.861,2.259,2.259,0,0,0-.356-.791,8.019,8.019,0,0,0-.584-.893l-.91-1.211-1.5,1.563a1.092,1.092,0,0,1,.053,1.575,71.965,71.965,0,0,0-7.569,12.069c-.681,1.14-.4,2.153.548,3.217a11.8,11.8,0,0,0,1.267,1.288,34.589,34.589,0,0,0,3.19,2.553c1.991,1.557,3.543,2.065,4.849.846q1.145-1.05,2.239-2.129,1.032-3.924,2.386-7.658a85.8,85.8,0,0,1-7.476,6.641" fill="#fff"/>
    <path id="Path_519" data-name="Path 519" d="M135.119,68.5q-1.184,1.116-2.335,2.286l-.723.743c-1.261,1.286-.787,2.666.613,4.449.5.648.962,1.328,1.5,1.943.42-.6.843-1.186,1.292-1.783l-.121-.16c-.566-.751-.9-1.271-.371-2,1.68-2.026,3.417-3.952,5.24-5.8q1.011-1.016,2.048-1.994,1.182-1.115,2.395-2.179a2.432,2.432,0,0,0,.974-1.6Z" fill="#fff"/>
    <path id="Path_520" data-name="Path 520" d="M141.636,57.384q-2.415.309-4.872.484a69.24,69.24,0,0,0-6.233,3.827,86.541,86.541,0,0,0,10.972-1.57c.829-.136,1.013.2,1.3.726a.97.97,0,0,1-.3,1.45q-1.949,1.452-3.835,3.03c-1.214,1.021-2.386,2.07-3.546,3.164l10.514-6.082a1.666,1.666,0,0,0-.135-.715,4.6,4.6,0,0,0-.312-.824c-.264-.614-.634-1.184-.843-1.821-.416-1.241-.975-1.845-2.708-1.669" fill="#fff"/>
    <path id="Path_521" data-name="Path 521" d="M125.689,68.265c-.918.076-1.26-.526-1.608-1.525l-.074-.2c-.368-.992-.555-1.694.152-2.252.944-.732,1.894-1.435,2.861-2.114q1.488-1.029,3-1.976,3.027-1.895,6.143-3.456a2.419,2.419,0,0,0,1.392-1.331,3.752,3.752,0,0,0,.052-1.932,9.24,9.24,0,0,1-.173-1.5l-2.111.6c.053.65.051,1.073-.715,1.385a71.157,71.157,0,0,0-12.593,6.65c-1.141.643-1.373,1.653-1.165,3.079a7.645,7.645,0,0,0,.477,1.745c.483,1.277.9,2.587,1.472,3.824,1.092,2.282,1.974,3.6,3.78,3.163q1.525-.348,3.027-.745c1.868-1.906,3.817-3.714,5.886-5.446a91.3,91.3,0,0,1-9.806,2.029" fill="#fff"/>
    <path id="Path_522" data-name="Path 522" d="M129.967,49.372q-1.572.373-3.144.808l-.992.28a2.127,2.127,0,0,0-1.587,1.414,4.425,4.425,0,0,0-.21,1.212,6.3,6.3,0,0,0,.085,1.529l.369,2.431,2.023-.9-.03-.2c-.143-.93-.187-1.543.623-1.905,2.422-.9,5-1.709,7.506-2.391q1.375-.372,2.752-.7,1.572-.372,3.144-.686a2.308,2.308,0,0,0,1.608-.9Z" fill="#fff"/>
    <path id="Path_523" data-name="Path 523" d="M141.22,43q-2.258-.939-4.484-2.017-3.616-.078-7.326.2a86.485,86.485,0,0,0,10.324,4.121c.8.3.793.682.715,1.275-.022.6-.106.978-.948,1.115q-2.4.285-4.81.71-2.361.416-4.725.963h12.147a2.735,2.735,0,0,0,.425-1.566l.038-1.012c.037-.334.109-.663.157-.995a2.67,2.67,0,0,0-.107-1.623A2.4,2.4,0,0,0,141.22,43" fill="#fff"/>
    <path id="Path_524" data-name="Path 524" d="M121.929,44.463c-.807-.389-.757-1.076-.6-2.12l.032-.21c.16-1.045.337-1.748,1.223-1.879a75.284,75.284,0,0,1,14.169-.55c1.787.14,2.359-.624,2.881-2.107.162-.478.429-.911.635-1.37l-2.12-.528c-.3.579-.563.924-1.355.822q-3.45-.465-7.03-.6A68.49,68.49,0,0,0,122.57,36c-1.305-.012-2,.751-2.509,2.1a7.677,7.677,0,0,0-.5,1.74q-.33,2.021-.618,4.048c-.227,2.51,0,4.1,1.714,4.615q1.47.462,2.943.868,3.939-1.068,7.876-1.767a92.292,92.292,0,0,1-9.548-3.142" fill="#fff"/>
    <path id="Path_525" data-name="Path 525" d="M135.119,30.249q-1.57-.477-3.173-.9l-1.013-.262c-1.74-.451-2.575.713-3.547,2.76-.325.752-.584,1.532-.874,2.3l2.193.229.069-.189c.322-.885.579-1.442,1.5-1.336q3.92.68,7.7,1.677,1.369.363,2.719.766,1.539.46,3.048.973a2.635,2.635,0,0,0,1.9.065Z" fill="#fff"/>
    <path id="Path_526" data-name="Path 526" d="M148.025,30.355q-1.5-1.959-2.9-4.022-3.066-1.849-6.389-3.438a83.2,83.2,0,0,0,6.831,8.712.982.982,0,0,1,.014,1.489,1.035,1.035,0,0,1-1.428.451q-2.205-.948-4.489-1.781-2.238-.816-4.545-1.517l10.514,6.082a2.626,2.626,0,0,0,1.091-1.17c.362-.566.809-1.074,1.194-1.624a3.755,3.755,0,0,0,.757-1.433,2.488,2.488,0,0,0-.65-1.749" fill="#fff"/>
    <path id="Path_527" data-name="Path 527" d="M130.626,21.971c-.51-.747-.137-1.327.5-2.167l.129-.17c.631-.846,1.211-1.3,2.04-.972a72.812,72.812,0,0,1,12.541,6.624,2.363,2.363,0,0,0,1.861.546,2.278,2.278,0,0,0,.791-.356,8.037,8.037,0,0,0,.893-.585l1.211-.909-1.563-1.5a1.093,1.093,0,0,1-1.575.053,71.971,71.971,0,0,0-12.069-7.57c-1.14-.68-2.153-.4-3.217.549a11.782,11.782,0,0,0-1.288,1.266,34.724,34.724,0,0,0-2.553,3.19c-1.557,1.991-2.065,3.544-.846,4.85q1.05,1.143,2.129,2.238,3.924,1.032,7.658,2.387a85.806,85.806,0,0,1-6.641-7.477" fill="#fff"/>
    <path id="Path_528" data-name="Path 528" d="M149.12,16.249q-1.116-1.184-2.287-2.335l-.743-.723c-1.285-1.261-2.666-.787-4.449.613-.648.5-1.327.962-1.942,1.5.6.42,1.186.843,1.783,1.292l.159-.121c.752-.566,1.272-.9,2-.371,2.026,1.68,3.952,3.417,5.8,5.24q1.015,1.011,1.994,2.048,1.115,1.182,2.179,2.4a2.436,2.436,0,0,0,1.6.974Z" fill="#fff"/>
    <path id="Path_529" data-name="Path 529" d="M160.231,22.766q-.309-2.415-.484-4.872a69.1,69.1,0,0,0-3.827-6.233,86.54,86.54,0,0,0,1.57,10.972c.136.829-.2,1.013-.726,1.3a.97.97,0,0,1-1.45-.3q-1.452-1.948-3.03-3.835c-1.021-1.214-2.07-2.386-3.164-3.546L155.2,26.764a1.666,1.666,0,0,0,.715-.135,4.6,4.6,0,0,0,.824-.312c.614-.264,1.184-.634,1.821-.843,1.241-.416,1.845-.975,1.669-2.708" fill="#fff"/>
    <path id="Path_530" data-name="Path 530" d="M149.349,6.819c-.076-.918.526-1.26,1.525-1.608l.2-.074c.992-.368,1.694-.555,2.252.152.732.944,1.435,1.894,2.114,2.861q1.029,1.488,1.976,3,1.895,3.028,3.456,6.144a2.419,2.419,0,0,0,1.331,1.392,3.752,3.752,0,0,0,1.932.052,9.24,9.24,0,0,1,1.5-.173l-.6-2.112c-.65.054-1.073.052-1.385-.714A71.157,71.157,0,0,0,157,3.148c-.643-1.141-1.653-1.373-3.079-1.165a7.645,7.645,0,0,0-1.745.477c-1.277.483-2.587.9-3.824,1.472-2.282,1.092-3.6,1.974-3.163,3.78q.348,1.526.745,3.027c1.906,1.868,3.714,3.817,5.446,5.886a91.3,91.3,0,0,1-2.029-9.806" fill="#fff"/>
    <path id="Path_531" data-name="Path 531" d="M168.242,11.1q-.374-1.572-.808-3.144l-.28-.992a2.127,2.127,0,0,0-1.414-1.587,4.425,4.425,0,0,0-1.212-.21A6.3,6.3,0,0,0,163,5.249l-2.431.369.9,2.023.2-.03c.93-.143,1.543-.187,1.9.623.9,2.422,1.709,5,2.391,7.506q.372,1.375.7,2.752.372,1.572.686,3.144a2.308,2.308,0,0,0,.9,1.608Z" fill="#fff"/>
    <path id="Path_532" data-name="Path 532" d="M174.614,22.35q.939-2.258,2.017-4.484.078-3.616-.205-7.326A86.487,86.487,0,0,0,172.3,20.864c-.3.8-.682.793-1.275.715-.6-.022-.978-.106-1.115-.948q-.285-2.4-.71-4.81-.416-2.361-.963-4.725V23.243a2.735,2.735,0,0,0,1.566.425l1.012.038c.334.037.663.109.995.157a2.67,2.67,0,0,0,1.623-.107,2.4,2.4,0,0,0,1.176-1.406" fill="#fff"/>
    <path id="Path_533" data-name="Path 533" d="M173.152,3.059c.389-.807,1.076-.757,2.12-.6l.21.032c1.045.16,1.748.337,1.879,1.223a75.283,75.283,0,0,1,.55,14.169c-.14,1.787.624,2.359,2.107,2.881.478.162.911.429,1.37.635l.528-2.12c-.579-.3-.924-.563-.822-1.355q.465-3.45.6-7.03a68.49,68.49,0,0,0-.086-7.2c.012-1.305-.751-2-2.1-2.509a7.676,7.676,0,0,0-1.74-.5q-2.021-.33-4.048-.618c-2.51-.227-4.1,0-4.615,1.714q-.462,1.47-.868,2.943,1.068,3.939,1.767,7.876a92.3,92.3,0,0,1,3.142-9.548" fill="#fff"/>
    <path id="Path_534" data-name="Path 534" d="M187.365,16.249q.477-1.571.9-3.173l.262-1.013c.451-1.74-.713-2.575-2.76-3.547-.752-.325-1.532-.584-2.3-.874l-.229,2.193.189.069c.885.322,1.442.579,1.336,1.5q-.68,3.919-1.677,7.7-.363,1.37-.766,2.719-.46,1.539-.973,3.048a2.635,2.635,0,0,0-.065,1.9Z" fill="#fff"/>
    <path id="Path_535" data-name="Path 535" d="M187.259,29.155q1.959-1.5,4.022-2.9,1.85-3.066,3.438-6.389a83.2,83.2,0,0,0-8.712,6.831.982.982,0,0,1-1.489.014,1.035,1.035,0,0,1-.451-1.428q.948-2.205,1.781-4.489.816-2.238,1.517-4.545l-6.082,10.514a2.626,2.626,0,0,0,1.17,1.091c.566.362,1.074.809,1.624,1.194a3.755,3.755,0,0,0,1.433.757,2.488,2.488,0,0,0,1.749-.65" fill="#fff"/>
    <path id="Path_536" data-name="Path 536" d="M195.643,11.756c.747-.51,1.327-.137,2.167.5l.17.129c.846.631,1.3,1.211.972,2.04a72.812,72.812,0,0,1-6.624,12.541,2.363,2.363,0,0,0-.546,1.861,2.278,2.278,0,0,0,.356.791,8.035,8.035,0,0,0,.585.893l.909,1.211,1.5-1.563a1.093,1.093,0,0,1-.053-1.575,71.97,71.97,0,0,0,7.57-12.069c.68-1.14.4-2.153-.549-3.217a11.781,11.781,0,0,0-1.266-1.288,34.724,34.724,0,0,0-3.19-2.553c-1.991-1.557-3.544-2.065-4.85-.846q-1.143,1.05-2.238,2.129-1.032,3.924-2.387,7.658a85.809,85.809,0,0,1,7.477-6.641" fill="#fff"/>
    <path id="Path_537" data-name="Path 537" d="M201.365,30.249q1.184-1.116,2.335-2.286l.723-.743c1.261-1.286.787-2.666-.613-4.449-.5-.648-.962-1.328-1.5-1.943-.42.6-.843,1.186-1.292,1.783l.121.16c.566.751.9,1.271.371,2-1.68,2.026-3.417,3.952-5.24,5.8q-1.011,1.016-2.048,1.994-1.182,1.115-2.4,2.179a2.432,2.432,0,0,0-.974,1.6Z" fill="#fff"/>
    <path id="Path_538" data-name="Path 538" d="M194.849,41.361q2.415-.309,4.872-.484a69.1,69.1,0,0,0,6.233-3.827,86.542,86.542,0,0,0-10.972,1.57c-.829.136-1.013-.2-1.3-.726a.97.97,0,0,1,.3-1.45q1.949-1.452,3.835-3.03c1.214-1.021,2.386-2.07,3.546-3.164l-10.514,6.082a1.666,1.666,0,0,0,.135.715,4.6,4.6,0,0,0,.312.824c.264.614.634,1.184.843,1.821.416,1.241.975,1.845,2.708,1.669" fill="#fff"/>
    <path id="Path_539" data-name="Path 539" d="M210.795,30.479c.918-.076,1.26.526,1.608,1.525l.074.2c.368.992.555,1.694-.152,2.252-.944.732-1.894,1.435-2.861,2.114q-1.488,1.029-3,1.976Q203.434,40.44,200.318,42a2.419,2.419,0,0,0-1.392,1.331,3.752,3.752,0,0,0-.052,1.932,9.24,9.24,0,0,1,.173,1.5l2.112-.6c-.054-.65-.052-1.073.714-1.385a71.157,71.157,0,0,0,12.593-6.65c1.141-.643,1.373-1.653,1.165-3.079a7.646,7.646,0,0,0-.477-1.745c-.483-1.277-.9-2.587-1.472-3.824-1.092-2.282-1.974-3.6-3.78-3.163q-1.525.348-3.027.745c-1.868,1.906-3.817,3.714-5.886,5.446a91.3,91.3,0,0,1,9.806-2.029" fill="#fff"/>
    <path id="Path_540" data-name="Path 540" d="M206.518,49.372q1.572-.374,3.144-.808l.992-.28a2.127,2.127,0,0,0,1.587-1.414,4.425,4.425,0,0,0,.21-1.212,6.3,6.3,0,0,0-.085-1.529L212,41.7l-2.023.9.03.2c.143.93.187,1.543-.623,1.905-2.422.9-5,1.709-7.506,2.391q-1.376.372-2.752.7-1.572.372-3.144.686a2.308,2.308,0,0,0-1.608.9Z" fill="#fff"/>
  </g>
</svg>
