<svg xmlns="http://www.w3.org/2000/svg" xmlns:xlink="http://www.w3.org/1999/xlink" width="79.529" height="67.753" viewBox="0 0 79.529 67.753">
  <defs>
    <clipPath id="clip-path">
      <rect id="Rectangle_119" data-name="Rectangle 119" width="79.529" height="67.753" fill="#002732"/>
    </clipPath>
  </defs>
  <g id="Group_326" data-name="Group 326" transform="translate(0 0)">
    <g id="Group_325" data-name="Group 325" transform="translate(0 0)" clip-path="url(#clip-path)">
      <path id="Path_1083" data-name="Path 1083" d="M50.384,22.192l.889,3.952V41.226a2.8,2.8,0,0,1-1.467-2.063v0l-.861-3.945-.754-3.457-2.077-9.518c-.3-1.062-.951-1.119-1.964-1.119h-.216l-.576-2.654h2.518c2.32,0,3.75.3,4.226,2.476ZM45.1,31.477,40.4,14.559a2.688,2.688,0,0,0-2.5-2.365,8.559,8.559,0,0,0-1.659-.129H32.482c-2.32,0-3.75.3-4.226,2.475l-.833,3.7,2.187,9.665,2.631-12.07c.3-1.062.95-1.12,1.963-1.12h.2c1.014,0,1.7.077,2,1.138l4.583,16.918c.534,2.182,1.9,2.477,4.222,2.477h2.229L46.855,32.6c-.9-.01-1.484-.131-1.759-1.119m-11.24,6.388c-.29,1.035-.919,1.122-1.9,1.119s-1.607-.083-1.9-1.119L28.73,31.946l-1.3-5.8v-.008l-.89-3.952-.281-1.247c-.476-2.18-1.906-2.476-4.226-2.476H19.51l.577,2.654H20.3c1.014,0,1.669.057,1.964,1.119l2.077,9.518.753,3.457.861,3.945v0a2.8,2.8,0,0,0,1.467,2.062v0a6.481,6.481,0,0,0,2.756.411l3.557,0c2.32,0,3.688-.3,4.222-2.477l1.314-6.019-2.385-8.749Zm23.849,0c-.291,1.035-.922,1.122-1.9,1.119s-1.607-.083-1.9-1.119l-1.332-5.919-1.306-5.8V41.228a6.494,6.494,0,0,0,2.756.411h3.559c2.32,0,3.687-.3,4.221-2.477l1.314-6.018-2.386-8.749ZM79.529,4.559V54.618a4.573,4.573,0,0,1-4.559,4.559H49.1a1.515,1.515,0,0,0-1.515,1.515v2.516A1.515,1.515,0,0,0,49.1,64.723H52.02a1.515,1.515,0,0,1,0,3.03H27.509a1.515,1.515,0,0,1,0-3.03h2.923a1.515,1.515,0,0,0,1.515-1.515V60.692a1.515,1.515,0,0,0-1.515-1.515H4.558A4.573,4.573,0,0,1,0,54.618V4.559A4.573,4.573,0,0,1,4.558,0H74.969a4.573,4.573,0,0,1,4.559,4.559m-4.413,1.5a2.216,2.216,0,0,0-2.207-2.207H6A2.217,2.217,0,0,0,3.792,6.063V17.277l.617-2.739c.474-2.18,1.905-2.475,4.224-2.475h3.759a8.559,8.559,0,0,1,1.659.129,2.687,2.687,0,0,1,2.5,2.365l4.7,16.918c.276.988.861,1.108,1.759,1.119l.587,2.654H21.365c-2.32,0-3.689-.295-4.222-2.477L12.559,15.852c-.3-1.061-.984-1.138-2-1.138h-.2c-1.012,0-1.667.059-1.963,1.12L5.763,27.9,3.793,19.2v7.908l1.089,4.838,1.332,5.919c.289,1.036.921,1.117,1.9,1.119s1.6-.085,1.9-1.119l3.032-13.471,2.385,8.749-1.313,6.018c-.534,2.181-1.9,2.477-4.222,2.477H6.333a7.267,7.267,0,0,1-2.539-.317l0,6.319A2.218,2.218,0,0,0,6,49.845H72.909a2.216,2.216,0,0,0,2.207-2.207V41.227a2.8,2.8,0,0,1-1.467-2.066l-.861-3.945-.753-3.457-2.077-9.518c-.3-1.062-.95-1.119-1.964-1.119h-.216L67.2,18.469h2.519c2.319,0,3.75.3,4.225,2.476l.28,1.247.89,3.952ZM61.75,12.194a8.559,8.559,0,0,0-1.659-.129H56.332c-2.32,0-3.75.3-4.225,2.475l-.833,3.7,2.188,9.665,2.631-12.07c.3-1.062.951-1.12,1.963-1.12h.2c1.014,0,1.7.077,2,1.138l4.583,16.918c.533,2.182,1.9,2.477,4.222,2.477h2.23L70.7,32.6c-.9-.01-1.483-.131-1.759-1.119l-4.7-16.918a2.689,2.689,0,0,0-2.5-2.365" transform="translate(0 0)" fill="#002732"/>
    </g>
  </g>
</svg>
