<svg xmlns="http://www.w3.org/2000/svg" width="102.781" height="127.77" viewBox="0 0 102.781 127.77">
  <path id="Path_819" data-name="Path 819" d="M0,113.414H80.97V0H0Zm7.36-98.8H40.485v7.013H7.36Zm0,11.835H58.893v7.013H7.36Zm0,49.08H29.715v1.753H7.36Zm22.355,28.231H7.36V102.01H29.715Zm9.794-3.507H7.36V98.5H39.509Zm0-3.506H7.36V95H39.509Zm0-3.506H7.36V91.49H39.509Zm0-3.507H7.36V87.983H39.509Zm0-15.958H7.36V72.025H39.509Zm0-3.506H7.36V68.518H39.509Zm0-3.506H7.36V65.011H39.509Zm0-3.507H7.36V61.505H39.509Zm0-3.507H7.36V58H39.509Zm0-3.507H7.36V54.492H39.509Zm0-3.506H7.36V50.986H39.509Zm0-3.506H7.36V47.479H39.509Zm26.663,54.53H43.817V102.01H66.171Zm9.794-3.507H43.817V98.5H75.965Zm0-3.506H43.817V95H75.965Zm0-3.506H43.817V91.49H75.965Zm0-3.507H43.817V87.983H75.965Zm0-7.817H43.817V47.479H75.965ZM50.908,73.568l.885-4.058-1.608-5.9-2.044,9.082c-.2.7-.622.754-1.279.755s-1.083-.056-1.279-.755l-.9-3.991-.88-3.911v10.17a4.377,4.377,0,0,0,1.859.277h2.4c1.564,0,2.486-.2,2.846-1.67M47.055,57.843c.2-.716.641-.755,1.324-.755h.138c.683,0,1.147.052,1.347.767l3.088,11.407c.36,1.47,1.283,1.67,2.847,1.67h1.5l-.4-1.79c-.6-.008-1-.089-1.186-.754L52.552,56.98a1.813,1.813,0,0,0-1.683-1.595A5.834,5.834,0,0,0,49.75,55.3H47.215c-1.564,0-2.528.2-2.849,1.669L43.8,59.463l1.474,6.517Zm12.83,6.949-.6-2.664-.19-.841c-.32-1.47-1.284-1.669-2.849-1.669h-1.7l.39,1.789h.146c.683,0,1.124.039,1.324.755l1.4,6.417.508,2.33.58,2.659a1.891,1.891,0,0,0,.989,1.393Zm7.1,8.777.885-4.058-1.608-5.9-2.044,9.082c-.2.7-.622.754-1.279.755s-1.083-.056-1.279-.755l-.9-3.991-.88-3.911v10.17a4.377,4.377,0,0,0,1.859.277h2.4c1.564,0,2.486-.2,2.846-1.67M63.135,57.843c.2-.716.641-.755,1.324-.755H64.6c.683,0,1.147.052,1.347.767l3.088,11.407c.36,1.47,1.283,1.67,2.847,1.67h1.5l-.4-1.79c-.6-.008-1-.089-1.185-.754L68.632,56.98a1.814,1.814,0,0,0-1.683-1.595A5.834,5.834,0,0,0,65.83,55.3H63.3c-1.564,0-2.528.2-2.849,1.669l-.562,2.495L61.36,65.98Zm12.83,6.949-.6-2.664-.19-.841c-.32-1.47-1.284-1.669-2.849-1.669h-1.7l.39,1.789h.146c.683,0,1.124.039,1.324.755l1.4,6.417.508,2.33.58,2.659a1.89,1.89,0,0,0,.989,1.393Z" transform="matrix(0.978, 0.208, -0.208, 0.978, 23.58, 0)" fill="#3da147"/>
</svg>
