<svg xmlns="http://www.w3.org/2000/svg" xmlns:xlink="http://www.w3.org/1999/xlink" width="110.061" height="93.764" viewBox="0 0 110.061 93.764">
  <defs>
    <clipPath id="clip-path">
      <rect id="Rectangle_119" data-name="Rectangle 119" width="110.061" height="93.764" fill="#3da147"/>
    </clipPath>
  </defs>
  <g id="Group_326" data-name="Group 326" transform="translate(0 0)">
    <g id="Group_325" data-name="Group 325" transform="translate(0 0)" clip-path="url(#clip-path)">
      <path id="Path_1083" data-name="Path 1083" d="M69.726,30.711l1.231,5.469V57.053a3.877,3.877,0,0,1-2.03-2.855v0l-1.191-5.459-1.043-4.784L63.819,30.78c-.409-1.469-1.315-1.548-2.718-1.548h-.3l-.8-3.673h3.485c3.21,0,5.19.409,5.848,3.426Zm-7.317,12.85-6.5-23.412a3.72,3.72,0,0,0-3.454-3.272,11.845,11.845,0,0,0-2.3-.179h-5.2c-3.211,0-5.189.409-5.848,3.425l-1.152,5.122,3.027,13.376,3.641-16.7c.41-1.469,1.314-1.55,2.717-1.55h.283c1.4,0,2.356.107,2.765,1.575l6.343,23.414c.739,3.02,2.633,3.427,5.843,3.427h3.084l-.813-3.673c-1.243-.014-2.053-.181-2.434-1.548M46.853,52.4c-.4,1.432-1.272,1.553-2.624,1.549S42,53.836,41.6,52.4L39.76,44.21l-1.805-8.02V36.18l-1.232-5.469-.389-1.725c-.659-3.017-2.638-3.426-5.848-3.426H27l.8,3.673h.3c1.4,0,2.309.079,2.718,1.548L33.69,43.952l1.042,4.784L35.923,54.2v0a3.878,3.878,0,0,0,2.03,2.854v0a8.969,8.969,0,0,0,3.814.568l4.923,0c3.211,0,5.1-.41,5.842-3.429l1.818-8.33-3.3-12.109Zm33.005,0c-.4,1.432-1.276,1.553-2.625,1.549s-2.223-.115-2.624-1.549L72.765,44.21l-1.808-8.028V57.055a8.987,8.987,0,0,0,3.814.568H79.7c3.21,0,5.1-.41,5.841-3.429l1.818-8.329-3.3-12.109Zm30.2-46.092V75.586a6.329,6.329,0,0,1-6.31,6.31H67.946a2.1,2.1,0,0,0-2.1,2.1v3.481a2.1,2.1,0,0,0,2.1,2.1h4.045a2.1,2.1,0,0,1,0,4.193H38.07a2.1,2.1,0,0,1,0-4.193h4.045a2.1,2.1,0,0,0,2.1-2.1V83.993a2.1,2.1,0,0,0-2.1-2.1H6.309A6.328,6.328,0,0,1,0,75.586V6.31A6.328,6.328,0,0,1,6.309,0h97.442a6.329,6.329,0,0,1,6.31,6.31m-6.107,2.081A3.067,3.067,0,0,0,100.9,5.337H8.3A3.068,3.068,0,0,0,5.248,8.391V23.91L6.1,20.12C6.758,17.1,8.739,16.7,11.948,16.7h5.2a11.845,11.845,0,0,1,2.3.179A3.719,3.719,0,0,1,22.9,20.146l6.5,23.412c.382,1.367,1.191,1.534,2.434,1.548l.813,3.673H29.567c-3.21,0-5.1-.408-5.843-3.427L17.381,21.938c-.41-1.468-1.361-1.575-2.765-1.575h-.283c-1.4,0-2.307.081-2.717,1.55l-3.641,16.7L5.249,26.567V37.512l1.507,6.695L8.6,52.4c.4,1.434,1.274,1.546,2.625,1.549s2.221-.117,2.624-1.549l4.2-18.643,3.3,12.109-1.817,8.329c-.739,3.019-2.631,3.429-5.842,3.429H8.765a10.057,10.057,0,0,1-3.514-.439l0,8.745A3.069,3.069,0,0,0,8.3,68.981h92.6a3.067,3.067,0,0,0,3.054-3.054V57.054a3.875,3.875,0,0,1-2.03-2.859l-1.191-5.459L99.69,43.952,96.816,30.78c-.409-1.469-1.314-1.548-2.718-1.548h-.3L93,25.56h3.486c3.209,0,5.189.409,5.847,3.426l.388,1.725,1.232,5.469Zm-18.5,8.485a11.845,11.845,0,0,0-2.3-.179h-5.2c-3.21,0-5.189.409-5.847,3.425l-1.153,5.122,3.028,13.376,3.641-16.7c.41-1.469,1.315-1.55,2.717-1.55h.283c1.4,0,2.356.107,2.764,1.575l6.343,23.414c.738,3.02,2.632,3.427,5.842,3.427h3.086l-.813-3.673c-1.241-.014-2.052-.181-2.434-1.548l-6.5-23.412a3.721,3.721,0,0,0-3.456-3.272" transform="translate(0 0)" fill="#3da147"/>
    </g>
  </g>
</svg>
