<svg xmlns="http://www.w3.org/2000/svg" xmlns:xlink="http://www.w3.org/1999/xlink" width="119.814" height="107.516" viewBox="0 0 119.814 107.516">
  <defs>
    <clipPath id="clip-path">
      <rect id="Rectangle_118" data-name="Rectangle 118" width="119.814" height="107.516" fill="#3da147"/>
    </clipPath>
  </defs>
  <g id="Group_324" data-name="Group 324" transform="translate(0 0)">
    <g id="Group_323" data-name="Group 323" transform="translate(0 0)" clip-path="url(#clip-path)">
      <path id="Path_1081" data-name="Path 1081" d="M13.642,75.615l-3.516.02A6.961,6.961,0,0,1,7.4,75.281l-.078-13.6L8.643,66.9l1.348,5.331c.291.934.916,1,1.879,1s1.587-.084,1.869-1.021l2.928-12.167,2.4,7.878L17.8,73.358c-.517,1.971-1.866,2.245-4.16,2.257M12.034,52.354c.287-.959.934-1.016,1.935-1.021h.2c1-.005,1.682.059,1.981,1.016L20.766,67.58c.54,1.964,1.893,2.223,4.187,2.21l2.2-.012-.594-2.391c-.886-.005-1.467-.111-1.744-1l-4.73-15.232a2.574,2.574,0,0,0-2.48-2.118,9.187,9.187,0,0,0-1.642-.107l-3.714.02c-2.294.013-3.7.289-4.164,2.256l-.8,3.343,2.211,8.7ZM30.9,61.543,30,57.984l-.285-1.123c-.48-1.964-1.9-2.222-4.188-2.21l-2.491.015.586,2.389h.213c1-.005,1.649.043,1.947,1l2.1,8.573.762,3.114.872,3.551a2.558,2.558,0,0,0,1.46,1.855Zm10.479,11.68,1.267-5.436-2.4-7.878L37.311,72.078c-.282.936-.905,1.013-1.867,1.02s-1.589-.066-1.881-1l-1.346-5.331L30.9,61.543l.077,13.6A6.961,6.961,0,0,0,33.7,75.5l3.516-.02c2.292-.013,3.643-.287,4.16-2.259m-5.769-21c.289-.959.935-1.015,1.936-1.021h.2c1-.005,1.682.059,1.979,1.016l4.616,15.232c.538,1.966,1.893,2.223,4.185,2.211l2.2-.013-.595-2.391c-.886-.005-1.467-.111-1.743-1L43.657,51.021a2.573,2.573,0,0,0-2.48-2.12,9.3,9.3,0,0,0-1.641-.107l-3.716.022c-2.292.012-3.7.287-4.162,2.256l-.805,3.342,2.211,8.706Zm18.862,9.189-.9-3.559-.283-1.123c-.482-1.964-1.9-2.222-4.189-2.21l-2.489.015.584,2.389H47.4c1-.007,1.649.042,1.947,1l2.1,8.573.762,3.114.872,3.551a2.555,2.555,0,0,0,1.46,1.855Zm10.479,11.68,1.267-5.436-2.4-7.877L60.884,71.943c-.282.936-.905,1.013-1.869,1.02s-1.588-.066-1.879-1l-1.348-5.332-1.321-5.224.078,13.6a6.957,6.957,0,0,0,2.725.356l3.516-.02c2.294-.014,3.643-.287,4.16-2.259m-5.768-21c.287-.959.934-1.015,1.935-1.021h.2c1-.007,1.682.059,1.981,1.015L67.91,67.31c.54,1.966,1.893,2.223,4.186,2.211l2.2-.013L73.7,67.117c-.886,0-1.467-.109-1.744-1L67.23,50.886a2.574,2.574,0,0,0-2.481-2.12,9.291,9.291,0,0,0-1.641-.107l-3.714.022c-2.294.012-3.7.287-4.164,2.256l-.8,3.342,2.211,8.706Zm18.86,9.189-.9-3.559-.285-1.123c-.48-1.964-1.9-2.222-4.188-2.209l-2.491.013.586,2.391h.213c1-.007,1.649.042,1.947,1l2.1,8.573.762,3.114.872,3.552a2.556,2.556,0,0,0,1.46,1.854Zm10.48,11.68,1.267-5.436-2.4-7.877L84.455,71.808c-.282.936-.905,1.013-1.867,1.02s-1.589-.065-1.881-1L79.361,66.5l-1.322-5.224.078,13.6a6.936,6.936,0,0,0,2.727.356l3.516-.02c2.292-.013,3.643-.287,4.16-2.259m-5.769-21c.289-.959.935-1.016,1.936-1.021h.2c1-.005,1.682.059,1.979,1.015l4.616,15.234c.538,1.964,1.893,2.223,4.185,2.21l2.2-.012-.595-2.392c-.886,0-1.467-.109-1.743-1L90.8,50.751a2.573,2.573,0,0,0-2.48-2.12,9.3,9.3,0,0,0-1.641-.107l-3.716.022c-2.292.013-3.7.287-4.162,2.256L78,54.144l2.211,8.706Zm18.862,9.188-.9-3.559-.283-1.123c-.482-1.963-1.9-2.222-4.189-2.209l-2.489.013.584,2.391h.213c1-.005,1.649.042,1.947,1l2.1,8.573.762,3.114.872,3.552a2.558,2.558,0,0,0,1.46,1.855Z" transform="translate(2.543 16.944)" fill="#3da147"/>
      <path id="Path_1082" data-name="Path 1082" d="M115.239,67.16h0a56.37,56.37,0,1,0-110.66,0,20.976,20.976,0,0,0,16.4,34.056V102.7a4.814,4.814,0,1,0,9.628,0V57.783a4.814,4.814,0,1,0-9.628,0V59.26A20.9,20.9,0,0,0,11.941,61.3a49.047,49.047,0,0,1-.25-4.916,48.215,48.215,0,1,1,96.18,4.918,20.9,20.9,0,0,0-9.04-2.044V57.783a4.811,4.811,0,1,0-9.622,0V102.7a4.789,4.789,0,0,0,.29,1.651,4.811,4.811,0,0,0,9.332-1.646v-1.484a20.976,20.976,0,0,0,16.4-34.055" transform="translate(0 0)" fill="#3da147"/>
    </g>
  </g>
</svg>
