<svg xmlns="http://www.w3.org/2000/svg" xmlns:xlink="http://www.w3.org/1999/xlink" width="85.95" height="120.227" viewBox="0 0 85.95 120.227">
  <defs>
    <clipPath id="clip-path">
      <rect id="Rectangle_120" data-name="Rectangle 120" width="85.95" height="120.227" fill="#e5481d"/>
    </clipPath>
  </defs>
  <g id="Group_329" data-name="Group 329" transform="translate(0)">
    <g id="Group_328" data-name="Group 328" transform="translate(0)" clip-path="url(#clip-path)">
      <path id="Path_1084" data-name="Path 1084" d="M81.363.134v10.26H77.57V0H8.344V10.394H4.586V.134H0V120.227H4.586V80.375H8.344v9.332H77.57V80.375h3.793v39.852H85.95V.134ZM8.344,75.789H4.586V47.676H8.344Zm0-32.7H4.586V14.979H8.344Zm64.473,41.8H52.048c1.683-.78,1.948-2.3,1.948-4.521V77.434l-3.489.674v.251c0,1.182-.075,1.944-1.471,2.289l-12.516,2.42-4.546.878-4.878.944h-14V4.815H23.618a13.139,13.139,0,0,0-.087,1.664v4.147c0,2.7.388,4.3,3.257,4.92l7.915,1.53,11.5-2.78L28.492,10.762c-1.363-.339-1.469-1.075-1.473-2.211s.11-1.872,1.473-2.21l7.652-1.527H46.576l-4.988,1L57.459,8.884c1.4.346,1.473,1.109,1.473,2.289v.238c0,1.182-.1,1.984-1.5,2.328l-22.248,5.34C32.318,19.7,31.93,21.3,31.93,24v2.6l3.491-.685c.015-1.046.174-1.728,1.471-2.049L59.14,18.387c2.065-.4,2.836-1.384,3.11-2.91a8.855,8.855,0,0,0,.169-1.934V9.162c0-2.068-.231-3.526-1.619-4.347H72.817Zm8.547-9.1H77.569V47.676h3.794Zm0-32.7H77.569V14.979h3.794Z" fill="#e5481d"/>
      <path id="Path_1085" data-name="Path 1085" d="M30.24,46.547l7.915,1.531,11.5-2.78L31.945,41.764c-1.364-.338-1.469-1.074-1.473-2.21s.109-1.873,1.473-2.211l7.784-1.552,7.629-1.523,5.2-1.037,1.639-.327c2.867-.554,3.256-2.221,3.256-4.924V25.044l-3.489.673v.251c0,1.182-.076,1.945-1.472,2.289L39.972,30.678l-4.546.877-5.186,1a3.676,3.676,0,0,0-2.716,1.709,6.766,6.766,0,0,0-.542,3.213v4.146c0,2.7.389,4.3,3.258,4.92" transform="translate(-3.453 -3.204)" fill="#e5481d"/>
      <path id="Path_1086" data-name="Path 1086" d="M63.851,36.593l-4.866-.971L46.273,38.171l15.871,3.07c1.4.346,1.473,1.108,1.473,2.289v.238c0,1.182-.1,1.984-1.5,2.328L39.873,51.435c-2.869.623-3.258,2.218-3.258,4.922v2.6l3.491-.685c.015-1.046.174-1.728,1.471-2.05l22.248-5.476c2.066-.4,2.836-1.385,3.111-2.91a8.915,8.915,0,0,0,.169-1.934V41.518c0-2.7-.389-4.371-3.254-4.924" transform="translate(-4.685 -4.558)" fill="#e5481d"/>
      <path id="Path_1087" data-name="Path 1087" d="M49.66,77.174,31.945,73.641c-1.364-.339-1.47-1.075-1.473-2.211s.109-1.872,1.473-2.21l7.784-1.553,7.629-1.523,5.2-1.037,1.639-.327c2.867-.554,3.256-2.22,3.256-4.924V56.92l-3.49.673v.251c0,1.182-.075,1.945-1.471,2.289L39.972,62.554l-4.546.878-5.186,1a3.676,3.676,0,0,0-2.717,1.708,6.781,6.781,0,0,0-.541,3.213V73.5c0,2.7.389,4.3,3.258,4.92l7.915,1.531Z" transform="translate(-3.453 -7.283)" fill="#e5481d"/>
      <path id="Path_1088" data-name="Path 1088" d="M63.851,68.469,58.985,67.5,46.273,70.047l15.871,3.07c1.4.346,1.473,1.108,1.473,2.289v.238c0,1.182-.1,1.984-1.5,2.328L39.873,83.311c-2.869.623-3.258,2.218-3.258,4.922v2.6l3.491-.685c.015-1.046.174-1.728,1.471-2.05l22.248-5.476c2.066-.4,2.836-1.385,3.111-2.91a8.915,8.915,0,0,0,.169-1.934V73.394c0-2.7-.389-4.371-3.254-4.924" transform="translate(-4.685 -8.637)" fill="#e5481d"/>
    </g>
  </g>
</svg>
