<svg xmlns="http://www.w3.org/2000/svg" width="112.477" height="139.824" viewBox="0 0 112.477 139.824">
  <path id="Path_819" data-name="Path 819" d="M0,124.113H88.609V0H0ZM8.054,16H44.3V23.67H8.054Zm0,12.952H64.449v7.675H8.054Zm0,53.71H32.518v1.918H8.054Zm24.464,30.894H8.054v-1.918H32.518Zm10.718-3.837H8.054V107.8H43.236Zm0-3.837H8.054v-1.919H43.236Zm0-3.837H8.054v-1.919H43.236Zm0-3.838H8.054V96.283H43.236Zm0-17.464H8.054V78.819H43.236Zm0-3.837H8.054V74.982H43.236Zm0-3.837H8.054V71.145H43.236Zm0-3.837H8.054V67.308H43.236Zm0-3.838H8.054V63.47H43.236Zm0-3.837H8.054V59.632H43.236Zm0-3.837H8.054V55.8H43.236Zm0-3.837H8.054V51.958H43.236Zm29.178,59.675H47.95v-1.918H72.414Zm10.718-3.837H47.95V107.8H83.132Zm0-3.837H47.95v-1.919H83.132Zm0-3.837H47.95v-1.919H83.132Zm0-3.838H47.95V96.283H83.132Zm0-8.555H47.95V51.958H83.132ZM55.71,80.508l.969-4.441L54.92,69.612l-2.237,9.939c-.214.766-.681.825-1.4.827s-1.185-.061-1.4-.827L48.9,75.184l-.963-4.28V82.033a4.788,4.788,0,0,0,2.034.3H52.6c1.712,0,2.721-.218,3.115-1.828M51.494,63.3c.219-.784.7-.826,1.449-.826h.151c.748,0,1.256.056,1.474.839L57.948,75.8c.394,1.609,1.4,1.828,3.116,1.828h1.644l-.434-1.958c-.662-.009-1.094-.1-1.3-.826L57.51,62.356a1.984,1.984,0,0,0-1.842-1.745,6.4,6.4,0,0,0-1.224-.095H51.67c-1.712,0-2.767.218-3.117,1.826l-.615,2.73L49.551,72.2Zm14.041,7.6-.656-2.915-.207-.92c-.351-1.609-1.405-1.827-3.117-1.827H59.695l.426,1.958h.159c.748,0,1.23.043,1.449.826l1.532,7.022.556,2.55.635,2.91a2.068,2.068,0,0,0,1.082,1.525Zm7.773,9.6.969-4.441-1.759-6.456L70.28,79.552c-.214.766-.681.825-1.4.827s-1.185-.061-1.4-.827L66.5,75.184l-.963-4.28V82.033a4.788,4.788,0,0,0,2.034.3h2.624c1.712,0,2.721-.218,3.115-1.828M69.091,63.3c.219-.784.7-.826,1.449-.826h.151c.748,0,1.256.056,1.474.839L75.545,75.8c.394,1.609,1.4,1.828,3.116,1.828H80.3l-.434-1.958c-.662-.009-1.094-.1-1.3-.826L75.107,62.356a1.985,1.985,0,0,0-1.842-1.745,6.4,6.4,0,0,0-1.224-.095H69.267c-1.712,0-2.767.218-3.117,1.826l-.615,2.73L67.148,72.2Zm14.041,7.6-.656-2.915-.207-.92c-.35-1.609-1.405-1.827-3.117-1.827H77.292l.426,1.958h.159c.748,0,1.231.043,1.449.826l1.532,7.022.556,2.55.635,2.91a2.068,2.068,0,0,0,1.082,1.525Z" transform="matrix(0.978, -0.208, 0.208, 0.978, 0, 18.423)" fill="#fcf9f5"/>
</svg>
