<svg id="Group_326" data-name="Group 326" xmlns="http://www.w3.org/2000/svg" xmlns:xlink="http://www.w3.org/1999/xlink" width="120.444" height="102.609" viewBox="0 0 120.444 102.609">
  <defs>
    <clipPath id="clip-path">
      <rect id="Rectangle_119" data-name="Rectangle 119" width="120.444" height="102.609" fill="#e5481d"/>
    </clipPath>
  </defs>
  <g id="Group_325" data-name="Group 325" transform="translate(0 0)" clip-path="url(#clip-path)">
    <path id="Path_1083" data-name="Path 1083" d="M76.3,33.608l1.347,5.985V62.435a4.243,4.243,0,0,1-2.221-3.125v0l-1.3-5.974L72.985,48.1,69.84,33.684c-.447-1.608-1.44-1.694-2.974-1.694h-.326l-.873-4.019H69.48c3.513,0,5.68.447,6.4,3.749ZM68.3,47.67,61.179,22.049a4.071,4.071,0,0,0-3.78-3.581,12.963,12.963,0,0,0-2.513-.2H49.193c-3.514,0-5.679.447-6.4,3.748l-1.261,5.605,3.312,14.638L48.83,23.985c.449-1.608,1.438-1.7,2.973-1.7h.31c1.536,0,2.578.117,3.026,1.724l6.941,25.622c.808,3.3,2.882,3.751,6.395,3.751h3.375l-.889-4.019c-1.36-.015-2.247-.2-2.663-1.694M51.273,57.345c-.44,1.567-1.392,1.7-2.872,1.7s-2.434-.126-2.873-1.7l-2.018-8.964L41.535,39.6v-.012l-1.348-5.985-.425-1.888c-.721-3.3-2.887-3.749-6.4-3.749H29.548l.874,4.019h.326c1.536,0,2.527.086,2.974,1.694L36.868,48.1l1.14,5.235,1.3,5.974v0a4.244,4.244,0,0,0,2.221,3.123v0a9.815,9.815,0,0,0,4.174.622l5.387,0c3.514,0,5.585-.449,6.393-3.752l1.99-9.116L55.864,36.944Zm36.119,0c-.441,1.567-1.4,1.7-2.873,1.7s-2.433-.126-2.871-1.7L79.63,48.381,77.651,39.6V62.438a9.835,9.835,0,0,0,4.174.622h5.39c3.513,0,5.584-.449,6.392-3.752l1.99-9.115L91.983,36.944ZM120.444,6.9V82.717a6.926,6.926,0,0,1-6.9,6.9H74.356a2.294,2.294,0,0,0-2.294,2.294v3.81a2.294,2.294,0,0,0,2.294,2.294h4.427a2.294,2.294,0,0,1,0,4.589H41.661a2.294,2.294,0,0,1,0-4.589h4.427a2.294,2.294,0,0,0,2.294-2.294v-3.81a2.294,2.294,0,0,0-2.294-2.294H6.9a6.925,6.925,0,0,1-6.9-6.9V6.9A6.925,6.925,0,0,1,6.9,0H113.539a6.926,6.926,0,0,1,6.9,6.9m-6.683,2.278a3.357,3.357,0,0,0-3.342-3.342H9.085A3.358,3.358,0,0,0,5.743,9.183V26.166l.934-4.148c.719-3.3,2.886-3.748,6.4-3.748h5.693a12.963,12.963,0,0,1,2.513.2,4.07,4.07,0,0,1,3.78,3.581l7.117,25.621c.418,1.5,1.3,1.679,2.663,1.694l.889,4.019H32.356c-3.513,0-5.586-.446-6.395-3.751L19.021,24.008c-.449-1.607-1.49-1.724-3.026-1.724h-.31c-1.532,0-2.524.089-2.973,1.7L8.728,42.26,5.744,29.074V41.051l1.649,7.327,2.018,8.964c.438,1.569,1.395,1.692,2.873,1.7s2.431-.129,2.872-1.7l4.591-20.4,3.612,13.251L21.37,59.305c-.808,3.3-2.879,3.752-6.393,3.752H9.591a11.006,11.006,0,0,1-3.846-.481l0,9.57a3.358,3.358,0,0,0,3.342,3.342H110.418a3.357,3.357,0,0,0,3.342-3.342v-9.71a4.241,4.241,0,0,1-2.221-3.129l-1.3-5.974L109.1,48.1,105.95,33.684c-.447-1.608-1.438-1.694-2.974-1.694h-.326l-.874-4.019h3.815c3.512,0,5.679.447,6.4,3.749l.424,1.888,1.348,5.985ZM93.519,18.468a12.963,12.963,0,0,0-2.513-.2H85.313c-3.513,0-5.679.447-6.4,3.748l-1.262,5.605,3.314,14.638,3.985-18.279c.449-1.608,1.44-1.7,2.973-1.7h.31c1.536,0,2.578.117,3.024,1.724L98.2,49.634c.807,3.3,2.881,3.751,6.393,3.751h3.377l-.889-4.019c-1.359-.015-2.246-.2-2.663-1.694L97.3,22.049a4.072,4.072,0,0,0-3.782-3.581" transform="translate(0 0)" fill="#e5481d"/>
  </g>
</svg>
