<svg id="Group_333" data-name="Group 333" xmlns="http://www.w3.org/2000/svg" xmlns:xlink="http://www.w3.org/1999/xlink" width="416.592" height="416.722" viewBox="0 0 416.592 416.722">
  <defs>
    <clipPath id="clip-path">
      <rect id="Rectangle_122" data-name="Rectangle 122" width="416.592" height="416.722" fill="#e5481d"/>
    </clipPath>
  </defs>
  <g id="Group_332" data-name="Group 332" clip-path="url(#clip-path)">
    <path id="Path_1090" data-name="Path 1090" d="M62.815,120.093q-1.356,4.678-2.823,9.343,1.094,7.024,2.471,14.076,3.307-10.44,6.066-20.925c.5-1.586,1.409-1.7,2.8-1.672s2.284.187,2.665,1.84q.857,4.706,1.818,9.422.942,4.616,1.989,9.235V117.533a8.121,8.121,0,0,0-3.835-.755c-1.65-.054-3.3-.057-4.949-.143-3.217-.254-5.133.076-6.2,3.458" transform="translate(130.324 253.228)" fill="#e5481d"/>
    <path id="Path_1091" data-name="Path 1091" d="M77.369,152.136c-.584,1.65-1.742,1.773-3.509,1.615l-.358-.029c-1.773-.13-2.973-.343-3.356-2.059-1.967-9.108-3.591-18.143-4.844-27.355-.406-3.534-2.335-4.254-5.729-4.679l-3.236-.581.159,4.3c1.332.254,2.17.609,2.351,2.211q1.551,13.69,4.172,27.527c.32,2.554,1.723,3.674,4.032,4.156a17.21,17.21,0,0,0,2.941.428c2.237.136,4.47.412,6.71.422,4.146.114,6.725-.3,7.579-3.724l1.462-5.824q-1.865-7.7-3.445-15.392-2.251,9.5-4.927,18.987" transform="translate(122.382 258.616)" fill="#e5481d"/>
    <path id="Path_1092" data-name="Path 1092" d="M53.663,139.194l.178,6.4.076,2.018c.114,3.528,2.44,4.422,6.335,5.111,1.4.282,2.833.4,4.248.6l-.387-4.283L63.757,149c-1.681-.19-2.744-.489-2.957-2.237q-.495-7.737-.723-15.434l-.13-5.583-.063-6.351A4.459,4.459,0,0,0,58.5,115.81Z" transform="translate(116.576 251.581)" fill="#e5481d"/>
    <path id="Path_1093" data-name="Path 1093" d="M53.915,117.484c-1.523,2.874-3.08,5.732-4.657,8.537-.27,4.812-.4,9.508-.466,14.307Q54.164,130.773,59,121.059c.825-1.469,1.713-1.329,3.071-1.044,1.351.311,2.2.638,2.233,2.332q-.119,4.782-.133,9.587-.014,4.711.076,9.441l4.832-23.383a8.049,8.049,0,0,0-3.591-1.5c-1.6-.4-3.223-.676-4.8-1.158-3.093-.885-5.035-.942-6.773,2.154" transform="translate(105.994 249.397)" fill="#e5481d"/>
    <path id="Path_1094" data-name="Path 1094" d="M60.013,152.756c-.917,1.526-2.059,1.342-3.766.841l-.346-.1c-1.713-.482-2.846-.933-2.874-2.687q-.057-6.976.143-13.882.224-6.986.7-13.9c.333-3.563-1.44-4.565-4.641-5.771l-3.055-1.206-.723,4.232c1.256.514,2.008,1.018,1.853,2.636-.888,9.228-1.377,18.416-1.551,27.8-.2,2.528.93,3.985,3.093,4.92a16.967,16.967,0,0,0,2.8,1.012c2.167.6,4.314,1.263,6.494,1.8,4.051.942,6.668,1.06,8.2-2.129l2.614-5.409q-.271-7.909-.26-15.764-4.13,8.856-8.686,17.6" transform="translate(98.745 252.114)" fill="#e5481d"/>
    <path id="Path_1095" data-name="Path 1095" d="M43.322,134.538l-1.155,6.342-.346,2.008c-.609,3.471,1.491,4.806,5.174,6.256,1.329.53,2.662,1.053,4.026,1.491l.495-4.267-.343-.117c-1.586-.577-2.563-1.094-2.421-2.833q1.094-7.666,2.446-15.234l1.012-5.482,1.237-6.221a4.653,4.653,0,0,0-.6-3.839Z" transform="translate(90.625 244.699)" fill="#e5481d"/>
    <path id="Path_1096" data-name="Path 1096" d="M47.215,112.829q-3.1,3.712-6.291,7.369c-1.218,4.606-2.392,9.324-3.407,13.958q7.223-8.28,13.958-16.813c1.11-1.275,1.964-.98,3.2-.349,1.263.581,2.027,1.06,1.716,2.722q-1.09,4.644-2.087,9.339-.975,4.6-1.853,9.241l9.523-21.9a7.987,7.987,0,0,0-3.226-2.176L56.5,113.213l-2.2-1.133c-2.855-1.481-4.778-1.878-7.087.749" transform="translate(81.501 240.94)" fill="#e5481d"/>
    <path id="Path_1097" data-name="Path 1097" d="M47.2,149.7c-1.193,1.278-2.262.838-3.845.029l-.32-.165c-1.583-.809-2.6-1.472-2.275-3.191,1.792-9.051,4.045-18.206,6.522-27.035,1.047-3.4-.5-4.724-3.353-6.618l-2.769-1.773L39.6,114.935c1.133.745,1.773,1.383,1.294,2.931-2.776,8.886-5.152,17.813-7.214,26.914-.72,2.455.133,4.016,2.008,5.469a13.826,13.826,0,0,0,2.532,1.564l6,3.068c3.743,1.8,6.316,2.379,8.464-.416L56.35,149.7q1.351-7.785,2.963-15.456C55.408,139.454,51.35,144.65,47.2,149.7" transform="translate(72.607 241.017)" fill="#e5481d"/>
    <path id="Path_1098" data-name="Path 1098" d="M34.237,127l-2.414,5.961-.742,1.891a4.29,4.29,0,0,0,.117,4.064,11.789,11.789,0,0,0,3.648,3.134l3.617,2.313,1.374-4.105-.3-.194c-1.424-.91-2.3-1.58-1.8-3.258q2.631-7.262,5.485-14.38l2.11-5.158,2.506-5.882a4.58,4.58,0,0,0,.19-3.883Z" transform="translate(66.546 233.536)" fill="#e5481d"/>
    <path id="Path_1099" data-name="Path 1099" d="M41.271,106.286q-3.8,3.012-7.674,5.958-3.193,6.4-6.173,12.978C33.2,120.872,38.962,116.25,44.51,111.6c1.348-1.028,2.132-.577,3.226.279s1.713,1.526,1.085,3.071q-2.008,4.321-3.931,8.7-1.88,4.292-3.683,8.651L55,112.8a7.967,7.967,0,0,0-2.747-2.747c-1.323-.98-2.6-2.03-3.9-3.039-2.563-1.954-4.264-2.858-7.078-.733" transform="translate(59.575 228.234)" fill="#e5481d"/>
    <path id="Path_1100" data-name="Path 1100" d="M35.522,143.071c-1.434,1.012-2.4.374-3.791-.723l-.282-.222c-1.393-1.107-2.284-1.929-1.589-3.575q5.539-12.91,11.874-25.144c1.665-3.068.558-4.828-1.926-7.182l-2.376-2.275-2.338,3.588c.971.945,1.475,1.691.695,3.109-4.441,8.058-8.718,16.468-12.531,24.9-1.2,2.252-.673,3.94.885,5.723a17.183,17.183,0,0,0,2.116,2.1l5.282,4.168c3.233,2.608,5.679,3.635,8.35,1.336l4.575-3.934q2.9-7.333,6.027-14.495c-4.92,4.352-9.879,8.521-14.97,12.626" transform="translate(49.095 225.815)" fill="#e5481d"/>
    <path id="Path_1101" data-name="Path 1101" d="M26.55,116.924l-3.556,5.336-1.11,1.7c-1.919,2.919-.673,5.13,2.211,7.829l3.106,2.963,2.173-3.734-.26-.247c-1.225-1.167-1.954-1.989-1.133-3.528,2.684-4.372,5.437-8.686,8.305-12.991l3.131-4.644,3.632-5.241A4.471,4.471,0,0,0,44,100.621Z" transform="translate(45.539 218.585)" fill="#e5481d"/>
    <path id="Path_1102" data-name="Path 1102" d="M36.3,98.193q-4.34,2.194-8.74,4.3-4.406,5.606-8.635,11.43c6.6-3.144,13.01-6.367,19.447-9.85,1.535-.739,2.221-.146,3.134.9s1.4,1.815.444,3.223c-1.9,2.56-3.816,5.174-5.647,7.76q-2.7,3.816-5.339,7.709l17.448-16.3A9.4,9.4,0,0,0,46.3,104.1l-3.236-3.737C40.98,97.9,39.524,96.652,36.3,98.193" transform="translate(41.121 211.842)" fill="#e5481d"/>
    <path id="Path_1103" data-name="Path 1103" d="M25.223,133.284c-1.612.7-2.436-.1-3.6-1.45l-.235-.273c-1.126-1.374-1.764-2.417-.774-3.867,5.352-7.677,10.837-15.018,16.687-22.2,2.313-2.709,1.535-4.619-.454-7.407-.66-.876-1.205-1.83-1.808-2.744l-3.036,3.052c.7,1.161,1.053,1.989.016,3.21Q23.051,112.093,14.7,123.46c-1.646,1.976-1.44,3.715-.26,5.761a17.1,17.1,0,0,0,1.675,2.462c1.361,1.786,2.82,3.486,4.3,5.174,2.719,3.141,4.743,4.778,7.883,3.014l5.288-2.938c2.884-4.394,5.777-8.673,8.838-12.972q-8.461,4.825-17.2,9.324" transform="translate(29.355 207.12)" fill="#e5481d"/>
    <path id="Path_1104" data-name="Path 1104" d="M20.576,104.717l-4.549,4.5L14.6,110.646c-2.5,2.49-1.58,4.806.562,8.131l2.478,3.5,2.874-3.21-.209-.292c-.971-1.383-1.554-2.309-.406-3.67q5.325-5.648,10.8-11.068l4-3.905,4.6-4.387a4.4,4.4,0,0,0,1.665-3.455Z" transform="translate(28.453 200.49)" fill="#e5481d"/>
    <path id="Path_1105" data-name="Path 1105" d="M32.565,88.849c-3.131.844-6.3,1.669-9.425,2.43-3.68,3.08-7.217,6.2-10.767,9.425q10.65-2.6,21.042-5.691c1.624-.4,2.16.33,2.871,1.523.692,1.205,1.025,2.046-.187,3.229q-3.578,3.179-7.1,6.453c-2.3,2.135-4.6,4.311-6.843,6.494l20.392-12.426a8.343,8.343,0,0,0-1.358-3.655c-.8-1.434-1.678-2.833-2.433-4.3C37.3,89.464,36.013,88,32.565,88.849" transform="translate(26.879 192.495)" fill="#e5481d"/>
    <path id="Path_1106" data-name="Path 1106" d="M16.689,120.676c-1.726.365-2.4-.577-3.195-2.17l-.165-.32c-.812-1.583-1.256-2.716.006-3.937q5.063-4.806,10.247-9.374c3.49-3.064,7.049-6.062,10.627-8.975,2.83-2.189,2.357-4.172,1.044-7.331l-1.2-3.058-3.585,2.367c.479,1.266.625,2.16-.663,3.153-7.338,5.65-14.393,11.57-21.369,17.854A4.471,4.471,0,0,0,6.957,114.5a17.2,17.2,0,0,0,1.167,2.738c1.047,1.986,2,4.023,3.128,5.964,2.065,3.6,3.759,5.6,7.135,4.546l5.745-1.789c3.715-3.718,7.512-7.379,11.341-10.945q-9.284,3.022-18.784,5.663" transform="translate(14.213 185.759)" fill="#e5481d"/>
    <path id="Path_1107" data-name="Path 1107" d="M16.671,90.844l-5.422,3.49-1.7,1.117c-2.953,1.922-2.5,4.372-1.044,8.051.514,1.336,1.053,2.662,1.665,3.956l3.455-2.551-.146-.33c-.673-1.551-.955-2.62.409-3.7q6.353-4.435,12.8-8.616l4.7-3,5.387-3.347a4.648,4.648,0,0,0,2.392-3.061Z" transform="translate(16.011 179.972)" fill="#e5481d"/>
    <path id="Path_1108" data-name="Path 1108" d="M30.235,78.685q-4.825.271-9.673.435c-4.219,2.259-8.432,4.613-12.518,7.033q10.978-.366,21.807-1.278c1.691-.06,2.049.768,2.44,2.1.444,1.317.609,2.2-.815,3.112q-4.14,2.375-8.248,4.854-4.026,2.427-8.02,4.955l22.5-7.994a7.99,7.99,0,0,0-.609-3.842l-.8-2.335-.673-2.373c-.869-3.1-1.865-4.778-5.393-4.663" transform="translate(17.474 170.92)" fill="#e5481d"/>
    <path id="Path_1109" data-name="Path 1109" d="M10.3,105.723c-1.748,0-2.154-1.082-2.643-2.792l-.1-.346c-.489-1.713-.7-2.912.78-3.845,7.842-4.873,16.043-9.469,24.205-13.692,3.236-1.564,3.08-3.582,2.544-6.963l-.577-3.236L30.53,76.43c.222,1.336.187,2.24-1.272,2.947-8.407,4.038-16.5,8.385-24.589,13.1-2.284,1.148-2.846,2.839-2.633,5.206a15.788,15.788,0,0,0,.6,2.915l1.843,6.481c1.253,3.962,2.576,6.24,6.088,5.9l5.989-.574q6.614-4.33,13.318-8.388c-6.478.7-13.029,1.285-19.57,1.707" transform="translate(4.331 162.601)" fill="#e5481d"/>
    <path id="Path_1110" data-name="Path 1110" d="M14.969,75.907,8.957,78.213l-1.894.746c-3.36,1.288-3.369,3.772-2.677,7.668l.774,4.222,3.931-1.8L9.027,88.7c-.3-1.669-.4-2.76,1.164-3.544q7.109-3.041,14.269-5.805l5.2-1.976L35.646,75.2a4.611,4.611,0,0,0,2.982-2.513Z" transform="translate(8.741 157.903)" fill="#e5481d"/>
    <path id="Path_1111" data-name="Path 1111" d="M29.415,69.179q-4.782-.719-9.568-1.545c-4.568,1.355-9.2,2.8-13.708,4.343q10.835,1.87,21.632,3.195c1.665.285,1.862,1.171,1.967,2.554.089,1.389.14,2.284-1.459,2.884q-4.53,1.48-9.054,3.065-4.43,1.556-8.851,3.21l23.659-3.223a7.987,7.987,0,0,0,.162-3.886c-.254-1.627-.327-3.277-.457-4.92-.228-3.217-.9-5.063-4.324-5.675" transform="translate(13.336 146.926)" fill="#e5481d"/>
    <path id="Path_1112" data-name="Path 1112" d="M6.56,89.1c-1.713-.355-1.894-1.5-2.03-3.268L4.5,85.477c-.136-1.77-.1-2.988,1.535-3.6,8.689-3.169,17.661-6,26.5-8.48,3.464-.879,3.756-2.887,3.9-6.313l.086-3.293-4.222.742c-.054,1.358-.266,2.237-1.84,2.633-9.041,2.259-17.876,4.873-26.734,7.839-2.468.66-3.36,2.2-3.626,4.552a12.8,12.8,0,0,0-.032,2.972L.58,89.24c.336,4.137,1.253,6.627,4.74,7.014l5.989.663q7.347-2.888,14.732-5.485C19.551,90.8,12.987,90.029,6.56,89.1" transform="translate(0.001 138.584)" fill="#e5481d"/>
    <path id="Path_1113" data-name="Path 1113" d="M15.715,61.708,9.364,62.752l-2,.352c-3.55.587-4.067,3.014-4.168,6.96l-.1,4.286,4.222-.961.01-.358c.041-1.688.159-2.782,1.853-3.229q7.576-1.537,15.142-2.811L29.81,66.1l6.3-.93a4.614,4.614,0,0,0,3.426-1.859Z" transform="translate(6.71 134.052)" fill="#e5481d"/>
    <path id="Path_1114" data-name="Path 1114" d="M30.07,59.806q-4.54-1.665-9.06-3.439c-4.749.4-9.571.888-14.3,1.488q10.236,4.016,20.547,7.484c1.573.615,1.589,1.52,1.415,2.9-.194,1.377-.324,2.265-2.011,2.532q-4.735.538-9.485,1.18-4.654.633-9.314,1.364l23.824,1.608a8.029,8.029,0,0,0,.939-3.778c.079-1.65.339-3.277.539-4.911.419-3.195.143-5.139-3.09-6.424" transform="translate(14.568 122.45)" fill="#e5481d"/>
    <path id="Path_1115" data-name="Path 1115" d="M6.314,71.649c-1.605-.695-1.554-1.849-1.332-3.61l.048-.358c.222-1.764.5-2.947,2.227-3.217,9.159-1.351,18.508-2.322,27.657-2.963,3.553-.162,4.283-2.062,5.108-5.383l.736-3.2-4.283-.133c-.32,1.317-.7,2.135-2.325,2.2-9.3.378-18.517,1.145-27.771,2.271-2.551.149-3.731,1.478-4.467,3.734A12.373,12.373,0,0,0,1.279,63.9L.429,70.58c-.5,4.124-.1,6.741,3.233,7.82L9.4,80.256q7.775-1.347,15.532-2.408c-6.234-1.926-12.505-4-18.615-6.2" transform="translate(0.541 114.664)" fill="#e5481d"/>
    <path id="Path_1116" data-name="Path 1116" d="M19.32,50.111l-6.427-.27-2.03-.063a4.269,4.269,0,0,0-3.785,1.481,11.708,11.708,0,0,0-1.726,4.492l-.961,4.184,4.33-.089L8.8,59.5c.381-1.65.714-2.7,2.462-2.792q7.723.029,15.389.324l5.561.251,6.383.384a4.576,4.576,0,0,0,3.721-1.123Z" transform="translate(9.539 108.123)" fill="#e5481d"/>
    <path id="Path_1117" data-name="Path 1117" d="M33.613,51.737q-4.107-2.565-8.178-5.228-7.1-.871-14.307-1.475c6.078,4,12.328,7.864,18.577,11.528,1.418.926,1.253,1.815.812,3.131C30.047,61,29.67,61.819,28,61.746q-4.744-.443-9.517-.78Q13.8,60.637,9.1,60.4l23,6.43a7.963,7.963,0,0,0,1.665-3.505c.447-1.583,1.041-3.118,1.548-4.682a8.053,8.053,0,0,0,.609-3.886,4.418,4.418,0,0,0-2.3-3.023" transform="translate(19.762 97.83)" fill="#e5481d"/>
    <path id="Path_1118" data-name="Path 1118" d="M9.339,55.659C7.9,54.65,8.187,53.527,8.758,51.843l.114-.339c.571-1.685,1.075-2.792,2.82-2.7q14.019.88,27.692,2.766c3.458.546,4.686-1.107,6.116-4.216l1.351-2.995L42.693,43.35c-.574,1.231-1.11,1.954-2.706,1.691-9.117-1.507-18.419-2.7-27.66-3.471C9.8,41.2,8.384,42.259,7.22,44.324a14.711,14.711,0,0,0-1.259,2.7L3.8,53.407c-1.389,3.924-1.5,6.586,1.548,8.324l5.241,2.985q7.88.266,15.681.809c-5.748-3.169-11.37-6.453-16.928-9.866" transform="translate(6.219 90.146)" fill="#e5481d"/>
    <path id="Path_1119" data-name="Path 1119" d="M24.867,40.254l-6.221-1.574L16.673,38.2c-3.413-.844-5.057,1.082-6.637,4.708L8.269,46.824l4.248.8.149-.327c.695-1.542,1.231-2.5,2.957-2.24,5.041,1.079,9.993,2.211,15,3.471l5.431,1.405L42.207,51.6a4.5,4.5,0,0,0,3.851-.349Z" transform="translate(17.963 82.561)" fill="#e5481d"/>
    <path id="Path_1120" data-name="Path 1120" d="M39.289,45.251q-3.507-3.355-6.96-6.8-6.757-2.289-13.67-4.34,7.685,7.728,15.792,15.059c1.205,1.2.869,2.04.181,3.245s-1.256,1.916-2.906,1.488c-3.071-.958-6.1-1.849-9.168-2.722q-4.5-1.275-9.057-2.462l21.195,11a8.751,8.751,0,0,0,2.351-3.09l2.465-4.28c1.558-2.82,2.319-4.568-.222-7.1" transform="translate(29.329 74.099)" fill="#e5481d"/>
    <path id="Path_1121" data-name="Path 1121" d="M14.927,43.309c-1.2-1.285-.707-2.325.181-3.864l.181-.311c.866-1.561,1.672-2.487,3.363-2.04q13.524,3.721,26.486,8.324c3.331,1.278,4.879-.086,6.862-2.874.625-.9,1.266-1.792,1.961-2.639l-3.892-1.849c-.85,1.056-1.478,1.694-2.995,1.1-8.584-3.306-17.432-6.354-26.381-9.041-2.392-.882-3.984-.127-5.526,1.672a17.36,17.36,0,0,0-1.773,2.389c-1.247,1.872-2.29,3.864-3.432,5.793a12.933,12.933,0,0,0-1.916,4.676,4.326,4.326,0,0,0,1.71,3.769l4.53,4q7.647,1.865,15.154,3.988-7.361-6.357-14.51-13.1" transform="translate(17.441 64.627)" fill="#e5481d"/>
    <path id="Path_1122" data-name="Path 1122" d="M32.1,31.584l-5.761-2.795-1.827-.866c-3.172-1.523-5.1.079-7.474,3.242l-2.49,3.5,3.991,1.64.206-.292c.98-1.377,1.691-2.217,3.321-1.612,4.7,2.068,9.409,4.257,14.028,6.491l5.022,2.471L46.8,46.24a4.439,4.439,0,0,0,3.823.425Z" transform="translate(31.612 59.396)" fill="#e5481d"/>
    <path id="Path_1123" data-name="Path 1123" d="M46.054,39.582q-2.765-4.007-5.453-8.09Q34.462,27.9,28.127,24.507q6,9.16,12.375,17.918c.93,1.415.447,2.186-.46,3.236s-1.6,1.643-3.118.895q-4.2-2.317-8.458-4.549c-2.8-1.469-5.58-2.88-8.381-4.264L38.6,52.82a9.226,9.226,0,0,0,2.979-2.513l3.233-3.74c2.227-2.332,3.188-4.019,1.244-6.986" transform="translate(43.632 53.238)" fill="#e5481d"/>
    <path id="Path_1124" data-name="Path 1124" d="M22.718,32.03c-.907-1.494-.257-2.459.958-3.753l.247-.26c1.225-1.288,2.148-2.081,3.721-1.294,8.3,4.232,16.334,8.689,24.262,13.533,3,1.926,4.755.863,7.258-1.475l2.487-2.151-3.429-2.589c-1.037.872-1.834,1.31-3.2.425Q43.407,27,31.052,20.3c-2.183-1.364-3.934-.983-5.771.5a17.127,17.127,0,0,0-2.2,2c-1.542,1.631-3.118,3.223-4.559,4.946-2.725,3.134-4.045,5.387-1.929,8.213l3.629,4.844c4.708,2.23,9.438,4.6,14.079,7.027q-5.934-7.742-11.589-15.8" transform="translate(33.785 42.27)" fill="#e5481d"/>
    <path id="Path_1125" data-name="Path 1125" d="M40.775,24.463l-5.1-3.934-1.615-1.212c-2.8-2.141-4.962-.895-7.947,1.694-1.1.92-2.119,1.919-3.157,2.906l3.566,2.4.263-.247c1.2-1.186,2.132-1.789,3.607-.869q6.31,4.506,12.413,9.184l4.406,3.42,4.965,3.959a4.622,4.622,0,0,0,3.677,1.209Z" transform="translate(49.869 39.594)" fill="#e5481d"/>
    <path id="Path_1126" data-name="Path 1126" d="M53.609,34.995q-1.88-4.454-3.667-8.965c-3.547-3.217-7.176-6.38-10.827-9.416q4.03,10.207,8.524,20.1c.631,1.577-.044,2.173-1.145,3.014-1.1.86-1.878,1.31-3.214.273q-3.631-3.1-7.347-6.145-3.64-2.979-7.36-5.894L43.651,46.479a8.018,8.018,0,0,0,3.423-1.859c1.288-1.028,2.579-2.053,3.943-2.976,2.636-1.862,3.892-3.353,2.592-6.649" transform="translate(62.071 36.092)" fill="#e5481d"/>
    <path id="Path_1127" data-name="Path 1127" d="M32.393,22.218c-.587-1.65.3-2.392,1.742-3.423l.292-.206c1.45-1.031,2.506-1.634,3.886-.552,7.223,5.755,14.3,11.919,21.03,18.187,2.56,2.513,4.419,1.7,7.417.051l2.852-1.637-2.83-3.223c-1.183.663-2.046.936-3.2-.2C56.948,24.668,50.127,18.5,42.97,12.47c-1.853-1.767-3.632-1.729-5.786-.733a16.926,16.926,0,0,0-2.541,1.545l-5.482,3.905c-3.293,2.532-5.009,4.511-3.509,7.709l2.551,5.45q6.3,4.778,12.375,9.736-4.264-8.8-8.185-17.864" transform="translate(54.536 24.006)" fill="#e5481d"/>
    <path id="Path_1128" data-name="Path 1128" d="M50.5,19.2l-4.191-4.882-1.342-1.529c-2.341-2.722-4.7-1.929-8.121.054l-3.715,2.151,3.014,3.1.314-.181c1.462-.844,2.459-1.31,3.721-.1q5.253,5.667,10.272,11.474l3.613,4.232,4.073,4.917A4.584,4.584,0,0,0,61.5,40.389Z" transform="translate(71.977 23.972)" fill="#e5481d"/>
    <path id="Path_1129" data-name="Path 1129" d="M61.684,31.771q-.933-4.749-1.767-9.546-4.216-5.782-8.7-11.459c1.234,7.182,2.674,14.377,4.267,21.445.292,1.672-.47,2.154-1.732,2.728-1.278.549-2.125.85-3.217-.428q-2.917-3.769-5.932-7.49-2.95-3.645-6-7.246l11,21.195A7.977,7.977,0,0,0,53.315,39.8c1.456-.771,2.992-1.374,4.479-2.072a7.948,7.948,0,0,0,3.252-2.211,4.415,4.415,0,0,0,.638-3.747" transform="translate(83.871 23.39)" fill="#e5481d"/>
    <path id="Path_1130" data-name="Path 1130" d="M43.631,14.4c-.241-1.735.771-2.3,2.392-3.03l.327-.146c1.621-.733,2.776-1.12,3.9.219C56.2,18.658,61.84,26.053,67.138,33.553c1.964,2.9,4.007,2.662,7.258,1.589l3.109-1.053-2.1-3.724c-1.291.419-2.186.52-3.087-.825-5.127-7.7-10.605-15.3-16.35-22.575-1.45-2.1-3.2-2.414-5.5-1.856a14.7,14.7,0,0,0-2.83.93L41.489,8.811c-3.813,1.662-5.824,3.41-5.019,6.814l1.4,5.869q5.187,5.939,10.12,12.011Q45.574,23.969,43.631,14.4" transform="translate(78.845 10.569)" fill="#e5481d"/>
    <path id="Path_1131" data-name="Path 1131" d="M60.821,15.986l-3.1-5.621-1-1.77c-1.713-3.077-4.238-2.95-7.969-1.631L44.686,8.341l2.319,3.651.339-.117c1.6-.542,2.668-.806,3.658.634,2.652,4.413,5.209,8.819,7.7,13.318l2.684,4.93L64.364,36.4a4.528,4.528,0,0,0,2.887,2.582Z" transform="translate(97.074 13.209)" fill="#e5481d"/>
    <path id="Path_1132" data-name="Path 1132" d="M69.9,29.935q.057-4.849.225-9.72Q67.186,13.7,63.966,7.246c-.273,7.239-.339,14.552-.225,21.832-.054,1.7-.9,2.024-2.246,2.338s-2.259.384-3.071-1.113c-1.4-2.887-2.811-5.7-4.27-8.543q-2.141-4.168-4.381-8.3l6.427,23a8.452,8.452,0,0,0,3.861-.4l4.809-1.107c3.122-.784,4.911-1.45,5.031-5.012" transform="translate(108.125 15.741)" fill="#e5481d"/>
    <path id="Path_1133" data-name="Path 1133" d="M55.927,8.862c.117-1.751,1.221-2.1,2.953-2.5l.352-.079c1.729-.422,2.947-.52,3.781,1.047q6.514,12.434,11.992,25.062c1.326,3.242,3.391,3.509,6.783,3.061l3.264-.409-1.3-4.08c-1.345.155-2.243.076-2.849-1.421-3.436-8.524-7.255-17.166-11.386-25.458-.99-2.351-2.633-3-5-2.912a17.084,17.084,0,0,0-2.963.324c-2.208.4-4.384.974-6.576,1.456a12.579,12.579,0,0,0-4.727,1.792,4.368,4.368,0,0,0-1.589,3.829l.168,6.04q3.859,6.862,7.436,13.8c-.26-6.51-.365-13-.336-19.551" transform="translate(105.699 2.53)" fill="#e5481d"/>
    <path id="Path_1134" data-name="Path 1134" d="M71.344,15.047,69.456,8.918l-.615-1.935c-1.047-3.331-3.547-3.775-7.465-3.239l-4.26.542,1.523,4.038L59,8.28c1.675-.213,2.773-.26,3.445,1.348,1.691,4.841,3.3,9.7,4.819,14.644l1.621,5.368,1.767,6.126a4.484,4.484,0,0,0,2.3,3.106Z" transform="translate(124.077 7.718)" fill="#e5481d"/>
    <path id="Path_1135" data-name="Path 1135" d="M77.986,29.588q1.042-4.74,2.186-9.476Q78.606,13.146,76.759,6.17q-1.3,5.3-2.459,10.6Q73.139,22.135,72.114,27.5c-.4,1.65-1.294,1.8-2.684,1.84s-2.294-.076-2.785-1.7q-1.171-4.678-2.446-9.263-1.247-4.506-2.6-9.01l1.608,23.824a9.246,9.246,0,0,0,3.867.412l4.949-.124c3.229-.149,5.12-.4,5.961-3.886" transform="translate(133.82 13.403)" fill="#e5481d"/>
    <path id="Path_1136" data-name="Path 1136" d="M69.445,6.1c.47-1.694,1.621-1.815,3.394-1.856l.355-.01c1.777-.07,2.988.117,3.486,1.805q3.859,13.486,6.681,26.956c.647,3.455,2.617,4.121,6.034,4.365l3.277.257-.454-4.257c-1.351-.121-2.214-.378-2.506-1.967-1.65-9.041-3.655-18.266-6.024-27.228C83.2,1.659,81.722.692,79.39.3A17.254,17.254,0,0,0,76.43.029c-2.24-.092-4.479.063-6.719.089C65.565.2,63.021.781,62.4,4.324l-1.066,5.955c1.583,5,3.071,9.98,4.467,15.024Q67.411,15.71,69.445,6.1" transform="translate(133.244 0)" fill="#e5481d"/>
    <path id="Path_1137" data-name="Path 1137" d="M81.655,16.756l-.615-6.383-.213-2.018c-.355-3.474-2.719-4.413-6.662-4.676l-4.279-.324.676,4.264.358.025c1.688.13,2.773.3,3.106,2.014.682,5.082,1.278,10.167,1.777,15.313l.508,5.583.495,6.357a4.488,4.488,0,0,0,1.627,3.5Z" transform="translate(151.818 7.29)" fill="#e5481d"/>
    <path id="Path_1138" data-name="Path 1138" d="M87.747,30.736q1.98-4.435,4.061-8.841-.114-7.133-.511-14.333C88.169,14.126,85.222,20.74,82.433,27.5c-.723,1.539-1.627,1.507-2.995,1.269s-2.227-.536-2.379-2.23c-.136-3.2-.308-6.405-.523-9.565Q76.222,12.3,75.8,7.619L72.58,31.282a9.326,9.326,0,0,0,3.7,1.183l4.86.869c3.179.523,5.076.644,6.6-2.6" transform="translate(157.67 16.427)" fill="#e5481d"/>
    <path id="Path_1139" data-name="Path 1139" d="M82.923,7.138c.806-1.561,1.957-1.45,3.705-1.133l.352.063c1.757.286,2.9.749,3.052,2.484q1.056,13.985,1.075,27.739c-.086,3.566,1.719,4.571,5.009,5.5,1.053.3,2.116.574,3.144.949l.435-4.286c-1.288-.416-2.087-.818-2.049-2.436.232-9.2.136-18.571-.349-27.891.022-2.547-1.228-3.794-3.439-4.641A17.346,17.346,0,0,0,91,2.62c-2.179-.546-4.4-.866-6.608-1.285C80.3.587,77.688.635,76.372,3.981L74.129,9.6c.543,5.222,1,10.389,1.348,15.621q3.507-9.075,7.446-18.082" transform="translate(161.035 2.049)" fill="#e5481d"/>
    <path id="Path_1140" data-name="Path 1140" d="M91.423,21.027l.7-6.367.2-2.014c.368-3.49-1.783-4.809-5.567-5.951L82.629,5.52l-.206,4.308.346.1c1.627.463,2.655.85,2.633,2.592C85.043,17.607,84.555,22.8,84,27.9l-.644,5.561-.812,6.316a4.448,4.448,0,0,0,.879,3.747Z" transform="translate(179.053 11.991)" fill="#e5481d"/>
    <path id="Path_1141" data-name="Path 1141" d="M97.688,35.489q2.85-3.94,5.8-7.839,1.337-6.99,2.421-14.1c-4.419,5.818-8.651,11.665-12.747,17.667-1.025,1.361-1.907,1.152-3.2.647s-2.078-.958-1.881-2.646q.78-4.73,1.456-9.5c.444-3.115.834-6.189,1.2-9.3l-8,22.5A9.644,9.644,0,0,0,86.1,34.854L90.7,36.662c2.957,1.269,4.844,1.662,6.992-1.174" transform="translate(179.741 22.61)" fill="#e5481d"/>
    <path id="Path_1142" data-name="Path 1142" d="M96.99,11.029c1.11-1.37,2.217-1.031,3.87-.374l.327.146c1.624.73,2.681,1.342,2.465,3.087-1.231,9.286-2.712,18.279-4.641,27.387-.809,3.467.761,4.8,3.81,6.354.968.511,1.9,1.085,2.858,1.624l1.3-4.1c-1.167-.695-1.837-1.307-1.478-2.861q3.16-13.419,5.352-27.343c.568-2.532-.409-3.988-2.408-5.253a17.36,17.36,0,0,0-2.624-1.412c-2.04-.942-4.1-1.84-6.2-2.636-3.87-1.52-6.427-2.046-8.394.933l-3.35,5.047q-.78,7.785-1.891,15.6,5.3-8.18,11-16.2" transform="translate(186.791 9.604)" fill="#e5481d"/>
    <path id="Path_1143" data-name="Path 1143" d="M104.935,27.173l1.986-6.085.609-1.929c1.082-3.36-.806-4.99-4.235-6.954-1.247-.707-2.538-1.323-3.807-1.989L98.41,14.385l.32.165c1.51.758,2.433,1.358,2.037,3.09q-2.141,7.452-4.521,14.78l-1.761,5.3-2.078,6.005a4.448,4.448,0,0,0,.1,3.839Z" transform="translate(199.932 22.195)" fill="#e5481d"/>
    <path id="Path_1144" data-name="Path 1144" d="M106.308,41.537c2.408-2.2,4.812-4.343,7.249-6.465,1.865-4.441,3.585-8.841,5.25-13.33q-8.27,7.2-16.1,14.723c-1.272,1.114-2.056.669-3.242-.054-1.167-.752-1.853-1.342-1.32-2.95Q99.872,29,101.5,24.476q1.6-4.43,3.109-8.914L92.185,35.954a8.058,8.058,0,0,0,2.881,2.627c1.37.91,2.811,1.719,4.127,2.709,2.624,1.875,4.438,2.582,7.116.247" transform="translate(200.259 33.806)" fill="#e5481d"/>
    <path id="Path_1145" data-name="Path 1145" d="M110.659,17.353c1.377-1.133,2.382-.562,3.823.476l.3.206c1.45,1.031,2.367,1.834,1.8,3.493-1.532,4.4-3.118,8.721-4.806,13.038q-2.56,6.5-5.326,12.848c-1.513,3.249-.152,4.759,2.436,7l2.484,2.154,2.1-3.747c-1.012-.9-1.558-1.624-.869-3.1,3.959-8.432,7.474-16.89,10.8-25.677,1.037-2.319.45-4.042-1.253-5.675a17.159,17.159,0,0,0-2.3-1.891c-1.834-1.288-3.639-2.624-5.507-3.867-3.493-2.249-5.913-3.239-8.429-.755l-4.283,4.216q-2.413,7.538-5.063,14.929,6.867-6.947,14.1-13.654" transform="translate(209.759 22.606)" fill="#e5481d"/>
    <path id="Path_1146" data-name="Path 1146" d="M116.93,34.99l3.207-5.587,1-1.773c1.78-3.112.213-5.035-2.766-7.633-1.091-.923-2.138-1.9-3.283-2.763l-1.9,3.854.279.225c1.278,1.107,2.049,1.894,1.326,3.49q-3.6,6.848-7.4,13.524L104.6,43.149l-3.249,5.456a4.611,4.611,0,0,0-.726,3.832Z" transform="translate(218.24 37.439)" fill="#e5481d"/>
    <path id="Path_1147" data-name="Path 1147" d="M113.238,48.594q4.164-2.465,8.4-4.854c2.69-3.943,5.333-7.963,7.89-12.036q-9.584,5.4-18.79,11.2c-1.472.834-2.183.273-3.141-.733s-1.551-1.685-.695-3.16q2.584-4.011,5.085-8.1,2.451-4,4.832-8.08l-16.3,17.448a8.028,8.028,0,0,0,2.332,3.118c1.221,1.107,2.325,2.335,3.467,3.521,2.23,2.329,3.88,3.372,6.925,1.675" transform="translate(218.353 49.597)" fill="#e5481d"/>
    <path id="Path_1148" data-name="Path 1148" d="M122.405,25.846c1.554-.806,2.417-.038,3.642,1.247l.247.26c1.228,1.285,1.973,2.246,1.088,3.756-4.771,7.982-9.891,15.808-15.177,23.311a4.426,4.426,0,0,0-1.082,3.721,9.215,9.215,0,0,0,2.03,3.648l2.033,2.585,2.8-3.236c-.825-1.079-1.221-1.891-.254-3.188q4.145-5.563,8.124-11.332c2.627-3.826,5.161-7.693,7.655-11.639,1.5-2.072,1.209-3.823-.079-5.812a12.7,12.7,0,0,0-1.84-2.335l-4.641-4.87c-2.881-2.995-5.155-4.349-8.1-2.443l-5.06,3.271q-3.873,6.876-7.953,13.562c5.428-3.613,11-7.16,16.566-10.507" transform="translate(229.921 40.491)" fill="#e5481d"/>
    <path id="Path_1149" data-name="Path 1149" d="M126.909,44.041l4.254-4.809L132.5,37.7c2.338-2.662,1.339-4.971-1.142-8.048L128.7,26.276l-2.665,3.41.222.282c1.047,1.326,1.653,2.246.625,3.658q-4.9,5.967-9.952,11.722l-3.74,4.184-4.318,4.7a4.538,4.538,0,0,0-1.462,3.591Z" transform="translate(233.287 57.081)" fill="#e5481d"/>
    <path id="Path_1150" data-name="Path 1150" d="M118.153,56.382q4.587-1.58,9.228-3.065,5.139-4.958,10.136-10.164c-6.913,2.186-13.809,4.575-20.633,7.138-1.615.52-2.208-.165-2.96-1.332s-1.12-2,.016-3.268c2.237-2.278,4.422-4.565,6.6-6.894q3.2-3.417,6.348-6.922L107.4,45.662a8.323,8.323,0,0,0,1.678,3.5l2.662,4.162c1.792,2.681,3.017,4.143,6.418,3.055" transform="translate(233.303 69.244)" fill="#e5481d"/>
    <path id="Path_1151" data-name="Path 1151" d="M131.755,36.131c1.691-.479,2.392.441,3.347,1.938l.194.3c.977,1.488,1.472,2.608.282,3.915q-9.508,10.321-19.551,19.729c-2.643,2.36-2.164,4.375-.6,7.417.492.98,1.034,1.932,1.459,2.944l3.429-2.611c-.593-1.221-.831-2.084.377-3.16,6.871-6.11,13.679-12.594,20.135-19.3,1.878-1.719,1.938-3.486,1.053-5.682a17.088,17.088,0,0,0-1.307-2.677c-1.11-1.951-2.386-3.8-3.578-5.7-2.2-3.524-4.092-5.355-7.417-4.051l-5.631,2.189q-5.168,5.939-10.5,11.643c6.053-2.44,12.122-4.717,18.3-6.9" transform="translate(246.463 62.511)" fill="#e5481d"/>
    <path id="Path_1152" data-name="Path 1152" d="M134.432,53.98l5.13-3.835,1.612-1.228c2.8-2.116,2.306-4.59.542-8.131l-1.954-3.82-3.29,2.792.162.32c.771,1.5,1.19,2.522-.1,3.693-3.969,3.217-8.08,6.4-12.188,9.482l-4.5,3.328L114.674,60.3a4.443,4.443,0,0,0-2.138,3.2Z" transform="translate(244.469 80.306)" fill="#e5481d"/>
    <path id="Path_1153" data-name="Path 1153" d="M120.864,64.536q4.825-.609,9.682-1.117,6.024-3.793,11.96-7.864c-7.268.746-14.418,1.643-21.61,2.757-1.694.181-2.145-.609-2.658-1.894s-.714-2.173.654-3.182q3.988-2.665,7.934-5.425c2.57-1.8,5.088-3.62,7.614-5.482l-21.9,9.53a9.8,9.8,0,0,0,.879,3.785l1.815,4.59c1.1,3.02,2.087,4.673,5.631,4.3" transform="translate(244.462 91.954)" fill="#e5481d"/>
    <path id="Path_1154" data-name="Path 1154" d="M141.138,47.758c1.757-.124,2.265.917,2.915,2.573l.121.336c.574,1.685.85,2.874-.574,3.912-7.62,5.441-15.218,10.5-23.174,15.31-3.087,1.777-2.992,3.832-2.053,7.122.324,1.047.511,2.129.774,3.195l3.886-1.853c-.27-1.329-.314-2.23,1.069-3.03q11.968-6.857,23.647-14.764c2.237-1.313,2.614-3.017,2.186-5.345a17.411,17.411,0,0,0-.761-2.884l-1.085-3.188L146.864,46c-1.532-3.867-2.884-6.1-6.411-5.495l-5.974,1q-6.234,4.749-12.686,9.276,9.588-1.718,19.345-3.026" transform="translate(255.896 87.788)" fill="#e5481d"/>
    <path id="Path_1155" data-name="Path 1155" d="M139.086,64.423l5.8-2.7,1.824-.872c3.2-1.5,3.106-4,2.208-7.848l-1.158-4.137-3.781,2.059.1.346c.457,1.627.685,2.7-.853,3.594q-6.919,3.526-13.9,6.789l-5.079,2.332-5.809,2.579a4.4,4.4,0,0,0-2.731,2.693Z" transform="translate(251.349 106.155)" fill="#e5481d"/>
    <path id="Path_1156" data-name="Path 1156" d="M121.378,72.734q4.854.39,9.72.885,6.657-2.484,13.292-5.25-10.9-1.142-21.715-1.729c-1.656-.178-1.961-1.034-2.2-2.4s-.273-2.271,1.266-2.976q4.444-1.789,8.864-3.683c2.881-1.237,5.79-2.513,8.629-3.81L115.845,58.6a8.461,8.461,0,0,0,.044,3.9l.857,4.86c.4,3.2,1.1,5.006,4.632,5.374" transform="translate(251.207 116.808)" fill="#e5481d"/>
    <path id="Path_1157" data-name="Path 1157" d="M147.984,60.455c1.726.241,2.094,1.351,2.29,3.118l.048.355c.225,1.764.26,2.982-1.345,3.7-8.527,3.762-17.048,7.17-25.82,10.253-3.382,1.107-3.7,3.141-3.432,6.557l.086,3.29,4.178-1.025c-.022-1.358.168-2.249,1.688-2.75q13.1-4.278,26.128-9.625c2.436-.828,3.252-2.424,3.261-4.784a17.25,17.25,0,0,0-.171-2.973c-.314-2.221-.5-4.46-.942-6.665-.723-4.092-1.643-6.541-5.174-6.684l-6.015-.254c-4.739,2.249-9.561,4.419-14.364,6.487q9.755.286,19.586,1" transform="translate(259.928 115.072)" fill="#e5481d"/>
    <path id="Path_1158" data-name="Path 1158" d="M140.644,74.929l6.221-1.469,1.961-.485c3.432-.822,3.842-3.277,3.737-7.227-.01-1.428-.184-2.852-.273-4.28l-4.118,1.244.025.358c.149,1.681.082,2.782-1.589,3.344q-7.485,2.041-14.977,3.82l-5.444,1.256-6.208,1.351a4.38,4.38,0,0,0-3.214,2.087Z" transform="translate(253.658 133.533)" fill="#e5481d"/>
    <path id="Path_1159" data-name="Path 1159" d="M146.093,65.093l-9.53-.336-13.851.609,21.328.777c1.64.073,1.77.235,1.773.485s-.133.409-1.773.482l-9.371.343-9.184.333h23.878c.533-.178.65-.412.65-.7v-.91c0-.593-.466-.942-3.921-1.079" transform="translate(266.577 140.676)" fill="#e5481d"/>
    <path id="Path_1160" data-name="Path 1160" d="M122.534,67.985c-1.681-.076-1.773-.244-1.773-.5V67.43c0-.257.121-.435,1.8-.511l26.784-1.171c3.455-.136,3.921-.485,3.921-1.079V64.1l-4.2.152c-.019.228-.209.377-1.773.447L120.51,65.9c-2.487.089-3.413.3-3.743.638a.513.513,0,0,0-.206.425v.961c0,.593.47.958,3.918,1.079l5.859.213,15.3-.558Z" transform="translate(253.211 139.246)" fill="#e5481d"/>
    <path id="Path_1161" data-name="Path 1161" d="M131.907,63.79l-6.256.228-1.973.07c-3.452.124-3.921.489-3.921,1.082v.644l4.2-.149v-.054c0-.26.089-.428,1.77-.5l15.069-.533,5.472-.19,6.243-.222a13.641,13.641,0,0,0,3.271-.374Z" transform="translate(260.156 138.575)" fill="#e5481d"/>
    <path id="Path_1162" data-name="Path 1162" d="M119.981,78.554q4.64,1.375,9.26,2.871,7.1-1,14.149-2.329c-6.963-2.252-13.879-4.3-20.928-6.154-1.618-.511-1.7-1.4-1.637-2.769.089-1.367.209-2.249,1.859-2.624q4.7-.837,9.4-1.786,4.606-.933,9.216-1.973H117.421a7.846,7.846,0,0,0-.714,3.778c0,1.624-.143,3.239-.2,4.86-.194,3.163.073,5.038,3.471,6.126" transform="translate(253 138.575)" fill="#e5481d"/>
    <path id="Path_1163" data-name="Path 1163" d="M152.143,72.19c1.653.59,1.691,1.751,1.6,3.534l-.019.358c-.13,1.783-.359,2.988-2.075,3.363-9.079,1.926-18.286,3.455-27.393,4.594-3.509.362-4.27,2.249-4.787,5.58L118.89,92.8l4.283-.07c.257-1.313.6-2.138,2.217-2.287,9.155-.863,18.431-2.129,27.6-3.81,2.535-.3,3.639-1.71,4.222-4.029a17.253,17.253,0,0,0,.447-2.963c.209-2.252.339-4.5.431-6.757.238-4.172-.3-6.767-3.709-7.623l-5.834-1.469q-7.68,1.865-15.361,3.429,9.536,2.256,18.958,4.971" transform="translate(258.272 138.575)" fill="#e5481d"/>
    <path id="Path_1164" data-name="Path 1164" d="M138.881,82.931l6.4-.022,2.027-.032c3.534-.032,4.562-2.351,5.241-6.275.273-1.415.485-2.839.692-4.264l-4.3.333-.054.355c-.232,1.678-.568,2.741-2.3,2.928q-7.723.371-15.4.431l-5.6-.009-6.367-.108a4.492,4.492,0,0,0-3.613,1.244Z" transform="translate(251.177 157.144)" fill="#e5481d"/>
    <path id="Path_1165" data-name="Path 1165" d="M117.07,88.549q4.173,2.441,8.3,5.025c4.717.53,9.511.949,14.292,1.228q-9.317-5.824-18.857-10.951c-1.459-.872-1.342-1.735-.971-3.023.39-1.282.723-2.087,2.4-2.068q4.763.286,9.555.444c3.128.1,6.281.168,9.416.184l-23.253-5.418a7.61,7.61,0,0,0-1.532,3.426c-.381,1.542-.869,3.033-1.288,4.552-.939,2.919-1.047,4.765,1.932,6.6" transform="translate(248.846 160.688)" fill="#e5481d"/>
    <path id="Path_1166" data-name="Path 1166" d="M152.83,85.788c1.466.971,1.237,2.132.711,3.87l-.114.349c-.568,1.735-1.072,2.88-2.83,2.842a268.737,268.737,0,0,1-27.7-2.265c-3.528-.565-4.616,1.079-6.012,4.038-.422.964-.879,1.9-1.361,2.827l4.149,1.11c.619-1.155,1.1-1.875,2.706-1.586a250.153,250.153,0,0,0,27.7,3.321c2.544.33,3.95-.809,5.1-2.982a14,14,0,0,0,1.2-2.836c.733-2.2,1.456-4.4,2.072-6.618,1.231-4.092,1.3-6.779-1.808-8.407l-5.352-2.779c-5.257.067-10.52.016-15.735-.149q8.77,4.387,17.277,9.263" transform="translate(250.958 166.24)" fill="#e5481d"/>
    <path id="Path_1167" data-name="Path 1167" d="M132.909,95.213c2.04.615,4.1,1.205,6.17,1.773l1.961.533c3.442.952,5.05-1.088,6.824-4.765l1.837-4.019-4.26-.78-.149.333c-.72,1.57-1.266,2.551-2.988,2.278-5.038-1.113-10.047-2.37-14.977-3.74l-5.349-1.548c-2.011-.6-4.048-1.247-6.062-1.907a4.633,4.633,0,0,0-3.778.057Z" transform="translate(243.6 180.326)" fill="#e5481d"/>
    <path id="Path_1168" data-name="Path 1168" d="M111.667,95.792c2.116,2.427,4.191,4.924,6.2,7.465q6.319,3.231,13,5.98c-4.552-5.7-9.4-11.173-14.422-16.309-1.129-1.263-.793-2-.1-3.033.714-1.015,1.221-1.662,2.82-1.12q4.44,1.718,8.981,3.28c2.976,1.025,5.942,1.97,8.943,2.871L116.327,83.141a7.336,7.336,0,0,0-2.306,2.608c-.733,1.282-1.6,2.4-2.37,3.613a5.947,5.947,0,0,0-1.431,3.061,4.682,4.682,0,0,0,1.447,3.369" transform="translate(239.413 180.613)" fill="#e5481d"/>
    <path id="Path_1169" data-name="Path 1169" d="M148.3,101.424c1.079,1.389.495,2.49-.631,4.054l-.232.314c-1.148,1.558-2.04,2.547-3.7,1.964a171.181,171.181,0,0,1-25.357-11.468c-3.039-1.767-4.587-.793-6.789,1.24-.723.619-1.4,1.32-2.157,1.875l3.3,2.744c.929-.815,1.653-1.205,3-.317a152.022,152.022,0,0,0,24.646,13.121c2.29,1.164,4.175.514,6.062-1.326a17.457,17.457,0,0,0,2.237-2.465c1.481-1.992,2.988-3.984,4.321-6.031,2.57-3.762,3.474-6.437,1-8.918l-4.34-4.248c-5.05-1.374-10.1-2.925-15.043-4.616,4.73,4.5,9.317,9.187,13.679,14.076" transform="translate(237.728 189.752)" fill="#e5481d"/>
    <path id="Path_1170" data-name="Path 1170" d="M119.914,109.374q2.336,2.179,4.79,4.276l1.558,1.317c2.719,2.319,5.272,1.056,8.55-1.83,1.18-1.05,2.363-2.1,3.442-3.22l-3.674-2.268-.273.27c-1.317,1.234-2.275,1.938-3.762,1.021-4.191-2.953-8.286-6.148-12.163-9.476q-2.108-1.818-4.143-3.689c-1.545-1.415-3.068-2.893-4.555-4.4-1.272-1.244-2.249-1.758-3.131-1.792Z" transform="translate(231.47 194.611)" fill="#e5481d"/>
    <path id="Path_1171" data-name="Path 1171" d="M104.211,96.86q.728,4.735,1.066,9.6a95.635,95.635,0,0,0,7.2,12.331,117.817,117.817,0,0,0-3.724-21.407c-.381-1.656.146-1.929,1.025-2.433.885-.482,1.526-.628,2.617.615q2.965,3.664,6.231,7.163c2.125,2.281,4.365,4.527,6.643,6.646L111.9,89.585a4.382,4.382,0,0,0-2.589.866c-.968.473-1.907,1.056-2.858,1.418-1.853.812-2.709,1.548-2.246,4.99" transform="translate(226.115 194.611)" fill="#e5481d"/>
    <path id="Path_1172" data-name="Path 1172" d="M131.728,117.978c.219,1.815-1.072,2.465-3.074,3.353l-.406.178c-2.018.866-3.544,1.2-4.673-.155A96.255,96.255,0,0,1,109.2,97.52a5.206,5.206,0,0,0-2.224-2.944,6.856,6.856,0,0,0-3.207-.4l-1.247.051-1.161-.063q.2,2.113.511,4.232c1.072.114,1.853.162,2.268,1.745.609,2.2,1.31,4.422,2.1,6.611q1.18,3.231,2.63,6.434a92.345,92.345,0,0,0,6.824,12.448c1.247,2.306,3.417,2.817,6.456,2.259a16.794,16.794,0,0,0,3.753-.993,79.672,79.672,0,0,0,8-3.321c4.714-2.357,7.125-4.54,6.11-7.953-.552-1.945-1.164-3.886-1.821-5.815a140.487,140.487,0,0,1-11.411-10.888,134.4,134.4,0,0,1,4.946,19.06" transform="translate(220.195 204.55)" fill="#e5481d"/>
    <path id="Path_1173" data-name="Path 1173" d="M99.191,114.421c.025,2.145.136,4.343.336,6.456l.213,2.024a4.279,4.279,0,0,0,2.49,3.626,14.259,14.259,0,0,0,5.853.9c1.71-.089,3.432-.054,5.13-.3q-.795-2.027-1.5-4.057l-.409.022c-1.919.086-3.182.035-3.731-1.624A96.632,96.632,0,0,1,104.86,106.3c-.181-1.818-.289-3.68-.333-5.536q-.081-3.169.076-6.3a9.5,9.5,0,0,0-.3-3.372Z" transform="translate(215.479 197.891)" fill="#e5481d"/>
    <path id="Path_1174" data-name="Path 1174" d="M108.128,92.471a87.3,87.3,0,0,1-7.379,6.2,75.086,75.086,0,0,0-6.475,12.708,77.611,77.611,0,0,0,15.148-15.453c1.009-1.3,1.4-1.183,1.986-.964.549.314.885.517.536,2.132a73.091,73.091,0,0,0-1.64,9.336,79.006,79.006,0,0,0-.435,9.336l5.108-23.326a1.667,1.667,0,0,0-1.082-.99,2.337,2.337,0,0,1-.717-.3,2.766,2.766,0,0,1-.707-.362c-.926-.514-1.77-.641-4.343,1.685" transform="translate(204.797 196.55)" fill="#e5481d"/>
    <path id="Path_1175" data-name="Path 1175" d="M106.564,129.034a2.537,2.537,0,0,1-2.275.593,10.773,10.773,0,0,1-2.827-1.342l-.438-.263c-2.2-1.285-3.4-2.49-2.985-4.219A76.844,76.844,0,0,1,110.1,98.7a5.135,5.135,0,0,0,1.348-3.448,6.913,6.913,0,0,0-1.424-3c-.523-.695-.964-1.535-1.459-2.29q-1.613,1.385-3.191,2.823c.606,1.047.866,1.792-.19,2.969A90.579,90.579,0,0,0,89.715,119.1c-1.237,2.275-.546,4.467,1.83,6.906a18.179,18.179,0,0,0,3.245,2.852,54.948,54.948,0,0,0,8.594,5.276,36.4,36.4,0,0,0,3.953,1.665,15.1,15.1,0,0,0,3.328.615,4.56,4.56,0,0,0,4.46-2.062q1.751-2.584,3.283-5.238a78.389,78.389,0,0,1,.1-15.817,81.719,81.719,0,0,1-5.447,8.207,82.439,82.439,0,0,1-6.5,7.528" transform="translate(193.583 195.419)" fill="#e5481d"/>
    <path id="Path_1176" data-name="Path 1176" d="M96.01,97.677q-2.513,2-4.971,4.111l-1.526,1.336c-2.646,2.316-1.888,4.981.568,8.791.914,1.374,1.9,2.731,2.887,4.08.866-1.158,1.783-2.306,2.693-3.429l-.232-.327c-1.1-1.532-1.735-2.589-.577-3.953a145.892,145.892,0,0,1,11.167-10.621q2.127-1.823,4.3-3.559,2.479-1.984,5.012-3.854a4.854,4.854,0,0,0,2.189-2.947Z" transform="translate(190.847 189.654)" fill="#e5481d"/>
    <path id="Path_1177" data-name="Path 1177" d="M109.866,83.814q-4.82.466-9.682.79-6.205,3.488-12.306,7.366c7.315-.489,14.526-1.234,21.677-2.306,1.685-.184,2.081.527,2.513,1.7s.638,1.894-.742,2.884c-2.658,1.729-5.314,3.55-7.89,5.4q-3.788,2.717-7.477,5.663l21.509-10.374a6.17,6.17,0,0,0-.688-3.128c-.552-1.24-1.031-2.62-1.532-3.975-.926-2.728-1.878-4.26-5.38-4.016" transform="translate(190.903 182.02)" fill="#e5481d"/>
    <path id="Path_1178" data-name="Path 1178" d="M90.749,111.935c-1.761.076-2.284-1.06-2.928-2.849l-.117-.358c-.577-1.783-.853-3.036.59-4.045A262.065,262.065,0,0,1,112.08,90.264c3.141-1.605,3.134-3.61,2.43-6.928l-.622-3.217-3.965,1.643c.235,1.332.2,2.237-1.228,2.957C100.45,88.862,92.3,93.364,84.366,98.312c-2.278,1.209-2.769,2.957-2.408,5.4a15.047,15.047,0,0,0,.7,3.045c.714,2.268,1.462,4.543,2.341,6.846,1.6,4.257,3.252,6.763,6.8,6.164q3.012-.481,5.983-1.05c4.023-3.452,8.1-6.665,12.375-9.736-6.354,1.263-12.915,2.233-19.4,2.95" transform="translate(177.811 174.048)" fill="#e5481d"/>
    <path id="Path_1179" data-name="Path 1179" d="M94.555,81.585l-5.942,2.4-1.872.777c-3.287,1.332-3.356,3.8-2.595,7.668.27,1.4.6,2.8.9,4.207l3.893-1.865-.076-.352c-.371-1.653-.5-2.744,1.066-3.547q7.071-3.145,14.19-6.034l5.19-2.068,5.951-2.294a4.473,4.473,0,0,0,2.887-2.585Z" transform="translate(181.933 169.218)" fill="#e5481d"/>
    <path id="Path_1180" data-name="Path 1180" d="M108.82,74.008l-9.66-1.142c-4.492,1.605-9,3.264-13.464,4.977q10.869,1.389,21.7,2.427c1.681.241,1.922,1.142,2.1,2.56.159,1.428.168,2.348-1.4,2.992l-8.994,3.3-8.781,3.394,23.593-3.689a8.692,8.692,0,0,0,.079-3.985c-.251-1.669-.425-3.385-.644-5.076-.358-3.347-1.031-5.269-4.53-5.755" transform="translate(186.165 158.291)" fill="#e5481d"/>
    <path id="Path_1181" data-name="Path 1181" d="M86.381,95.623c-1.729-.292-1.957-1.389-2.16-3.1l-.035-.343c-.178-1.7-.178-2.877,1.447-3.537,8.61-3.436,17.331-6.643,26.032-9.663,3.4-1.088,3.686-3.182,3.49-6.722l-.187-3.4-4.146,1.107c.057,1.386-.086,2.3-1.621,2.817Q96.024,77.2,82.99,82.166c-2.43.768-3.236,2.275-3.372,4.524a13.988,13.988,0,0,0,.073,2.839c.213,2.132.438,4.27.714,6.421.457,3.965,1.355,6.4,4.857,6.684l6,.514c4.844-2,9.739-3.918,14.625-5.767q-9.769-.714-19.507-1.757" transform="translate(172.861 149.591)" fill="#e5481d"/>
    <path id="Path_1182" data-name="Path 1182" d="M94.192,67.709l-6.2,1.643-1.957.527c-3.4.9-3.816,3.252-3.591,7.052l.241,4.124,4.127-1.209-.022-.349c-.089-1.643-.06-2.709,1.6-3.274,4.955-1.386,9.9-2.725,14.882-4.029l5.422-1.4,6.183-1.564a4.434,4.434,0,0,0,3.182-2.322Z" transform="translate(178.99 145.353)" fill="#e5481d"/>
    <path id="Path_1183" data-name="Path 1183" d="M108.521,63.46q-4.811-1.266-9.625-2.3c-4.549,1.551-9.111,2.763-13.74,4.038q10.678,2.389,21.356,4.581c1.65.425,1.792,1.383,1.821,2.868s-.089,2.443-1.713,2.925l-9.311,2.3-9.124,2.338,23.866-.8a9.319,9.319,0,0,0,.536-4.162l-.1-5.361c-.038-3.521-.495-5.545-3.969-6.424" transform="translate(184.992 132.855)" fill="#e5481d"/>
    <path id="Path_1184" data-name="Path 1184" d="M85.05,83.061c-1.688-.457-1.8-1.535-1.824-3.2l0-.336c-.01-1.662.1-2.795,1.783-3.283,4.457-1.291,8.933-2.49,13.321-3.642q6.614-1.832,13.213-4.216c3.4-1.123,3.851-3.7,3.182-7.9l-.568-4.035L110.159,58.2c.2,1.558.152,2.608-1.332,3.283-4.254,1.922-8.489,3.645-12.82,5.187q-6.6,2.322-13.229,4.07c-2.462.539-3.347,1.551-3.585,3.071a14.909,14.909,0,0,0-.187,2.731l.067,6.224c.048,3.842.619,6.227,4.076,6.9l5.894,1.18q7.6-2.041,15.2-3.965-9.617-1.827-19.193-3.826" transform="translate(171.629 122.632)" fill="#e5481d"/>
    <path id="Path_1185" data-name="Path 1185" d="M92.423,59.393q-2.874,1.442-5.777,2.782l-1.834.834c-3.258,1.44-3.093,3.321-2.779,6.421l.47,3.337,4.064-1.228-.041-.3c-.2-1.424-.235-2.344,1.37-3.023,4.806-1.742,9.682-3.693,14.349-5.8q2.541-1.152,5.069-2.376,2.884-1.4,5.742-2.893a4.54,4.54,0,0,0,2.522-3.582Z" transform="translate(177.865 116.356)" fill="#e5481d"/>
    <path id="Path_1186" data-name="Path 1186" d="M103.307,47.765c-3.182.577-6.472,1.291-9.654,2.046-3.394,3.328-7.049,6.541-10.783,9.558a199.027,199.027,0,0,1,21.718-3.486c1.777-.089,2.249,1.056,2.865,2.852.6,1.8.857,3.02-.542,4.026-2.731,1.726-5.456,3.363-8.258,4.943q-4.168,2.332-8.391,4.448l23.155-5.831a12.157,12.157,0,0,0-.866-5.529c-.749-2.284-1.485-4.575-2.3-6.84-1.837-4.349-3.417-6.732-6.947-6.186" transform="translate(180.026 103.595)" fill="#e5481d"/>
    <path id="Path_1187" data-name="Path 1187" d="M85.128,78.742c-1.735.219-1.951-.549-2.474-1.662l-.1-.225c-.5-1.126-.714-1.932.676-2.953,3.68-2.674,7.379-5.58,10.824-8.575s6.8-6.177,10.053-9.527c2.557-2.493,1.837-5.038-.641-8.556l-2.309-3.417-2.8,3.353c.876,1.323,1.3,2.3.263,3.559-2.969,3.613-6.005,7.017-9.244,10.3Q84.457,66,79.237,70.427c-2.011,1.558-2.3,2.785-1.967,4.267a6.764,6.764,0,0,0,.549,1.818,32.14,32.14,0,0,1,1.593,3.953c.777,2.522,1.862,3.864,5.241,3.572q2.936-.262,5.9-.438c4.727-2.189,9.454-4.6,13.936-7.15q-9.826.695-19.361,2.294" transform="translate(167.602 95.208)" fill="#e5481d"/>
    <path id="Path_1188" data-name="Path 1188" d="M84.354,55.777q-1.922,2.589-3.921,5.088l-1.269,1.57a4.43,4.43,0,0,0-1.317,3.528,4.932,4.932,0,0,0,.6,1.586,13,13,0,0,0,1.044,1.8l1.856,2.75,3.118-2.881-.168-.247c-.8-1.18-1.225-1.983-.082-3.3,3.55-3.689,7.059-7.6,10.256-11.56q1.761-2.165,3.471-4.4,1.951-2.551,3.829-5.187a4.61,4.61,0,0,0,.622-4.394Z" transform="translate(169.032 87.173)" fill="#e5481d"/>
    <path id="Path_1189" data-name="Path 1189" d="M88.41,37.046q-3.9,3.1-7.566,6.37A135.615,135.615,0,0,1,75.968,56.9,173.982,173.982,0,0,1,93.5,43.759c1.5-.844,2.643-.194,3.978,1.209,1.374,1.377,2.173,2.373,1.393,3.918q-2.451,4.192-5.092,8.194c-1.7,2.6-3.544,5.2-5.428,7.734l18.038-15.649c-.466-1.481-1.735-2.909-3.407-4.613a68.167,68.167,0,0,0-5.355-5.127c-3.731-3.134-6.25-4.625-9.219-2.379" transform="translate(165.03 78.136)" fill="#e5481d"/>
    <path id="Path_1190" data-name="Path 1190" d="M81.185,73.175c-1.38.936-2.027.539-2.941-.2l-.184-.152c-.907-.752-1.431-1.358-.666-2.912a132.545,132.545,0,0,0,5.479-12.566Q85.3,50.9,87.149,44.069c1.094-3.531-1.034-5.13-4.9-7.22a32.009,32.009,0,0,0-3.854-1.754l-.682,4.264c1.51.59,2.332,1.326,2.065,2.941a136.142,136.142,0,0,1-3,13.587c-.612,2.2-1.269,4.372-1.989,6.522q-1.113,3.3-2.376,6.491c-1.021,2.316-.806,3.6.155,4.622.336.358.752.752,1.275,1.234,1.006.885,2.072,1.691,3.08,2.585,1.735,1.827,3.172,2.551,6.142.644q2.489-1.575,5.041-3.071c3.29-4.115,6.3-8.274,9.162-12.632A180.028,180.028,0,0,0,81.185,73.175" transform="translate(155.835 76.237)" fill="#e5481d"/>
    <path id="Path_1191" data-name="Path 1191" d="M71.065,54.152c-.2,2.113-.441,4.2-.733,6.3l-.3,2.008c-.555,3.515.907,4.613,3.613,5.729l2.817,1.529,1.329-4.054-.26-.14c-1.225-.653-1.951-1.18-1.618-2.874q1.846-7.366,3-15.04.419-2.789.746-5.606.371-3.222.619-6.481a4.337,4.337,0,0,0-1.85-4.083Z" transform="translate(151.886 68.295)" fill="#e5481d"/>
    <path id="Path_1192" data-name="Path 1192" d="M67.534,33.511q-1.6,4.682-2.9,9.387a131.326,131.326,0,0,1,3.277,14.05c1.028-3.493,2.192-7.017,3.483-10.45q1.927-5.077,4.257-10.1c.831-1.526,2.151-1.434,4.127-1.088,1.992.308,3.21.85,3.369,2.592q.143,4.9-.019,9.733-.157,4.735-.6,9.384l7.369-22.711a17.512,17.512,0,0,0-5.529-2.265l-1.856-.5-1.9-.346-3.8-.66a32.184,32.184,0,0,0-3.36-.416,8.634,8.634,0,0,0-2.668.32,4.657,4.657,0,0,0-3.261,3.068" transform="translate(140.417 65.422)" fill="#e5481d"/>
    <path id="Path_1193" data-name="Path 1193" d="M82.256,64.541c-.663,1.6-1.377,1.577-2.478,1.377l-.222-.041c-1.1-.257-1.837-.371-2.027-2.056a126.777,126.777,0,0,0-2.186-13.527c-.974-4.54-2.252-9.079-3.632-13.464a4.382,4.382,0,0,0-2.63-3.182,10.506,10.506,0,0,0-5.054-.352c-1.351.13-2.7.235-4.051.4.536,1.326,1.053,2.7,1.558,4.057,1.564-.13,2.608-.035,3.21,1.481a183.865,183.865,0,0,1,8.162,26.4c.52,2.424,1.282,3.5,2.6,3.889a5.129,5.129,0,0,0,1.65.279,7.986,7.986,0,0,1,1.859.241l1.85.32a9.908,9.908,0,0,0,1.583.124,2.8,2.8,0,0,0,1.323-.152,4.857,4.857,0,0,0,2.335-2.712Q87.392,64.945,88.8,62.3A150.65,150.65,0,0,0,90.107,46.76q-2.256,4.321-4.21,8.718c-1.31,2.976-2.532,6.024-3.642,9.063" transform="translate(130.29 72.052)" fill="#e5481d"/>
    <path id="Path_1194" data-name="Path 1194" d="M62.023,54.167c.876,1.941,1.7,3.867,2.516,5.866l.752,1.878a4.548,4.548,0,0,0,2.455,2.909,9.464,9.464,0,0,0,3.8.2c1.129-.086,2.233-.247,3.382-.282l-1.053-4.156-.3.029c-1.434.136-2.357.13-2.957-1.5C69.094,54.19,67.4,49.3,65.5,44.549q-1.037-2.608-2.154-5.2-1.275-2.96-2.655-5.9a4.388,4.388,0,0,0-3.528-2.662Z" transform="translate(124.179 66.881)" fill="#e5481d"/>
    <path id="Path_1195" data-name="Path 1195" d="M51,40.958c.581,3.261,1.237,6.424,2.033,9.634a122.442,122.442,0,0,1,9.7,10.665,148.093,148.093,0,0,1-3.195-21.728c-.022-1.77,1.164-2.351,3.058-2.909,1.894-.581,3.172-.828,4.149.593,1.659,2.808,3.229,5.653,4.714,8.515q2.184,4.211,4.108,8.48l-4.857-23.38a16.176,16.176,0,0,0-5.755.685c-2.421.755-4.844,1.4-7.243,2.316-4.708,1.726-7.246,3.547-6.719,7.128" transform="translate(110.633 66.839)" fill="#e5481d"/>
    <path id="Path_1196" data-name="Path 1196" d="M81.927,57.634c.181,1.694-.5,1.973-1.523,2.414l-.213.082c-1.034.422-1.811.527-2.773-.834A122.474,122.474,0,0,0,68.946,48.51a119.079,119.079,0,0,0-9.8-9.853c-2.614-2.513-5.184-1.481-8.8,1.2-1.126.895-2.271,1.777-3.372,2.7,1.186.8,2.4,1.656,3.566,2.506,1.294-1.009,2.262-1.529,3.588-.584A112.8,112.8,0,0,1,74.443,63.125c1.57,1.992,2.668,2.319,4,2.113a4.872,4.872,0,0,0,1.545-.527c1.183-.425,2.3-.958,3.54-1.326a5.2,5.2,0,0,0,2.627-1.478c.615-.692.9-1.764.79-3.509q-.176-2.965-.251-5.958-2.927-7.171-6.567-14.19a160.971,160.971,0,0,0,1.8,19.383" transform="translate(102.051 80.859)" fill="#e5481d"/>
    <path id="Path_1197" data-name="Path 1197" d="M60.424,55.319q2.741,1.656,5.383,3.413l1.656,1.117a4.744,4.744,0,0,0,3.6,1.11,8.421,8.421,0,0,0,3.077-1.748l1.209-.964,1.282-.863q-1.48-1.537-3.014-3.033l-.241.159c-1.12.774-1.808,1.294-3.195.219a139.714,139.714,0,0,0-12.248-9.371q-2.322-1.585-4.72-3.1-2.741-1.723-5.58-3.344a4.485,4.485,0,0,0-4.5-.067Z" transform="translate(93.705 83.158)" fill="#e5481d"/>
    <path id="Path_1198" data-name="Path 1198" d="M40.859,57.9q3.5,3.493,7.125,6.763,7.147,1.409,13.981,3.413A172.235,172.235,0,0,1,46.9,52.113c-1.012-1.4-.362-2.525.806-4.118s2.176-2.484,3.788-1.888c2.973,1.317,5.869,2.7,8.721,4.184q4.23,2.208,8.258,4.638L51.182,38.459a14.563,14.563,0,0,0-4.438,4.016c-1.681,1.945-3.131,3.991-4.609,6.031-2.76,4.038-3.781,6.77-1.275,9.393" transform="translate(85.658 83.547)" fill="#e5481d"/>
    <path id="Path_1199" data-name="Path 1199" d="M76.967,58.672c1.142,1.3.78,1.935.1,2.874l-.127.2c-.631,1-1.167,1.6-2.795,1.018a154.961,154.961,0,0,0-26.734-6.894c-3.534-.7-5.063,1.389-6.662,5.269L39.3,64.883l4.314.482c.577-1.443,1.126-2.322,2.744-2.173A167.533,167.533,0,0,1,73.586,68c2.4.742,3.651.3,4.673-.774a9.849,9.849,0,0,0,1.1-1.472c.723-1.142,1.447-2.278,2.243-3.3a5.386,5.386,0,0,0,1.275-2.681,5.03,5.03,0,0,0-1.45-3.283q-1.851-2.3-3.616-4.7a141.464,141.464,0,0,0-13.467-7.918,158.8,158.8,0,0,0,12.623,14.8" transform="translate(85.378 95.315)" fill="#e5481d"/>
    <path id="Path_1200" data-name="Path 1200" d="M58.648,59.69q3.193.228,6.367.536l2,.2c3.547.412,4.511-1.364,5.694-4.3.4-1.085.85-2.132,1.317-3.163l-4.175-.942-.124.279c-.593,1.32-.964,2.183-2.7,1.973-5.054-.869-10.177-1.58-15.281-2.116l-5.6-.536q-3.2-.271-6.434-.466a4.4,4.4,0,0,0-3.931,1.669Z" transform="translate(77.723 111.129)" fill="#e5481d"/>
    <path id="Path_1201" data-name="Path 1201" d="M37.417,71.316q4.511,1.932,9.048,3.737,7.171-.961,14.288-1.573c-6.706-2.763-13.394-5.761-19.973-9-1.491-.847-1.367-2-.98-3.728s.85-2.823,2.56-2.912c3.226.013,6.427.076,9.641.194q4.735.176,9.428.517L38.556,51.682a12.829,12.829,0,0,0-2.033,4.857c-.59,2.17-1.06,4.327-1.539,6.484-.879,4.219-.834,6.8,2.433,8.293" transform="translate(74.942 112.272)" fill="#e5481d"/>
    <path id="Path_1202" data-name="Path 1202" d="M70.492,63.081c1.548.78,1.447,1.656,1.145,2.992l-.051.276c-.26,1.361-.555,2.256-2.287,2.36-9.152.5-18.368,1.459-27.542,2.823-3.55.428-4.321,2.719-4.7,6.652l-.314,3.778,4.264-.669c.146-1.488.422-2.446,2.014-2.75,9.14-1.742,18.276-3.109,27.428-4.035,2.519-.136,3.594-1.136,4.216-2.8a12.154,12.154,0,0,0,.574-2.141c.3-1.634.622-3.248,1-4.828.682-2.925.7-4.774-2.421-6.326l-5.3-2.731c-5.171-.492-10.418-.838-15.621-1.018,5.809,3.02,11.624,5.8,17.588,8.423" transform="translate(79.83 118.737)" fill="#e5481d"/>
    <path id="Path_1203" data-name="Path 1203" d="M57.512,73.092l6.31-1.1,1.992-.33c3.48-.546,4.048-2.614,4.34-6,.1-1.228.216-2.452.362-3.667l-4.273.4-.035.32c-.162,1.513-.314,2.484-2.033,2.792q-7.657.933-15.272,2.151l-5.545.91L37.038,69.7a4.421,4.421,0,0,0-3.385,2.414Z" transform="translate(73.107 134.676)" fill="#e5481d"/>
    <path id="Path_1204" data-name="Path 1204" d="M37.644,83.9q4.8.909,9.6,1.678,6.829-2.513,13.682-4.66-10.74-1.856-21.5-4.41c-1.646-.482-1.865-1.665-1.83-3.328.016-1.685.152-2.779,1.811-3.242q4.716-1.052,9.428-2Q53.447,67,58.09,66.16l-23.859-.974a11.942,11.942,0,0,0-.8,4.841c-.016,2.113-.1,4.118.013,6.342.143,4.264.714,6.776,4.2,7.534" transform="translate(72.529 141.608)" fill="#e5481d"/>
    <path id="Path_1205" data-name="Path 1205" d="M66.384,72.793c1.659.454,1.792,1.348,1.849,2.735l.013.282c.057,1.393-.032,2.335-1.694,2.814a270.947,270.947,0,0,0-26.3,8.8c-3.334,1.215-3.531,3.667-3.052,7.7a32.772,32.772,0,0,0,.631,3.87l3.943-1.713c-.327-1.507-.146-2.535,1.317-3.214A252.931,252.931,0,0,1,68.871,83.982c2.389-.66,3.249-1.843,3.54-3.607a9.442,9.442,0,0,0,.127-2.214l-.184-5.009c.01-3.271-.374-5.266-3.813-6.069l-5.8-1.428c-5.155.863-10.269,1.821-15.405,2.865,6.323,1.551,12.7,2.976,19.05,4.273" transform="translate(80.386 142.627)" fill="#e5481d"/>
    <path id="Path_1206" data-name="Path 1206" d="M58.043,86.613q2.907-1.389,5.834-2.706l1.849-.822c3.255-1.418,3.268-3.423,2.69-6.624l-.4-3.55L63.94,74.267l.038.314c.168,1.481.187,2.446-1.424,3.147-4.778,1.786-9.495,3.712-14.206,5.786l-5.117,2.313q-2.912,1.356-5.809,2.782a4.568,4.568,0,0,0-2.639,3.407Z" transform="translate(75.561 158.391)" fill="#e5481d"/>
    <path id="Path_1207" data-name="Path 1207" d="M44.177,100.91q4.863-.68,9.647-1.561,5.529-4.782,11.29-9.029A219.513,219.513,0,0,1,43.266,92.9c-1.71.013-2.183-1.094-2.712-2.855s-.736-2.95.695-3.9q4.173-2.427,8.394-4.667c2.757-1.462,5.637-2.887,8.47-4.248l-23.26,5.406a7.8,7.8,0,0,0-.022,2.379,27.233,27.233,0,0,0,.723,2.934l1.989,6.656c1.5,4.321,3.109,6.7,6.633,6.3" transform="translate(75.491 167.774)" fill="#e5481d"/>
    <path id="Path_1208" data-name="Path 1208" d="M62.551,81.771c1.713-.127,2.037.641,2.392,1.888a1.235,1.235,0,0,0,.086.244c.485,1.171.692,2-.733,2.96q-5.686,3.793-11.183,8.083-2.746,2.146-5.434,4.413-2.608,2.232-5.152,4.6c-2.665,2.338-1.938,4.835.1,8.584L44.893,116l2.941-3.176c-.857-1.339-1.266-2.313-.181-3.505A164.916,164.916,0,0,1,68.1,90.676c2.008-1.405,2.506-2.728,2.249-4.292a7.3,7.3,0,0,0-.539-1.884l-.847-2.04-.631-2.189c-.774-2.712-1.789-4.2-5.26-4l-5.913.254q-3.578,1.613-7.131,3.34-3.478,1.7-6.925,3.534,9.836-.433,19.447-1.627" transform="translate(88.631 165.648)" fill="#e5481d"/>
    <path id="Path_1209" data-name="Path 1209" d="M60.07,98.888Q62.1,96.432,64.2,94.072l1.336-1.481c2.411-2.614,1.805-4.429.111-6.954a22.678,22.678,0,0,1-1.631-2.9L60.7,85.469l.14.27c.615,1.3,1.1,2.053-.1,3.3q-5.587,5.2-10.824,10.945-1.9,2.084-3.756,4.238-2.108,2.46-4.156,5.006a4.282,4.282,0,0,0-.78,4.324Z" transform="translate(88.955 179.728)" fill="#e5481d"/>
    <path id="Path_1210" data-name="Path 1210" d="M58.553,115.594q4.016-2.9,7.81-5.983a140.26,140.26,0,0,1,5.491-13.3,157.965,157.965,0,0,1-18.14,12.312c-1.551.78-2.563-.029-3.962-1.412-1.437-1.355-2.065-2.49-1.218-3.991q2.684-4.092,5.558-7.978,2.808-3.807,5.786-7.417L41.035,102.492a16.7,16.7,0,0,0,3.16,4.854,64.155,64.155,0,0,0,5.2,5.406c3.436,3.509,6.183,4.854,9.162,2.842" transform="translate(89.143 190.79)" fill="#e5481d"/>
    <path id="Path_1211" data-name="Path 1211" d="M63.6,90.037c1.466-.923,2.062-.479,2.89.339l.168.165a2.05,2.05,0,0,1,.492,2.931,136.378,136.378,0,0,0-10.881,25.369c-1.145,3.35.812,5.19,4.581,7.455l3.788,1.859.882-4.245c-1.44-.723-2.3-1.361-1.976-2.944a133.057,133.057,0,0,1,8.483-26.261c1.129-2.281,1-3.594.13-4.692a5.5,5.5,0,0,0-1.24-1.206c-.987-.86-1.869-1.856-2.836-2.747A7.452,7.452,0,0,0,65.569,84.3c-.9-.241-1.992-.022-3.512.85Q59.474,86.614,56.817,88q-5.139,5.782-9.825,12.134a161.5,161.5,0,0,0,16.6-10.1" transform="translate(102.084 182.929)" fill="#e5481d"/>
    <path id="Path_1212" data-name="Path 1212" d="M63.182,105.516q.457-3.16,1.028-6.275l.374-1.961c.65-3.347-.7-4.689-3.382-5.926a20.772,20.772,0,0,1-2.766-1.615l-1.51,4.013.251.159c1.148.79,1.941,1.183,1.535,2.868q-2.17,7.314-3.68,14.958-.552,2.774-1.012,5.587c-.346,2.126-.669,4.321-.923,6.434a4.426,4.426,0,0,0,1.637,4.092Z" transform="translate(115.289 194.948)" fill="#e5481d"/>
    <path id="Path_1213" data-name="Path 1213" d="M75.342,119.1q1.9-4.54,3.54-9.121-1.451-7.19-2.189-14.307a165.671,165.671,0,0,1-9.035,20.04c-.91,1.466-2.186,1.288-4.089.812-1.9-.5-3.115-.9-3.163-2.684q.143-4.916.562-9.745.4-4.735,1.075-9.378L53.6,117.046a16.985,16.985,0,0,0,5.276,2.576c2.408.676,4.838,1.263,7.265,1.862a12.859,12.859,0,0,0,5.834.412,4.54,4.54,0,0,0,3.372-2.8" transform="translate(116.428 205.751)" fill="#e5481d"/>
    <path id="Path_1214" data-name="Path 1214" d="M65.871,94.554c.765-1.542,1.507-1.456,2.636-1.155l.228.06c1.142.266,1.929.409,2.008,2.145A143.476,143.476,0,0,0,74.6,122.946a4.391,4.391,0,0,0,2.462,3.375,8.08,8.08,0,0,0,2.246.638,16.958,16.958,0,0,0,3.141.029c1.51-.111,3.039-.1,4.53-.346-.565-1.342-1.1-2.643-1.608-4.029-1.7.086-2.836-.048-3.4-1.583q-1.213-3.293-2.151-6.592-.937-3.393-1.71-6.786-1.542-6.776-2.427-13.517a5.591,5.591,0,0,0-.793-2.706,3.4,3.4,0,0,0-1.624-1.313,6.046,6.046,0,0,0-1.742-.46,23.282,23.282,0,0,1-3.912-.825c-2.427-.485-3.883-.679-5.567,2.4q-1.428,2.6-2.963,5.161-1.4,7.623-2.078,15.519a165.476,165.476,0,0,0,8.873-17.359" transform="translate(123.82 192.368)" fill="#e5481d"/>
    <path id="Path_1215" data-name="Path 1215" d="M75.925,103.1q-1.442-2.855-2.7-5.748l-.777-1.83a5.039,5.039,0,0,0-2.3-2.931,7.728,7.728,0,0,0-3.248-.289l-1.415.079a7.742,7.742,0,0,1-1.52.013l.752,4.241.276-.019c1.288-.082,2.1-.029,2.627,1.627a107.175,107.175,0,0,0,4.949,14.593q1.09,2.6,2.316,5.174,1.4,2.931,2.979,5.828a4.546,4.546,0,0,0,3.991,2.4Z" transform="translate(138.942 200.474)" fill="#e5481d"/>
    <path id="Path_1216" data-name="Path 1216" d="M93.7,112.032c-.9-3.147-1.957-6.275-3.118-9.371a116.706,116.706,0,0,1-10.83-9.511c1.186,3.432,2.249,6.951,3.176,10.526q1.332,5.282,2.24,10.777c.159,1.726-.977,2.5-2.934,3.312-1.989.768-3.35,1.129-4.47-.206-1.919-2.62-3.712-5.266-5.422-8.067q-2.5-4.083-4.613-8.274l5.92,23.133A15.726,15.726,0,0,0,80,123.1l3.864-1.462c1.288-.492,2.459-1.129,3.686-1.7a34.054,34.054,0,0,0,3.128-1.688,10,10,0,0,0,2.065-1.83,4.593,4.593,0,0,0,.964-4.391" transform="translate(147.139 202.356)" fill="#e5481d"/>
    <path id="Path_1217" data-name="Path 1217" d="M71.056,95.649c-.378-1.675.159-2.072,1.088-2.512l.187-.089c.942-.4,1.6-.726,2.722.565a114.014,114.014,0,0,0,9.615,9.825,129.844,129.844,0,0,0,10.815,8.7c2.9,2.23,5.212.895,8.515-1.973l2.957-2.912-3.731-2.221c-1.145,1.1-2.021,1.7-3.426.882a126.963,126.963,0,0,1-22.21-16.42c-1.786-1.824-2.982-1.957-4.235-1.621a4.693,4.693,0,0,0-1.45.638,8.382,8.382,0,0,1-1.513.815l-1.5.749c-1.859.692-2.757,1.577-2.265,4.936q.424,2.907.695,5.875a110.131,110.131,0,0,0,7.243,13.841,121.742,121.742,0,0,0-3.505-19.075" transform="translate(144.443 190.571)" fill="#e5481d"/>
    <path id="Path_1218" data-name="Path 1218" d="M88.628,92.708q-2.846-1.5-5.618-3.087l-1.742-1.006a4.332,4.332,0,0,0-3.689-.726,7.508,7.508,0,0,0-3.087,2.125,32.072,32.072,0,0,1-2.424,2.154l3.321,2.69.225-.19c1.085-.872,1.761-1.482,3.226-.558q6.267,4.392,13,8.331,2.455,1.437,4.908,2.773,2.812,1.532,5.691,2.988a4.543,4.543,0,0,0,4.387-.038Z" transform="translate(156.558 190.571)" fill="#e5481d"/>
    <path id="Path_1219" data-name="Path 1219" d="M104.535,95.468Q101.052,92,97.477,88.7q-7.095-1.608-13.952-3.645c5.314,5.035,10.38,10.285,15.2,15.811,1.06,1.364.489,2.433-.549,3.956-1.107,1.5-1.98,2.379-3.607,1.811q-4.478-1.861-8.829-3.9c-2.823-1.32-5.663-2.731-8.448-4.207l18.2,15.456a13.265,13.265,0,0,0,3.953-3.886c.717-.939,1.459-1.869,2.141-2.82l1.964-2.88c2.624-3.747,3.41-6.335.99-8.921" transform="translate(167.898 184.76)" fill="#e5481d"/>
    <path id="Path_1220" data-name="Path 1220" d="M78.788,91.608c-1.155-1.3-.774-2.037-.041-3.1l.143-.216c.749-1.047,1.288-1.757,2.919-1.215a213.586,213.586,0,0,0,26.689,7.23c3.452.8,5.111-1.117,6.754-4.835.533-1.186,1.1-2.363,1.608-3.563l-4.267-.726c-.65,1.38-1.24,2.211-2.855,1.976A222.645,222.645,0,0,1,82.649,81.5c-2.4-.774-3.683-.26-4.825.939A8.009,8.009,0,0,0,76.6,84.1c-.774,1.351-1.694,2.519-2.513,3.8-1.615,2.249-2.29,3.775.025,6.468,1.294,1.5,2.551,3.007,3.794,4.549,4.552,2.6,9.149,4.943,13.889,7.163-4.165-5.063-8.451-9.831-13-14.475" transform="translate(157.74 176.26)" fill="#e5481d"/>
    <path id="Path_1221" data-name="Path 1221" d="M93.9,80.052l-6.361-.942-2-.324c-3.521-.615-4.575,1.152-5.964,4.118L78.1,86.14l4.127,1.072.133-.289c.619-1.351,1.1-2.179,2.82-1.9q7.552,1.67,15.145,2.922l5.542.876,6.373.879a4.537,4.537,0,0,0,4.051-1.342Z" transform="translate(169.659 170.888)" fill="#e5481d"/>
  </g>
</svg>
