<svg id="Group_329" data-name="Group 329" xmlns="http://www.w3.org/2000/svg" xmlns:xlink="http://www.w3.org/1999/xlink" width="56.752" height="79.386" viewBox="0 0 56.752 79.386">
  <defs>
    <clipPath id="clip-path">
      <rect id="Rectangle_120" data-name="Rectangle 120" width="56.752" height="79.386" fill="none"/>
    </clipPath>
  </defs>
  <g id="Group_328" data-name="Group 328" clip-path="url(#clip-path)">
    <path id="Path_1084" data-name="Path 1084" d="M53.724.089V6.863h-2.5V0H5.509V6.863H3.028V.089H0v79.3H3.028V53.071H5.509v6.162h45.71V53.071h2.5V79.386h3.028V.089ZM5.509,50.043H3.028V31.481H5.509Zm0-21.59H3.028V9.891H5.509Zm42.571,27.6H34.367c1.111-.515,1.286-1.518,1.286-2.985V51.129l-2.3.445v.166c0,.78-.05,1.283-.971,1.511l-8.265,1.6-3,.58-3.221.624H8.647V3.179h6.947a8.676,8.676,0,0,0-.058,1.1V7.016c0,1.785.256,2.838,2.151,3.249l5.226,1.011,7.6-1.836-11.7-2.333c-.9-.224-.97-.71-.973-1.46s.073-1.236.973-1.459l5.053-1.008h6.888L27.46,3.84,37.94,5.866c.922.229.973.732.973,1.511v.157c0,.78-.066,1.31-.988,1.537L23.234,12.6c-1.894.411-2.151,1.464-2.151,3.249v1.715l2.3-.452c.01-.69.115-1.141.971-1.353L39.05,12.141A2.19,2.19,0,0,0,41.1,10.219a5.847,5.847,0,0,0,.112-1.277V6.049c0-1.365-.153-2.328-1.069-2.87h7.935Zm5.644-6.01H51.219V31.481h2.505Zm0-21.59H51.219V9.891h2.505Z" fill="#002732"/>
    <path id="Path_1085" data-name="Path 1085" d="M29.133,39.242l5.226,1.011,7.6-1.836-11.7-2.334c-.9-.223-.97-.709-.973-1.459s.072-1.237.973-1.46L35.4,32.14l5.037-1.005,3.431-.685,1.083-.216c1.893-.366,2.15-1.467,2.15-3.252V25.044l-2.3.445v.166c0,.78-.05,1.284-.972,1.511l-8.264,1.6-3,.579-3.424.663a2.427,2.427,0,0,0-1.794,1.129,4.467,4.467,0,0,0-.358,2.121v2.737c0,1.786.257,2.838,2.151,3.249" transform="translate(-11.446 -10.623)" fill="#002732"/>
    <path id="Path_1086" data-name="Path 1086" d="M54.6,36.263l-3.213-.641-8.394,1.683,10.48,2.027c.922.229.973.732.973,1.511V41c0,.78-.066,1.31-.988,1.537l-14.69,3.525c-1.894.411-2.151,1.464-2.151,3.25v1.715l2.3-.452c.01-.69.115-1.141.971-1.354l14.691-3.616a2.192,2.192,0,0,0,2.054-1.921,5.886,5.886,0,0,0,.112-1.277V39.515c0-1.786-.257-2.886-2.149-3.252" transform="translate(-15.532 -15.111)" fill="#002732"/>
    <path id="Path_1087" data-name="Path 1087" d="M41.956,70.294l-11.7-2.333c-.9-.224-.971-.71-.973-1.46s.072-1.236.973-1.459l5.14-1.026,5.037-1.005,3.431-.685,1.083-.216c1.893-.366,2.15-1.466,2.15-3.252V56.92l-2.3.445v.166c0,.781-.05,1.284-.971,1.511l-8.264,1.6-3,.58-3.424.663a2.428,2.428,0,0,0-1.794,1.128,4.478,4.478,0,0,0-.357,2.121V67.87c0,1.786.257,2.838,2.151,3.249l5.226,1.011Z" transform="translate(-11.446 -24.145)" fill="#002732"/>
    <path id="Path_1088" data-name="Path 1088" d="M54.6,68.139,51.386,67.5l-8.394,1.683,10.48,2.027c.922.229.973.732.973,1.512v.157c0,.78-.066,1.31-.988,1.537l-14.69,3.525c-1.894.411-2.151,1.464-2.151,3.25V82.9l2.3-.452c.01-.69.115-1.141.971-1.354l14.691-3.616a2.192,2.192,0,0,0,2.054-1.921,5.886,5.886,0,0,0,.112-1.277V71.391c0-1.786-.257-2.886-2.149-3.252" transform="translate(-15.532 -28.632)" fill="#002732"/>
  </g>
</svg>
