<svg id="Group_331" data-name="Group 331" xmlns="http://www.w3.org/2000/svg" xmlns:xlink="http://www.w3.org/1999/xlink" width="63.125" height="70.76" viewBox="0 0 63.125 70.76">
  <defs>
    <clipPath id="clip-path">
      <rect id="Rectangle_121" data-name="Rectangle 121" width="63.125" height="70.76" fill="none"/>
    </clipPath>
  </defs>
  <g id="Group_330" data-name="Group 330" clip-path="url(#clip-path)">
    <path id="Path_1089" data-name="Path 1089" d="M56.762,0H6.363A6.382,6.382,0,0,0,0,6.364v48.1a8.664,8.664,0,0,0,3.678,7.067V68.36a2.407,2.407,0,0,0,2.4,2.4h5.949a2.407,2.407,0,0,0,2.4-2.4V63.126H48.7V68.36a2.407,2.407,0,0,0,2.4,2.4h5.949a2.407,2.407,0,0,0,2.4-2.4V61.527a8.664,8.664,0,0,0,3.678-7.067V6.364A6.382,6.382,0,0,0,56.762,0M20.221,2.045H42.9a3.924,3.924,0,0,1,0,7.848H20.221a3.924,3.924,0,1,1,0-7.848M14.953,49.826c-.092.377-.326.428-.724.428h-.61a1.1,1.1,0,0,1-.473-.071.483.483,0,0,1-.251-.356l-.148-.68-.018-.084a3.958,3.958,0,0,1-1.844,2.107,3.924,3.924,0,1,1-3.663,0A3.934,3.934,0,0,1,5.128,47.7h0a3.921,3.921,0,0,1,7.6-1.355.475.475,0,0,1,.215.336l.048.215.153.682.224,1L13.6,49.6c.05.179.158.193.325.193s.275-.014.326-.193l.52-2.324.409,1.509Zm1.245-.674c-.4,0-.633-.051-.724-.428l-.786-2.919c-.051-.183-.169-.2-.343-.2h-.035c-.174,0-.286.01-.337.193l-.452,2.082-.375-1.667.143-.638c.081-.376.327-.427.725-.427h.645a1.463,1.463,0,0,1,.285.022.463.463,0,0,1,.428.408l.806,2.919c.047.171.148.191.3.193l.1.458Zm2.848.674c-.092.377-.326.428-.724.428h-.611a1.1,1.1,0,0,1-.473-.071.483.483,0,0,1-.251-.356l-.148-.68-.129-.6-.356-1.642c-.051-.183-.163-.193-.337-.193h-.037l-.1-.458h.432c.4,0,.644.051.725.427l.048.215.153.682.224,1,.229,1.021c.05.179.158.193.326.193s.275-.014.325-.193l.52-2.324.41,1.509Zm1.245-.674c-.4,0-.633-.051-.725-.428l-.786-2.919c-.051-.183-.169-.2-.343-.2H18.4c-.174,0-.286.01-.337.193l-.452,2.082-.375-1.667.143-.638c.081-.376.327-.427.725-.427h.645a1.459,1.459,0,0,1,.284.022.462.462,0,0,1,.428.408L20.27,48.5c.048.171.148.191.3.193l.1.458Zm2.847.674c-.092.377-.326.428-.724.428H21.8a1.1,1.1,0,0,1-.473-.071.484.484,0,0,1-.252-.356l-.147-.68-.129-.6-.356-1.642c-.051-.183-.163-.193-.337-.193h-.037l-.1-.458H20.4c.4,0,.644.051.725.427l.048.215.153.682.224,1,.229,1.021c.05.179.158.193.325.193s.275-.014.326-.193l.52-2.324.409,1.509Zm1.245-.674c-.4,0-.633-.051-.724-.428l-.786-2.919c-.051-.183-.169-.2-.343-.2h-.035c-.174,0-.286.01-.337.193l-.452,2.082-.375-1.667.143-.638c.081-.376.327-.427.725-.427h.645a1.466,1.466,0,0,1,.285.022.463.463,0,0,1,.428.408l.806,2.919c.047.171.148.191.3.193l.1.458Zm2.848.674c-.092.377-.326.428-.724.428H25.9a1.1,1.1,0,0,1-.473-.071.483.483,0,0,1-.251-.356l-.148-.68-.129-.6-.356-1.642c-.051-.183-.163-.193-.337-.193h-.037l-.1-.458H24.5c.4,0,.644.051.725.427l.048.215.153.682.224,1,.229,1.021c.05.179.158.193.326.193s.275-.014.325-.193l.52-2.324.41,1.509Zm1.245-.674c-.4,0-.633-.051-.725-.428l-.786-2.919c-.051-.183-.169-.2-.343-.2h-.035c-.174,0-.286.01-.337.193L25.8,47.884l-.375-1.667.143-.638c.081-.376.327-.427.725-.427h.645a1.459,1.459,0,0,1,.284.022.462.462,0,0,1,.428.408l.806,2.919c.048.171.148.191.3.193l.1.458Zm1.04,1.031a.484.484,0,0,1-.252-.356l-.147-.68-.129-.6-.356-1.642c-.051-.183-.163-.193-.337-.193h-.037l-.1-.458h.432c.4,0,.644.051.725.427l.048.215.153.682.224,1,.229,1.021c.049.179.158.193.325.193s.275-.014.326-.193l.52-2.324.409,1.509-.225,1.038c-.092.377-.326.428-.724.428h-.61a1.1,1.1,0,0,1-.473-.071m2.046,4.451A1.237,1.237,0,1,1,32.8,53.4a1.241,1.241,0,0,1-1.237,1.237m1.006-5.482c-.4,0-.633-.051-.724-.428l-.786-2.919c-.051-.183-.169-.2-.343-.2H30.68c-.174,0-.286.01-.337.193l-.452,2.082-.375-1.667.143-.638c.081-.376.327-.427.725-.427h.645a1.46,1.46,0,0,1,.285.022.463.463,0,0,1,.428.408l.806,2.919c.047.171.148.191.3.193l.1.458Zm2.848.674c-.092.377-.326.428-.724.428h-.611a1.1,1.1,0,0,1-.473-.071.483.483,0,0,1-.251-.356l-.148-.68-.129-.6-.356-1.642c-.051-.183-.163-.193-.337-.193H32.35l-.1-.458h.432c.4,0,.644.051.725.427l.048.215.153.682.224,1,.229,1.021c.05.179.158.193.326.193s.275-.014.325-.193l.521-2.324.409,1.509Zm1.245-.674c-.4,0-.633-.051-.725-.428l-.786-2.919c-.051-.183-.169-.2-.343-.2h-.035c-.174,0-.286.01-.337.193l-.452,2.082-.375-1.667.143-.638c.081-.376.327-.427.725-.427h.645a1.459,1.459,0,0,1,.284.022.463.463,0,0,1,.429.408l.806,2.919c.048.171.148.191.3.193l.1.458Zm2.847.674c-.092.377-.326.428-.724.428h-.61a1.1,1.1,0,0,1-.473-.071.483.483,0,0,1-.251-.356l-.148-.68-.129-.6-.356-1.642c-.051-.183-.163-.193-.337-.193h-.037l-.1-.458h.432c.4,0,.644.051.725.427l.048.215.153.682.224,1,.229,1.021c.05.179.158.193.325.193s.275-.014.326-.193l.52-2.324.409,1.509Zm1.245-.674c-.4,0-.633-.051-.724-.428l-.786-2.919c-.051-.183-.169-.2-.343-.2h-.035c-.174,0-.286.01-.337.193l-.452,2.082L37.7,46.217l.143-.638c.081-.376.327-.427.725-.427h.645a1.463,1.463,0,0,1,.285.022.463.463,0,0,1,.428.408l.806,2.919c.047.171.148.191.3.193l.1.458Zm2.848.674c-.092.377-.326.428-.724.428h-.611a1.1,1.1,0,0,1-.473-.071.483.483,0,0,1-.251-.356l-.148-.68-.129-.6-.356-1.642c-.051-.183-.163-.193-.337-.193h-.037l-.1-.458h.432c.4,0,.644.051.725.427l.048.215.153.682.224,1,.229,1.021c.05.179.158.193.326.193s.275-.014.325-.193l.521-2.324.409,1.509Zm1.245-.674c-.4,0-.633-.051-.725-.428l-.786-2.919c-.051-.183-.169-.2-.343-.2h-.035c-.174,0-.286.01-.337.193l-.452,2.082-.375-1.667.143-.638c.081-.376.327-.427.725-.427h.645a1.466,1.466,0,0,1,.285.022.463.463,0,0,1,.428.408l.806,2.919c.048.171.148.191.3.193l.1.458Zm2.847.674c-.092.377-.326.428-.724.428H46.36a1.1,1.1,0,0,1-.473-.071.483.483,0,0,1-.251-.356l-.148-.68-.129-.6L45,46.908c-.051-.183-.163-.193-.337-.193h-.037l-.1-.458h.432c.4,0,.644.051.725.427l.048.215.153.682.224,1L46.34,49.6c.05.179.158.193.325.193s.275-.014.326-.193l.52-2.324.409,1.509Zm1.245-.674c-.4,0-.633-.051-.724-.428l-.786-2.919c-.051-.183-.169-.2-.343-.2h-.035c-.174,0-.286.01-.337.193l-.452,2.082-.375-1.667.143-.638c.081-.376.327-.427.725-.427H47.4a1.46,1.46,0,0,1,.285.022.463.463,0,0,1,.428.408l.806,2.919c.047.171.148.191.3.193l.1.458ZM58,47.7A3.934,3.934,0,0,1,55.9,51.168a3.924,3.924,0,1,1-3.663,0,3.969,3.969,0,0,1-1.141-.916h-.647a1.1,1.1,0,0,1-.473-.071.483.483,0,0,1-.251-.356l-.148-.68-.129-.6-.356-1.642c-.051-.183-.163-.193-.337-.193h-.037l-.1-.458h.432c.4,0,.644.051.725.427l.048.215.153.682.224,1,.228,1.021c.05.179.158.193.326.193h0a3.89,3.89,0,0,1-.613-2.093h0a3.9,3.9,0,0,1,.043-.546l-.212-.939.143-.638c.081-.376.327-.427.725-.427H51.1A3.917,3.917,0,0,1,58,47.7Zm0-10.134a3.211,3.211,0,0,1-3.2,3.2H31.774l.021-.029-15-10.526L14.112,19.709l-1.054.269,4.591,18.008,1.054-.269-1.5-5.883,12.738,8.937H8.331a3.211,3.211,0,0,1-3.2-3.2V14.734a3.211,3.211,0,0,1,3.2-3.2H54.794a3.211,3.211,0,0,1,3.2,3.2Z" transform="translate(0 -0.001)" fill="#002732"/>
  </g>
</svg>
