<svg id="Group_367" data-name="Group 367" xmlns="http://www.w3.org/2000/svg" xmlns:xlink="http://www.w3.org/1999/xlink" width="802.303" height="630.699" viewBox="0 0 802.303 630.699">
  <defs>
    <clipPath id="clip-path">
      <rect id="Rectangle_167" data-name="Rectangle 167" width="802.303" height="630.699" fill="none"/>
    </clipPath>
  </defs>
  <rect id="Rectangle_162" data-name="Rectangle 162" width="22.231" height="64.601" transform="translate(97.343 1.424)" fill="#161615"/>
  <path id="Path_1439" data-name="Path 1439" d="M193.207,66.025h-17.48l-.1-.286-22.7-25.364v25.65H130.7V1.424h17.575L170.977,27.36V1.424h22.23Z" fill="#161615"/>
  <path id="Path_1440" data-name="Path 1440" d="M226.543,27.739h24.035V45.79H226.543V66.025H204.312V1.424h51.016V19.949H226.543Z" fill="#161615"/>
  <g id="Group_366" data-name="Group 366">
    <g id="Group_365" data-name="Group 365" clip-path="url(#clip-path)">
      <path id="Path_1441" data-name="Path 1441" d="M294.485,0A39.577,39.577,0,0,1,309.02,2.565a32.853,32.853,0,0,1,11.163,7.077,31.937,31.937,0,0,1,7.172,10.688,34.575,34.575,0,0,1,2.566,13.395,34.571,34.571,0,0,1-2.566,13.4,31.9,31.9,0,0,1-7.172,10.687,32.823,32.823,0,0,1-11.163,7.077,42.462,42.462,0,0,1-29.069,0,32.8,32.8,0,0,1-11.163-7.077,31.872,31.872,0,0,1-7.172-10.687,34.571,34.571,0,0,1-2.566-13.4,34.575,34.575,0,0,1,2.566-13.395,31.906,31.906,0,0,1,7.172-10.688,32.834,32.834,0,0,1,11.163-7.077A39.572,39.572,0,0,1,294.485,0m0,46.645a12.833,12.833,0,0,0,5.226-1.045,12.481,12.481,0,0,0,6.7-6.983,13.719,13.719,0,0,0,0-9.785,12.475,12.475,0,0,0-6.7-6.982,13.575,13.575,0,0,0-10.451,0,12.475,12.475,0,0,0-6.7,6.982,13.72,13.72,0,0,0,0,9.785,12.481,12.481,0,0,0,6.7,6.983,12.825,12.825,0,0,0,5.225,1.045" fill="#161615"/>
      <path id="Path_1442" data-name="Path 1442" d="M369.933,50.824h-9.4v15.2H338.3V1.424h30.21q14.345,0,22.04,6.223t7.7,17.907a25.527,25.527,0,0,1-1.995,10.165,21.9,21.9,0,0,1-5.986,8.076l12.54,22.23h-24.8Zm-1.425-19.38a7.7,7.7,0,0,0,5.178-1.662,5.519,5.519,0,0,0,1.947-4.418,4.821,4.821,0,0,0-1.947-3.989,8.192,8.192,0,0,0-5.178-1.52h-7.979V31.444Z" fill="#161615"/>
      <path id="Path_1443" data-name="Path 1443" d="M483.818,66.025h-22.23V40.469l-9.5,13.87v.286H440.879v-.286l-9.5-13.87V66.025H409.148V1.424h17.575l19.76,25.841,19.76-25.841h17.575Z" fill="#161615"/>
      <path id="Path_1444" data-name="Path 1444" d="M515.4,58.614l-2.564,7.411H489.175L515.4,1.045h22.04l26.221,64.98H540l-2.566-7.411ZM526.416,26.5l-5.13,14.819h10.165Z" fill="#161615"/>
      <path id="Path_1445" data-name="Path 1445" d="M598.529,20.424v45.6H576.3v-45.6h-17.86v-19h57.95v19Z" fill="#161615"/>
      <rect id="Rectangle_163" data-name="Rectangle 163" width="22.23" height="64.601" transform="translate(622.327 1.424)" fill="#161615"/>
      <path id="Path_1446" data-name="Path 1446" d="M677.911,55.67V66.025H655.68V1.424h22.231v22.8L697.2,1.424h26.029l-23.37,28.025,24.32,36.576h-26.03L684.751,47.5Z" fill="#161615"/>
      <path id="Path_1447" data-name="Path 1447" d="M754.043,58.614l-2.565,7.411H727.823l26.22-64.98h22.04l26.22,64.98H778.648l-2.565-7.411ZM765.063,26.5l-5.13,14.819H770.1Z" fill="#161615"/>
      <path id="Path_1448" data-name="Path 1448" d="M145.319,138.25a15.288,15.288,0,0,1,4.8,2.089,14.754,14.754,0,0,1,3.61,3.373,15.637,15.637,0,0,1,2.28,4.228,13.856,13.856,0,0,1,.807,4.654,18.194,18.194,0,0,1-1.519,7.553,16.1,16.1,0,0,1-4.418,5.795,20.51,20.51,0,0,1-7.22,3.752,33.753,33.753,0,0,1-9.928,1.331H97.343v-64.6h33.536a33.719,33.719,0,0,1,9.69,1.283,22.585,22.585,0,0,1,7.268,3.563,15.24,15.24,0,0,1,4.559,5.509,16.1,16.1,0,0,1,1.567,7.125,17.987,17.987,0,0,1-.522,4.181,16.877,16.877,0,0,1-1.615,4.18,14.973,14.973,0,0,1-2.707,3.562,11.342,11.342,0,0,1-3.8,2.423m-25.745-6.556h6.84a6.816,6.816,0,0,0,4.322-1.234,3.917,3.917,0,0,0,1.567-3.23,3.471,3.471,0,0,0-1.567-3.23,8.337,8.337,0,0,0-4.322-.951h-6.84Zm8.93,22.326a9.1,9.1,0,0,0,5.083-1.093,3.929,3.929,0,0,0,1.567-3.467,3.512,3.512,0,0,0-1.426-3.088q-1.423-1-5.224-1h-8.93v8.645Z" fill="#161615"/>
      <path id="Path_1449" data-name="Path 1449" d="M184.506,163.614l-2.564,7.411H158.287l26.219-64.98h22.04l26.221,64.98H209.112l-2.566-7.411Zm11.021-32.109-5.13,14.819h10.165Z" fill="#161615"/>
      <path id="Path_1450" data-name="Path 1450" d="M277.169,171.4h-24.89l-25.745-64.98h24.6l13.585,35.625,13.585-35.625h24.605Z" fill="#161615"/>
      <path id="Path_1451" data-name="Path 1451" d="M330.017,171.025h-22.23v-64.6h22.23Zm.19-70.3H309.592l8.835-17.1h21.28Z" fill="#161615"/>
      <path id="Path_1452" data-name="Path 1452" d="M129.887,261.025H94.664v-6.216L110.4,234.145H95.784v-11.2h33.6v6.217L114.32,249.824h15.567Z" fill="#008fa0"/>
      <path id="Path_1453" data-name="Path 1453" d="M148.177,256.656l-1.511,4.369H132.721l15.456-38.3H161.17l15.456,38.3H162.681l-1.511-4.369Zm6.5-18.927-3.024,8.735h5.992Z" fill="#008fa0"/>
      <path id="Path_1454" data-name="Path 1454" d="M196.667,222.944q8.736,0,13.412,3.893t4.675,11.228q0,7.336-4.675,11.228t-13.412,3.892h-3.584v7.84h-13.1V222.944Zm0,19.376a5.151,5.151,0,0,0,3.528-1.091,4.679,4.679,0,0,0,0-6.328,5.152,5.152,0,0,0-3.528-1.092h-3.584v8.511Z" fill="#008fa0"/>
      <path id="Path_1455" data-name="Path 1455" d="M238.806,222.1a23.359,23.359,0,0,1,8.569,1.511,19.377,19.377,0,0,1,6.579,4.173,18.814,18.814,0,0,1,4.228,6.3,21.373,21.373,0,0,1,0,15.792,18.8,18.8,0,0,1-4.228,6.3,19.361,19.361,0,0,1-6.579,4.173,25.05,25.05,0,0,1-17.137,0,19.346,19.346,0,0,1-6.58-4.173,18.785,18.785,0,0,1-4.228-6.3,21.387,21.387,0,0,1,0-15.792,18.8,18.8,0,0,1,4.228-6.3,19.362,19.362,0,0,1,6.58-4.173,23.354,23.354,0,0,1,8.568-1.511m0,27.5a7.557,7.557,0,0,0,3.08-.616,7.365,7.365,0,0,0,3.949-4.116,8.1,8.1,0,0,0,0-5.768,7.357,7.357,0,0,0-3.949-4.116,8.008,8.008,0,0,0-6.16,0,7.36,7.36,0,0,0-3.948,4.116,8.083,8.083,0,0,0,0,5.768,7.368,7.368,0,0,0,3.948,4.116,7.557,7.557,0,0,0,3.08.616" fill="#008fa0"/>
      <path id="Path_1456" data-name="Path 1456" d="M297.661,243.944q0,8.682-4.368,13.3t-12.712,4.619q-8.008,0-12.432-4.2t-4.7-12.04h12.767a6.63,6.63,0,0,0,1.261,3.3,3.527,3.527,0,0,0,2.94,1.233,3.248,3.248,0,0,0,3.024-1.485,8.1,8.1,0,0,0,.9-4.171V222.944h13.328Z" fill="#008fa0"/>
      <path id="Path_1457" data-name="Path 1457" d="M355.957,261.025H342.852V248.256H331.484v12.769h-13.1V222.944h13.1v14h11.368v-14h13.105Z" fill="#008fa0"/>
      <path id="Path_1458" data-name="Path 1458" d="M393.028,261.025H362.676V222.944h13.1v26.88h17.248Z" fill="#008fa0"/>
      <path id="Path_1459" data-name="Path 1459" d="M411.154,256.656l-1.512,4.369H395.7l15.456-38.3h12.992l15.456,38.3H425.658l-1.512-4.369Zm6.5-18.927-3.024,8.735h5.992Z" fill="#008fa0"/>
      <path id="Path_1460" data-name="Path 1460" d="M466.068,261.249H451.4l-15.176-38.3h14.5l8.008,21,8.008-21h14.5Z" fill="#008fa0"/>
      <path id="Path_1461" data-name="Path 1461" d="M522.129,241.985q0,9.856-4.956,14.868t-14.084,5.011q-9.184,0-14.111-5.011t-4.929-14.868V222.944h13.329v19.6a8.092,8.092,0,0,0,1.484,5.235,5.819,5.819,0,0,0,8.456,0,8.1,8.1,0,0,0,1.483-5.235v-19.6h13.328Z" fill="#008fa0"/>
      <path id="Path_1462" data-name="Path 1462" d="M528.967,248.145l-1.12-25.2h13.1l-1.12,25.2Zm5.432,13.719a5.876,5.876,0,0,1-4.116-1.567,5.162,5.162,0,0,1-1.708-3.977,5.317,5.317,0,0,1,.448-2.184,5.071,5.071,0,0,1,1.26-1.735,6.169,6.169,0,0,1,1.876-1.148,6.183,6.183,0,0,1,4.48,0,5.836,5.836,0,0,1,1.848,1.148,5.625,5.625,0,0,1,1.26,1.735,5.061,5.061,0,0,1,.476,2.184,5.234,5.234,0,0,1-.476,2.212,5.528,5.528,0,0,1-1.26,1.765,5.833,5.833,0,0,1-1.848,1.147,6.028,6.028,0,0,1-2.24.42" fill="#008fa0"/>
      <rect id="Rectangle_164" data-name="Rectangle 164" width="554.214" height="100.151" transform="translate(0 530.548)" fill="#161615"/>
      <path id="Path_1463" data-name="Path 1463" d="M119.844,587.483h-6.281l-3.334-10.769L106.9,587.483h-6.282l-7.136-20.726h7.264l3.205,11.067,3.547-11.067h5.47l3.5,11.025,3.248-11.025h7.222Z" fill="#fff"/>
      <path id="Path_1464" data-name="Path 1464" d="M154.458,587.483h-6.281l-3.334-10.769-3.333,10.769h-6.281l-7.138-20.726h7.266l3.2,11.067,3.547-11.067h5.471l3.5,11.025,3.248-11.025h7.222Z" fill="#fff"/>
      <path id="Path_1465" data-name="Path 1465" d="M189.072,587.483h-6.281l-3.333-10.769-3.334,10.769h-6.281l-7.137-20.726h7.265l3.2,11.067,3.548-11.067h5.469l3.5,11.025,3.248-11.025h7.222Z" fill="#fff"/>
      <path id="Path_1466" data-name="Path 1466" d="M198.516,588.251a3.817,3.817,0,0,1-2.713-1.068,3.536,3.536,0,0,1-1.132-2.693,3.5,3.5,0,0,1,1.132-2.649,3.825,3.825,0,0,1,2.713-1.068,3.955,3.955,0,0,1,2.779,1.068,3.475,3.475,0,0,1,1.153,2.649,3.512,3.512,0,0,1-1.153,2.693,3.946,3.946,0,0,1-2.779,1.068" fill="#fff"/>
      <path id="Path_1467" data-name="Path 1467" d="M209.5,563.509a4.037,4.037,0,0,1-2.883-1.111,3.66,3.66,0,0,1-1.176-2.779,3.712,3.712,0,0,1,1.176-2.819,4.273,4.273,0,0,1,5.746,0,3.684,3.684,0,0,1,1.2,2.819,3.633,3.633,0,0,1-1.2,2.779,4.063,4.063,0,0,1-2.863,1.111m3.5,23.974h-6.922V566.757H213Z" fill="#fff"/>
      <path id="Path_1468" data-name="Path 1468" d="M243.643,566.114a8.763,8.763,0,0,1,3.419.664,7.835,7.835,0,0,1,2.734,1.9,8.739,8.739,0,0,1,1.795,2.993,11.517,11.517,0,0,1,.642,3.973v11.838H245.31V576.756a4.673,4.673,0,0,0-1.005-3.291,3.549,3.549,0,0,0-2.713-1.067,3.631,3.631,0,0,0-1.6.384,4.823,4.823,0,0,0-1.558,1.324c.027.257.049.513.062.77s.023.513.023.769v11.838h-6.923V576.756a4.668,4.668,0,0,0-1.006-3.291,3.544,3.544,0,0,0-2.712-1.067,3.391,3.391,0,0,0-1.56.406,4.532,4.532,0,0,0-1.516,1.389v13.29h-6.966V566.756H224.8v1.2a7.689,7.689,0,0,1,2.2-1.367,7.841,7.841,0,0,1,2.885-.471,8.063,8.063,0,0,1,6.411,2.822,10.6,10.6,0,0,1,3.334-2.158,11.072,11.072,0,0,1,4.016-.664" fill="#fff"/>
      <path id="Path_1469" data-name="Path 1469" d="M267.232,597.054h-7.308l3.932-9.316-9.829-20.982h7.308l5.983,12.778,5.384-12.778h7.265Z" fill="#fff"/>
      <path id="Path_1470" data-name="Path 1470" d="M286.8,580.389a2.641,2.641,0,0,0,1.259,1.988,6.216,6.216,0,0,0,4.853.234,1.185,1.185,0,0,0,.81-1.069,1.12,1.12,0,0,0-.493-.9,3.372,3.372,0,0,0-1.515-.555l-4.188-.728a8.706,8.706,0,0,1-4.4-1.985,5.387,5.387,0,0,1-1.709-4.252,6.068,6.068,0,0,1,.683-2.907,6.471,6.471,0,0,1,1.9-2.181,8.855,8.855,0,0,1,2.928-1.365,14.08,14.08,0,0,1,3.76-.471,15.478,15.478,0,0,1,3.333.364,9.773,9.773,0,0,1,3.035,1.2,7.357,7.357,0,0,1,2.285,2.2,6.78,6.78,0,0,1,1.048,3.419h-6.2a2.059,2.059,0,0,0-1.068-1.752,4.915,4.915,0,0,0-2.437-.556,3.442,3.442,0,0,0-1.965.451,1.277,1.277,0,0,0-.641,1.046,1.317,1.317,0,0,0,.47.961,3.311,3.311,0,0,0,1.71.663l3.845.64a10.223,10.223,0,0,1,4.721,2.031,5.218,5.218,0,0,1,1.775,4.25,6.112,6.112,0,0,1-.769,3.121,6.441,6.441,0,0,1-2.075,2.179,9.663,9.663,0,0,1-3.076,1.281,16.277,16.277,0,0,1-3.824.428,15.643,15.643,0,0,1-3.8-.447,9.646,9.646,0,0,1-3.162-1.391,7.316,7.316,0,0,1-2.222-2.412,8.3,8.3,0,0,1-1.026-3.528Z" fill="#fff"/>
      <rect id="Rectangle_165" data-name="Rectangle 165" width="6.966" height="30.342" transform="translate(304.325 557.141)" fill="#fff"/>
      <path id="Path_1471" data-name="Path 1471" d="M336.546,576.671q0,.6-.022,1.3a12.979,12.979,0,0,1-.106,1.3H321.845a4.935,4.935,0,0,0,1.473,2.288,4.443,4.443,0,0,0,3.014.918,3.443,3.443,0,0,0,3.163-1.5h6.88a8.126,8.126,0,0,1-1.3,2.906,8.957,8.957,0,0,1-2.222,2.18,10.339,10.339,0,0,1-2.991,1.39,12.921,12.921,0,0,1-3.61.491,12.644,12.644,0,0,1-4.639-.813,10.764,10.764,0,0,1-3.565-2.241,9.807,9.807,0,0,1-2.309-3.42,11.464,11.464,0,0,1-.811-4.381,11.663,11.663,0,0,1,.789-4.336,9.818,9.818,0,0,1,2.245-3.42,10.4,10.4,0,0,1,3.48-2.244,12.178,12.178,0,0,1,4.553-.812,11.478,11.478,0,0,1,4.166.749,9.829,9.829,0,0,1,3.356,2.116,9.942,9.942,0,0,1,2.222,3.269,10.726,10.726,0,0,1,.812,4.251m-10.6-5.043a4.012,4.012,0,0,0-2.777.919,4.729,4.729,0,0,0-1.412,2.414h8.12a3.62,3.62,0,0,0-3.931-3.333" fill="#fff"/>
      <path id="Path_1472" data-name="Path 1472" d="M352.613,566.114a9.408,9.408,0,0,1,3.589.664,7.75,7.75,0,0,1,2.779,1.9,8.771,8.771,0,0,1,1.8,2.993,11.518,11.518,0,0,1,.641,3.973v11.838h-6.923V576.756a4.61,4.61,0,0,0-1.026-3.291,3.672,3.672,0,0,0-2.777-1.067,5.072,5.072,0,0,0-3.761,2.05v13.035h-6.965V566.756h6.965v1.368a9.515,9.515,0,0,1,2.629-1.5,8.746,8.746,0,0,1,3.054-.514" fill="#fff"/>
      <path id="Path_1473" data-name="Path 1473" d="M369.45,563.509a4.043,4.043,0,0,1-2.885-1.111,3.655,3.655,0,0,1-1.174-2.779,3.707,3.707,0,0,1,1.174-2.819,4.277,4.277,0,0,1,5.749,0,3.686,3.686,0,0,1,1.2,2.819,3.635,3.635,0,0,1-1.2,2.779,4.069,4.069,0,0,1-2.864,1.111m3.5,23.974h-6.923V566.757h6.923Z" fill="#fff"/>
      <path id="Path_1474" data-name="Path 1474" d="M380.433,588.251a3.814,3.814,0,0,1-2.714-1.068,3.54,3.54,0,0,1-1.132-2.693,3.5,3.5,0,0,1,1.132-2.649,3.822,3.822,0,0,1,2.714-1.068,3.954,3.954,0,0,1,2.777,1.068,3.469,3.469,0,0,1,1.154,2.649,3.506,3.506,0,0,1-1.154,2.693,3.945,3.945,0,0,1-2.777,1.068" fill="#fff"/>
      <path id="Path_1475" data-name="Path 1475" d="M397.7,582.1a4.279,4.279,0,0,0,2.693-.854,3.555,3.555,0,0,0,1.366-2.264H408.3a9.951,9.951,0,0,1-1.091,3.654,9.576,9.576,0,0,1-2.284,2.841,10.055,10.055,0,0,1-3.271,1.838,12.844,12.844,0,0,1-8.5-.172,11,11,0,0,1-3.589-2.241,10.175,10.175,0,0,1-2.372-3.42,10.971,10.971,0,0,1-.854-4.381,10.851,10.851,0,0,1,.854-4.336,10.166,10.166,0,0,1,2.372-3.42,11.039,11.039,0,0,1,3.589-2.244,12.314,12.314,0,0,1,4.51-.812,12.137,12.137,0,0,1,3.994.642,10.072,10.072,0,0,1,3.271,1.838,9.572,9.572,0,0,1,2.284,2.843,9.923,9.923,0,0,1,1.091,3.651h-6.539a3.568,3.568,0,0,0-1.366-2.265,4.3,4.3,0,0,0-2.693-.853,4.414,4.414,0,0,0-3.505,1.409,5.182,5.182,0,0,0-1.238,3.547,5.263,5.263,0,0,0,1.238,3.57A4.391,4.391,0,0,0,397.7,582.1" fill="#fff"/>
      <path id="Path_1476" data-name="Path 1476" d="M420.471,581.755h9.4v5.728H410.56v-3.376l9.743-11.581h-9.572v-5.77h19.144v3.676Z" fill="#fff"/>
      <path id="Path_1477" data-name="Path 1477" d="M0,476.009H252.692v0H554.217l-160.594-160.6H0Z" fill="#008fa0"/>
      <rect id="Rectangle_166" data-name="Rectangle 166" width="3.234" height="17.787" transform="translate(95.674 335.554)" fill="#fff"/>
      <path id="Path_1478" data-name="Path 1478" d="M109.354,336.375l3.106-.513v4.055h4.773v2.593H112.46v5.467a3.963,3.963,0,0,0,.513,2.309,2.032,2.032,0,0,0,1.745.694,5.67,5.67,0,0,0,1.5-.18,9.775,9.775,0,0,0,1.04-.334l.514,2.464a11.777,11.777,0,0,1-1.413.475,7.654,7.654,0,0,1-2.053.244,6.5,6.5,0,0,1-2.4-.385,3.547,3.547,0,0,1-1.527-1.116,4.443,4.443,0,0,1-.795-1.772,10.993,10.993,0,0,1-.231-2.374Z" fill="#fff"/>
      <path id="Path_1479" data-name="Path 1479" d="M131.961,339.917a97.822,97.822,0,0,1-4.816,13.86,13.976,13.976,0,0,1-1.054,1.977,5.86,5.86,0,0,1-1.208,1.36,4.29,4.29,0,0,1-1.49.783,6.723,6.723,0,0,1-1.9.244,6.654,6.654,0,0,1-1.426-.155,4.682,4.682,0,0,1-1.067-.334l.565-2.489a5.06,5.06,0,0,0,1.831.36,2.85,2.85,0,0,0,1.9-.578,4.742,4.742,0,0,0,1.2-1.784q-1.47-2.823-2.823-6.16a67.413,67.413,0,0,1-2.41-7.084h3.311q.258,1.078.631,2.336t.812,2.554q.438,1.3.927,2.579t.98,2.388q.817-2.286,1.533-4.865t1.3-4.992Z" fill="#fff"/>
      <path id="Path_1480" data-name="Path 1480" d="M148.464,346.282a6.551,6.551,0,0,0-.526-3.041,2.052,2.052,0,0,0-1.964-.937,9.212,9.212,0,0,0-1.129.077q-.616.078-.924.129v10.831h-3.105V340.354a20.656,20.656,0,0,1,2.348-.488,19.487,19.487,0,0,1,3.067-.231,6.123,6.123,0,0,1,2.272.359,4.415,4.415,0,0,1,1.475.95,5.979,5.979,0,0,1,.719-.436,7.394,7.394,0,0,1,.975-.424,9.027,9.027,0,0,1,1.143-.321,5.868,5.868,0,0,1,1.219-.128,6.407,6.407,0,0,1,2.579.449,3.8,3.8,0,0,1,1.592,1.258,4.894,4.894,0,0,1,.795,1.95,13.408,13.408,0,0,1,.218,2.5v7.546h-3.106v-7.059a6.673,6.673,0,0,0-.513-3.041,2.046,2.046,0,0,0-1.976-.937,4.087,4.087,0,0,0-1.411.244,4.615,4.615,0,0,0-1,.475,6.816,6.816,0,0,1,.283,1.36,14.59,14.59,0,0,1,.076,1.54v7.418h-3.1Z" fill="#fff"/>
      <path id="Path_1481" data-name="Path 1481" d="M174.143,352.93q-.9.231-2.335.475a18.9,18.9,0,0,1-3.158.244,6.965,6.965,0,0,1-2.708-.462A4.349,4.349,0,0,1,164.2,351.9a5.056,5.056,0,0,1-.937-1.962,10.44,10.44,0,0,1-.282-2.5v-7.521h3.106v7.033a5.677,5.677,0,0,0,.628,3.08,2.463,2.463,0,0,0,2.195.924q.564,0,1.194-.052a6.524,6.524,0,0,0,.937-.127V339.917h3.105Zm-2.721-17.247a2.866,2.866,0,0,1-.23,1.18,2.592,2.592,0,0,1-.629.872,2.8,2.8,0,0,1-.912.552,3.1,3.1,0,0,1-2.155,0,2.638,2.638,0,0,1-1.515-1.424,3.1,3.1,0,0,1,0-2.348,2.508,2.508,0,0,1,.616-.873,2.805,2.805,0,0,1,.9-.539,3.1,3.1,0,0,1,2.155,0,2.97,2.97,0,0,1,.912.539,2.438,2.438,0,0,1,.629.873,2.888,2.888,0,0,1,.23,1.168m-1.565,0a1.227,1.227,0,0,0-.385-.963,1.3,1.3,0,0,0-.9-.347,1.265,1.265,0,0,0-.872.347,1.411,1.411,0,0,0,0,1.937,1.293,1.293,0,0,0,.872.334,1.328,1.328,0,0,0,.9-.334,1.216,1.216,0,0,0,.385-.974" fill="#fff"/>
      <path id="Path_1482" data-name="Path 1482" d="M187.617,342.1q-.513.539-1.347,1.514t-1.784,2.169q-.949,1.194-1.912,2.49t-1.733,2.476h6.931v2.593H177.094v-1.925a24.273,24.273,0,0,1,1.412-2.233q.846-1.206,1.745-2.426t1.784-2.322q.885-1.1,1.578-1.925h-6.185v-2.593h10.189Zm-5.094-3.8-3.761-3.593,1.233-1.36,2.528,2.079,2.553-2.079,1.207,1.36Z" fill="#fff"/>
      <path id="Path_1483" data-name="Path 1483" d="M189.935,346.694a8.41,8.41,0,0,1,.527-3.106,6.513,6.513,0,0,1,1.4-2.221,5.8,5.8,0,0,1,2-1.335,6.229,6.229,0,0,1,2.31-.449,5.531,5.531,0,0,1,4.325,1.72,7.445,7.445,0,0,1,1.553,5.134c0,.171,0,.363-.013.577s-.022.407-.038.578h-8.855a3.532,3.532,0,0,0,1.142,2.5,4.336,4.336,0,0,0,2.939.886,9.727,9.727,0,0,0,2.066-.205,8.548,8.548,0,0,0,1.476-.437l.41,2.541a4.866,4.866,0,0,1-.706.27,10.224,10.224,0,0,1-1.026.256c-.385.078-.8.141-1.245.193a11.963,11.963,0,0,1-1.361.077,8.251,8.251,0,0,1-3.08-.526,5.728,5.728,0,0,1-2.155-1.463,5.987,5.987,0,0,1-1.258-2.208,9,9,0,0,1-.411-2.784m9.009-1.386a4.11,4.11,0,0,0-.179-1.22,2.943,2.943,0,0,0-.527-1,2.481,2.481,0,0,0-.847-.667,2.69,2.69,0,0,0-1.193-.244,2.788,2.788,0,0,0-1.258.269,2.86,2.86,0,0,0-.911.707,3.222,3.222,0,0,0-.577,1,5.393,5.393,0,0,0-.283,1.156Z" fill="#fff"/>
      <path id="Path_1484" data-name="Path 1484" d="M208.911,351.108a4.079,4.079,0,0,0,1.8-.3,1.049,1.049,0,0,0,.565-1.014,1.319,1.319,0,0,0-.6-1.1,8.865,8.865,0,0,0-1.99-.95,15.631,15.631,0,0,1-1.552-.654,5.283,5.283,0,0,1-1.22-.809,3.3,3.3,0,0,1-.808-1.116,3.888,3.888,0,0,1-.295-1.6,3.5,3.5,0,0,1,1.36-2.913,5.844,5.844,0,0,1,3.7-1.066,11.33,11.33,0,0,1,2.259.219,10.917,10.917,0,0,1,1.617.424l-.565,2.514a7.6,7.6,0,0,0-1.309-.422,7.871,7.871,0,0,0-1.848-.194,3.228,3.228,0,0,0-1.54.321,1.053,1.053,0,0,0-.59.989,1.409,1.409,0,0,0,.116.59,1.259,1.259,0,0,0,.4.475,4.019,4.019,0,0,0,.745.436,11,11,0,0,0,1.129.449,17.422,17.422,0,0,1,1.874.809,5.067,5.067,0,0,1,1.27.9,3.074,3.074,0,0,1,.732,1.143,4.582,4.582,0,0,1,.231,1.54,3.318,3.318,0,0,1-1.425,2.913,7.1,7.1,0,0,1-4.068.988,11.116,11.116,0,0,1-2.849-.3,14.152,14.152,0,0,1-1.514-.475l.539-2.591a13.98,13.98,0,0,0,1.655.539,8.546,8.546,0,0,0,2.195.256m.757-12.808-3.761-3.593,1.233-1.36,2.528,2.079,2.554-2.079,1.206,1.36Z" fill="#fff"/>
      <path id="Path_1485" data-name="Path 1485" d="M235.115,352.93a18.561,18.561,0,0,1-2.322.514,18.038,18.038,0,0,1-2.939.231,7.833,7.833,0,0,1-2.849-.488,5.92,5.92,0,0,1-2.143-1.4,6.152,6.152,0,0,1-1.36-2.207,8.416,8.416,0,0,1-.476-2.913,9.832,9.832,0,0,1,.4-2.888,6.335,6.335,0,0,1,1.168-2.22,5.2,5.2,0,0,1,1.874-1.424,6.084,6.084,0,0,1,2.541-.5,5.818,5.818,0,0,1,1.72.231,7.827,7.827,0,0,1,1.283.513v-6.442l3.105-.513Zm-8.906-6.339a4.872,4.872,0,0,0,.976,3.221,3.318,3.318,0,0,0,2.694,1.168,10.645,10.645,0,0,0,1.271-.065c.351-.042.637-.09.86-.14v-7.7a4.853,4.853,0,0,0-1.091-.526,4.281,4.281,0,0,0-1.45-.244,2.78,2.78,0,0,0-2.477,1.155,5.512,5.512,0,0,0-.783,3.132" fill="#fff"/>
      <path id="Path_1486" data-name="Path 1486" d="M243.617,339.583a7.586,7.586,0,0,1,2.592.386,4.138,4.138,0,0,1,1.681,1.078,4.044,4.044,0,0,1,.9,1.681,8.259,8.259,0,0,1,.269,2.169v8.136q-.719.154-2.169.372a22.207,22.207,0,0,1-3.272.218,9.89,9.89,0,0,1-2.208-.23,4.656,4.656,0,0,1-1.706-.745,3.507,3.507,0,0,1-1.1-1.334,4.638,4.638,0,0,1-.4-2.029,3.919,3.919,0,0,1,.449-1.95,3.683,3.683,0,0,1,1.219-1.3,5.288,5.288,0,0,1,1.784-.719,10.073,10.073,0,0,1,2.118-.218,9.517,9.517,0,0,1,1.078.064,10.056,10.056,0,0,1,1.206.218v-.513a4.048,4.048,0,0,0-.128-1.027,2.135,2.135,0,0,0-.449-.859,2.1,2.1,0,0,0-.848-.578,3.677,3.677,0,0,0-1.321-.206,11.677,11.677,0,0,0-1.976.155,8.621,8.621,0,0,0-1.464.359l-.385-2.516a12.4,12.4,0,0,1,1.72-.41,13.476,13.476,0,0,1,2.413-.206m.257,11.576a11.521,11.521,0,0,0,2.181-.154v-3.439a6.08,6.08,0,0,0-.744-.154,6.871,6.871,0,0,0-1.078-.077,7.08,7.08,0,0,0-1.04.077,3.247,3.247,0,0,0-.949.282,1.712,1.712,0,0,0-.68.578,1.6,1.6,0,0,0-.257.936,1.642,1.642,0,0,0,.693,1.527,3.568,3.568,0,0,0,1.874.424m3.618-16.734-4.183,4.055-1.54-1.386,3.773-4.491Z" fill="#fff"/>
      <path id="Path_1487" data-name="Path 1487" d="M256.136,353.341q-1.288-2.643-2.642-6.07a77.021,77.021,0,0,1-2.461-7.354h3.312q.283,1.13.658,2.426t.8,2.592q.426,1.3.876,2.515t.838,2.195q.387-.975.825-2.195t.863-2.515q.424-1.3.812-2.592t.67-2.426h3.209a77.033,77.033,0,0,1-2.461,7.354q-1.353,3.426-2.641,6.07Z" fill="#fff"/>
      <path id="Path_1488" data-name="Path 1488" d="M270.713,339.583a7.582,7.582,0,0,1,2.592.386,4.138,4.138,0,0,1,1.681,1.078,4.044,4.044,0,0,1,.9,1.681,8.218,8.218,0,0,1,.269,2.169v8.136q-.719.154-2.169.372a22.2,22.2,0,0,1-3.272.218,9.89,9.89,0,0,1-2.208-.23,4.656,4.656,0,0,1-1.706-.745,3.507,3.507,0,0,1-1.1-1.334,4.638,4.638,0,0,1-.4-2.029,3.908,3.908,0,0,1,.45-1.95,3.679,3.679,0,0,1,1.218-1.3,5.285,5.285,0,0,1,1.785-.719,10.057,10.057,0,0,1,2.117-.218,9.517,9.517,0,0,1,1.078.064,10.056,10.056,0,0,1,1.206.218v-.513a4.048,4.048,0,0,0-.128-1.027,2.135,2.135,0,0,0-.449-.859,2.108,2.108,0,0,0-.847-.578,3.687,3.687,0,0,0-1.322-.206,11.678,11.678,0,0,0-1.976.155,8.646,8.646,0,0,0-1.464.359l-.384-2.516a12.345,12.345,0,0,1,1.719-.41,13.476,13.476,0,0,1,2.413-.206m.257,11.576a11.521,11.521,0,0,0,2.181-.154v-3.439a6.039,6.039,0,0,0-.744-.154,6.862,6.862,0,0,0-1.078-.077,7.056,7.056,0,0,0-1.039.077,3.254,3.254,0,0,0-.95.282,1.719,1.719,0,0,0-.68.578,1.6,1.6,0,0,0-.257.936,1.642,1.642,0,0,0,.693,1.527,3.568,3.568,0,0,0,1.874.424" fill="#fff"/>
      <path id="Path_1489" data-name="Path 1489" d="M279.873,336.375l3.106-.513v4.055h4.774v2.593h-4.774v5.467a3.97,3.97,0,0,0,.513,2.309,2.032,2.032,0,0,0,1.745.694,5.678,5.678,0,0,0,1.5-.18,9.825,9.825,0,0,0,1.039-.334l.514,2.464a11.691,11.691,0,0,1-1.412.475,7.659,7.659,0,0,1-2.053.244,6.491,6.491,0,0,1-2.4-.385,3.541,3.541,0,0,1-1.527-1.116,4.444,4.444,0,0,1-.8-1.772,10.994,10.994,0,0,1-.231-2.374Z" fill="#fff"/>
      <path id="Path_1490" data-name="Path 1490" d="M309.338,346.642a9.5,9.5,0,0,1-.4,2.823,6.6,6.6,0,0,1-1.142,2.208,5.089,5.089,0,0,1-1.861,1.437,5.991,5.991,0,0,1-2.528.513,6.272,6.272,0,0,1-1.745-.23,6.514,6.514,0,0,1-1.309-.514v5.21h-3.106V340.354q.949-.256,2.336-.488a17.776,17.776,0,0,1,2.925-.231,7.854,7.854,0,0,1,2.849.487,5.935,5.935,0,0,1,2.144,1.4,6.166,6.166,0,0,1,1.36,2.207,8.436,8.436,0,0,1,.475,2.913m-3.183.052a5.006,5.006,0,0,0-.937-3.235A3.663,3.663,0,0,0,302.2,342.3c-.292,0-.6.014-.911.039a4.913,4.913,0,0,0-.937.167v7.674a4.779,4.779,0,0,0,1.09.526,4.259,4.259,0,0,0,1.451.244,2.777,2.777,0,0,0,2.476-1.155,5.454,5.454,0,0,0,.783-3.105" fill="#fff"/>
      <path id="Path_1491" data-name="Path 1491" d="M320.346,342.715a10.29,10.29,0,0,0-1.065-.27,7.913,7.913,0,0,0-1.578-.141,6.282,6.282,0,0,0-1.091.1,6.532,6.532,0,0,0-.809.18v10.754H312.7V340.559a17.139,17.139,0,0,1,2.245-.629,14.059,14.059,0,0,1,2.991-.295c.205,0,.445.013.718.038s.548.061.822.1.539.093.8.153.462.116.616.167Zm-3.5-4.415-3.76-3.593,1.232-1.36,2.528,2.079,2.554-2.079,1.206,1.36Z" fill="#fff"/>
      <path id="Path_1492" data-name="Path 1492" d="M328.678,334.425l-4.184,4.055-1.54-1.386,3.773-4.491Zm-2.131,18.916h-3.105V339.917h3.105Z" fill="#fff"/>
      <path id="Path_1493" data-name="Path 1493" d="M334.07,345.153q.59-.617,1.258-1.322t1.308-1.411q.642-.707,1.22-1.36t.988-1.143h3.67q-1.281,1.439-2.7,2.978t-2.855,3a17.932,17.932,0,0,1,1.613,1.552q.844.912,1.639,1.938t1.485,2.054a21,21,0,0,1,1.153,1.9h-3.594q-.462-.795-1.064-1.668t-1.3-1.694q-.693-.822-1.411-1.553a12.2,12.2,0,0,0-1.412-1.245v6.16h-3.106v-19.4l3.106-.513Z" fill="#fff"/>
      <path id="Path_1494" data-name="Path 1494" d="M349.67,339.583a7.582,7.582,0,0,1,2.592.386,4.138,4.138,0,0,1,1.681,1.078,4.044,4.044,0,0,1,.9,1.681,8.218,8.218,0,0,1,.269,2.169v8.136q-.719.154-2.169.372a22.2,22.2,0,0,1-3.272.218,9.89,9.89,0,0,1-2.208-.23,4.663,4.663,0,0,1-1.706-.745,3.507,3.507,0,0,1-1.1-1.334,4.638,4.638,0,0,1-.4-2.029,3.908,3.908,0,0,1,.45-1.95,3.679,3.679,0,0,1,1.218-1.3,5.285,5.285,0,0,1,1.785-.719,10.057,10.057,0,0,1,2.117-.218,9.518,9.518,0,0,1,1.078.064,10.056,10.056,0,0,1,1.206.218v-.513a4,4,0,0,0-.128-1.027,2.135,2.135,0,0,0-.449-.859,2.1,2.1,0,0,0-.847-.578,3.687,3.687,0,0,0-1.322-.206,11.678,11.678,0,0,0-1.976.155,8.646,8.646,0,0,0-1.464.359l-.384-2.516a12.345,12.345,0,0,1,1.719-.41,13.476,13.476,0,0,1,2.413-.206m.257,11.576a11.521,11.521,0,0,0,2.181-.154v-3.439a6.039,6.039,0,0,0-.744-.154,6.862,6.862,0,0,0-1.078-.077,7.056,7.056,0,0,0-1.039.077,3.254,3.254,0,0,0-.95.282,1.719,1.719,0,0,0-.68.578,1.6,1.6,0,0,0-.257.936,1.642,1.642,0,0,0,.693,1.527,3.568,3.568,0,0,0,1.874.424" fill="#fff"/>
      <path id="Path_1495" data-name="Path 1495" d="M368.347,342.1q-.513.539-1.347,1.514t-1.784,2.169q-.949,1.194-1.912,2.49t-1.733,2.476H368.5v2.593H357.824v-1.925a24.273,24.273,0,0,1,1.412-2.233q.846-1.206,1.745-2.426t1.784-2.322q.885-1.1,1.578-1.925h-6.185v-2.593h10.189Z" fill="#fff"/>
      <path id="Path_1496" data-name="Path 1496" d="M383.088,339.917a97.823,97.823,0,0,1-4.816,13.86,13.976,13.976,0,0,1-1.054,1.977,5.86,5.86,0,0,1-1.208,1.36,4.29,4.29,0,0,1-1.49.783,7.124,7.124,0,0,1-3.328.089,4.688,4.688,0,0,1-1.066-.334l.565-2.489a5.06,5.06,0,0,0,1.831.36,2.85,2.85,0,0,0,1.895-.578,4.742,4.742,0,0,0,1.2-1.784q-1.47-2.823-2.823-6.16a67.419,67.419,0,0,1-2.41-7.084h3.311q.258,1.078.631,2.336t.812,2.554q.438,1.3.927,2.579t.98,2.388q.816-2.286,1.533-4.865t1.3-4.992Z" fill="#fff"/>
      <path id="Path_1497" data-name="Path 1497" d="M103.169,376.938a10.288,10.288,0,0,0-1.065-.27,7.852,7.852,0,0,0-1.579-.141,7.7,7.7,0,0,0-1.9.283v10.754H95.52V374.781a17.47,17.47,0,0,1,2.246-.629,14.05,14.05,0,0,1,2.99-.294c.205,0,.445.012.719.038s.547.06.821.1.539.094.8.153.462.117.617.167Z" fill="#fff"/>
      <path id="Path_1498" data-name="Path 1498" d="M118.045,380.839a8.661,8.661,0,0,1-.462,2.9,6.427,6.427,0,0,1-1.309,2.233,5.87,5.87,0,0,1-2.041,1.437,6.571,6.571,0,0,1-2.63.514,6.49,6.49,0,0,1-2.619-.514,5.9,5.9,0,0,1-2.027-1.437,6.579,6.579,0,0,1-1.322-2.233,8.438,8.438,0,0,1-.475-2.9,8.34,8.34,0,0,1,.475-2.888,6.484,6.484,0,0,1,1.335-2.219,5.888,5.888,0,0,1,2.04-1.425,6.569,6.569,0,0,1,2.593-.5,6.664,6.664,0,0,1,2.605.5,5.725,5.725,0,0,1,2.04,1.425,6.585,6.585,0,0,1,1.322,2.219,8.363,8.363,0,0,1,.475,2.888m-3.183,0a5.241,5.241,0,0,0-.859-3.17,3.05,3.05,0,0,0-4.8,0,5.234,5.234,0,0,0-.86,3.17,5.337,5.337,0,0,0,.86,3.208,3.029,3.029,0,0,0,4.8,0,5.344,5.344,0,0,0,.859-3.208" fill="#fff"/>
      <path id="Path_1499" data-name="Path 1499" d="M133.4,380.864a8.428,8.428,0,0,1-.475,2.913,6.3,6.3,0,0,1-1.36,2.221,5.849,5.849,0,0,1-2.143,1.411,7.821,7.821,0,0,1-2.85.489,18.011,18.011,0,0,1-2.938-.232,18.233,18.233,0,0,1-2.323-.514V368.159l3.106-.512V374.6a7.285,7.285,0,0,1,1.321-.513,6.624,6.624,0,0,1,4.261.27,4.95,4.95,0,0,1,1.861,1.423A6.582,6.582,0,0,1,133,378a9.727,9.727,0,0,1,.4,2.861m-3.183-.05a5.508,5.508,0,0,0-.783-3.132,2.777,2.777,0,0,0-2.476-1.155,4.753,4.753,0,0,0-2.541.745V385a8.367,8.367,0,0,0,.86.141,10.638,10.638,0,0,0,1.27.064,3.319,3.319,0,0,0,2.7-1.168,4.873,4.873,0,0,0,.975-3.22" fill="#fff"/>
      <path id="Path_1500" data-name="Path 1500" d="M148.894,380.839a8.661,8.661,0,0,1-.462,2.9,6.427,6.427,0,0,1-1.309,2.233,5.87,5.87,0,0,1-2.041,1.437,6.579,6.579,0,0,1-2.631.514,6.485,6.485,0,0,1-2.618-.514,5.89,5.89,0,0,1-2.027-1.437,6.563,6.563,0,0,1-1.322-2.233,8.438,8.438,0,0,1-.475-2.9,8.34,8.34,0,0,1,.475-2.888,6.482,6.482,0,0,1,1.334-2.219,5.9,5.9,0,0,1,2.041-1.425,6.567,6.567,0,0,1,2.592-.5,6.66,6.66,0,0,1,2.6.5,5.738,5.738,0,0,1,2.041,1.425,6.6,6.6,0,0,1,1.322,2.219,8.364,8.364,0,0,1,.475,2.888m-3.183,0a5.241,5.241,0,0,0-.86-3.17,3.05,3.05,0,0,0-4.8,0,5.241,5.241,0,0,0-.859,3.17,5.344,5.344,0,0,0,.859,3.208,3.029,3.029,0,0,0,4.8,0,5.344,5.344,0,0,0,.86-3.208" fill="#fff"/>
      <path id="Path_1501" data-name="Path 1501" d="M152.038,370.6l3.106-.513v4.055h4.774v2.593h-4.774V382.2a3.966,3.966,0,0,0,.513,2.31,2.031,2.031,0,0,0,1.745.693,5.674,5.674,0,0,0,1.5-.179,10.262,10.262,0,0,0,1.04-.334l.514,2.463a11.622,11.622,0,0,1-1.412.476,7.709,7.709,0,0,1-2.054.243,6.494,6.494,0,0,1-2.4-.385,3.527,3.527,0,0,1-1.526-1.116,4.42,4.42,0,0,1-.8-1.771,11.007,11.007,0,0,1-.231-2.374Z" fill="#fff"/>
      <path id="Path_1502" data-name="Path 1502" d="M173.965,387.152q-.9.232-2.336.476a18.992,18.992,0,0,1-3.157.243,6.946,6.946,0,0,1-2.708-.462,4.337,4.337,0,0,1-1.745-1.283,5.06,5.06,0,0,1-.937-1.963,10.427,10.427,0,0,1-.282-2.5v-7.52h3.106v7.033a5.677,5.677,0,0,0,.628,3.08,2.466,2.466,0,0,0,2.2.924q.564,0,1.193-.052a6.337,6.337,0,0,0,.937-.128V374.14h3.106ZM171.244,369.9a2.854,2.854,0,0,1-.231,1.181,2.579,2.579,0,0,1-.629.872,2.8,2.8,0,0,1-.911.552,3.122,3.122,0,0,1-2.156,0,2.64,2.64,0,0,1-1.514-1.424,3.1,3.1,0,0,1,0-2.349,2.527,2.527,0,0,1,.616-.873,2.829,2.829,0,0,1,.9-.539,3.122,3.122,0,0,1,2.156,0,2.972,2.972,0,0,1,.911.539,2.443,2.443,0,0,1,.629.873,2.878,2.878,0,0,1,.231,1.168m-1.565,0a1.228,1.228,0,0,0-.385-.962,1.3,1.3,0,0,0-.9-.347,1.263,1.263,0,0,0-.872.347,1.411,1.411,0,0,0,0,1.937,1.291,1.291,0,0,0,.872.334,1.329,1.329,0,0,0,.9-.334,1.221,1.221,0,0,0,.385-.975" fill="#fff"/>
      <path id="Path_1503" data-name="Path 1503" d="M185.671,380.505a6.551,6.551,0,0,0-.526-3.041,2.052,2.052,0,0,0-1.964-.937,9.218,9.218,0,0,0-1.129.077q-.616.076-.924.129v10.831h-3.105V374.576a20.472,20.472,0,0,1,2.348-.487,19.487,19.487,0,0,1,3.067-.231,6.122,6.122,0,0,1,2.272.359,4.412,4.412,0,0,1,1.475.949,5.985,5.985,0,0,1,.719-.435,7.263,7.263,0,0,1,.975-.424,9.032,9.032,0,0,1,1.143-.322,5.936,5.936,0,0,1,1.219-.127,6.407,6.407,0,0,1,2.579.449,3.8,3.8,0,0,1,1.592,1.258,4.894,4.894,0,0,1,.795,1.95,13.4,13.4,0,0,1,.218,2.5v7.546h-3.106v-7.059a6.673,6.673,0,0,0-.513-3.041,2.046,2.046,0,0,0-1.976-.937,4.088,4.088,0,0,0-1.411.244,4.67,4.67,0,0,0-1,.474,6.841,6.841,0,0,1,.283,1.361,14.59,14.59,0,0,1,.076,1.54v7.418h-3.1Z" fill="#fff"/>
      <path id="Path_1504" data-name="Path 1504" d="M204.117,385.869a1.911,1.911,0,0,1-.6,1.463,2.157,2.157,0,0,1-2.913,0,1.93,1.93,0,0,1-.591-1.463,1.972,1.972,0,0,1,.591-1.475,2.127,2.127,0,0,1,2.913,0,1.952,1.952,0,0,1,.6,1.475" fill="#fff"/>
      <path id="Path_1505" data-name="Path 1505" d="M224.727,387.564q-.668-1.027-1.54-2.157t-1.835-2.181q-.963-1.052-1.989-2a18.59,18.59,0,0,0-2.028-1.643v7.983H214.1V369.777h3.234v7.34q.847-.846,1.771-1.809t1.836-1.95q.909-.99,1.732-1.914t1.489-1.667h3.875q-.847.975-1.8,2.027t-1.95,2.118q-1,1.065-2.015,2.117t-1.989,2a24.1,24.1,0,0,1,2.194,1.912q1.117,1.092,2.195,2.336t2.066,2.592q.987,1.347,1.809,2.683Z" fill="#fff"/>
      <path id="Path_1506" data-name="Path 1506" d="M241.576,387.152a19.168,19.168,0,0,1-5.261.746,7.812,7.812,0,0,1-2.849-.489,5.918,5.918,0,0,1-2.143-1.4,6.176,6.176,0,0,1-1.361-2.207,8.439,8.439,0,0,1-.475-2.913,9.822,9.822,0,0,1,.4-2.888,6.332,6.332,0,0,1,1.168-2.221,5.2,5.2,0,0,1,1.874-1.423,6.084,6.084,0,0,1,2.541-.5,5.818,5.818,0,0,1,1.72.231,7.657,7.657,0,0,1,1.283.513v-6.443l3.105-.512Zm-8.906-6.338a4.868,4.868,0,0,0,.976,3.22,3.315,3.315,0,0,0,2.694,1.168,10.668,10.668,0,0,0,1.271-.064,8.461,8.461,0,0,0,.86-.141v-7.7a4.854,4.854,0,0,0-1.091-.526,4.282,4.282,0,0,0-1.45-.244,2.778,2.778,0,0,0-2.477,1.155,5.508,5.508,0,0,0-.783,3.132" fill="#fff"/>
      <path id="Path_1507" data-name="Path 1507" d="M256.769,374.14A97.864,97.864,0,0,1,251.952,388a14.083,14.083,0,0,1-1.053,1.977,5.883,5.883,0,0,1-1.208,1.36,4.3,4.3,0,0,1-1.49.782,6.729,6.729,0,0,1-1.9.244,6.66,6.66,0,0,1-1.426-.154,4.74,4.74,0,0,1-1.066-.334l.565-2.489a5.053,5.053,0,0,0,1.83.359,2.846,2.846,0,0,0,1.9-.577,4.738,4.738,0,0,0,1.2-1.784q-1.469-2.823-2.823-6.16a67.644,67.644,0,0,1-2.409-7.084h3.311q.257,1.078.631,2.336t.811,2.553q.438,1.3.928,2.58t.979,2.387q.817-2.285,1.533-4.864t1.3-4.992Z" fill="#fff"/>
      <path id="Path_1508" data-name="Path 1508" d="M269.2,376.321q-.513.54-1.347,1.515t-1.784,2.169q-.949,1.194-1.912,2.489t-1.733,2.477h6.931v2.593H258.678v-1.925a24.272,24.272,0,0,1,1.412-2.234q.846-1.2,1.745-2.425t1.784-2.323q.885-1.1,1.578-1.924h-6.185V374.14H269.2Zm-5.094-3.8-3.761-3.593,1.233-1.361,2.528,2.08,2.553-2.08,1.207,1.361Z" fill="#fff"/>
      <path id="Path_1509" data-name="Path 1509" d="M278.723,374.576a20.609,20.609,0,0,1,2.336-.487,20.134,20.134,0,0,1,3.182-.231,7.333,7.333,0,0,1,2.747.449,4.292,4.292,0,0,1,1.758,1.258,4.812,4.812,0,0,1,.924,1.95,10.877,10.877,0,0,1,.27,2.5v7.546h-3.106v-7.059a10.189,10.189,0,0,0-.142-1.835,3.267,3.267,0,0,0-.461-1.232,1.851,1.851,0,0,0-.873-.693,3.686,3.686,0,0,0-1.348-.218,10.417,10.417,0,0,0-1.232.077q-.642.076-.949.129v10.831h-3.106Z" fill="#fff"/>
      <path id="Path_1510" data-name="Path 1510" d="M293.083,380.916a8.422,8.422,0,0,1,.526-3.1,6.53,6.53,0,0,1,1.4-2.221,5.8,5.8,0,0,1,2-1.335,6.209,6.209,0,0,1,2.31-.449,5.533,5.533,0,0,1,4.325,1.72,7.443,7.443,0,0,1,1.553,5.133c0,.171-.005.364-.013.577s-.022.408-.038.579h-8.855a3.532,3.532,0,0,0,1.142,2.5,4.339,4.339,0,0,0,2.939.885,9.664,9.664,0,0,0,2.066-.2,8.562,8.562,0,0,0,1.476-.436l.41,2.541a4.881,4.881,0,0,1-.706.269,9.949,9.949,0,0,1-1.026.257q-.577.115-1.245.192a11.961,11.961,0,0,1-1.361.078,8.23,8.23,0,0,1-3.08-.527,5.717,5.717,0,0,1-2.155-1.463,5.979,5.979,0,0,1-1.258-2.208,8.995,8.995,0,0,1-.411-2.784m9.009-1.386a4.1,4.1,0,0,0-.179-1.219,2.943,2.943,0,0,0-.527-1,2.47,2.47,0,0,0-.847-.667,2.69,2.69,0,0,0-1.193-.244,2.775,2.775,0,0,0-1.258.269,2.872,2.872,0,0,0-.911.706,3.215,3.215,0,0,0-.577,1,5.342,5.342,0,0,0-.283,1.155Z" fill="#fff"/>
      <path id="Path_1511" data-name="Path 1511" d="M320.6,380.864a8.428,8.428,0,0,1-.475,2.913A6.285,6.285,0,0,1,318.765,386a5.833,5.833,0,0,1-2.143,1.411,7.812,7.812,0,0,1-2.849.489,18.012,18.012,0,0,1-2.938-.232,18.194,18.194,0,0,1-2.323-.514V368.159l3.105-.512V374.6a7.326,7.326,0,0,1,1.322-.513,6.624,6.624,0,0,1,4.261.27,4.95,4.95,0,0,1,1.861,1.423A6.6,6.6,0,0,1,320.2,378a9.728,9.728,0,0,1,.4,2.861m-3.183-.05a5.508,5.508,0,0,0-.783-3.132,2.778,2.778,0,0,0-2.477-1.155,4.753,4.753,0,0,0-2.541.745V385a8.414,8.414,0,0,0,.86.141,10.668,10.668,0,0,0,1.271.064,3.315,3.315,0,0,0,2.694-1.168,4.868,4.868,0,0,0,.976-3.22" fill="#fff"/>
      <path id="Path_1512" data-name="Path 1512" d="M334.877,387.152q-.9.232-2.336.476a18.992,18.992,0,0,1-3.157.243,6.943,6.943,0,0,1-2.708-.462,4.331,4.331,0,0,1-1.745-1.283,5.032,5.032,0,0,1-.937-1.963,10.377,10.377,0,0,1-.282-2.5v-7.52h3.1v7.033a5.666,5.666,0,0,0,.629,3.08,2.465,2.465,0,0,0,2.195.924q.564,0,1.193-.052a6.337,6.337,0,0,0,.937-.128V374.14h3.106Z" fill="#fff"/>
      <path id="Path_1513" data-name="Path 1513" d="M350.281,387.152a19.168,19.168,0,0,1-5.261.746,7.812,7.812,0,0,1-2.849-.489,5.918,5.918,0,0,1-2.143-1.4,6.16,6.16,0,0,1-1.36-2.207,8.416,8.416,0,0,1-.476-2.913,9.823,9.823,0,0,1,.4-2.888,6.349,6.349,0,0,1,1.168-2.221,5.2,5.2,0,0,1,1.874-1.423,6.084,6.084,0,0,1,2.541-.5,5.818,5.818,0,0,1,1.72.231,7.623,7.623,0,0,1,1.283.513v-6.443l3.105-.512Zm-8.906-6.338a4.868,4.868,0,0,0,.976,3.22,3.316,3.316,0,0,0,2.695,1.168,10.662,10.662,0,0,0,1.27-.064,8.462,8.462,0,0,0,.86-.141v-7.7a4.854,4.854,0,0,0-1.091-.526,4.282,4.282,0,0,0-1.45-.244,2.778,2.778,0,0,0-2.477,1.155,5.508,5.508,0,0,0-.783,3.132" fill="#fff"/>
      <path id="Path_1514" data-name="Path 1514" d="M366.444,380.839a8.661,8.661,0,0,1-.462,2.9,6.427,6.427,0,0,1-1.309,2.233,5.87,5.87,0,0,1-2.041,1.437,6.571,6.571,0,0,1-2.63.514,6.49,6.49,0,0,1-2.619-.514,5.9,5.9,0,0,1-2.027-1.437,6.579,6.579,0,0,1-1.322-2.233,8.438,8.438,0,0,1-.475-2.9,8.34,8.34,0,0,1,.475-2.888,6.485,6.485,0,0,1,1.335-2.219,5.888,5.888,0,0,1,2.04-1.425,6.569,6.569,0,0,1,2.593-.5,6.667,6.667,0,0,1,2.6.5,5.734,5.734,0,0,1,2.04,1.425,6.6,6.6,0,0,1,1.322,2.219,8.363,8.363,0,0,1,.475,2.888m-3.183,0a5.234,5.234,0,0,0-.86-3.17,3.049,3.049,0,0,0-4.8,0,5.234,5.234,0,0,0-.86,3.17,5.337,5.337,0,0,0,.86,3.208,3.028,3.028,0,0,0,4.8,0,5.337,5.337,0,0,0,.86-3.208" fill="#fff"/>
      <path id="Path_1515" data-name="Path 1515" d="M380.707,387.152q-.9.232-2.336.476a18.992,18.992,0,0,1-3.157.243,6.942,6.942,0,0,1-2.708-.462,4.331,4.331,0,0,1-1.745-1.283,5.032,5.032,0,0,1-.937-1.963,10.377,10.377,0,0,1-.282-2.5v-7.52h3.106v7.033a5.677,5.677,0,0,0,.628,3.08,2.465,2.465,0,0,0,2.2.924q.564,0,1.193-.052A6.338,6.338,0,0,0,377.6,385V374.14h3.106Z" fill="#fff"/>
      <path id="Path_1516" data-name="Path 1516" d="M106.864,421.375a19.118,19.118,0,0,1-5.261.745,7.833,7.833,0,0,1-2.849-.488,5.918,5.918,0,0,1-2.143-1.4,6.161,6.161,0,0,1-1.36-2.207,8.422,8.422,0,0,1-.476-2.914,9.82,9.82,0,0,1,.4-2.887,6.331,6.331,0,0,1,1.168-2.221,5.2,5.2,0,0,1,1.874-1.424,6.084,6.084,0,0,1,2.541-.5,5.783,5.783,0,0,1,1.72.232,7.707,7.707,0,0,1,1.283.512v-6.442l3.1-.513Zm-8.906-6.339a4.87,4.87,0,0,0,.976,3.221,3.319,3.319,0,0,0,2.695,1.168,10.632,10.632,0,0,0,1.27-.065,8.223,8.223,0,0,0,.86-.14v-7.7a4.81,4.81,0,0,0-1.091-.527,4.281,4.281,0,0,0-1.45-.244,2.78,2.78,0,0,0-2.477,1.155,5.512,5.512,0,0,0-.783,3.132" fill="#fff"/>
      <path id="Path_1517" data-name="Path 1517" d="M110.263,415.139a8.432,8.432,0,0,1,.526-3.106,6.526,6.526,0,0,1,1.4-2.22,5.781,5.781,0,0,1,2-1.335,6.2,6.2,0,0,1,2.31-.45,5.536,5.536,0,0,1,4.325,1.72,7.448,7.448,0,0,1,1.553,5.134c0,.171,0,.363-.013.577s-.022.407-.039.578h-8.855a3.54,3.54,0,0,0,1.142,2.5,4.337,4.337,0,0,0,2.939.886,9.65,9.65,0,0,0,2.066-.2,8.4,8.4,0,0,0,1.476-.437l.411,2.541a4.912,4.912,0,0,1-.706.27,10.024,10.024,0,0,1-1.026.257c-.386.077-.8.14-1.246.192a11.932,11.932,0,0,1-1.36.077,8.247,8.247,0,0,1-3.08-.526,5.732,5.732,0,0,1-2.156-1.463,5.993,5.993,0,0,1-1.258-2.208,9.029,9.029,0,0,1-.41-2.784m6.224-8.394-3.76-3.593,1.232-1.36,2.528,2.079,2.554-2.079,1.206,1.36Zm2.785,7.008a4.079,4.079,0,0,0-.18-1.22,2.96,2.96,0,0,0-.526-1,2.482,2.482,0,0,0-.847-.667,2.7,2.7,0,0,0-1.194-.244,2.771,2.771,0,0,0-1.257.27,2.847,2.847,0,0,0-.911.706,3.219,3.219,0,0,0-.578,1,5.4,5.4,0,0,0-.282,1.155Z" fill="#fff"/>
      <path id="Path_1518" data-name="Path 1518" d="M130.426,422.043a8.431,8.431,0,0,1-2.3-.308,3.545,3.545,0,0,1-1.45-.808,2.862,2.862,0,0,1-.757-1.31,6.628,6.628,0,0,1-.218-1.784V402.382l3.106-.513v15.374a4.188,4.188,0,0,0,.09.95,1.513,1.513,0,0,0,.32.655,1.447,1.447,0,0,0,.629.41,4.892,4.892,0,0,0,1.014.219Z" fill="#fff"/>
      <path id="Path_1519" data-name="Path 1519" d="M138.386,408.028a7.586,7.586,0,0,1,2.592.386,4.138,4.138,0,0,1,1.681,1.078,4.05,4.05,0,0,1,.9,1.681,8.259,8.259,0,0,1,.269,2.169v8.137q-.718.153-2.169.372a22.337,22.337,0,0,1-3.272.218,9.888,9.888,0,0,1-2.208-.231,4.623,4.623,0,0,1-1.706-.745,3.5,3.5,0,0,1-1.1-1.334,4.637,4.637,0,0,1-.4-2.028,3.912,3.912,0,0,1,.45-1.951,3.668,3.668,0,0,1,1.218-1.3,5.269,5.269,0,0,1,1.784-.719,10.009,10.009,0,0,1,2.118-.219,9.757,9.757,0,0,1,1.078.064,10.248,10.248,0,0,1,1.206.218v-.512a4.049,4.049,0,0,0-.128-1.028,2.135,2.135,0,0,0-.449-.859,2.106,2.106,0,0,0-.847-.577,3.666,3.666,0,0,0-1.322-.206,11.682,11.682,0,0,0-1.976.154,8.741,8.741,0,0,0-1.464.359l-.384-2.515a12.069,12.069,0,0,1,1.719-.41,13.473,13.473,0,0,1,2.413-.207m.257,11.577a11.5,11.5,0,0,0,2.181-.155v-3.439a5.921,5.921,0,0,0-.744-.153A6.865,6.865,0,0,0,139,415.78a7.082,7.082,0,0,0-1.04.078,3.185,3.185,0,0,0-.949.282,1.717,1.717,0,0,0-.68.577,1.6,1.6,0,0,0-.257.936,1.642,1.642,0,0,0,.693,1.528,3.577,3.577,0,0,0,1.874.424" fill="#fff"/>
      <path id="Path_1520" data-name="Path 1520" d="M147.546,404.82l3.106-.512v4.054h4.774v2.593h-4.774v5.467a3.965,3.965,0,0,0,.514,2.31,2.029,2.029,0,0,0,1.745.693,5.671,5.671,0,0,0,1.5-.18,9.851,9.851,0,0,0,1.04-.334l.513,2.464a11.682,11.682,0,0,1-1.412.476,7.7,7.7,0,0,1-2.053.243,6.5,6.5,0,0,1-2.4-.385,3.547,3.547,0,0,1-1.527-1.116,4.446,4.446,0,0,1-.8-1.772,11.057,11.057,0,0,1-.231-2.374Z" fill="#fff"/>
      <path id="Path_1521" data-name="Path 1521" d="M162.42,418.372a6.186,6.186,0,0,1,.051.642v.411a11.555,11.555,0,0,1-.5,3.285,14.118,14.118,0,0,1-1.4,3.209l-2.438-.668a12.62,12.62,0,0,0,.834-2.913,16.836,16.836,0,0,0,.218-2.5q0-.309-.013-.77c-.008-.308-.022-.539-.038-.694Z" fill="#fff"/>
      <path id="Path_1522" data-name="Path 1522" d="M171.839,415.087a8.231,8.231,0,0,1,.462-2.784,6.6,6.6,0,0,1,1.322-2.246,6.052,6.052,0,0,1,2.091-1.489,6.843,6.843,0,0,1,2.773-.54,9.4,9.4,0,0,1,3.593.694l-.667,2.541a7.093,7.093,0,0,0-1.22-.385,6.587,6.587,0,0,0-1.45-.154,3.4,3.4,0,0,0-2.772,1.142,4.9,4.9,0,0,0-.949,3.221,5.072,5.072,0,0,0,.9,3.17,3.588,3.588,0,0,0,3.029,1.168,8.01,8.01,0,0,0,1.565-.154,7.384,7.384,0,0,0,1.335-.385l.436,2.566a6.429,6.429,0,0,1-1.552.462,11.033,11.033,0,0,1-2.144.206,7.8,7.8,0,0,1-2.99-.526,5.659,5.659,0,0,1-2.1-1.463,6.044,6.044,0,0,1-1.245-2.233,9.253,9.253,0,0,1-.411-2.811" fill="#fff"/>
      <path id="Path_1523" data-name="Path 1523" d="M196.833,415.062a8.665,8.665,0,0,1-.462,2.9,6.407,6.407,0,0,1-1.309,2.232,5.878,5.878,0,0,1-2.04,1.438,6.579,6.579,0,0,1-2.631.514,6.482,6.482,0,0,1-2.618-.514,5.9,5.9,0,0,1-2.028-1.438,6.574,6.574,0,0,1-1.322-2.232,8.465,8.465,0,0,1-.475-2.9,8.359,8.359,0,0,1,.475-2.888,6.489,6.489,0,0,1,1.335-2.22,5.9,5.9,0,0,1,2.04-1.425,6.569,6.569,0,0,1,2.593-.5,6.664,6.664,0,0,1,2.6.5,5.738,5.738,0,0,1,2.04,1.425,6.589,6.589,0,0,1,1.322,2.22,8.359,8.359,0,0,1,.475,2.888m-3.183,0a5.241,5.241,0,0,0-.859-3.17,3.05,3.05,0,0,0-4.8,0,5.241,5.241,0,0,0-.86,3.17,5.346,5.346,0,0,0,.86,3.208,3.031,3.031,0,0,0,4.8,0,5.346,5.346,0,0,0,.859-3.208" fill="#fff"/>
      <path id="Path_1524" data-name="Path 1524" d="M209.9,419.553a4.079,4.079,0,0,0,1.8-.3,1.047,1.047,0,0,0,.565-1.014,1.315,1.315,0,0,0-.6-1.1,8.831,8.831,0,0,0-1.989-.95,15.655,15.655,0,0,1-1.553-.655,5.251,5.251,0,0,1-1.219-.808,3.29,3.29,0,0,1-.808-1.117,3.868,3.868,0,0,1-.3-1.6,3.5,3.5,0,0,1,1.36-2.913,5.845,5.845,0,0,1,3.7-1.066,11.4,11.4,0,0,1,2.258.219,11.014,11.014,0,0,1,1.617.424l-.565,2.515a7.577,7.577,0,0,0-1.308-.423,7.877,7.877,0,0,0-1.848-.194,3.211,3.211,0,0,0-1.54.322,1.053,1.053,0,0,0-.591.988,1.421,1.421,0,0,0,.116.59,1.261,1.261,0,0,0,.4.475,4.021,4.021,0,0,0,.745.436,10.863,10.863,0,0,0,1.129.449,17.443,17.443,0,0,1,1.874.809,5.067,5.067,0,0,1,1.27.9,3.073,3.073,0,0,1,.732,1.143,4.561,4.561,0,0,1,.231,1.54,3.319,3.319,0,0,1-1.424,2.913,7.1,7.1,0,0,1-4.069.988,11.082,11.082,0,0,1-2.849-.3,14.464,14.464,0,0,1-1.514-.474l.539-2.592a14.043,14.043,0,0,0,1.655.539,8.548,8.548,0,0,0,2.2.256" fill="#fff"/>
      <path id="Path_1525" data-name="Path 1525" d="M221.775,404.436a1.777,1.777,0,0,1-.564,1.385,1.918,1.918,0,0,1-1.335.514,1.946,1.946,0,0,1-1.36-.514,1.775,1.775,0,0,1-.565-1.385,1.811,1.811,0,0,1,.565-1.412,1.95,1.95,0,0,1,1.36-.513,1.922,1.922,0,0,1,1.335.513,1.813,1.813,0,0,1,.564,1.412m-.333,17.35h-3.106V408.362h3.106Z" fill="#fff"/>
      <path id="Path_1526" data-name="Path 1526" d="M243.976,415.087a9.5,9.5,0,0,1-.4,2.823,6.573,6.573,0,0,1-1.142,2.208,5.07,5.07,0,0,1-1.861,1.437,5.972,5.972,0,0,1-2.528.514,6.276,6.276,0,0,1-1.745-.231,6.457,6.457,0,0,1-1.309-.514v5.21h-3.106V408.8q.95-.257,2.336-.487a17.676,17.676,0,0,1,2.926-.232,7.837,7.837,0,0,1,2.849.488,5.95,5.95,0,0,1,2.143,1.4,6.175,6.175,0,0,1,1.36,2.207,8.436,8.436,0,0,1,.475,2.913m-3.182.052a5.012,5.012,0,0,0-.937-3.235,3.664,3.664,0,0,0-3.016-1.155c-.292,0-.6.014-.911.039a4.99,4.99,0,0,0-.937.167v7.674a4.729,4.729,0,0,0,1.091.526,4.229,4.229,0,0,0,1.45.245,2.778,2.778,0,0,0,2.476-1.156,5.449,5.449,0,0,0,.784-3.1" fill="#fff"/>
      <path id="Path_1527" data-name="Path 1527" d="M254.984,411.16a9.979,9.979,0,0,0-1.064-.269,7.847,7.847,0,0,0-1.579-.142,6.193,6.193,0,0,0-1.091.1,6.5,6.5,0,0,0-.808.179v10.754h-3.106V409a17.153,17.153,0,0,1,2.246-.629,14.047,14.047,0,0,1,2.99-.3q.307,0,.719.038c.273.027.547.061.821.1s.539.094.795.153.462.116.617.167Zm-3.5-4.415-3.76-3.593,1.232-1.36,2.528,2.079,2.554-2.079,1.206,1.36Z" fill="#fff"/>
      <path id="Path_1528" data-name="Path 1528" d="M257.058,415.139a8.411,8.411,0,0,1,.527-3.106,6.51,6.51,0,0,1,1.4-2.22,5.791,5.791,0,0,1,2-1.335,6.211,6.211,0,0,1,2.311-.45,5.534,5.534,0,0,1,4.324,1.72,7.448,7.448,0,0,1,1.553,5.134c0,.171,0,.363-.013.577s-.022.407-.038.578h-8.855a3.536,3.536,0,0,0,1.142,2.5,4.336,4.336,0,0,0,2.939.886,9.664,9.664,0,0,0,2.066-.2,8.459,8.459,0,0,0,1.476-.437l.41,2.541a4.865,4.865,0,0,1-.706.27,9.956,9.956,0,0,1-1.026.257c-.385.077-.8.14-1.245.192a11.95,11.95,0,0,1-1.361.077,8.251,8.251,0,0,1-3.08-.526,5.728,5.728,0,0,1-2.155-1.463,5.979,5.979,0,0,1-1.258-2.208,9,9,0,0,1-.411-2.784m9.009-1.386a4.111,4.111,0,0,0-.179-1.22,2.961,2.961,0,0,0-.527-1,2.482,2.482,0,0,0-.847-.667,2.69,2.69,0,0,0-1.193-.244,2.775,2.775,0,0,0-1.258.27,2.858,2.858,0,0,0-.911.706,3.235,3.235,0,0,0-.577,1,5.4,5.4,0,0,0-.283,1.155Z" fill="#fff"/>
      <path id="Path_1529" data-name="Path 1529" d="M270.691,426.561c-.223,0-.535-.023-.937-.065a4.141,4.141,0,0,1-1.065-.244l.41-2.541a4.516,4.516,0,0,0,1.361.18,1.714,1.714,0,0,0,1.514-.629,3.33,3.33,0,0,0,.436-1.887V408.362h3.106v13.065a5.316,5.316,0,0,1-1.245,3.876,4.82,4.82,0,0,1-3.58,1.258m5.158-22.125a1.777,1.777,0,0,1-.564,1.385,1.918,1.918,0,0,1-1.335.514,1.952,1.952,0,0,1-1.361-.514,1.777,1.777,0,0,1-.564-1.385,1.813,1.813,0,0,1,.564-1.412,1.956,1.956,0,0,1,1.361-.513,1.922,1.922,0,0,1,1.335.513,1.813,1.813,0,0,1,.564,1.412" fill="#fff"/>
      <path id="Path_1530" data-name="Path 1530" d="M278.772,415.139a8.431,8.431,0,0,1,.526-3.106,6.526,6.526,0,0,1,1.4-2.22,5.782,5.782,0,0,1,2-1.335,6.21,6.21,0,0,1,2.31-.45,5.536,5.536,0,0,1,4.325,1.72,7.448,7.448,0,0,1,1.553,5.134c0,.171-.005.363-.013.577s-.022.407-.038.578h-8.855a3.532,3.532,0,0,0,1.142,2.5,4.334,4.334,0,0,0,2.939.886,9.664,9.664,0,0,0,2.066-.2,8.458,8.458,0,0,0,1.476-.437l.41,2.541a4.867,4.867,0,0,1-.706.27,9.96,9.96,0,0,1-1.026.257c-.385.077-.8.14-1.245.192a11.963,11.963,0,0,1-1.361.077,8.25,8.25,0,0,1-3.08-.526,5.728,5.728,0,0,1-2.155-1.463,5.979,5.979,0,0,1-1.258-2.208,9,9,0,0,1-.411-2.784m9.009-1.386a4.11,4.11,0,0,0-.179-1.22,2.962,2.962,0,0,0-.527-1,2.482,2.482,0,0,0-.847-.667,2.69,2.69,0,0,0-1.193-.244,2.775,2.775,0,0,0-1.258.27,2.858,2.858,0,0,0-.911.706,3.216,3.216,0,0,0-.577,1,5.34,5.34,0,0,0-.283,1.155Z" fill="#fff"/>
      <path id="Path_1531" data-name="Path 1531" d="M297.748,419.553a4.087,4.087,0,0,0,1.8-.3,1.048,1.048,0,0,0,.564-1.014,1.315,1.315,0,0,0-.6-1.1,8.831,8.831,0,0,0-1.989-.95,15.657,15.657,0,0,1-1.553-.655,5.252,5.252,0,0,1-1.219-.808,3.289,3.289,0,0,1-.808-1.117,3.868,3.868,0,0,1-.3-1.6A3.5,3.5,0,0,1,295,409.094a5.84,5.84,0,0,1,3.7-1.066,11.4,11.4,0,0,1,2.258.219,11.015,11.015,0,0,1,1.617.424l-.565,2.515a7.577,7.577,0,0,0-1.308-.423,7.877,7.877,0,0,0-1.848-.194,3.211,3.211,0,0,0-1.54.322,1.053,1.053,0,0,0-.591.988,1.421,1.421,0,0,0,.116.59,1.261,1.261,0,0,0,.4.475,4.02,4.02,0,0,0,.745.436,10.862,10.862,0,0,0,1.129.449,17.443,17.443,0,0,1,1.874.809,5.073,5.073,0,0,1,1.271.9,3.084,3.084,0,0,1,.731,1.143,4.561,4.561,0,0,1,.231,1.54,3.319,3.319,0,0,1-1.424,2.913,7.1,7.1,0,0,1-4.069.988,11.082,11.082,0,0,1-2.849-.3,14.543,14.543,0,0,1-1.514-.474l.539-2.592a14.039,14.039,0,0,0,1.655.539,8.548,8.548,0,0,0,2.195.256m.757-12.808-3.76-3.593,1.232-1.36,2.528,2.079,2.554-2.079,1.206,1.36Z" fill="#fff"/>
      <path id="Path_1532" data-name="Path 1532" d="M309.777,418.372a5.977,5.977,0,0,1,.052.642v.411a11.557,11.557,0,0,1-.5,3.285,14.073,14.073,0,0,1-1.4,3.209l-2.438-.668a12.571,12.571,0,0,0,.834-2.913,16.852,16.852,0,0,0,.219-2.5c0-.206-.005-.463-.013-.77s-.022-.539-.039-.694Z" fill="#fff"/>
      <path id="Path_1533" data-name="Path 1533" d="M329.335,410.544q-.513.539-1.347,1.515t-1.784,2.169q-.951,1.194-1.912,2.489t-1.733,2.477h6.93v2.592H318.812v-1.925a24.407,24.407,0,0,1,1.412-2.233q.846-1.206,1.745-2.426t1.784-2.322q.885-1.1,1.578-1.925h-6.185v-2.593h10.189Z" fill="#fff"/>
      <path id="Path_1534" data-name="Path 1534" d="M337.227,408.028a7.582,7.582,0,0,1,2.592.386,4.148,4.148,0,0,1,1.682,1.078,4.048,4.048,0,0,1,.9,1.681,8.215,8.215,0,0,1,.27,2.169v8.137q-.72.153-2.169.372a22.361,22.361,0,0,1-3.273.218,9.872,9.872,0,0,1-2.207-.231,4.627,4.627,0,0,1-1.707-.745,3.5,3.5,0,0,1-1.1-1.334,4.637,4.637,0,0,1-.4-2.028,3.912,3.912,0,0,1,.449-1.951,3.671,3.671,0,0,1,1.219-1.3,5.252,5.252,0,0,1,1.784-.719,10,10,0,0,1,2.117-.219,9.743,9.743,0,0,1,1.078.064,10.3,10.3,0,0,1,1.207.218v-.512a4.005,4.005,0,0,0-.129-1.028,2.135,2.135,0,0,0-.449-.859,2.1,2.1,0,0,0-.847-.577,3.666,3.666,0,0,0-1.322-.206,11.691,11.691,0,0,0-1.976.154,8.7,8.7,0,0,0-1.463.359l-.385-2.515a12.054,12.054,0,0,1,1.72-.41,13.453,13.453,0,0,1,2.412-.207m.257,11.577a11.523,11.523,0,0,0,2.182-.155v-3.439a5.944,5.944,0,0,0-.745-.153,6.856,6.856,0,0,0-1.078-.078,7.069,7.069,0,0,0-1.039.078,3.192,3.192,0,0,0-.95.282,1.717,1.717,0,0,0-.68.577,1.611,1.611,0,0,0-.257.936,1.643,1.643,0,0,0,.693,1.528,3.577,3.577,0,0,0,1.874.424" fill="#fff"/>
      <path id="Path_1535" data-name="Path 1535" d="M358.626,415.087a9.5,9.5,0,0,1-.4,2.823,6.591,6.591,0,0,1-1.142,2.208,5.078,5.078,0,0,1-1.861,1.437,5.98,5.98,0,0,1-2.529.514,6.281,6.281,0,0,1-1.745-.231,6.48,6.48,0,0,1-1.309-.514v5.21h-3.105V408.8q.95-.257,2.335-.487a17.685,17.685,0,0,1,2.926-.232,7.833,7.833,0,0,1,2.849.488,5.942,5.942,0,0,1,2.143,1.4,6.16,6.16,0,0,1,1.36,2.207,8.411,8.411,0,0,1,.476,2.913m-3.183.052a5.012,5.012,0,0,0-.937-3.235,3.664,3.664,0,0,0-3.016-1.155c-.291,0-.594.014-.911.039a4.99,4.99,0,0,0-.937.167v7.674a4.748,4.748,0,0,0,1.091.526,4.229,4.229,0,0,0,1.45.245,2.779,2.779,0,0,0,2.477-1.156,5.449,5.449,0,0,0,.783-3.1" fill="#fff"/>
      <path id="Path_1536" data-name="Path 1536" d="M374.123,415.062a8.666,8.666,0,0,1-.462,2.9,6.407,6.407,0,0,1-1.309,2.232,5.878,5.878,0,0,1-2.04,1.438,6.579,6.579,0,0,1-2.631.514,6.482,6.482,0,0,1-2.618-.514,5.9,5.9,0,0,1-2.028-1.438,6.573,6.573,0,0,1-1.322-2.232,8.465,8.465,0,0,1-.475-2.9,8.359,8.359,0,0,1,.475-2.888,6.488,6.488,0,0,1,1.335-2.22,5.9,5.9,0,0,1,2.04-1.425,6.569,6.569,0,0,1,2.593-.5,6.664,6.664,0,0,1,2.605.5,5.738,5.738,0,0,1,2.04,1.425,6.589,6.589,0,0,1,1.322,2.22,8.36,8.36,0,0,1,.475,2.888m-3.182,0a5.241,5.241,0,0,0-.86-3.17,3.05,3.05,0,0,0-4.8,0,5.241,5.241,0,0,0-.86,3.17,5.346,5.346,0,0,0,.86,3.208,3.031,3.031,0,0,0,4.8,0,5.346,5.346,0,0,0,.86-3.208" fill="#fff"/>
      <path id="Path_1537" data-name="Path 1537" d="M375.589,426.561c-.223,0-.535-.023-.937-.065a4.15,4.15,0,0,1-1.065-.244l.411-2.541a4.509,4.509,0,0,0,1.36.18,1.714,1.714,0,0,0,1.514-.629,3.321,3.321,0,0,0,.437-1.887V408.362h3.105v13.065a5.32,5.32,0,0,1-1.244,3.876,4.822,4.822,0,0,1-3.581,1.258m5.159-22.125a1.778,1.778,0,0,1-.565,1.385,1.915,1.915,0,0,1-1.335.514,1.948,1.948,0,0,1-1.36-.514,1.775,1.775,0,0,1-.565-1.385,1.81,1.81,0,0,1,.565-1.412,1.951,1.951,0,0,1,1.36-.513,1.918,1.918,0,0,1,1.335.513,1.814,1.814,0,0,1,.565,1.412" fill="#fff"/>
      <path id="Path_1538" data-name="Path 1538" d="M390.86,421.786v-19.4l3.105-.513v6.648a8.332,8.332,0,0,1,1.194-.309,7.29,7.29,0,0,1,1.347-.128,6.971,6.971,0,0,1,2.683.449,4.238,4.238,0,0,1,1.707,1.258,4.913,4.913,0,0,1,.911,1.938,10.893,10.893,0,0,1,.269,2.515v7.546H398.97v-7.058a10.2,10.2,0,0,0-.141-1.835,3.263,3.263,0,0,0-.462-1.233,1.849,1.849,0,0,0-.86-.692,3.556,3.556,0,0,0-1.334-.219,6.367,6.367,0,0,0-1.258.129,8.853,8.853,0,0,0-.95.231v10.677Z" fill="#fff"/>
      <path id="Path_1539" data-name="Path 1539" d="M410.538,422.043a8.425,8.425,0,0,1-2.3-.308,3.532,3.532,0,0,1-1.45-.808,2.864,2.864,0,0,1-.758-1.31,6.668,6.668,0,0,1-.218-1.784V402.382l3.106-.513v15.374a4.245,4.245,0,0,0,.09.95,1.5,1.5,0,0,0,.321.655,1.435,1.435,0,0,0,.629.41,4.9,4.9,0,0,0,1.013.219Z" fill="#fff"/>
      <path id="Path_1540" data-name="Path 1540" d="M418.5,408.028a7.582,7.582,0,0,1,2.592.386,4.148,4.148,0,0,1,1.682,1.078,4.048,4.048,0,0,1,.9,1.681,8.217,8.217,0,0,1,.27,2.169v8.137q-.72.153-2.169.372a22.36,22.36,0,0,1-3.273.218,9.872,9.872,0,0,1-2.207-.231,4.627,4.627,0,0,1-1.707-.745,3.5,3.5,0,0,1-1.1-1.334,4.637,4.637,0,0,1-.4-2.028,3.912,3.912,0,0,1,.449-1.951,3.67,3.67,0,0,1,1.219-1.3,5.26,5.26,0,0,1,1.784-.719,10,10,0,0,1,2.117-.219,9.743,9.743,0,0,1,1.078.064,10.3,10.3,0,0,1,1.207.218v-.512a4.005,4.005,0,0,0-.129-1.028,2.135,2.135,0,0,0-.449-.859,2.1,2.1,0,0,0-.847-.577,3.666,3.666,0,0,0-1.322-.206,11.69,11.69,0,0,0-1.976.154,8.7,8.7,0,0,0-1.463.359l-.385-2.515a12.054,12.054,0,0,1,1.72-.41,13.454,13.454,0,0,1,2.412-.207m.257,11.577a11.523,11.523,0,0,0,2.182-.155v-3.439a5.945,5.945,0,0,0-.745-.153,6.856,6.856,0,0,0-1.078-.078,7.069,7.069,0,0,0-1.039.078,3.192,3.192,0,0,0-.95.282,1.717,1.717,0,0,0-.68.577,1.612,1.612,0,0,0-.257.936,1.642,1.642,0,0,0,.693,1.528,3.577,3.577,0,0,0,1.874.424" fill="#fff"/>
      <path id="Path_1541" data-name="Path 1541" d="M431.017,421.786q-1.29-2.642-2.642-6.07a76.281,76.281,0,0,1-2.461-7.354h3.312q.283,1.129.657,2.426t.8,2.592q.424,1.3.876,2.516t.838,2.194q.386-.973.824-2.194t.864-2.516q.424-1.295.811-2.592t.671-2.426h3.209a77.112,77.112,0,0,1-2.461,7.354q-1.354,3.426-2.642,6.07Z" fill="#fff"/>
      <path id="Path_1542" data-name="Path 1542" d="M452.387,421.375q-.9.231-2.335.476a19,19,0,0,1-3.157.243,6.942,6.942,0,0,1-2.708-.462,4.34,4.34,0,0,1-1.745-1.283,5.047,5.047,0,0,1-.938-1.963,10.44,10.44,0,0,1-.282-2.5v-7.521h3.106V415.4a5.669,5.669,0,0,0,.629,3.08,2.464,2.464,0,0,0,2.194.924q.564,0,1.194-.052a6.358,6.358,0,0,0,.937-.128V408.362h3.1Z" fill="#fff"/>
      <path id="Path_1543" data-name="Path 1543" d="M460.143,420.092a1.911,1.911,0,0,1-.6,1.463,2.16,2.16,0,0,1-2.913,0,1.929,1.929,0,0,1-.59-1.463,1.974,1.974,0,0,1,.59-1.476,2.127,2.127,0,0,1,2.913,0,1.955,1.955,0,0,1,.6,1.476" fill="#fff"/>
      <path id="Path_1544" data-name="Path 1544" d="M108.071,438.221v2.8H102.6v14.989h-3.26V441.019H93.877v-2.8Z" fill="#fff"/>
      <path id="Path_1545" data-name="Path 1545" d="M120.691,449.283a8.667,8.667,0,0,1-.462,2.9,6.422,6.422,0,0,1-1.309,2.232,5.886,5.886,0,0,1-2.041,1.438,6.588,6.588,0,0,1-2.63.513,6.507,6.507,0,0,1-2.619-.513,5.916,5.916,0,0,1-2.027-1.438,6.574,6.574,0,0,1-1.322-2.232,8.443,8.443,0,0,1-.475-2.9,8.334,8.334,0,0,1,.475-2.887,6.479,6.479,0,0,1,1.335-2.22,5.9,5.9,0,0,1,2.04-1.425,6.569,6.569,0,0,1,2.593-.5,6.664,6.664,0,0,1,2.6.5,5.738,5.738,0,0,1,2.04,1.425,6.58,6.58,0,0,1,1.322,2.22,8.358,8.358,0,0,1,.475,2.887m-3.183,0a5.243,5.243,0,0,0-.859-3.17,3.05,3.05,0,0,0-4.8,0,5.236,5.236,0,0,0-.86,3.17,5.337,5.337,0,0,0,.86,3.208,3.029,3.029,0,0,0,4.8,0,5.344,5.344,0,0,0,.859-3.208" fill="#fff"/>
      <path id="Path_1546" data-name="Path 1546" d="M128.673,460.782c-.223,0-.535-.022-.937-.064a4.15,4.15,0,0,1-1.065-.244l.411-2.541a4.511,4.511,0,0,0,1.36.179,1.716,1.716,0,0,0,1.514-.628,3.321,3.321,0,0,0,.437-1.887V442.584h3.1v13.065a5.32,5.32,0,0,1-1.244,3.876,4.826,4.826,0,0,1-3.581,1.257m5.159-22.125a1.782,1.782,0,0,1-.565,1.386,1.915,1.915,0,0,1-1.335.514,1.948,1.948,0,0,1-1.36-.514,1.778,1.778,0,0,1-.565-1.386,1.813,1.813,0,0,1,.565-1.412,1.95,1.95,0,0,1,1.36-.512,1.917,1.917,0,0,1,1.335.512,1.817,1.817,0,0,1,.565,1.412" fill="#fff"/>
      <path id="Path_1547" data-name="Path 1547" d="M136.755,449.36a8.429,8.429,0,0,1,.526-3.1,6.531,6.531,0,0,1,1.4-2.221,5.8,5.8,0,0,1,2-1.335,6.229,6.229,0,0,1,2.31-.449,5.533,5.533,0,0,1,4.325,1.72,7.445,7.445,0,0,1,1.553,5.134c0,.171,0,.363-.013.577s-.022.407-.039.578h-8.855a3.536,3.536,0,0,0,1.143,2.5,4.334,4.334,0,0,0,2.939.886,9.71,9.71,0,0,0,2.065-.205,8.535,8.535,0,0,0,1.477-.437l.41,2.541a4.915,4.915,0,0,1-.706.27,10.233,10.233,0,0,1-1.026.256c-.386.078-.8.141-1.245.193a11.963,11.963,0,0,1-1.361.077,8.251,8.251,0,0,1-3.08-.526,5.74,5.74,0,0,1-2.156-1.463,5.985,5.985,0,0,1-1.257-2.208,9.005,9.005,0,0,1-.411-2.785m9.009-1.385a4.111,4.111,0,0,0-.179-1.22,2.961,2.961,0,0,0-.527-1,2.481,2.481,0,0,0-.847-.667,2.69,2.69,0,0,0-1.193-.244,2.788,2.788,0,0,0-1.258.269,2.85,2.85,0,0,0-.911.707,3.222,3.222,0,0,0-.577,1,5.334,5.334,0,0,0-.283,1.156Z" fill="#fff"/>
      <path id="Path_1548" data-name="Path 1548" d="M162.114,438.657a1.782,1.782,0,0,1-.565,1.386,1.916,1.916,0,0,1-1.335.514,1.948,1.948,0,0,1-1.36-.514,1.781,1.781,0,0,1-.564-1.386,1.816,1.816,0,0,1,.564-1.412,1.95,1.95,0,0,1,1.36-.512,1.919,1.919,0,0,1,1.335.512,1.817,1.817,0,0,1,.565,1.412m-.334,17.351h-3.106V442.584h3.106Z" fill="#fff"/>
      <path id="Path_1549" data-name="Path 1549" d="M165.768,443.021a20.8,20.8,0,0,1,2.336-.488,20.134,20.134,0,0,1,3.182-.231,7.337,7.337,0,0,1,2.747.449,4.292,4.292,0,0,1,1.758,1.258,4.811,4.811,0,0,1,.924,1.95,10.884,10.884,0,0,1,.269,2.5v7.546h-3.1v-7.059a10.2,10.2,0,0,0-.142-1.835,3.257,3.257,0,0,0-.462-1.232,1.841,1.841,0,0,0-.872-.692,3.663,3.663,0,0,0-1.348-.219,10.417,10.417,0,0,0-1.232.077q-.642.078-.949.129v10.831h-3.106Z" fill="#fff"/>
      <path id="Path_1550" data-name="Path 1550" d="M186.306,436.091a8.348,8.348,0,0,1,1.9.192,10.674,10.674,0,0,1,1.232.347l-.591,2.566a4.951,4.951,0,0,0-1.013-.334,5.787,5.787,0,0,0-1.246-.127,3.241,3.241,0,0,0-1.257.217,2.063,2.063,0,0,0-.822.6,2.329,2.329,0,0,0-.436.936,5.248,5.248,0,0,0-.128,1.194v.9h4.876v2.593h-4.876v10.831h-3.106V441.635a5.776,5.776,0,0,1,1.36-4.068,5.32,5.32,0,0,1,4.107-1.476" fill="#fff"/>
      <path id="Path_1551" data-name="Path 1551" d="M203.408,449.283a8.667,8.667,0,0,1-.462,2.9,6.422,6.422,0,0,1-1.309,2.232,5.886,5.886,0,0,1-2.041,1.438,6.6,6.6,0,0,1-2.631.513,6.5,6.5,0,0,1-2.618-.513,5.906,5.906,0,0,1-2.027-1.438A6.574,6.574,0,0,1,191,452.184a8.443,8.443,0,0,1-.475-2.9A8.334,8.334,0,0,1,191,446.4a6.48,6.48,0,0,1,1.335-2.22,5.9,5.9,0,0,1,2.04-1.425,6.567,6.567,0,0,1,2.592-.5,6.66,6.66,0,0,1,2.605.5,5.75,5.75,0,0,1,2.041,1.425,6.6,6.6,0,0,1,1.322,2.22,8.358,8.358,0,0,1,.475,2.887m-3.183,0a5.236,5.236,0,0,0-.86-3.17,3.049,3.049,0,0,0-4.8,0,5.236,5.236,0,0,0-.86,3.17,5.337,5.337,0,0,0,.86,3.208,3.028,3.028,0,0,0,4.8,0,5.337,5.337,0,0,0,.86-3.208" fill="#fff"/>
      <path id="Path_1552" data-name="Path 1552" d="M214.357,445.382a10.288,10.288,0,0,0-1.065-.27,7.926,7.926,0,0,0-1.579-.141,6.274,6.274,0,0,0-1.09.1,6.489,6.489,0,0,0-.809.18v10.754h-3.1V443.226a17.133,17.133,0,0,1,2.245-.629,14.056,14.056,0,0,1,2.99-.295c.206,0,.445.013.719.038s.548.061.821.1.54.093.8.153.462.116.616.167Z" fill="#fff"/>
      <path id="Path_1553" data-name="Path 1553" d="M225.006,448.949a6.538,6.538,0,0,0-.526-3.041,2.05,2.05,0,0,0-1.963-.937,9.233,9.233,0,0,0-1.13.077q-.615.078-.924.129v10.831h-3.1V443.021a20.709,20.709,0,0,1,2.348-.488,19.5,19.5,0,0,1,3.068-.231,6.116,6.116,0,0,1,2.271.359,4.443,4.443,0,0,1,1.476.949,6.016,6.016,0,0,1,.718-.435,7.409,7.409,0,0,1,.976-.424,9.012,9.012,0,0,1,1.142-.321,5.883,5.883,0,0,1,1.219-.128,6.4,6.4,0,0,1,2.579.449,3.8,3.8,0,0,1,1.592,1.258,4.894,4.894,0,0,1,.8,1.95,13.408,13.408,0,0,1,.218,2.5v7.546h-3.106v-7.059a6.687,6.687,0,0,0-.513-3.041,2.047,2.047,0,0,0-1.976-.937,4.089,4.089,0,0,0-1.412.244,4.605,4.605,0,0,0-1,.475,6.817,6.817,0,0,1,.282,1.36,14.319,14.319,0,0,1,.077,1.54v7.418h-3.106Z" fill="#fff"/>
      <path id="Path_1554" data-name="Path 1554" d="M244.074,442.25a7.586,7.586,0,0,1,2.592.386,4.138,4.138,0,0,1,1.681,1.078,4.044,4.044,0,0,1,.9,1.681,8.259,8.259,0,0,1,.269,2.169V455.7q-.719.154-2.169.372a22.2,22.2,0,0,1-3.272.218,9.888,9.888,0,0,1-2.208-.23,4.655,4.655,0,0,1-1.706-.745,3.507,3.507,0,0,1-1.1-1.334,4.638,4.638,0,0,1-.4-2.029,3.908,3.908,0,0,1,.45-1.95,3.671,3.671,0,0,1,1.218-1.3,5.289,5.289,0,0,1,1.784-.719,10.075,10.075,0,0,1,2.118-.218,9.517,9.517,0,0,1,1.078.064,10.049,10.049,0,0,1,1.206.218v-.513a4.048,4.048,0,0,0-.128-1.027,2.134,2.134,0,0,0-.449-.859,2.1,2.1,0,0,0-.848-.578,3.677,3.677,0,0,0-1.321-.206,11.677,11.677,0,0,0-1.976.155,8.643,8.643,0,0,0-1.464.359l-.384-2.516a12.35,12.35,0,0,1,1.719-.41,13.476,13.476,0,0,1,2.413-.206m.257,11.576a11.521,11.521,0,0,0,2.181-.154v-3.439a6.075,6.075,0,0,0-.744-.154A6.871,6.871,0,0,0,244.69,450a7.08,7.08,0,0,0-1.04.077,3.246,3.246,0,0,0-.949.282,1.719,1.719,0,0,0-.68.578,1.6,1.6,0,0,0-.257.936,1.642,1.642,0,0,0,.693,1.527,3.568,3.568,0,0,0,1.874.424" fill="#fff"/>
      <path id="Path_1555" data-name="Path 1555" d="M253.234,439.042l3.106-.513v4.055h4.774v2.593H256.34v5.467a3.963,3.963,0,0,0,.513,2.309,2.032,2.032,0,0,0,1.745.694,5.679,5.679,0,0,0,1.5-.18,10.07,10.07,0,0,0,1.039-.334l.514,2.464a11.755,11.755,0,0,1-1.412.475,7.659,7.659,0,0,1-2.053.244,6.491,6.491,0,0,1-2.4-.385,3.541,3.541,0,0,1-1.527-1.116,4.431,4.431,0,0,1-.8-1.772,10.994,10.994,0,0,1-.231-2.374Z" fill="#fff"/>
      <path id="Path_1556" data-name="Path 1556" d="M267.715,438.657a1.782,1.782,0,0,1-.565,1.386,1.914,1.914,0,0,1-1.334.514,1.948,1.948,0,0,1-1.361-.514,1.781,1.781,0,0,1-.564-1.386,1.816,1.816,0,0,1,.564-1.412,1.951,1.951,0,0,1,1.361-.512,1.917,1.917,0,0,1,1.334.512,1.817,1.817,0,0,1,.565,1.412m-.334,17.351h-3.106V442.584h3.106Z" fill="#fff"/>
      <path id="Path_1557" data-name="Path 1557" d="M274.475,447.82q.591-.617,1.258-1.322t1.309-1.411q.641-.707,1.219-1.36t.988-1.143h3.671q-1.281,1.438-2.7,2.978t-2.855,3a17.672,17.672,0,0,1,1.613,1.552q.846.912,1.639,1.938t1.486,2.054a20.957,20.957,0,0,1,1.152,1.9H279.66q-.462-.795-1.065-1.668t-1.3-1.694q-.691-.822-1.411-1.553a12.2,12.2,0,0,0-1.412-1.245v6.16H271.37V436.6l3.105-.513Z" fill="#fff"/>
      <path id="Path_1558" data-name="Path 1558" d="M290.075,442.25a7.592,7.592,0,0,1,2.593.386,4.152,4.152,0,0,1,1.681,1.078,4.042,4.042,0,0,1,.9,1.681,8.217,8.217,0,0,1,.27,2.169V455.7q-.72.154-2.169.372a22.217,22.217,0,0,1-3.273.218,9.879,9.879,0,0,1-2.207-.23,4.66,4.66,0,0,1-1.707-.745,3.507,3.507,0,0,1-1.1-1.334,4.639,4.639,0,0,1-.4-2.029,3.908,3.908,0,0,1,.449-1.95,3.682,3.682,0,0,1,1.219-1.3,5.28,5.28,0,0,1,1.784-.719,10.066,10.066,0,0,1,2.117-.218,9.5,9.5,0,0,1,1.078.064,10.064,10.064,0,0,1,1.207.218v-.513a4,4,0,0,0-.129-1.027,2.135,2.135,0,0,0-.449-.859,2.094,2.094,0,0,0-.847-.578,3.687,3.687,0,0,0-1.322-.206,11.686,11.686,0,0,0-1.976.155,8.6,8.6,0,0,0-1.463.359l-.385-2.516a12.371,12.371,0,0,1,1.72-.41,13.456,13.456,0,0,1,2.412-.206m.257,11.576a11.54,11.54,0,0,0,2.182-.154v-3.439a6.1,6.1,0,0,0-.745-.154,6.853,6.853,0,0,0-1.078-.077,7.066,7.066,0,0,0-1.039.077,3.253,3.253,0,0,0-.95.282,1.726,1.726,0,0,0-.68.578,1.612,1.612,0,0,0-.257.936,1.642,1.642,0,0,0,.693,1.527,3.57,3.57,0,0,0,1.874.424" fill="#fff"/>
      <path id="Path_1559" data-name="Path 1559" d="M303.2,454.314a1.912,1.912,0,0,1-.6,1.463,2.16,2.16,0,0,1-2.913,0,1.931,1.931,0,0,1-.59-1.463,1.974,1.974,0,0,1,.59-1.476,2.127,2.127,0,0,1,2.913,0,1.954,1.954,0,0,1,.6,1.476" fill="#fff"/>
    </g>
  </g>
</svg>
