<svg id="Group_370" data-name="Group 370" xmlns="http://www.w3.org/2000/svg" xmlns:xlink="http://www.w3.org/1999/xlink" width="307.275" height="153.626" viewBox="0 0 307.275 153.626">
  <defs>
    <clipPath id="clip-path">
      <rect id="Rectangle_169" data-name="Rectangle 169" width="307.275" height="153.626" fill="none"/>
    </clipPath>
  </defs>
  <rect id="Rectangle_168" data-name="Rectangle 168" width="307.275" height="153.626" fill="#fff"/>
  <g id="Group_369" data-name="Group 369">
    <g id="Group_368" data-name="Group 368" clip-path="url(#clip-path)">
      <path id="Path_1560" data-name="Path 1560" d="M56.181,21.351a7.53,7.53,0,1,1-7.522-7.527,7.524,7.524,0,0,1,7.522,7.527" transform="translate(27.767 9.335)" fill="#4267ac"/>
      <path id="Path_1561" data-name="Path 1561" d="M83.7,21.351a7.522,7.522,0,1,1-7.522-7.527A7.524,7.524,0,0,1,83.7,21.351" transform="translate(46.363 9.335)" fill="#008fa0"/>
      <path id="Path_1562" data-name="Path 1562" d="M29.131,48.885a7.53,7.53,0,1,1-7.539-7.525,7.528,7.528,0,0,1,7.539,7.525" transform="translate(9.501 27.929)" fill="#008fa0"/>
      <path id="Path_1563" data-name="Path 1563" d="M56.181,48.885a7.53,7.53,0,1,1-7.522-7.525,7.524,7.524,0,0,1,7.522,7.525" transform="translate(27.767 27.929)" fill="#d10a2d"/>
      <path id="Path_1564" data-name="Path 1564" d="M83.7,48.885a7.522,7.522,0,1,1-7.522-7.525A7.524,7.524,0,0,1,83.7,48.885" transform="translate(46.363 27.929)" fill="#008fa0"/>
      <path id="Path_1565" data-name="Path 1565" d="M29.131,76.42a7.53,7.53,0,1,1-7.539-7.527,7.524,7.524,0,0,1,7.539,7.527" transform="translate(9.501 46.52)" fill="#008fa0"/>
      <path id="Path_1566" data-name="Path 1566" d="M56.181,76.42a7.53,7.53,0,1,1-7.522-7.527,7.521,7.521,0,0,1,7.522,7.527" transform="translate(27.767 46.52)" fill="#d10a2d"/>
      <path id="Path_1567" data-name="Path 1567" d="M83.7,76.42a7.522,7.522,0,1,1-7.522-7.527A7.521,7.521,0,0,1,83.7,76.42" transform="translate(46.363 46.52)" fill="#d10a2d"/>
      <path id="Path_1568" data-name="Path 1568" d="M29.131,21.351a7.53,7.53,0,1,1-7.539-7.527,7.527,7.527,0,0,1,7.539,7.527" transform="translate(9.501 9.335)" fill="#4267ac"/>
      <path id="Path_1569" data-name="Path 1569" d="M111.228,33.624h-5.763V20.815h5.763Zm-2.9-13.91a3.244,3.244,0,0,1-2.278-.871,2.983,2.983,0,0,1-.921-2.2,2.925,2.925,0,0,1,.921-2.178,3.267,3.267,0,0,1,2.278-.9,3.142,3.142,0,0,1,2.262.9,2.836,2.836,0,0,1,.955,2.178,2.891,2.891,0,0,1-.955,2.2,3.122,3.122,0,0,1-2.262.871" transform="translate(70.99 9.161)" fill="#161615"/>
      <path id="Path_1570" data-name="Path 1570" d="M165.562,66.164h5.763V78.973h-5.763Zm2.9,13.913a3.215,3.215,0,0,1,2.278.869,2.92,2.92,0,0,1,.921,2.2,2.864,2.864,0,0,1-.921,2.178,3.238,3.238,0,0,1-2.278.9,3.142,3.142,0,0,1-2.262-.9,2.821,2.821,0,0,1-.938-2.178,2.875,2.875,0,0,1,.938-2.2,3.12,3.12,0,0,1,2.262-.869" transform="translate(111.593 44.678)" fill="#008fa0"/>
      <path id="Path_1571" data-name="Path 1571" d="M151.547,32.56h-6V25.67l-2.563,3.741v.075h-3.015v-.075l-2.563-3.741v6.89h-6V15.141h4.741l5.327,6.967,5.327-6.967h4.741Z" transform="translate(88.735 10.224)" fill="#161615"/>
      <path id="Path_1572" data-name="Path 1572" d="M174.146,32.56h-6.014l-.017-4.252L161.33,15.141h6.634l3.116,6.1,3.183-6.1H180.9l-6.785,13.168Z" transform="translate(108.939 10.224)" fill="#161615"/>
      <path id="Path_1573" data-name="Path 1573" d="M113.26,43.175H107.6l-2.881-4.356h4.657l1.072,1.385,1.055-1.385h4.657Zm1.826,1.948a5.8,5.8,0,0,1,3.25,4.97h-6.1a1.551,1.551,0,0,0-1.592-1.231c-.72,0-1.072.23-1.072.668,0,.332.285.563.821.69l3.233.846c2.714.715,4.992,2,4.992,5.225a5.138,5.138,0,0,1-2.178,4.408,9.76,9.76,0,0,1-5.863,1.563,11.223,11.223,0,0,1-4.121-.667,7.374,7.374,0,0,1-1.977-1.049,7.026,7.026,0,0,1-2.362-4.589H108.2c.218.948,1.022,1.409,2.379,1.409.871,0,1.307-.23,1.307-.665,0-.281-.318-.511-.9-.665l-2.965-.823c-3.568-.972-5.177-2.407-5.177-5.173a5.233,5.233,0,0,1,2.044-4.381,8.8,8.8,0,0,1,5.428-1.588,10.86,10.86,0,0,1,4.774,1.05" transform="translate(68.957 26.213)" fill="#161615"/>
      <path id="Path_1574" data-name="Path 1574" d="M146.888,59.6H133V42.185h6v12.3h7.89Z" transform="translate(89.809 28.486)" fill="#161615"/>
      <path id="Path_1575" data-name="Path 1575" d="M169.011,48.565h6.617v4.609h-6.617v1.565h7.89V59.6H163.03V42.184H176.9v4.868h-7.89Z" transform="translate(110.087 28.485)" fill="#161615"/>
      <path id="Path_1576" data-name="Path 1576" d="M119.283,85.158h-4.724l-.017-.077-6.115-6.838v6.915h-6V67.739h4.741l6.115,6.994V67.739h6Z" transform="translate(69.166 45.741)" fill="#161615"/>
      <path id="Path_1577" data-name="Path 1577" d="M140.618,68.682h-5.562l2.4-4.614h5.729Zm-.05,18.956h-6V70.218h6Z" transform="translate(90.869 43.262)" fill="#161615"/>
    </g>
  </g>
</svg>
