<svg xmlns="http://www.w3.org/2000/svg" width="74.269" height="92.325" viewBox="0 0 74.269 92.325">
  <path id="Path_819" data-name="Path 819" d="M0,81.951H58.508V0H0Zm5.318-71.39H29.254v5.068H5.318Zm0,8.552H42.555v5.068H5.318Zm0,35.464H21.471v1.267H5.318Zm16.153,20.4H5.318V73.711H21.471Zm7.077-2.534H5.318V71.177h23.23Zm0-2.534H5.318V68.643h23.23Zm0-2.534H5.318V66.11h23.23Zm0-2.534H5.318V63.575h23.23Zm0-11.531H5.318V52.044h23.23Zm0-2.534H5.318V49.51h23.23Zm0-2.534H5.318V46.977h23.23Zm0-2.534H5.318V44.443h23.23Zm0-2.534H5.318V41.909h23.23Zm0-2.534H5.318V39.375h23.23Zm0-2.534H5.318V36.841h23.23Zm0-2.534H5.318V34.308h23.23Zm19.266,39.4H31.661V73.711H47.815Zm7.077-2.534H31.661V71.177h23.23Zm0-2.534H31.661V68.643h23.23Zm0-2.534H31.661V66.11h23.23Zm0-2.534H31.661V63.575h23.23Zm0-5.649H31.661V34.308h23.23ZM36.785,53.159l.64-2.932-1.162-4.263-1.477,6.563c-.141.505-.449.545-.924.546s-.783-.04-.924-.546l-.649-2.884-.636-2.826v7.348a3.161,3.161,0,0,0,1.343.2h1.733c1.13,0,1.8-.144,2.057-1.207M34,41.8c.145-.517.463-.546.957-.546h.1c.494,0,.829.037.973.554l2.232,8.243c.26,1.063.927,1.207,2.057,1.207h1.086l-.287-1.293c-.437-.006-.722-.064-.857-.545l-2.289-8.243a1.31,1.31,0,0,0-1.216-1.152,4.224,4.224,0,0,0-.808-.062H34.117c-1.13,0-1.827.144-2.058,1.206l-.406,1.8,1.065,4.709Zm9.271,5.021-.433-1.925-.137-.608c-.231-1.062-.928-1.206-2.058-1.206H39.416l.282,1.293H39.8c.494,0,.813.028.957.545l1.012,4.637.367,1.684.419,1.922a1.366,1.366,0,0,0,.714,1.007ZM48.4,53.159l.64-2.932-1.162-4.263-1.477,6.563c-.141.505-.449.545-.924.546s-.783-.04-.924-.546l-.649-2.884-.636-2.826v7.348a3.161,3.161,0,0,0,1.343.2h1.733c1.13,0,1.8-.144,2.057-1.207M45.621,41.8c.145-.517.463-.546.957-.546h.1c.494,0,.829.037.973.554l2.232,8.243c.26,1.063.927,1.207,2.057,1.207h1.086l-.287-1.293c-.437-.006-.722-.064-.856-.545l-2.289-8.243a1.31,1.31,0,0,0-1.216-1.152,4.224,4.224,0,0,0-.808-.062H45.737c-1.13,0-1.827.144-2.058,1.206l-.406,1.8,1.065,4.709Zm9.271,5.021-.433-1.925-.137-.608c-.231-1.062-.928-1.206-2.058-1.206H51.036l.282,1.293h.105c.494,0,.813.028.957.545l1.012,4.637.367,1.684.419,1.922a1.366,1.366,0,0,0,.714,1.007Z" transform="matrix(0.978, -0.208, 0.208, 0.978, 0, 12.165)" fill="#e95e43"/>
</svg>
