<svg id="Group_324" data-name="Group 324" xmlns="http://www.w3.org/2000/svg" xmlns:xlink="http://www.w3.org/1999/xlink" width="86.576" height="77.69" viewBox="0 0 86.576 77.69">
  <defs>
    <clipPath id="clip-path">
      <rect id="Rectangle_118" data-name="Rectangle 118" width="86.576" height="77.69" fill="none"/>
    </clipPath>
  </defs>
  <g id="Group_323" data-name="Group 323" clip-path="url(#clip-path)">
    <path id="Path_1081" data-name="Path 1081" d="M11.878,68.1l-2.541.015a5.03,5.03,0,0,1-1.969-.256l-.057-9.83L8.266,61.8l.974,3.852c.211.675.662.725,1.358.722s1.146-.06,1.35-.738l2.116-8.792L15.8,62.541l-.915,3.928c-.373,1.424-1.348,1.622-3.006,1.631M10.716,51.292c.208-.693.675-.734,1.4-.738h.146c.724,0,1.216.043,1.431.734l3.334,11.007c.39,1.419,1.368,1.607,3.025,1.6l1.591-.009-.429-1.728c-.641,0-1.06-.08-1.261-.722L16.534,50.425a1.86,1.86,0,0,0-1.792-1.531,6.639,6.639,0,0,0-1.186-.077l-2.684.015c-1.657.01-2.677.209-3.009,1.63l-.581,2.416,1.6,6.29Zm13.629,6.64-.65-2.572-.206-.811c-.347-1.419-1.37-1.606-3.026-1.6l-1.8.011.423,1.727h.154c.723,0,1.191.031,1.407.721L22.165,61.6l.551,2.25.63,2.566a1.849,1.849,0,0,0,1.055,1.34Zm7.572,8.44.915-3.928L31.1,56.751,28.98,65.544c-.2.677-.654.732-1.349.737s-1.148-.048-1.359-.722L25.3,61.707l-.954-3.775.056,9.829a5.03,5.03,0,0,0,1.97.257L28.911,68c1.656-.01,2.632-.208,3.006-1.632M27.748,51.194c.209-.693.676-.733,1.4-.738h.146c.723,0,1.216.043,1.43.734L34.059,62.2c.389,1.42,1.368,1.607,3.024,1.6l1.592-.01-.43-1.728c-.641,0-1.06-.08-1.26-.721L33.566,50.329A1.859,1.859,0,0,0,31.774,48.8a6.719,6.719,0,0,0-1.185-.077l-2.685.016c-1.656.009-2.677.208-3.008,1.63l-.582,2.415,1.6,6.291Zm13.629,6.64-.65-2.572-.2-.811c-.348-1.419-1.37-1.606-3.027-1.6l-1.8.011.422,1.727h.154c.724,0,1.191.03,1.407.72L39.2,61.507l.551,2.25.63,2.566a1.847,1.847,0,0,0,1.055,1.34Zm7.572,8.44.915-3.928-1.735-5.691-2.116,8.792c-.2.677-.654.732-1.35.737s-1.147-.048-1.358-.721l-.974-3.853-.954-3.775.057,9.829a5.027,5.027,0,0,0,1.969.257l2.541-.015c1.657-.01,2.632-.208,3.006-1.632M44.782,51.1c.208-.693.675-.733,1.4-.738h.146c.724,0,1.216.043,1.431.733L51.091,62.1c.39,1.42,1.368,1.607,3.025,1.6l1.591-.01-.429-1.728c-.641,0-1.06-.079-1.261-.721L50.6,50.231A1.86,1.86,0,0,0,48.807,48.7a6.713,6.713,0,0,0-1.185-.077l-2.684.016c-1.657.009-2.677.208-3.009,1.63l-.581,2.415,1.6,6.291Zm13.628,6.64-.649-2.572-.206-.811c-.347-1.419-1.37-1.606-3.026-1.6l-1.8.01.423,1.728h.154c.723,0,1.191.03,1.407.72l1.518,6.195.551,2.25.63,2.567a1.847,1.847,0,0,0,1.055,1.34Zm7.573,8.44.915-3.928-1.736-5.691-2.116,8.792c-.2.677-.654.732-1.349.737s-1.148-.047-1.359-.721l-.973-3.853-.955-3.775.057,9.829a5.012,5.012,0,0,0,1.97.257l2.541-.015c1.656-.01,2.632-.208,3.006-1.632M61.814,51c.209-.693.676-.734,1.4-.738h.146c.723,0,1.216.043,1.43.733L68.125,62c.389,1.419,1.368,1.607,3.024,1.6l1.592-.009-.43-1.729c-.641,0-1.06-.079-1.26-.721L67.632,50.134A1.859,1.859,0,0,0,65.841,48.6a6.719,6.719,0,0,0-1.185-.077l-2.685.016c-1.656.01-2.677.208-3.008,1.63l-.582,2.415,1.6,6.291Zm13.629,6.639-.65-2.572-.2-.811c-.348-1.418-1.37-1.606-3.027-1.6l-1.8.01.422,1.728h.154c.724,0,1.191.03,1.407.72l1.519,6.195.551,2.25.63,2.567a1.848,1.848,0,0,0,1.055,1.34Z" transform="translate(-0.183 -1.218)" fill="#e5481d"/>
    <path id="Path_1082" data-name="Path 1082" d="M83.27,48.529h0a40.732,40.732,0,1,0-79.962,0A15.157,15.157,0,0,0,15.161,73.137V74.21a3.478,3.478,0,1,0,6.957,0V41.753a3.478,3.478,0,1,0-6.957,0v1.068A15.1,15.1,0,0,0,8.629,44.3a35.441,35.441,0,0,1-.18-3.553,34.84,34.84,0,1,1,69.5,3.554,15.1,15.1,0,0,0-6.532-1.477V41.753a3.477,3.477,0,0,0-6.953,0V74.21a3.461,3.461,0,0,0,.21,1.193,3.476,3.476,0,0,0,6.743-1.189V73.141A15.157,15.157,0,0,0,83.269,48.534" transform="translate(0 0)" fill="#002732"/>
  </g>
</svg>
